<?xml version="1.0" encoding="UTF-8" standalone="no"?>
<!DOCTYPE svg  PUBLIC '-//W3C//DTD SVG 1.1//EN'  'http://www.w3.org/Graphics/SVG/1.1/DTD/svg11.dtd'>
<svg xmlns="http://www.w3.org/2000/svg">
<defs>
<font id="Webnar-Thin" horiz-adv-x="544">
<font-face underline-position="-50" font-weight="250" descent="-200" panose-1="0 0 3 0 0 0 0 0 0 0" units-per-em="1000" unicode-range="U+0020-25CA" bbox="-100 -215 1317 958" x-height="500" underline-thickness="50" font-family="Webnar" ascent="800" cap-height="700"/>
<missing-glyph horiz-adv-x="1000"/>
<glyph glyph-name=".notdef" horiz-adv-x="1000"/>
<glyph glyph-name=".null" horiz-adv-x="0"/>
<glyph glyph-name="nonmarkingreturn" horiz-adv-x="333"/>
<glyph glyph-name="space" horiz-adv-x="190" unicode=" "/>
<glyph glyph-name="exclam" horiz-adv-x="125" unicode="!" d="M46 51h33q6 0 6 -6v-39q0 -6 -6 -6h-33q-6 0 -6 6v39q0 6 6 6zM53 700h19q5 0 5 -5l-3 -501q0 -5 -5 -5h-13q-5 0 -5 5l-3 501q0 5 5 5z"/>
<glyph glyph-name="quotedbl" horiz-adv-x="221" unicode='&quot;' d="M157 700h19q5 0 5 -5l-3 -190q0 -5 -5 -5h-13q-5 0 -5 5l-3 190q0 5 5 5zM45 700h19q5 0 5 -5l-3 -190q0 -5 -5 -5h-13q-5 0 -5 5l-3 190q0 5 5 5z"/>
<glyph glyph-name="numbersign" horiz-adv-x="541" unicode="#" d="M361 419h-146l-37 -138h147zM394 443h100q8 0 6 -7l-3 -10q-2 -7 -9 -7h-100l-37 -138h101q8 0 6 -7l-3 -10q-2 -7 -9 -7h-101l-66 -250q-2 -7 -10 -7h-10q-9 0 -6 9l66 248h-147l-66 -250q-2 -7 -10 -7h-10q-9 0 -6 9l66 248h-101q-7 0 -5 7l2 10q2 7 9 7h101l36 138 h-101q-7 0 -5 7l2 10q2 7 10 7h101l65 250q2 7 10 7h10q9 0 6 -9l-65 -248h147l65 250q2 7 10 7h10q9 0 6 -9z"/>
<glyph glyph-name="dollar" horiz-adv-x="549" unicode="$" d="M249 383l51 -17q46 -15 73.5 -28t57.5 -34.5t44 -53.5t14 -75v-10q0 -78 -59.5 -127t-150.5 -51v-122q0 -5 -5 -5h-15q-5 0 -5 5v122q-91 2 -174 51q-6 3 -6 10v13q0 5 5 3q95 -53 186 -53h8q83 0 137 44t54 116v4q0 38 -12 65t-39.5 46.5t-53 30t-71.5 26.5l-51 17 q-88 29 -132.5 69t-44.5 105v11q0 75 58 120.5t136 47.5v122q0 5 5 5h15q5 0 5 -5v-122q88 -3 164 -46q6 -3 6 -10v-13q0 -6 -5 -3q-86 48 -174 48h-8q-70 0 -123.5 -40t-53.5 -110v-5q0 -55 39 -88.5t125 -62.5z"/>
<glyph glyph-name="percent" horiz-adv-x="950" unicode="%" d="M747 366h-9q-66 0 -102 -44.5t-36 -117.5v-31q0 -73 36 -117.5t102 -44.5h9q66 0 102 44.5t36 117.5v31q0 73 -36 117.5t-102 44.5zM737 390h11q76 0 119 -51t43 -136v-29q0 -85 -43 -136t-119 -51h-11q-76 0 -119 51t-43 136v29q0 85 43 136t119 51zM203 334h9 q66 0 102 44.5t36 117.5v31q0 73 -36 117.5t-102 44.5h-9q-66 0 -102 -44.5t-36 -117.5v-31q0 -73 36 -117.5t102 -44.5zM316 0h-11q-10 0 -6 9l325 684q4 7 10 7h11q7 0 7 -5q0 -1 -0.5 -2t-0.5 -2l-325 -684q-4 -7 -10 -7zM213 310h-11q-76 0 -119 51t-43 136v29 q0 85 43 136t119 51h11q76 0 119 -51t43 -136v-29q0 -85 -43 -136t-119 -51z"/>
<glyph glyph-name="ampersand" horiz-adv-x="683" unicode="&amp;" d="M467 351l-192 1q-56 0 -97 -15t-62 -40.5t-31 -52t-10 -55.5v-9q0 -73 48.5 -121t132.5 -48h8q99 0 203 93v247zM280 713h7q61 0 112 -24q6 -3 6 -10v-13q0 -6 -5 -3q-56 26 -114 26h-5q-79 0 -128.5 -41.5t-49.5 -110.5v-10q0 -57 48 -104t143 -47l173 -1v228q0 7 4 8 l13 3q8 2 8 -5v-234h156q5 0 5 -5v-14q0 -5 -5 -5h-156v-252q0 -45 18 -66.5t60 -21.5h4q33 0 72 17q7 4 7 -5v-10q0 -7 -6 -9q-38 -17 -72 -17h-6q-90 0 -100 85q-97 -85 -204 -85h-10q-94 0 -149.5 53.5t-55.5 133.5v21q0 56 36 105.5t111 67.5q-58 21 -88.5 64t-30.5 89 v22q0 75 56.5 122.5t145.5 47.5z"/>
<glyph glyph-name="quotesingle" horiz-adv-x="109" unicode="&apos;" d="M45 700h19q5 0 5 -5l-3 -190q0 -5 -5 -5h-13q-5 0 -5 5l-3 190q0 5 5 5z"/>
<glyph glyph-name="parenleft" horiz-adv-x="251" unicode="(" d="M105 506v-439q0 -148 101 -183q5 -2 5 -5v-14q0 -5 -4 -5h-1q-56 12 -91 61t-35 132v467q0 83 35 132t91 61h1q4 0 4 -5v-14q0 -3 -5 -5q-101 -35 -101 -183z"/>
<glyph glyph-name="parenright" horiz-adv-x="251" unicode=")" d="M146 67v439q0 148 -101 183q-5 2 -5 5v14q0 5 4 5h1q56 -12 91 -61t35 -132v-467q0 -83 -35 -132t-91 -61h-1q-4 0 -4 5v14q0 3 5 5q101 35 101 183z"/>
<glyph glyph-name="asterisk" horiz-adv-x="402" unicode="*" d="M355 603l6 -19q2 -5 -3 -7l-138 -46l98 -112q4 -3 0 -7l-16 -13q-2 -1 -4 -1t-3 1l-94 119l-95 -119q-1 -1 -3 -1t-4 1l-16 13q-3 4 0 7l99 112l-139 46q-5 2 -3 7l6 19q2 6 8 4l135 -53l-4 141q0 5 5 5h21q5 0 5 -5l-3 -141l134 53q6 2 8 -4z"/>
<glyph glyph-name="plus" horiz-adv-x="545" unicode="+" d="M285 335h215q5 0 5 -5v-14q0 -5 -5 -5h-215v-190q0 -5 -5 -5h-15q-5 0 -5 5v190h-215q-5 0 -5 5v14q0 5 5 5h215v190q0 5 5 5h15q5 0 5 -5v-190z"/>
<glyph glyph-name="comma" horiz-adv-x="136" unicode="," d="M55 51h35q6 0 6 -6v-34q0 -6 -1 -10l-30 -164q0 -4 -5 -4h-15q-5 0 -5 9l29 158h-14q-6 0 -6 6v39q0 6 6 6z"/>
<glyph glyph-name="hyphen" horiz-adv-x="392" unicode="-" d="M45 335h302q5 0 5 -5v-14q0 -5 -5 -5h-302q-5 0 -5 5v14q0 5 5 5z"/>
<glyph glyph-name="period" horiz-adv-x="125" unicode="." d="M46 51h33q6 0 6 -6v-39q0 -6 -6 -6h-33q-6 0 -6 6v39q0 6 6 6z"/>
<glyph glyph-name="slash" horiz-adv-x="288" unicode="/" d="M231 700h10q7 0 7 -5v-1q-1 -2 -1 -3l-180 -684q-2 -7 -10 -7h-10q-7 0 -7 5v1q1 2 1 3l180 684q2 7 10 7z"/>
<glyph glyph-name="zero" horiz-adv-x="657" unicode="0" d="M335 689h-13q-100 0 -158.5 -69.5t-58.5 -209.5v-120q0 -140 58.5 -209.5t158.5 -69.5h13q100 0 158.5 69.5t58.5 209.5v120q0 140 -58.5 209.5t-158.5 69.5zM321 713h15q110 0 175.5 -75t65.5 -222v-132q0 -147 -65.5 -222t-175.5 -75h-15q-110 0 -175.5 75t-65.5 222 v132q0 147 65.5 222t175.5 75z"/>
<glyph glyph-name="one" horiz-adv-x="375" unicode="1" d="M205 24h125q5 0 5 -5v-14q0 -5 -5 -5h-285q-5 0 -5 5v14q0 5 5 5h135v647l-135 -57q-5 -2 -5 4v15q0 6 5 8l134 57q4 2 10 2h11q5 0 5 -5v-671z"/>
<glyph glyph-name="two" horiz-adv-x="549" unicode="2" d="M94 24h390q5 0 5 -5v-14q0 -5 -5 -5h-419q-5 0 -5 5v16q0 4 2 6l176 181q42 43 57.5 59t54 59.5t55 69.5t32.5 61t16 62v5q0 79 -53 122t-124 43h-8q-88 0 -174 -48q-5 -3 -5 3v13q0 7 6 10q79 46 172 46h10q81 0 141 -48.5t60 -134.5v-11q0 -16 -4.5 -34t-10.5 -34 t-18.5 -37t-21 -34.5t-26.5 -35.5t-26.5 -32.5t-29.5 -33t-27 -29t-27 -28t-22 -22.5z"/>
<glyph glyph-name="three" horiz-adv-x="532" unicode="3" d="M335 368q75 -18 111 -67.5t36 -105.5v-21q0 -79 -62.5 -133t-162.5 -54h-10q-99 0 -178 46q-6 3 -6 10v13q0 6 5 3q86 -48 180 -48h8q90 0 145.5 48.5t55.5 120.5v9q0 29 -10 55.5t-31 52t-62 40.5t-97 15h-93q-5 0 -5 5v14q0 5 5 5h74q95 0 143 47t48 104v10 q0 69 -50 110.5t-131 41.5h-8q-89 0 -175 -48q-5 -3 -5 3v13q0 7 6 10q79 46 173 46h10q90 0 147.5 -47.5t57.5 -122.5v-22q0 -46 -30.5 -89t-88.5 -64z"/>
<glyph glyph-name="four" horiz-adv-x="593" unicode="4" d="M71 219h327v453zM394 700h24q5 0 5 -5v-476h125q5 0 5 -5v-14q0 -5 -5 -5h-125v-190q0 -5 -5 -5h-15q-5 0 -5 5v190h-353q-5 0 -5 5v16q0 4 2 6l341 473q4 5 11 5z"/>
<glyph glyph-name="five" horiz-adv-x="532" unicode="5" d="M270 409q107 0 159.5 -56.5t52.5 -145.5v-19q0 -84 -62 -142.5t-163 -58.5h-10q-102 0 -181 46q-6 3 -6 10v13q0 6 5 3q86 -48 183 -48h8q92 0 146.5 53t54.5 130v7q0 82 -45 133t-143 51q-26 0 -56 -5t-65.5 -14t-43.5 -11q-7 -1 -12 5l-6 8q-2 4 -2 7v320q0 5 5 5h339 q5 0 5 -5v-14q0 -5 -5 -5h-319v-294q120 27 161 27z"/>
<glyph glyph-name="six" horiz-adv-x="579" unicode="6" d="M504 211v7q0 79 -47.5 126.5t-134.5 47.5q-99 0 -216 -70l-1 -46q0 -123 53 -194t146 -71h7q90 0 141.5 58.5t51.5 141.5zM323 416q96 0 151 -53.5t55 -138.5v-19q0 -90 -58.5 -154t-158.5 -64h-9q-102 0 -162.5 77t-60.5 206v19q0 102 16 180t40.5 123t58.5 73.5 t64.5 38t64.5 9.5h10q78 0 157 -46q6 -3 6 -10v-13q0 -6 -5 -3q-86 48 -159 48h-8q-28 0 -53 -7.5t-54 -29.5t-51 -58t-38.5 -98.5t-21.5 -144.5q114 65 216 65z"/>
<glyph glyph-name="seven" horiz-adv-x="529" unicode="7" d="M45 700h439q5 0 5 -5v-16q0 -3 -2 -6l-253 -331q-3 -4 -3 -9v-328q0 -5 -5 -5h-15q-5 0 -5 5v337q0 4 3 9l248 325h-412q-5 0 -5 5v14q0 5 5 5z"/>
<glyph glyph-name="eight" horiz-adv-x="587" unicode="8" d="M311 352h-35q-106 0 -153.5 -50t-47.5 -113v-9q0 -73 57 -121t155 -48h13q98 0 155 48t57 121v9q0 63 -47.5 113t-153.5 50zM297 689h-7q-85 0 -136 -41.5t-51 -110.5v-10q0 -57 45.5 -104t134.5 -47h16q92 0 138.5 47t46.5 104v10q0 69 -51 110.5t-136 41.5zM289 713h9 q94 0 152.5 -47t58.5 -123v-22q0 -46 -30.5 -89t-88.5 -64q76 -18 111.5 -67.5t35.5 -105.5v-21q0 -80 -64.5 -133.5t-171.5 -53.5h-15q-107 0 -171.5 53.5t-64.5 133.5v21q0 56 35.5 105t111.5 67q-58 21 -88.5 64.5t-30.5 89.5v22q0 76 58.5 123t152.5 47z"/>
<glyph glyph-name="nine" horiz-adv-x="579" unicode="9" d="M275 689h-7q-90 0 -141.5 -58.5t-51.5 -141.5v-7q0 -79 47.5 -126.5t134.5 -47.5q99 0 216 70l1 46q0 123 -53 194t-146 71zM267 713h9q102 0 162.5 -77t60.5 -206v-19q0 -102 -16 -180t-40.5 -123t-58.5 -73.5t-64.5 -38t-64.5 -9.5h-10q-78 0 -157 46q-6 3 -6 10v13 q0 6 5 3q86 -48 159 -48h8q28 0 53 7.5t54 29.5t51 58t38.5 98.5t21.5 144.5q-114 -65 -216 -65q-96 0 -151 53.5t-55 138.5v19q0 90 58.5 154t158.5 64z"/>
<glyph glyph-name="colon" horiz-adv-x="125" unicode=":" d="M46 51h33q6 0 6 -6v-39q0 -6 -6 -6h-33q-6 0 -6 6v39q0 6 6 6zM46 440h33q6 0 6 -6v-39q0 -6 -6 -6h-33q-6 0 -6 6v39q0 6 6 6z"/>
<glyph glyph-name="semicolon" horiz-adv-x="136" unicode=";" d="M55 51h35q6 0 6 -6v-34q0 -6 -1 -10l-30 -164q0 -4 -5 -4h-15q-5 0 -5 9l29 158h-14q-6 0 -6 6v39q0 6 6 6zM57 440h33q6 0 6 -6v-39q0 -6 -6 -6h-33q-6 0 -6 6v39q0 6 6 6z"/>
<glyph glyph-name="less" d="M45 292l450 172h3q6 0 6 -6v-11q0 -6 -5 -8l-420 -160l420 -160q5 -2 5 -8v-11q0 -7 -6 -7l-1 1h-2l-450 172q-5 2 -5 8v10q0 6 5 8z" unicode="&lt;"/>
<glyph glyph-name="equal" d="M45 248h454q5 0 5 -5v-14q0 -5 -5 -5h-454q-5 0 -5 5v14q0 5 5 5zM45 388h454q5 0 5 -5v-14q0 -5 -5 -5h-454q-5 0 -5 5v14q0 5 5 5z" unicode="="/>
<glyph glyph-name="greater" d="M49 464l450 -172q5 -2 5 -8v-10q0 -6 -5 -8l-450 -172h-1l-2 -1q-6 0 -6 7v11q0 6 5 8l420 160l-420 160q-5 2 -5 8v11q0 6 6 6h3z" unicode="&gt;"/>
<glyph glyph-name="question" horiz-adv-x="502" unicode="?" d="M159 51h33q6 0 6 -6v-39q0 -6 -6 -6h-33q-6 0 -6 6v39q0 6 6 6zM227 713h10q102 0 163.5 -54t61.5 -134v-19q0 -77 -57 -132t-155 -55q-30 0 -62 5l-1 -130q0 -5 -5 -5h-13q-5 0 -5 5l-1 141q0 5 4 8l6 4q4 3 13 2q45 -6 57 -6q95 0 144.5 49t49.5 120v7q0 73 -54 121.5 t-147 48.5h-8q-97 0 -183 -48q-5 -3 -5 3v13q0 7 6 10q79 46 181 46z"/>
<glyph glyph-name="at" horiz-adv-x="846" unicode="@" d="M462 489h-4q-79 0 -124 -52t-45 -149v-76q0 -201 164 -201h2q94 0 176 97v330q-87 51 -169 51zM395 648h146q140 0 217.5 -74.5t77.5 -222.5v-270q0 -31 -10 -51.5t-26 -29t-27.5 -11t-23.5 -2.5h-31q-16 0 -33.5 5.5t-35.5 26.5t-18 55q-37 -43 -84.5 -65t-90.5 -22h-4 q-92 0 -140 57.5t-48 168.5v74q0 109 52 167.5t141 58.5h6q43 0 98 -17.5t89 -37.5q6 -4 6 -11v-353q0 -83 62 -83h31q62 0 62 83v251q0 141 -70.5 210t-200.5 69h-144q-130 0 -200.5 -69t-70.5 -210v-186q0 -141 70.5 -210t200.5 -69h236q5 0 5 -5v-14q0 -5 -5 -5h-237 q-140 0 -217.5 74.5t-77.5 222.5v198q0 148 77.5 222.5t217.5 74.5z"/>
<glyph glyph-name="A" horiz-adv-x="610" unicode="A" d="M303 672l-105 -299l-39 -109h291l-39 109l-105 299h-3zM295 700h19q8 0 11 -8l244 -687q2 -5 -3 -5h-14q-8 0 -11 8l-82 232h-308l-83 -232q-3 -8 -11 -8h-14q-5 0 -3 5l244 687q3 8 11 8z"/>
<glyph glyph-name="B" horiz-adv-x="603" unicode="B" d="M528 177v7q0 74 -46 121t-154 47h-203v-328h220q99 0 141 39.5t42 113.5zM500 527v4q0 72 -42.5 108.5t-138.5 36.5h-194v-300h184q97 0 144 43.5t47 107.5zM411 367q75 -18 108.5 -65.5t33.5 -111.5v-19q0 -171 -207 -171h-241q-5 0 -5 5v690q0 5 5 5h215 q205 0 205 -163v-16q0 -51 -28.5 -92.5t-85.5 -61.5z"/>
<glyph glyph-name="C" horiz-adv-x="595" unicode="C" d="M359 713h10q91 0 170 -46q6 -3 6 -10v-13q0 -6 -5 -3q-86 48 -172 48h-8q-107 0 -181 -75t-74 -212v-104q0 -137 74 -212t181 -75h8q86 0 172 48q5 3 5 -3v-13q0 -7 -6 -10q-79 -46 -170 -46h-10q-117 0 -198 80.5t-81 224.5v116q0 144 81 224.5t198 80.5z"/>
<glyph glyph-name="D" horiz-adv-x="667" unicode="D" d="M562 303v94q0 139 -65 209t-170 70h-202v-652h202q105 0 170 70t65 209zM105 700h223q115 0 187 -76t72 -221v-106q0 -145 -72 -221t-187 -76h-223q-5 0 -5 5v690q0 5 5 5z"/>
<glyph glyph-name="E" horiz-adv-x="564" unicode="E" d="M125 374h364q5 0 5 -5v-14q0 -5 -5 -5h-364v-326h384q5 0 5 -5v-14q0 -5 -5 -5h-404q-5 0 -5 5v690q0 5 5 5h404q5 0 5 -5v-14q0 -5 -5 -5h-384v-302z"/>
<glyph glyph-name="F" horiz-adv-x="564" unicode="F" d="M105 700h404q5 0 5 -5v-14q0 -5 -5 -5h-384v-302h364q5 0 5 -5v-14q0 -5 -5 -5h-364v-345q0 -5 -5 -5h-15q-5 0 -5 5v690q0 5 5 5z"/>
<glyph glyph-name="G" horiz-adv-x="653" unicode="G" d="M372 713h10q91 0 170 -46q6 -3 6 -10v-13q0 -6 -5 -3q-86 48 -172 48h-8q-110 0 -189 -75t-79 -212v-104q0 -137 79 -212t189 -75h8q80 0 152 37v286q0 5 5 5h15q5 0 5 -5v-291q0 -7 -6 -10q-79 -46 -170 -46h-10q-120 0 -206.5 81t-85.5 224v116q0 144 86 224.5 t206 80.5z"/>
<glyph glyph-name="H" horiz-adv-x="683" unicode="H" d="M563 700h15q5 0 5 -5v-690q0 -5 -5 -5h-15q-5 0 -5 5v345h-433v-345q0 -5 -5 -5h-15q-5 0 -5 5v690q0 5 5 5h15q5 0 5 -5v-321h433v321q0 5 5 5z"/>
<glyph glyph-name="I" horiz-adv-x="225" unicode="I" d="M105 700h15q5 0 5 -5v-690q0 -5 -5 -5h-15q-5 0 -5 5v690q0 5 5 5z"/>
<glyph glyph-name="J" horiz-adv-x="389" unicode="J" d="M269 700h15q5 0 5 -5v-541q0 -167 -134 -167h-5q-58 0 -105 32q-5 3 -5 9v15q0 7 6 3q53 -35 105 -35h3q110 0 110 149v535q0 5 5 5z"/>
<glyph glyph-name="K" horiz-adv-x="604" unicode="K" d="M291 354l272 -346q1 -1 1 -3q0 -5 -4 -5h-18q-4 0 -7 3l-268 339h-142v-337q0 -5 -5 -5h-15q-5 0 -5 5v690q0 5 5 5h15q5 0 5 -5v-329h143l247 331q3 3 7 3h17q8 0 3 -8z"/>
<glyph glyph-name="L" horiz-adv-x="534" unicode="L" d="M125 24h364q5 0 5 -5v-14q0 -5 -5 -5h-384q-5 0 -5 5v690q0 5 5 5h15q5 0 5 -5v-671z"/>
<glyph glyph-name="M" horiz-adv-x="830" unicode="M" d="M708 700h17q5 0 5 -5v-690q0 -5 -5 -5h-15q-5 0 -5 5v649h-2l-143 -232l-135 -214q-3 -6 -10 -6h-5q-7 0 -10 6l-135 214l-143 232h-2v-649q0 -5 -5 -5h-15q-5 0 -5 5v690q0 5 5 5h17q7 0 10 -6l285 -457h1l285 457q3 6 10 6z"/>
<glyph glyph-name="N" horiz-adv-x="682" unicode="N" d="M567 700h15q5 0 5 -5v-690q0 -5 -5 -5h-21q-5 0 -8 4l-432 657h-1v-656q0 -5 -5 -5h-15q-5 0 -5 5v690q0 5 5 5h21q5 0 8 -4l432 -657h1v656q0 5 5 5z"/>
<glyph glyph-name="O" horiz-adv-x="693" unicode="O" d="M353 689h-13q-105 0 -170 -70t-65 -209v-120q0 -139 65 -209t170 -70h13q105 0 170 70t65 209v120q0 139 -65 209t-170 70zM339 713h15q115 0 187 -76t72 -221v-132q0 -145 -72 -221t-187 -76h-15q-115 0 -187 76t-72 221v132q0 145 72 221t187 76z"/>
<glyph glyph-name="P" horiz-adv-x="630" unicode="P" d="M525 489v12q0 85 -53 130t-172 45h-175v-378h175q118 0 171.5 52t53.5 139zM105 700h196q249 0 249 -193v-24q0 -94 -61 -151.5t-188 -57.5h-176v-269q0 -5 -5 -5h-15q-5 0 -5 5v690q0 5 5 5z"/>
<glyph glyph-name="Q" horiz-adv-x="693" unicode="Q" d="M340 11h13q105 0 170 70t65 209v120q0 139 -65 209t-170 70h-13q-105 0 -170 -70t-65 -209v-120q0 -139 65 -209t170 -70zM613 416v-132q0 -193 -126 -264l124 -124q3 -4 0 -7l-11 -10q-2 -2 -4 -2q-1 0 -3 2l-129 129q-50 -21 -110 -21h-15q-115 0 -187 76t-72 221v132 q0 145 72 221t187 76h15q115 0 187 -76t72 -221z"/>
<glyph glyph-name="R" horiz-adv-x="614" unicode="R" d="M125 676v-358h175q117 0 171 51.5t54 131.5v7q0 84 -50 126t-170 42h-180zM105 700h201q129 0 186.5 -47.5t57.5 -138.5v-19q0 -75 -46 -129t-141 -68l210 -292q1 -1 1 -3q0 -3 -4 -3h-17q-6 0 -9 5l-208 289h-211v-289q0 -5 -5 -5h-15q-5 0 -5 5v690q0 5 5 5z"/>
<glyph glyph-name="S" horiz-adv-x="549" unicode="S" d="M237 360q-88 29 -132.5 69t-44.5 105v11q0 77 60.5 122.5t140.5 45.5h10q93 0 172 -46q6 -3 6 -10v-13q0 -6 -5 -3q-86 48 -174 48h-8q-70 0 -123.5 -40t-53.5 -110v-5q0 -55 39 -88.5t125 -62.5l51 -17q46 -15 73.5 -28t57.5 -34.5t44 -53.5t14 -75v-10 q0 -79 -61 -128.5t-154 -49.5h-10q-96 0 -184 51q-6 3 -6 10v13q0 5 5 3q95 -53 186 -53h8q83 0 137 44t54 116v4q0 38 -12 65t-39.5 46.5t-53 30t-71.5 26.5z"/>
<glyph glyph-name="T" horiz-adv-x="599" unicode="T" d="M45 700h509q5 0 5 -5v-14q0 -5 -5 -5h-242v-671q0 -5 -5 -5h-15q-5 0 -5 5v671h-242q-5 0 -5 5v14q0 5 5 5z"/>
<glyph glyph-name="U" horiz-adv-x="688" unicode="U" d="M574 700h14q5 0 5 -5v-447q0 -127 -63.5 -194t-175.5 -67h-15q-112 0 -175.5 67t-63.5 194v447q0 5 5 5h14q5 0 5 -5v-441q0 -120 56.5 -181.5t159.5 -61.5h13q103 0 159.5 61.5t56.5 181.5v441q0 5 5 5z"/>
<glyph glyph-name="V" horiz-adv-x="602" unicode="V" d="M544 700h14q5 0 3 -5l-240 -687q-3 -8 -11 -8h-19q-8 0 -11 8l-240 687q-2 5 3 5h14q8 0 11 -8l232 -664h2l84 240l147 424q3 8 11 8z"/>
<glyph glyph-name="W" horiz-adv-x="960" unicode="W" d="M903 700h13q5 0 3 -5l-204 -687q-3 -8 -12 -8h-17q-9 0 -12 8l-80 270l-112 385h-3l-114 -385l-80 -270q-3 -8 -12 -8h-17q-9 0 -12 8l-204 687q-2 5 3 5h13q8 0 11 -8l196 -663h3l116 392l80 271q3 8 11 8h13q8 0 11 -8l80 -271l117 -392h2l196 663q3 8 11 8z"/>
<glyph glyph-name="X" horiz-adv-x="580" unicode="X" d="M512 700h17q2 0 3.5 -2t0.5 -4l-224 -337l231 -351v-2q0 -4 -4 -4h-17q-6 0 -9 5l-218 333h-3l-218 -333q-3 -5 -9 -5h-17q-5 0 -5 4v1l1 1l231 351l-224 337q-4 6 4 6h17q6 0 9 -5l157 -238l54 -81h3l54 81l157 238q3 5 9 5z"/>
<glyph glyph-name="Y" horiz-adv-x="613" unicode="Y" d="M552 700h17q5 0 3 -5l-254 -453v-237q0 -5 -5 -5h-14q-5 0 -5 5v237l-254 453q-2 5 3 5h17q7 0 10 -6l235 -419h2l235 419q3 6 10 6z"/>
<glyph glyph-name="Z" horiz-adv-x="566" unicode="Z" d="M85 24h421q5 0 5 -5v-14q0 -5 -5 -5h-446q-5 0 -5 5v16q0 2 2 6l419 649h-402q-5 0 -5 5v14q0 5 5 5h427q5 0 5 -5v-16q0 -2 -2 -6z"/>
<glyph glyph-name="bracketleft" horiz-adv-x="312" unicode="[" d="M125 -103h142q5 0 5 -5v-14q0 -5 -5 -5h-162q-5 0 -5 5v817q0 5 5 5h162q5 0 5 -5v-14q0 -5 -5 -5h-142v-779z"/>
<glyph glyph-name="backslash" horiz-adv-x="288" unicode="\" d="M47 700h10q8 0 10 -7l180 -684q0 -1 1 -3v-1q0 -5 -7 -5h-10q-8 0 -10 7l-180 684q0 1 -1 3v1q0 5 7 5z"/>
<glyph glyph-name="bracketright" horiz-adv-x="312" unicode="]" d="M45 700h162q5 0 5 -5v-817q0 -5 -5 -5h-162q-5 0 -5 5v14q0 5 5 5h142v779h-142q-5 0 -5 5v14q0 5 5 5z"/>
<glyph glyph-name="asciicircum" horiz-adv-x="369" unicode="^" d="M198 708l131 -342v-3q0 -6 -6 -6h-11q-6 0 -8 5l-118 312h-2l-118 -312q-2 -5 -8 -5h-11q-7 0 -7 6v1l1 2l131 342q2 5 8 5h10q6 0 8 -5z"/>
<glyph glyph-name="underscore" d="M45 -47h454q5 0 5 -5v-14q0 -5 -5 -5h-454q-5 0 -5 5v14q0 5 5 5z" unicode="_"/>
<glyph glyph-name="grave" horiz-adv-x="180" unicode="`" d="M69 951l71 -158v-3q0 -5 -4 -5h-8q-6 0 -10 7l-77 157q0 1 -1 3q0 6 7 6h11q8 0 11 -7z"/>
<glyph glyph-name="a" horiz-adv-x="488" unicode="a" d="M385 274l-126 -4q-194 -7 -194 -136v-5q0 -54 38 -86t102 -32h4q94 0 176 97v166zM243 513h6q87 0 124 -46t37 -141v-321q0 -5 -5 -5h-15q-5 0 -5 5v69q-37 -43 -84.5 -65t-90.5 -22h-6q-75 0 -119.5 38.5t-44.5 104.5v4q0 81 57.5 119.5t176.5 42.5l111 4v27 q0 83 -30 122.5t-107 39.5h-4q-79 0 -160 -43q-5 -2 -5 3v13q0 7 6 10q31 17 76 29t82 12z"/>
<glyph glyph-name="b" horiz-adv-x="547" unicode="b" d="M452 212v76q0 98 -43.5 149.5t-125.5 51.5h-2q-94 0 -176 -97v-330q87 -51 169 -51h4q80 0 127 52.5t47 148.5zM280 513h4q92 0 142.5 -58t50.5 -168v-74q0 -108 -54 -167t-144 -59h-6q-43 0 -98 17.5t-89 37.5q-6 4 -6 11v679q0 5 5 5h15q5 0 5 -5v-306q37 43 84.5 65 t90.5 22z"/>
<glyph glyph-name="c" horiz-adv-x="507" unicode="c" d="M285 513h11q72 0 137 -41q6 -3 6 -10v-13q0 -5 -5 -3q-72 43 -139 43h-9q-82 0 -136.5 -53t-54.5 -148v-76q0 -95 54.5 -148t136.5 -53h9q67 0 139 43q5 2 5 -3v-13q0 -7 -6 -10q-65 -41 -137 -41h-11q-92 0 -153.5 59.5t-61.5 166.5v74q0 107 61.5 166.5t153.5 59.5z "/>
<glyph glyph-name="d" horiz-adv-x="547" unicode="d" d="M266 489h-2q-82 0 -125.5 -51.5t-43.5 -149.5v-76q0 -98 43.5 -149.5t125.5 -51.5h2q94 0 176 97v284q-82 97 -176 97zM447 737h15q5 0 5 -5v-727q0 -5 -5 -5h-15q-5 0 -5 5v69q-37 -43 -84.5 -65t-90.5 -22h-4q-92 0 -142.5 58t-50.5 168v74q0 110 50.5 168t142.5 58h4 q43 0 90.5 -22t84.5 -65v306q0 5 5 5z"/>
<glyph glyph-name="e" horiz-adv-x="534" unicode="e" d="M280 489h-9q-78 0 -126.5 -57t-49.5 -153h346q0 210 -161 210zM270 513h11q91 0 138 -57.5t47 -168.5v-27q0 -5 -5 -5h-366v-62q0 -84 53.5 -133t137.5 -49h4q75 0 156 43q5 2 5 -3v-13q0 -7 -6 -10q-75 -41 -154 -41h-6q-94 0 -154.5 55.5t-60.5 151.5v82 q0 109 55.5 173t144.5 64z"/>
<glyph glyph-name="f" horiz-adv-x="344" unicode="f" d="M308 733q6 -2 6 -9v-10q0 -8 -7 -5q-39 17 -76 17h-4q-42 0 -71 -28t-29 -83v-115h156q5 0 5 -5v-14q0 -5 -5 -5h-156v-471q0 -5 -5 -5h-15q-5 0 -5 5v471h-67q-5 0 -5 5v14q0 5 5 5h67v114q0 68 35.5 102t88.5 34h6q38 0 76 -17z"/>
<glyph glyph-name="g" horiz-adv-x="542" unicode="g" d="M259 11h2q94 0 176 97v330q-87 51 -169 51h-4q-79 0 -124 -52t-45 -149v-76q0 -201 164 -201zM456 458q6 -4 6 -11v-440q0 -92 -46.5 -139.5t-136.5 -47.5h-6q-79 0 -154 41q-6 3 -6 10v13q0 6 5 3q81 -43 156 -43h4q159 0 159 162v68q-37 -43 -84.5 -65t-90.5 -22h-4 q-92 0 -140 57.5t-48 168.5v74q0 109 52 167.5t141 58.5h6q43 0 98 -17.5t89 -37.5z"/>
<glyph glyph-name="h" horiz-adv-x="543" unicode="h" d="M290 513h4q171 0 171 -188v-320q0 -5 -5 -5h-15q-5 0 -5 5v321q0 80 -34 121.5t-113 41.5h-2q-90 0 -184 -87v-397q0 -5 -5 -5h-15q-5 0 -5 5v727q0 5 5 5h15q5 0 5 -5v-299q40 35 90 57.5t93 22.5z"/>
<glyph glyph-name="i" horiz-adv-x="201" unicode="i" d="M94 500h15q5 0 5 -5v-490q0 -5 -5 -5h-15q-5 0 -5 5v490q0 5 5 5zM88 651h27q6 0 6 -6v-39q0 -6 -6 -6h-27q-6 0 -6 6v39q0 6 6 6z"/>
<glyph glyph-name="j" horiz-adv-x="269" unicode="j" d="M162 500h15q5 0 5 -5v-587q0 -46 -24 -67t-58 -21h-6q-29 0 -58 13q-6 2 -6 9v10q0 8 7 5q30 -13 58 -13h4q23 0 40.5 15t17.5 48v588q0 5 5 5zM156 651h27q6 0 6 -6v-39q0 -6 -6 -6h-27q-6 0 -6 6v39q0 6 6 6z"/>
<glyph glyph-name="k" horiz-adv-x="461" unicode="k" d="M242 258l188 -249q1 -1 1 -4q0 -5 -5 -5h-16q-5 0 -8 4l-183 242h-112v-241q0 -5 -5 -5h-15q-5 0 -5 5v727q0 5 5 5h15q5 0 5 -5v-462h113l162 226q4 4 8 4h15q4 0 5 -3t-1 -6z"/>
<glyph glyph-name="l" horiz-adv-x="185" unicode="l" d="M87 737h15q5 0 5 -5v-727q0 -5 -5 -5h-15q-5 0 -5 5v727q0 5 5 5z"/>
<glyph glyph-name="m" horiz-adv-x="885" unicode="m" d="M639 513h4q88 0 126 -47.5t38 -140.5v-320q0 -5 -5 -5h-15q-5 0 -5 5v321q0 82 -31 122.5t-109 40.5h-2q-94 0 -190 -93q6 -31 6 -71v-320q0 -5 -5 -5h-15q-5 0 -5 5v321q0 82 -31 122.5t-109 40.5h-2q-90 0 -184 -87v-397q0 -5 -5 -5h-15q-5 0 -5 5v490q0 5 5 5h15 q5 0 5 -5v-62q40 35 90 57.5t93 22.5h4q120 0 151 -92q44 42 97 67t99 25z"/>
<glyph glyph-name="n" horiz-adv-x="539" unicode="n" d="M288 513h4q89 0 129 -47.5t40 -140.5v-320q0 -5 -5 -5h-15q-5 0 -5 5v321q0 81 -33.5 122t-111.5 41h-2q-90 0 -184 -87v-397q0 -5 -5 -5h-15q-5 0 -5 5v490q0 5 5 5h15q5 0 5 -5v-62q40 35 90 57.5t93 22.5z"/>
<glyph glyph-name="o" horiz-adv-x="563" unicode="o" d="M286 489h-9q-81 0 -131.5 -52.5t-50.5 -148.5v-76q0 -96 50.5 -148.5t131.5 -52.5h9q81 0 131.5 52.5t50.5 148.5v76q0 96 -50.5 148.5t-131.5 52.5zM276 513h11q92 0 149 -59t57 -167v-74q0 -108 -57 -167t-149 -59h-11q-92 0 -149 59t-57 167v74q0 108 57 167t149 59z "/>
<glyph glyph-name="p" horiz-adv-x="549" unicode="p" d="M285 489h-2q-94 0 -176 -97v-284q82 -97 176 -97h2q82 0 125.5 51.5t43.5 149.5v76q0 98 -43.5 149.5t-125.5 51.5zM282 513h4q92 0 142.5 -58t50.5 -168v-74q0 -110 -50.5 -168t-142.5 -58h-4q-43 0 -90.5 22t-84.5 65v-236q0 -5 -5 -5h-15q-5 0 -5 5v657q0 5 5 5h15 q5 0 5 -5v-69q37 43 84.5 65t90.5 22z"/>
<glyph glyph-name="q" horiz-adv-x="542" unicode="q" d="M268 489h-4q-79 0 -124 -52t-45 -149v-76q0 -201 164 -201h2q94 0 176 97v330q-87 51 -169 51zM263 513h6q43 0 98 -17.5t89 -37.5q6 -4 6 -11v-609q0 -5 -5 -5h-15q-5 0 -5 5v236q-37 -43 -84.5 -65t-90.5 -22h-4q-92 0 -140 57.5t-48 168.5v74q0 109 52 167.5t141 58.5 z"/>
<glyph glyph-name="r" horiz-adv-x="348" unicode="r" d="M277 513h4q18 0 30 -2q7 -1 7 -9v-11q0 -5 -9 -4q-12 2 -29 2h-2q-85 0 -173 -108v-376q0 -5 -5 -5h-15q-5 0 -5 5v490q0 5 5 5h15q5 0 5 -5v-78q79 96 172 96z"/>
<glyph glyph-name="s" horiz-adv-x="423" unicode="s" d="M204 513h11q32 0 72.5 -12t67.5 -29q6 -3 6 -10v-13q0 -5 -5 -3q-72 43 -142 43h-9q-56 0 -95.5 -27.5t-39.5 -74.5v-7q0 -22 10 -39t29 -28.5t36.5 -18.5t43.5 -15q9 -3 13 -4l24 -8q40 -13 62 -22.5t46 -25.5t34 -38.5t10 -53.5v-5q0 -64 -47 -99.5t-114 -35.5h-11 q-35 0 -78.5 12t-70.5 29q-6 3 -6 10v13q0 5 5 3q72 -43 151 -43h9q57 0 97 29t40 81v7q0 25 -9.5 44t-31 32t-37 19.5t-45.5 16.5l-24 8q-5 2 -15 5q-36 12 -54.5 19.5t-43.5 22.5t-36.5 35.5t-11.5 48.5v7q0 60 46 93.5t113 33.5z"/>
<glyph glyph-name="t" horiz-adv-x="318" unicode="t" d="M106 611l13 3h3q5 0 5 -5v-109h156q5 0 5 -5v-14q0 -5 -5 -5h-156v-377q0 -45 18 -66.5t60 -21.5h4q33 0 72 17q7 4 7 -5v-10q0 -7 -6 -9q-38 -17 -72 -17h-6q-102 0 -102 113v376h-67q-5 0 -5 5v14q0 5 5 5h67v103q0 7 4 8z"/>
<glyph glyph-name="u" horiz-adv-x="529" unicode="u" d="M431 500h15q5 0 5 -5v-490q0 -5 -5 -5h-15q-5 0 -5 5v62q-40 -35 -90 -57.5t-93 -22.5h-4q-86 0 -123.5 47.5t-37.5 140.5v320q0 5 5 5h15q5 0 5 -5v-321q0 -81 30.5 -122t106.5 -41h2q90 0 184 87v397q0 5 5 5z"/>
<glyph glyph-name="v" horiz-adv-x="483" unicode="v" d="M435 500h14q5 0 3 -5l-189 -487q-3 -8 -11 -8h-21q-9 0 -11 8l-190 487q-2 5 4 5h13q8 0 11 -8l183 -468h2l84 219l97 249q3 8 11 8z"/>
<glyph glyph-name="w" horiz-adv-x="729" unicode="w" d="M682 500h12q6 0 4 -5l-149 -487q-3 -8 -11 -8h-21q-8 0 -11 8l-141 463h-2l-96 -315l-45 -148q-3 -8 -11 -8h-21q-9 0 -11 8l-149 487q-2 5 4 5h12q8 0 11 -8l143 -466h2l77 251l65 215q2 8 11 8h18q8 0 11 -8l143 -466h2l76 251l66 215q3 8 11 8z"/>
<glyph glyph-name="x" horiz-adv-x="435" unicode="x" d="M375 500h15q4 0 5 -3t-1 -6l-160 -233l169 -249q2 -2 2 -4q0 -5 -6 -5h-15q-5 0 -8 4l-157 231h-3l-158 -231q-3 -4 -8 -4h-15q-5 0 -5 5q0 3 1 4l169 249l-161 233q-5 9 4 9h15q6 0 8 -4l119 -171l31 -45h2l149 216q4 4 8 4z"/>
<glyph glyph-name="y" horiz-adv-x="487" unicode="y" d="M439 500h14q5 0 3 -5l-215 -549q-27 -69 -54 -97.5t-74 -28.5h-6q-28 0 -59 14q-6 2 -6 9v10q0 9 7 5q32 -14 59 -14h4q34 0 57 22t45 79l21 55h-3q-8 0 -11 8l-191 487q-2 5 4 5h13q8 0 11 -8l184 -468h3l183 468q3 8 11 8z"/>
<glyph glyph-name="z" horiz-adv-x="439" unicode="z" d="M71 24h323q5 0 5 -5v-14q0 -5 -5 -5h-349q-5 0 -5 5v13q0 6 4 11l319 447h-303q-5 0 -5 5v14q0 5 5 5h329q5 0 5 -5v-13q0 -6 -4 -11z"/>
<glyph glyph-name="braceleft" horiz-adv-x="340" unicode="{" d="M153 646v-321q0 -24 -17 -39q17 -15 17 -39v-320q0 -30 28 -30h114q5 0 5 -5v-14q0 -5 -5 -5h-116q-23 0 -37 14.5t-14 36.5v320q0 30 -28 30h-55q-5 0 -5 5v14q0 5 5 5h55q28 0 28 30v321q0 23 14 37t37 14h116q5 0 5 -5v-14q0 -5 -5 -5h-114q-28 0 -28 -30z"/>
<glyph glyph-name="bar" horiz-adv-x="225" unicode="|" d="M105 700h15q5 0 5 -5v-764q0 -5 -5 -5h-15q-5 0 -5 5v764q0 5 5 5z"/>
<glyph glyph-name="braceright" horiz-adv-x="340" unicode="}" d="M240 298h55q5 0 5 -5v-14q0 -5 -5 -5h-55q-28 0 -28 -30v-320q0 -22 -14 -36.5t-37 -14.5h-116q-5 0 -5 5v14q0 5 5 5h114q28 0 28 30v320q0 24 17 39q-17 15 -17 39v321q0 30 -28 30h-114q-5 0 -5 5v14q0 5 5 5h116q23 0 37 -14t14 -37v-321q0 -30 28 -30z"/>
<glyph glyph-name="asciitilde" horiz-adv-x="462" unicode="~" d="M154 345q34 0 80 -24.5t75 -24.5q35 0 104 36q9 4 9 -5v-9q0 -4 -5 -7q-2 -1 -9.5 -5.5t-10.5 -6t-10 -5.5t-12 -6t-12 -5t-13 -4.5t-13 -3.5t-14.5 -2.5t-14.5 -0.5q-34 0 -80 24.5t-75 24.5q-35 0 -104 -36q-9 -5 -9 5v9q0 5 3 7q2 1 15.5 8.5t18 9.5t16.5 7.5t20 7.5 t19 4t22 2z"/>
<glyph glyph-name="exclamdown" horiz-adv-x="125" unicode="¡" d="M56 344h13q5 0 5 -5l3 -501q0 -5 -5 -5h-19q-5 0 -5 5l3 501q0 5 5 5zM46 533h33q6 0 6 -6v-39q0 -6 -6 -6h-33q-6 0 -6 6v39q0 6 6 6z"/>
<glyph glyph-name="cent" horiz-adv-x="507" unicode="¢" d="M295 489h-9q-82 0 -136.5 -53t-54.5 -148v-76q0 -95 54.5 -148t136.5 -53h9q67 0 139 43q5 2 5 -3v-13q0 -7 -6 -10q-60 -38 -130 -41v-122q0 -5 -5 -5h-15q-5 0 -5 5v122q-90 2 -149 61.5t-59 164.5v74q0 105 59 164.5t149 61.5v122q0 5 5 5h15q5 0 5 -5v-122 q70 -3 130 -41q6 -3 6 -10v-13q0 -5 -5 -3q-72 43 -139 43z"/>
<glyph glyph-name="sterling" horiz-adv-x="542" unicode="£" d="M94 24h393q5 0 5 -5v-14q0 -5 -5 -5h-415q-5 0 -5 5v9q0 6 2 10q21 42 29 60t18.5 61t10.5 89q0 42 -6 81h-76q-5 0 -5 5v14q0 5 5 5h72q-19 119 -19 161v11q0 90 57 146t144 56h10q82 0 161 -46q6 -3 6 -10v-13q0 -6 -5 -3q-28 16 -46.5 24.5t-50 16t-66.5 7.5h-8 q-78 0 -127.5 -50t-49.5 -134v-5q0 -45 19 -161h240q5 0 5 -5v-14q0 -5 -5 -5h-236q6 -46 6 -75q0 -66 -14 -114t-44 -102z"/>
<glyph glyph-name="currency" horiz-adv-x="603" unicode="¤" d="M92 277q0 -87 62 -148t149 -61q88 0 149.5 62t61.5 149q0 86 -61.5 148t-148.5 62h-1h-2q-87 0 -148 -62t-61 -150zM478 121l84 -83q1 -1 1 -4q0 -2 -1 -3l-12 -11q-2 -2 -3 -2t-3 2l-84 83q-68 -60 -157 -60q-92 0 -159 61l-84 -84q-2 -2 -4 -2q-1 0 -3 2l-11 11 q-2 2 -2 3q0 2 2 4l84 84q-59 67 -59 155q0 91 60 159l-85 86q-2 2 -2 3q0 2 2 4l11 11q1 1 3 1q3 0 4 -1l85 -86q66 60 158 60q90 0 156 -58l85 84q1 1 3 1t3 -1l12 -11q1 -1 1 -4q0 -2 -1 -3l-85 -84q62 -69 62 -159q0 -91 -61 -158z"/>
<glyph glyph-name="yen" horiz-adv-x="613" unicode="¥" d="M552 700h17q5 0 3 -5l-242 -432h168q5 0 5 -5v-14q0 -5 -5 -5h-180v-116h180q5 0 5 -5v-14q0 -5 -5 -5h-180v-94q0 -5 -5 -5h-14q-5 0 -5 5v94h-180q-5 0 -5 5v14q0 5 5 5h180v116h-180q-5 0 -5 5v14q0 5 5 5h169l-243 432q-2 5 3 5h17q7 0 10 -6l235 -419h2l235 419 q3 6 10 6z"/>
<glyph glyph-name="brokenbar" horiz-adv-x="225" unicode="¦" d="M105 237h15q5 0 5 -5v-301q0 -5 -5 -5h-15q-5 0 -5 5v301q0 5 5 5zM105 700h15q5 0 5 -5v-301q0 -5 -5 -5h-15q-5 0 -5 5v301q0 5 5 5z"/>
<glyph glyph-name="section" horiz-adv-x="433" unicode="§" d="M245 376l-83 28q-43 -9 -70 -36.5t-27 -69.5v-7q0 -25 9.5 -44t31 -32t37 -19.5t45.5 -16.5l83 -28q43 9 70 36.5t27 69.5v7q0 25 -9.5 44t-31 32t-37 19.5t-45.5 16.5zM211 649h11q32 0 72.5 -12t67.5 -29q6 -3 6 -10v-13q0 -5 -5 -3q-72 43 -142 43h-9q-55 0 -91 -27.5 t-36 -74.5v-7q0 -22 10 -39t29 -28.5t36.5 -18.5t43.5 -15q9 -3 13 -4l24 -8q40 -13 62 -22.5t46 -25.5t34 -38.5t10 -53.5v-5q0 -89 -87 -122q67 -34 67 -96v-7q0 -59 -43 -93t-108 -34h-11q-32 0 -72.5 12t-67.5 29q-6 3 -6 10v13q0 6 5 3q72 -43 142 -43h9q55 0 91 27.5 t36 74.5v7q0 22 -10 39t-29 28.5t-36.5 18.5t-43.5 15q-9 3 -13 4l-24 8q-40 13 -62 22.5t-46 25.5t-34 38.5t-10 53.5v5q0 87 87 122q-67 35 -67 96v7q0 59 43 93t108 34z"/>
<glyph glyph-name="dieresis" horiz-adv-x="259" unicode="¨" d="M180 851h33q6 0 6 -6v-39q0 -6 -6 -6h-33q-6 0 -6 6v39q0 6 6 6zM46 851h33q6 0 6 -6v-39q0 -6 -6 -6h-33q-6 0 -6 6v39q0 6 6 6z"/>
<glyph glyph-name="copyright" horiz-adv-x="630" unicode="©" d="M320 593h-5q-39 0 -65.5 -26.5t-26.5 -69.5v-41q0 -43 26.5 -69.5t65.5 -26.5h5q32 0 70 20q6 2 6 -3v-14q0 -5 -5 -8q-10 -6 -32 -12.5t-39 -6.5h-5q-50 0 -83.5 31.5t-33.5 88.5v41q0 57 33.5 88.5t83.5 31.5h5q17 0 39 -6.5t32 -12.5q5 -3 5 -8v-14q0 -5 -6 -3 q-38 20 -70 20zM315 726q-110 0 -180 -71.5t-70 -174.5t70 -174.5t180 -71.5t180 71.5t70 174.5t-70 174.5t-180 71.5zM315 750q120 0 197.5 -79.5t77.5 -190.5t-77.5 -190.5t-197.5 -79.5t-197.5 79.5t-77.5 190.5t77.5 190.5t197.5 79.5z"/>
<glyph glyph-name="guillemotleft" horiz-adv-x="373" unicode="«" d="M206 253l126 -149q1 -1 1 -4t-4 -3h-15q-4 0 -7 3l-124 143q-3 3 -3 8v4q0 5 3 8l124 143q3 3 7 3h15q4 0 4 -3t-1 -4zM66 253l126 -149q1 -1 1 -4t-4 -3h-15q-4 0 -7 3l-124 143q-3 3 -3 8v4q0 5 3 8l124 143q3 3 7 3h15q4 0 4 -3t-1 -4z"/>
<glyph glyph-name="logicalnot" d="M45 335h454q5 0 5 -5v-138q0 -5 -5 -5h-15q-5 0 -5 5v119h-434q-5 0 -5 5v14q0 5 5 5z" unicode="¬"/>
<glyph glyph-name="registered" horiz-adv-x="630" unicode="®" d="M241 473h82q37 0 54.5 17t17.5 41v6q0 56 -72 56h-82v-120zM218 618h105q49 0 73.5 -21.5t24.5 -59.5v-6q0 -32 -19.5 -54.5t-57.5 -27.5l87 -117q4 -6 -3 -6h-19q-3 0 -6 3l-88 119h-74v-119q0 -3 -3 -3h-20q-3 0 -3 3v286q0 3 3 3zM315 726q-110 0 -180 -71.5 t-70 -174.5t70 -174.5t180 -71.5t180 71.5t70 174.5t-70 174.5t-180 71.5zM315 750q120 0 197.5 -79.5t77.5 -190.5t-77.5 -190.5t-197.5 -79.5t-197.5 79.5t-77.5 190.5t77.5 190.5t197.5 79.5z"/>
<glyph glyph-name="macron" horiz-adv-x="339" unicode="¯" d="M45 824h249q5 0 5 -5v-14q0 -5 -5 -5h-249q-5 0 -5 5v14q0 5 5 5z"/>
<glyph glyph-name="degree" horiz-adv-x="323" unicode="°" d="M161 726q-41 0 -68.5 -27t-27.5 -67t27.5 -67.5t68.5 -27.5q42 0 69.5 27.5t27.5 67.5q0 39 -27 66.5t-68 27.5h-2zM161 750q51 0 86.5 -34.5t35.5 -83.5q0 -50 -35 -84t-87 -35q-51 0 -86 34.5t-35 84.5q0 49 35 83.5t86 34.5z"/>
<glyph glyph-name="plusminus" horiz-adv-x="545" unicode="±" d="M45 92h455q5 0 5 -5v-14q0 -5 -5 -5h-455q-5 0 -5 5v14q0 5 5 5zM285 335h215q5 0 5 -5v-14q0 -5 -5 -5h-215v-160q0 -5 -5 -5h-15q-5 0 -5 5v160h-215q-5 0 -5 5v14q0 5 5 5h215v160q0 5 5 5h15q5 0 5 -5v-160z"/>
<glyph glyph-name="acute" horiz-adv-x="180" unicode="´" d="M41 793l71 158q4 7 11 7h11q6 0 6 -6v-3l-77 -157q-3 -7 -10 -7h-8q-5 0 -5 5q0 2 1 3z"/>
<glyph glyph-name="paragraph" horiz-adv-x="520" unicode="¶" d="M218 700h197q5 0 5 -5v-857q0 -5 -5 -5h-15q-5 0 -5 5v838h-152v-838q0 -5 -5 -5h-15q-5 0 -5 5v470q-178 0 -178 192q0 102 47.5 151t130.5 49z"/>
<glyph glyph-name="periodcentered" horiz-adv-x="125" unicode="·" d="M46 314h33q6 0 6 -6v-39q0 -6 -6 -6h-33q-6 0 -6 6v39q0 6 6 6z"/>
<glyph glyph-name="cedilla" horiz-adv-x="242" unicode="¸" d="M93 0l-11 -67q20 6 40 6q36 0 58 -20t22 -54q0 -38 -26.5 -59t-67.5 -21q-33 0 -60 9q-8 2 -8 11v8q0 8 7 6q36 -9 59 -9q72 0 72 54q0 25 -15.5 37.5t-40.5 12.5q-5 0 -43 -7q-9 -2 -13 2l-3 3q-6 6 -5 10l13 78h22z"/>
<glyph glyph-name="guillemotright" horiz-adv-x="373" unicode="»" d="M307 253l-126 149q-5 7 3 7h15q4 0 7 -3l124 -143q3 -3 3 -8v-4q0 -5 -3 -8l-124 -143q-3 -3 -7 -3h-15q-8 0 -3 7zM167 253l-126 149q-1 1 -1 4t4 3h15q4 0 7 -3l124 -143q3 -3 3 -8v-4q0 -5 -3 -8l-124 -143q-3 -3 -7 -3h-15q-4 0 -4 3t1 4z"/>
<glyph glyph-name="onequarter" horiz-adv-x="836" unicode="¼" d="M684 350l-168 -224h168v224zM709 126h81q6 0 6 -5v-14q0 -5 -6 -5h-81v-97q0 -5 -5 -5h-16q-4 0 -4 5v97h-196q-6 0 -6 5v9q0 3 4 9l182 243q6 9 16 9h20q5 0 5 -5v-246zM525 700h11q6 0 6 -5v-4l-325 -684q-3 -7 -10 -7h-11q-10 0 -6 9l325 684q3 7 10 7zM162 347h82 q5 0 5 -5v-14q0 -5 -5 -5h-199q-5 0 -5 5v14q0 5 5 5h92v325l-92 -39q-5 -2 -5 4v14q0 6 5 8l91 39q4 2 10 2h11q5 0 5 -5v-348z"/>
<glyph glyph-name="onehalf" horiz-adv-x="782" unicode="½" d="M602 390h10q44 0 78.5 -28.5t34.5 -75.5v-11q0 -13 -4 -26t-8.5 -24t-16 -26t-19.5 -24t-26 -27t-27.5 -27t-33 -30.5t-34.5 -31.5l-38 -35h218q6 0 6 -5v-14q0 -5 -6 -5h-248q-6 0 -6 5v16q0 4 2 6l48 43q11 10 31 28t29.5 27t25.5 24t24 24t19.5 21.5t17 21.5 t11.5 19.5t8 20t2 19.5v5q0 40 -27.5 63t-62.5 23h-8q-47 0 -102 -30q-4 -2 -4 3v13q0 7 6 10q49 28 100 28zM525 700h11q6 0 6 -5v-4l-325 -684q-3 -7 -10 -7h-11q-10 0 -6 9l325 684q3 7 10 7zM162 347h82q5 0 5 -5v-14q0 -5 -5 -5h-199q-5 0 -5 5v14q0 5 5 5h92v325 l-92 -39q-5 -2 -5 4v14q0 6 5 8l91 39q4 2 10 2h11q5 0 5 -5v-348z"/>
<glyph glyph-name="threequarters" horiz-adv-x="879" unicode="¾" d="M726 350l-167 -224h167v224zM751 126h83q4 0 4 -5v-14q0 -5 -4 -5h-83v-97q0 -5 -5 -5h-14q-6 0 -6 5v97h-196q-4 0 -4 5v9q0 6 2 9l182 243q6 9 18 9h18q5 0 5 -5v-246zM568 700h11q7 0 7 -5q0 -1 -0.5 -2t-0.5 -2l-325 -684q-4 -7 -10 -7h-11q-10 0 -6 9l325 684 q4 7 10 7zM155 713h5q51 0 87 -27.5t36 -73.5v-8q0 -58 -56 -85q65 -26 65 -92v-11q0 -46 -38 -76t-95 -30h-8q-53 0 -105 28q-6 3 -6 10v13q0 5 5 3q58 -30 107 -30h6q47 0 78 24.5t31 63.5v5q0 30 -23 54t-71 24h-66q-5 0 -5 5v14q0 5 5 5h58q46 0 69.5 24t23.5 51v2 q0 39 -29 61t-70 22h-3q-47 0 -105 -30q-5 -3 -5 3v13q0 7 6 10q52 28 103 28z"/>
<glyph glyph-name="questiondown" horiz-adv-x="502" unicode="¿" d="M320 344h13q5 0 5 -5l1 -141q0 -5 -4 -8l-6 -4q-4 -3 -13 -2q-45 6 -57 6q-95 0 -144.5 -49t-49.5 -120v-7q0 -73 54 -121.5t147 -48.5h8q97 0 183 48q5 2 5 -3v-13q0 -7 -6 -10q-79 -46 -181 -46h-10q-102 0 -163.5 54t-61.5 134v19q0 77 57 132t155 55q30 0 62 -5 l1 130q0 5 5 5zM310 533h33q6 0 6 -6v-39q0 -6 -6 -6h-33q-6 0 -6 6v39q0 6 6 6z"/>
<glyph glyph-name="Agrave" horiz-adv-x="610" unicode="À" d="M303 672l-105 -299l-39 -109h291l-39 109l-105 299h-3zM295 700h19q8 0 11 -8l244 -687q2 -5 -3 -5h-14q-8 0 -11 8l-82 232h-308l-83 -232q-3 -8 -11 -8h-14q-5 0 -3 5l244 687q3 8 11 8zM247 951l71 -158q1 -1 1 -3q0 -5 -5 -5h-8q-6 0 -10 7l-77 157v3q0 6 6 6h11 q8 0 11 -7z"/>
<glyph glyph-name="Aacute" horiz-adv-x="610" unicode="Á" d="M303 672l-105 -299l-39 -109h291l-39 109l-105 299h-3zM295 700h19q8 0 11 -8l244 -687q2 -5 -3 -5h-14q-8 0 -11 8l-82 232h-308l-83 -232q-3 -8 -11 -8h-14q-5 0 -3 5l244 687q3 8 11 8zM291 793l71 158q4 7 11 7h11q7 0 7 -6l-1 -1v-2l-77 -157q-3 -7 -10 -7h-8 q-4 0 -4 5v3z"/>
<glyph glyph-name="Acircumflex" horiz-adv-x="610" unicode="Â" d="M303 672l-105 -299l-39 -109h291l-39 109l-105 299h-3zM295 700h19q8 0 11 -8l244 -687q2 -5 -3 -5h-14q-8 0 -11 8l-82 232h-308l-83 -232q-3 -8 -11 -8h-14q-5 0 -3 5l244 687q3 8 11 8zM319 951l87 -157q1 -1 1 -3q0 -6 -7 -6h-11q-7 0 -11 7l-73 142l-73 -142 q-4 -7 -11 -7h-11q-7 0 -7 6q0 2 1 3l87 157q3 7 10 7h8q7 0 10 -7z"/>
<glyph glyph-name="Atilde" horiz-adv-x="610" unicode="Ã" d="M303 672l-105 -299l-39 -109h291l-39 109l-105 299h-3zM295 700h19q8 0 11 -8l244 -687q2 -5 -3 -5h-14q-8 0 -11 8l-82 232h-308l-83 -232q-3 -8 -11 -8h-14q-5 0 -3 5l244 687q3 8 11 8zM424 850h12q5 0 5 -4q0 -2 -1 -4q-7 -23 -32 -45t-54 -22h-4q-25 0 -50.5 23.5 t-45.5 23.5q-34 0 -60 -44q-3 -6 -8 -6h-12q-5 0 -5 4q0 2 1 4q7 23 32 45t54 22h4q25 0 50.5 -23.5t45.5 -23.5q34 0 60 44q3 6 8 6z"/>
<glyph glyph-name="Adieresis" horiz-adv-x="610" unicode="Ä" d="M303 672l-105 -299l-39 -109h291l-39 109l-105 299h-3zM295 700h19q8 0 11 -8l244 -687q2 -5 -3 -5h-14q-8 0 -11 8l-82 232h-308l-83 -232q-3 -8 -11 -8h-14q-5 0 -3 5l244 687q3 8 11 8zM356 851h32q7 0 7 -6v-39q0 -6 -7 -6h-32q-6 0 -6 6v39q0 6 6 6zM222 851h32 q7 0 7 -6v-39q0 -6 -7 -6h-32q-6 0 -6 6v39q0 6 6 6z"/>
<glyph glyph-name="Aring" horiz-adv-x="610" unicode="Å" d="M303 672l-105 -299l-39 -109h291l-39 109l-105 299h-3zM295 700h19q8 0 11 -8l244 -687q2 -5 -3 -5h-14q-8 0 -11 8l-82 232h-308l-83 -232q-3 -8 -11 -8h-14q-5 0 -3 5l244 687q3 8 11 8zM305 896q-22 0 -35 -14t-13 -34q0 -21 13 -36t35 -15t35 15t13 36q0 20 -13 34 t-35 14zM305 918q31 0 52 -21t21 -50q0 -30 -21.5 -51t-51.5 -21q-31 0 -52 21t-21 51q0 29 21 50t52 21z"/>
<glyph glyph-name="AE" horiz-adv-x="769" unicode="Æ" d="M305 672h-2l-105 -299l-39 -109h146v408zM330 374h364q5 0 5 -5v-14q0 -5 -5 -5h-364v-326h384q5 0 5 -5v-14q0 -5 -5 -5h-404q-5 0 -5 5v235h-154l-83 -232q-3 -8 -11 -8h-14q-5 0 -3 5l244 687q3 8 11 8h419q5 0 5 -5v-14q0 -5 -5 -5h-384v-302z"/>
<glyph glyph-name="Ccedilla" horiz-adv-x="595" unicode="Ç" d="M368 689h-8q-107 0 -181 -75t-74 -212v-104q0 -137 74 -212t181 -75h8q86 0 172 48q5 3 5 -3v-13q0 -7 -6 -10q-79 -46 -170 -46h-10h-1l-9 -54q20 6 40 6q36 0 58 -20t22 -54q0 -38 -26.5 -59t-67.5 -21q-33 0 -60 9q-8 2 -8 11v8q0 8 7 6q36 -9 59 -9q72 0 72 54 q0 25 -15.5 37.5t-40.5 12.5q-5 0 -43 -7q-9 -2 -13 2l-3 3q-6 6 -5 10l11 66q-109 8 -182.5 87.5t-73.5 216.5v116q0 144 81 224.5t198 80.5h10q91 0 170 -46q6 -3 6 -10v-13q0 -6 -5 -3q-86 48 -172 48z"/>
<glyph glyph-name="Egrave" horiz-adv-x="564" unicode="È" d="M125 374h364q5 0 5 -5v-14q0 -5 -5 -5h-364v-326h384q5 0 5 -5v-14q0 -5 -5 -5h-404q-5 0 -5 5v690q0 5 5 5h404q5 0 5 -5v-14q0 -5 -5 -5h-384v-302zM247 951l71 -158q1 -1 1 -3q0 -5 -5 -5h-8q-6 0 -10 7l-77 157v3q0 6 6 6h11q8 0 11 -7z"/>
<glyph glyph-name="Eacute" horiz-adv-x="564" unicode="É" d="M125 374h364q5 0 5 -5v-14q0 -5 -5 -5h-364v-326h384q5 0 5 -5v-14q0 -5 -5 -5h-404q-5 0 -5 5v690q0 5 5 5h404q5 0 5 -5v-14q0 -5 -5 -5h-384v-302zM285 793l71 158q4 7 11 7h11q6 0 6 -6v-3l-77 -157q-3 -7 -10 -7h-8q-5 0 -5 5q0 2 1 3z"/>
<glyph glyph-name="Ecircumflex" horiz-adv-x="564" unicode="Ê" d="M125 374h364q5 0 5 -5v-14q0 -5 -5 -5h-364v-326h384q5 0 5 -5v-14q0 -5 -5 -5h-404q-5 0 -5 5v690q0 5 5 5h404q5 0 5 -5v-14q0 -5 -5 -5h-384v-302zM323 951l87 -157q1 -1 1 -3q0 -6 -7 -6h-11q-7 0 -11 7l-73 142l-73 -142q-4 -7 -11 -7h-11q-7 0 -7 6q0 2 1 3l87 157 q3 7 10 7h8q7 0 10 -7z"/>
<glyph glyph-name="Edieresis" horiz-adv-x="564" unicode="Ë" d="M125 374h364q5 0 5 -5v-14q0 -5 -5 -5h-364v-326h384q5 0 5 -5v-14q0 -5 -5 -5h-404q-5 0 -5 5v690q0 5 5 5h404q5 0 5 -5v-14q0 -5 -5 -5h-384v-302zM354 851h33q6 0 6 -6v-39q0 -6 -6 -6h-33q-6 0 -6 6v39q0 6 6 6zM220 851h33q6 0 6 -6v-39q0 -6 -6 -6h-33q-6 0 -6 6 v39q0 6 6 6z"/>
<glyph glyph-name="Igrave" horiz-adv-x="225" unicode="Ì" d="M105 700h15q5 0 5 -5v-690q0 -5 -5 -5h-15q-5 0 -5 5v690q0 5 5 5zM53 951l71 -158q1 -1 1 -3q0 -5 -5 -5h-8q-6 0 -10 7l-77 157v3q0 6 6 6h11q8 0 11 -7z"/>
<glyph glyph-name="Iacute" horiz-adv-x="225" unicode="Í" d="M105 700h15q5 0 5 -5v-690q0 -5 -5 -5h-15q-5 0 -5 5v690q0 5 5 5zM101 793l71 158q4 7 11 7h11q7 0 7 -6l-1 -1v-2l-77 -157q-3 -7 -10 -7h-8q-5 0 -5 5q0 2 1 3z"/>
<glyph glyph-name="Icircumflex" horiz-adv-x="225" unicode="Î" d="M105 700h15q5 0 5 -5v-690q0 -5 -5 -5h-15q-5 0 -5 5v690q0 5 5 5zM127 951l87 -157q1 -1 1 -3q0 -6 -7 -6h-11q-7 0 -11 7l-73 142l-73 -142q-4 -7 -11 -7h-11q-7 0 -7 6q0 2 1 3l87 157q3 7 10 7h8q7 0 10 -7z"/>
<glyph glyph-name="Idieresis" horiz-adv-x="225" unicode="Ï" d="M105 700h15q5 0 5 -5v-690q0 -5 -5 -5h-15q-5 0 -5 5v690q0 5 5 5zM164 851h32q7 0 7 -6v-39q0 -6 -7 -6h-32q-6 0 -6 6v39q0 6 6 6zM30 851h32q7 0 7 -6v-39q0 -6 -7 -6h-32q-6 0 -6 6v39q0 6 6 6z"/>
<glyph glyph-name="Eth" horiz-adv-x="667" unicode="Ð" d="M562 303v94q0 139 -65 209t-170 70h-202v-341h222q5 0 5 -5v-14q0 -5 -5 -5h-222v-287h202q105 0 170 70t65 209zM105 700h223q115 0 187 -76t72 -221v-106q0 -145 -72 -221t-187 -76h-223q-5 0 -5 5v306h-55q-5 0 -5 5v14q0 5 5 5h55v360q0 5 5 5z"/>
<glyph glyph-name="Ntilde" horiz-adv-x="682" unicode="Ñ" d="M567 700h15q5 0 5 -5v-690q0 -5 -5 -5h-21q-5 0 -8 4l-432 657h-1v-656q0 -5 -5 -5h-15q-5 0 -5 5v690q0 5 5 5h21q5 0 8 -4l432 -657h1v656q0 5 5 5zM460 850h12q5 0 5 -4q0 -2 -1 -4q-7 -23 -32 -45t-54 -22h-4q-25 0 -50.5 23.5t-45.5 23.5q-34 0 -60 -44q-3 -6 -8 -6 h-12q-5 0 -5 4q0 2 1 4q7 23 32 45t54 22h4q25 0 50.5 -23.5t45.5 -23.5q34 0 60 44q3 6 8 6z"/>
<glyph glyph-name="Ograve" horiz-adv-x="693" unicode="Ò" d="M353 689h-13q-105 0 -170 -70t-65 -209v-120q0 -139 65 -209t170 -70h13q105 0 170 70t65 209v120q0 139 -65 209t-170 70zM339 713h15q115 0 187 -76t72 -221v-132q0 -145 -72 -221t-187 -76h-15q-115 0 -187 76t-72 221v132q0 145 72 221t187 76zM285 951l71 -158 q1 -1 1 -3q0 -5 -5 -5h-8q-6 0 -10 7l-77 157q0 1 -1 3q0 6 7 6h11q8 0 11 -7z"/>
<glyph glyph-name="Oacute" horiz-adv-x="693" unicode="Ó" d="M353 689h-13q-105 0 -170 -70t-65 -209v-120q0 -139 65 -209t170 -70h13q105 0 170 70t65 209v120q0 139 -65 209t-170 70zM339 713h15q115 0 187 -76t72 -221v-132q0 -145 -72 -221t-187 -76h-15q-115 0 -187 76t-72 221v132q0 145 72 221t187 76zM340 793l71 158 q3 7 11 7h11q6 0 6 -6v-3l-77 -157q-4 -7 -10 -7h-8q-5 0 -5 5q0 2 1 3z"/>
<glyph glyph-name="Ocircumflex" horiz-adv-x="693" unicode="Ô" d="M353 689h-13q-105 0 -170 -70t-65 -209v-120q0 -139 65 -209t170 -70h13q105 0 170 70t65 209v120q0 139 -65 209t-170 70zM339 713h15q115 0 187 -76t72 -221v-132q0 -145 -72 -221t-187 -76h-15q-115 0 -187 76t-72 221v132q0 145 72 221t187 76zM361 951l87 -157 q1 -1 1 -3q0 -6 -7 -6h-11q-7 0 -11 7l-73 142l-73 -142q-4 -7 -11 -7h-11q-7 0 -7 6q0 2 1 3l87 157q3 7 10 7h8q7 0 10 -7z"/>
<glyph glyph-name="Otilde" horiz-adv-x="693" unicode="Õ" d="M353 689h-13q-105 0 -170 -70t-65 -209v-120q0 -139 65 -209t170 -70h13q105 0 170 70t65 209v120q0 139 -65 209t-170 70zM339 713h15q115 0 187 -76t72 -221v-132q0 -145 -72 -221t-187 -76h-15q-115 0 -187 76t-72 221v132q0 145 72 221t187 76zM466 850h12q5 0 5 -4 q0 -2 -1 -4q-7 -23 -32 -45t-54 -22h-4q-25 0 -50.5 23.5t-45.5 23.5q-34 0 -60 -44q-3 -6 -8 -6h-12q-5 0 -5 4q0 2 1 4q7 23 32 45t54 22h4q25 0 50.5 -23.5t45.5 -23.5q34 0 60 44q3 6 8 6z"/>
<glyph glyph-name="Odieresis" horiz-adv-x="693" unicode="Ö" d="M353 689h-13q-105 0 -170 -70t-65 -209v-120q0 -139 65 -209t170 -70h13q105 0 170 70t65 209v120q0 139 -65 209t-170 70zM339 713h15q115 0 187 -76t72 -221v-132q0 -145 -72 -221t-187 -76h-15q-115 0 -187 76t-72 221v132q0 145 72 221t187 76zM398 851h32q7 0 7 -6 v-39q0 -6 -7 -6h-32q-6 0 -6 6v39q0 6 6 6zM264 851h32q7 0 7 -6v-39q0 -6 -7 -6h-32q-6 0 -6 6v39q0 6 6 6z"/>
<glyph glyph-name="multiply" horiz-adv-x="421" unicode="×" d="M228 331l152 -152q1 -1 1 -3q0 -3 -1 -4l-10 -10q-2 -2 -4 -2t-4 2l-152 152l-152 -152q-2 -2 -3 -2t-3 2l-10 10q-2 2 -2 4q0 1 2 3l152 152l-152 152q-2 2 -2 3q0 2 2 4l10 10q1 1 3 1t3 -1l152 -152l152 152q1 1 4 1t4 -1l10 -10q1 -1 1 -4q0 -2 -1 -3z"/>
<glyph glyph-name="Oslash" horiz-adv-x="693" unicode="Ø" d="M588 290v120q0 113 -46 184l-375 -510q61 -73 173 -73h13q105 0 170 70t65 209zM105 410v-120q0 -113 46 -184l375 509q-62 74 -173 74h-13q-105 0 -170 -70t-65 -209zM595 700h14q6 0 6 -4q0 -3 -2 -5l-55 -75q55 -75 55 -200v-132q0 -145 -72 -221t-187 -76h-15 q-117 0 -187 76l-42 -56q-5 -7 -12 -7h-14q-6 0 -6 4q0 3 2 5l55 75q-55 75 -55 200v132q0 145 72 221t187 76h15q118 0 188 -76l41 56q5 7 12 7z"/>
<glyph glyph-name="Ugrave" horiz-adv-x="688" unicode="Ù" d="M574 700h14q5 0 5 -5v-447q0 -127 -63.5 -194t-175.5 -67h-15q-112 0 -175.5 67t-63.5 194v447q0 5 5 5h14q5 0 5 -5v-441q0 -120 56.5 -181.5t159.5 -61.5h13q103 0 159.5 61.5t56.5 181.5v441q0 5 5 5zM283 951l71 -158q1 -1 1 -3q0 -5 -5 -5h-8q-6 0 -10 7l-77 157v3 q0 6 6 6h11q8 0 11 -7z"/>
<glyph glyph-name="Uacute" horiz-adv-x="688" unicode="Ú" d="M574 700h14q5 0 5 -5v-447q0 -127 -63.5 -194t-175.5 -67h-15q-112 0 -175.5 67t-63.5 194v447q0 5 5 5h14q5 0 5 -5v-441q0 -120 56.5 -181.5t159.5 -61.5h13q103 0 159.5 61.5t56.5 181.5v441q0 5 5 5zM340 793l71 158q3 7 11 7h11q7 0 7 -6v-1q-1 -1 -1 -2l-77 -157 q-4 -7 -10 -7h-8q-4 0 -4 5v3z"/>
<glyph glyph-name="Ucircumflex" horiz-adv-x="688" unicode="Û" d="M574 700h14q5 0 5 -5v-447q0 -127 -63.5 -194t-175.5 -67h-15q-112 0 -175.5 67t-63.5 194v447q0 5 5 5h14q5 0 5 -5v-441q0 -120 56.5 -181.5t159.5 -61.5h13q103 0 159.5 61.5t56.5 181.5v441q0 5 5 5zM358 951l87 -157q1 -1 1 -3q0 -6 -7 -6h-11q-8 0 -11 7l-73 142 l-73 -142q-3 -7 -11 -7h-11q-7 0 -7 6q0 2 1 3l87 157q4 7 10 7h8q6 0 10 -7z"/>
<glyph glyph-name="Udieresis" horiz-adv-x="688" unicode="Ü" d="M574 700h14q5 0 5 -5v-447q0 -127 -63.5 -194t-175.5 -67h-15q-112 0 -175.5 67t-63.5 194v447q0 5 5 5h14q5 0 5 -5v-441q0 -120 56.5 -181.5t159.5 -61.5h13q103 0 159.5 61.5t56.5 181.5v441q0 5 5 5zM394 851h34q5 0 5 -6v-39q0 -6 -5 -6h-34q-6 0 -6 6v39q0 6 6 6z M260 851h34q5 0 5 -6v-39q0 -6 -5 -6h-34q-6 0 -6 6v39q0 6 6 6z"/>
<glyph glyph-name="Yacute" horiz-adv-x="613" unicode="Ý" d="M552 700h17q5 0 3 -5l-254 -453v-237q0 -5 -5 -5h-14q-5 0 -5 5v237l-254 453q-2 5 3 5h17q7 0 10 -6l235 -419h2l235 419q3 6 10 6zM303 793l71 158q4 7 11 7h11q6 0 6 -6v-3l-77 -157q-3 -7 -10 -7h-8q-5 0 -5 5q0 2 1 3z"/>
<glyph glyph-name="Thorn" horiz-adv-x="630" unicode="Þ" d="M525 396v12q0 85 -53 130t-172 45h-175v-378h175q118 0 171.5 52t53.5 139zM125 607h176q249 0 249 -193v-24q0 -94 -61 -151.5t-188 -57.5h-176v-176q0 -5 -5 -5h-15q-5 0 -5 5v690q0 5 5 5h15q5 0 5 -5v-88z"/>
<glyph glyph-name="germandbls" horiz-adv-x="526" unicode="ß" d="M206 750h6q52 0 88 -32t36 -93v-7q0 -34 -17 -62t-41 -47t-47.5 -36.5t-40.5 -39t-17 -46.5v-7q0 -22 10 -39t29 -28.5t36.5 -18.5t43.5 -15q9 -3 13 -4l24 -8q40 -13 62 -22.5t46 -25.5t34 -38.5t10 -53.5v-5q0 -64 -47 -99.5t-114 -35.5h-11q-35 0 -78.5 12t-70.5 29 q-6 3 -6 10v13q0 5 5 3q72 -43 151 -43h9q57 0 97 29t40 81v7q0 25 -9.5 44t-31 32t-37 19.5t-45.5 16.5l-24 8q-5 2 -15 5q-36 12 -54.5 19.5t-43.5 22.5t-36.5 35.5t-11.5 48.5v7q0 35 25.5 66t56 50.5t56 50.5t25.5 66v7q0 49 -29 74.5t-71 25.5h-4q-42 0 -71 -28 t-29 -83v-610q0 -5 -5 -5h-15q-5 0 -5 5v609q0 68 35.5 102t88.5 34z"/>
<glyph glyph-name="agrave" horiz-adv-x="488" unicode="à" d="M385 274l-126 -4q-194 -7 -194 -136v-5q0 -54 38 -86t102 -32h4q94 0 176 97v166zM243 513h6q87 0 124 -46t37 -141v-321q0 -5 -5 -5h-15q-5 0 -5 5v69q-37 -43 -84.5 -65t-90.5 -22h-6q-75 0 -119.5 38.5t-44.5 104.5v4q0 81 57.5 119.5t176.5 42.5l111 4v27 q0 83 -30 122.5t-107 39.5h-4q-79 0 -160 -43q-5 -2 -5 3v13q0 7 6 10q31 17 76 29t82 12zM185 751l71 -158q1 -1 1 -3q0 -5 -5 -5h-8q-6 0 -10 7l-77 157q0 1 -1 3q0 6 7 6h11q8 0 11 -7z"/>
<glyph glyph-name="aacute" horiz-adv-x="488" unicode="á" d="M385 274l-126 -4q-194 -7 -194 -136v-5q0 -54 38 -86t102 -32h4q94 0 176 97v166zM243 513h6q87 0 124 -46t37 -141v-321q0 -5 -5 -5h-15q-5 0 -5 5v69q-37 -43 -84.5 -65t-90.5 -22h-6q-75 0 -119.5 38.5t-44.5 104.5v4q0 81 57.5 119.5t176.5 42.5l111 4v27 q0 83 -30 122.5t-107 39.5h-4q-79 0 -160 -43q-5 -2 -5 3v13q0 7 6 10q31 17 76 29t82 12zM241 593l71 158q4 7 11 7h11q6 0 6 -6v-3l-77 -157q-3 -7 -10 -7h-8q-5 0 -5 5q0 2 1 3z"/>
<glyph glyph-name="acircumflex" horiz-adv-x="488" unicode="â" d="M385 274l-126 -4q-194 -7 -194 -136v-5q0 -54 38 -86t102 -32h4q94 0 176 97v166zM243 513h6q87 0 124 -46t37 -141v-321q0 -5 -5 -5h-15q-5 0 -5 5v69q-37 -43 -84.5 -65t-90.5 -22h-6q-75 0 -119.5 38.5t-44.5 104.5v4q0 81 57.5 119.5t176.5 42.5l111 4v27 q0 83 -30 122.5t-107 39.5h-4q-79 0 -160 -43q-5 -2 -5 3v13q0 7 6 10q31 17 76 29t82 12zM258 751l87 -157q1 -1 1 -3q0 -6 -7 -6h-11q-8 0 -11 7l-73 142l-73 -142q-3 -7 -11 -7h-11q-7 0 -7 6q0 2 1 3l87 157q4 7 10 7h8q6 0 10 -7z"/>
<glyph glyph-name="atilde" horiz-adv-x="488" unicode="ã" d="M385 274l-126 -4q-194 -7 -194 -136v-5q0 -54 38 -86t102 -32h4q94 0 176 97v166zM243 513h6q87 0 124 -46t37 -141v-321q0 -5 -5 -5h-15q-5 0 -5 5v69q-37 -43 -84.5 -65t-90.5 -22h-6q-75 0 -119.5 38.5t-44.5 104.5v4q0 81 57.5 119.5t176.5 42.5l111 4v27 q0 83 -30 122.5t-107 39.5h-4q-79 0 -160 -43q-5 -2 -5 3v13q0 7 6 10q31 17 76 29t82 12zM364 650h10q6 0 6 -4v-4q-7 -23 -32 -45t-54 -22h-4q-25 0 -50.5 23.5t-45.5 23.5q-34 0 -60 -44q-3 -6 -10 -6h-10q-6 0 -6 4v4q7 23 32 45t54 22h4q25 0 50.5 -23.5t45.5 -23.5 q34 0 60 44q3 6 10 6z"/>
<glyph glyph-name="adieresis" horiz-adv-x="488" unicode="ä" d="M385 274l-126 -4q-194 -7 -194 -136v-5q0 -54 38 -86t102 -32h4q94 0 176 97v166zM243 513h6q87 0 124 -46t37 -141v-321q0 -5 -5 -5h-15q-5 0 -5 5v69q-37 -43 -84.5 -65t-90.5 -22h-6q-75 0 -119.5 38.5t-44.5 104.5v4q0 81 57.5 119.5t176.5 42.5l111 4v27 q0 83 -30 122.5t-107 39.5h-4q-79 0 -160 -43q-5 -2 -5 3v13q0 7 6 10q31 17 76 29t82 12zM294 651h34q5 0 5 -6v-39q0 -6 -5 -6h-34q-6 0 -6 6v39q0 6 6 6zM160 651h34q5 0 5 -6v-39q0 -6 -5 -6h-34q-6 0 -6 6v39q0 6 6 6z"/>
<glyph glyph-name="aring" horiz-adv-x="488" unicode="å" d="M385 274l-126 -4q-194 -7 -194 -136v-5q0 -54 38 -86t102 -32h4q94 0 176 97v166zM243 513h6q87 0 124 -46t37 -141v-321q0 -5 -5 -5h-15q-5 0 -5 5v69q-37 -43 -84.5 -65t-90.5 -22h-6q-75 0 -119.5 38.5t-44.5 104.5v4q0 81 57.5 119.5t176.5 42.5l111 4v27 q0 83 -30 122.5t-107 39.5h-4q-79 0 -160 -43q-5 -2 -5 3v13q0 7 6 10q31 17 76 29t82 12zM244 696q-22 0 -35 -14t-13 -34q0 -21 13 -36t35 -15t35 15t13 36q0 20 -13 34t-35 14zM244 718q31 0 52 -21t21 -50q0 -30 -21.5 -51t-51.5 -21q-31 0 -52 21t-21 51q0 29 21 50 t52 21z"/>
<glyph glyph-name="ae" horiz-adv-x="849" unicode="æ" d="M385 275l-126 -5q-194 -7 -194 -136v-5q0 -54 38 -86t102 -32h4q94 0 176 97v167zM410 279h346q0 210 -161 210h-9q-78 0 -126.5 -57t-49.5 -153zM585 513h11q91 0 138 -57.5t47 -168.5v-27q0 -5 -5 -5h-366v-62q0 -84 53.5 -133t137.5 -49h4q75 0 156 43q5 2 5 -3v-13 q0 -7 -6 -10q-75 -41 -154 -41h-6q-63 0 -113 26.5t-77 74.5v-83q0 -5 -5 -5h-15q-5 0 -5 5v69q-37 -43 -84.5 -65t-90.5 -22h-6q-75 0 -119.5 38.5t-44.5 104.5v4q0 81 57.5 119.5t176.5 42.5l111 4v27q0 83 -30 122.5t-107 39.5h-4q-79 0 -160 -43q-5 -2 -5 3v13q0 7 6 10 q31 17 76 29t82 12h6q71 0 108 -30.5t48 -92.5q24 59 71 91t109 32z"/>
<glyph glyph-name="ccedilla" horiz-adv-x="507" unicode="ç" d="M295 489h-9q-82 0 -136.5 -53t-54.5 -148v-76q0 -95 54.5 -148t136.5 -53h9q67 0 139 43q5 2 5 -3v-13q0 -7 -6 -10q-65 -41 -137 -41h-11q-15 0 -22 1l-9 -55q20 6 40 6q36 0 58 -20t22 -54q0 -38 -26.5 -59t-67.5 -21q-33 0 -60 9q-8 2 -8 11v8q0 8 7 6q36 -9 59 -9 q72 0 72 54q0 25 -15.5 37.5t-40.5 12.5q-4 0 -43 -7q-9 -2 -13 2l-3 3q-6 6 -5 10l12 69q-76 13 -124 71t-48 151v74q0 107 61.5 166.5t153.5 59.5h11q72 0 137 -41q6 -3 6 -10v-13q0 -5 -5 -3q-72 43 -139 43z"/>
<glyph glyph-name="egrave" horiz-adv-x="534" unicode="è" d="M280 489h-9q-78 0 -126.5 -57t-49.5 -153h346q0 210 -161 210zM270 513h11q91 0 138 -57.5t47 -168.5v-27q0 -5 -5 -5h-366v-62q0 -84 53.5 -133t137.5 -49h4q75 0 156 43q5 2 5 -3v-13q0 -7 -6 -10q-75 -41 -154 -41h-6q-94 0 -154.5 55.5t-60.5 151.5v82 q0 109 55.5 173t144.5 64zM211 751l71 -158q1 -1 1 -3q0 -5 -5 -5h-8q-6 0 -10 7l-77 157v3q0 6 6 6h11q8 0 11 -7z"/>
<glyph glyph-name="eacute" horiz-adv-x="534" unicode="é" d="M280 489h-9q-78 0 -126.5 -57t-49.5 -153h346q0 210 -161 210zM270 513h11q91 0 138 -57.5t47 -168.5v-27q0 -5 -5 -5h-366v-62q0 -84 53.5 -133t137.5 -49h4q75 0 156 43q5 2 5 -3v-13q0 -7 -6 -10q-75 -41 -154 -41h-6q-94 0 -154.5 55.5t-60.5 151.5v82 q0 109 55.5 173t144.5 64zM263 593l71 158q4 7 11 7h11q6 0 6 -6v-3l-77 -157q-3 -7 -10 -7h-8q-5 0 -5 5q0 2 1 3z"/>
<glyph glyph-name="ecircumflex" horiz-adv-x="534" unicode="ê" d="M280 489h-9q-78 0 -126.5 -57t-49.5 -153h346q0 210 -161 210zM270 513h11q91 0 138 -57.5t47 -168.5v-27q0 -5 -5 -5h-366v-62q0 -84 53.5 -133t137.5 -49h4q75 0 156 43q5 2 5 -3v-13q0 -7 -6 -10q-75 -41 -154 -41h-6q-94 0 -154.5 55.5t-60.5 151.5v82 q0 109 55.5 173t144.5 64zM281 751l87 -157q1 -1 1 -3q0 -6 -7 -6h-11q-7 0 -11 7l-73 142l-73 -142q-4 -7 -11 -7h-11q-7 0 -7 6q0 2 1 3l87 157q3 7 10 7h8q7 0 10 -7z"/>
<glyph glyph-name="edieresis" horiz-adv-x="534" unicode="ë" d="M280 489h-9q-78 0 -126.5 -57t-49.5 -153h346q0 210 -161 210zM270 513h11q91 0 138 -57.5t47 -168.5v-27q0 -5 -5 -5h-366v-62q0 -84 53.5 -133t137.5 -49h4q75 0 156 43q5 2 5 -3v-13q0 -7 -6 -10q-75 -41 -154 -41h-6q-94 0 -154.5 55.5t-60.5 151.5v82 q0 109 55.5 173t144.5 64zM318 651h32q7 0 7 -6v-39q0 -6 -7 -6h-32q-6 0 -6 6v39q0 6 6 6zM184 651h32q7 0 7 -6v-39q0 -6 -7 -6h-32q-6 0 -6 6v39q0 6 6 6z"/>
<glyph glyph-name="igrave" horiz-adv-x="187" unicode="ì" d="M87 500h15q5 0 5 -5v-490q0 -5 -5 -5h-15q-5 0 -5 5v490q0 5 5 5zM31 751l71 -158q1 -1 1 -3q0 -5 -5 -5h-8q-6 0 -10 7l-77 157q0 1 -1 3q0 6 7 6h11q8 0 11 -7z"/>
<glyph glyph-name="iacute" horiz-adv-x="187" unicode="í" d="M87 500h15q5 0 5 -5v-490q0 -5 -5 -5h-15q-5 0 -5 5v490q0 5 5 5zM89 593l71 158q4 7 11 7h11q6 0 6 -6v-3l-77 -157q-3 -7 -10 -7h-8q-5 0 -5 5q0 2 1 3z"/>
<glyph glyph-name="icircumflex" horiz-adv-x="187" unicode="î" d="M87 500h15q5 0 5 -5v-490q0 -5 -5 -5h-15q-5 0 -5 5v490q0 5 5 5zM108 751l87 -157q1 -1 1 -3q0 -6 -7 -6h-11q-8 0 -11 7l-73 142l-73 -142q-3 -7 -11 -7h-11q-7 0 -7 6q0 2 1 3l87 157q4 7 10 7h8q6 0 10 -7z"/>
<glyph glyph-name="idieresis" horiz-adv-x="187" unicode="ï" d="M87 500h15q5 0 5 -5v-490q0 -5 -5 -5h-15q-5 0 -5 5v490q0 5 5 5zM145 651h33q6 0 6 -6v-39q0 -6 -6 -6h-33q-6 0 -6 6v39q0 6 6 6zM11 651h33q6 0 6 -6v-39q0 -6 -6 -6h-33q-6 0 -6 6v39q0 6 6 6z"/>
<glyph glyph-name="eth" horiz-adv-x="537" unicode="ð" d="M442 212v167q-82 97 -176 97h-2q-82 0 -125.5 -51.5t-43.5 -149.5v-63q0 -96 46 -148.5t122 -52.5h9q80 0 125 52t45 149zM499 749l8 -13q1 -1 1 -3q0 -3 -2 -4l-69 -48q30 -45 30 -118v-350q0 -109 -52 -167.5t-142 -58.5h-11q-86 0 -139 59t-53 167v61q0 110 50.5 168 t142.5 58h4q43 0 90.5 -22t84.5 -65v151q0 65 -25 103l-92 -64q-3 -3 -7 1l-9 13q-3 3 2 7l89 63q-39 39 -117 39h-4q-75 0 -156 -43q-5 -3 -5 3v13q0 7 6 10q75 41 154 41h6q91 0 138 -49l69 49q1 1 3 1q3 0 5 -2z"/>
<glyph glyph-name="ntilde" horiz-adv-x="539" unicode="ñ" d="M288 513h4q89 0 129 -47.5t40 -140.5v-320q0 -5 -5 -5h-15q-5 0 -5 5v321q0 81 -33.5 122t-111.5 41h-2q-90 0 -184 -87v-397q0 -5 -5 -5h-15q-5 0 -5 5v490q0 5 5 5h15q5 0 5 -5v-62q40 35 90 57.5t93 22.5zM390 650h10q6 0 6 -4v-4q-7 -23 -32 -45t-54 -22h-4 q-25 0 -50.5 23.5t-45.5 23.5q-34 0 -60 -44q-3 -6 -10 -6h-10q-6 0 -6 4v4q7 23 32 45t54 22h4q25 0 50.5 -23.5t45.5 -23.5q34 0 60 44q3 6 10 6z"/>
<glyph glyph-name="ograve" horiz-adv-x="563" unicode="ò" d="M286 489h-9q-81 0 -131.5 -52.5t-50.5 -148.5v-76q0 -96 50.5 -148.5t131.5 -52.5h9q81 0 131.5 52.5t50.5 148.5v76q0 96 -50.5 148.5t-131.5 52.5zM276 513h11q92 0 149 -59t57 -167v-74q0 -108 -57 -167t-149 -59h-11q-92 0 -149 59t-57 167v74q0 108 57 167t149 59z M218 751l71 -158v-3q0 -5 -4 -5h-8q-7 0 -10 7l-77 157v1l-1 2q0 6 7 6h11q7 0 11 -7z"/>
<glyph glyph-name="oacute" horiz-adv-x="563" unicode="ó" d="M286 489h-9q-81 0 -131.5 -52.5t-50.5 -148.5v-76q0 -96 50.5 -148.5t131.5 -52.5h9q81 0 131.5 52.5t50.5 148.5v76q0 96 -50.5 148.5t-131.5 52.5zM276 513h11q92 0 149 -59t57 -167v-74q0 -108 -57 -167t-149 -59h-11q-92 0 -149 59t-57 167v74q0 108 57 167t149 59z M275 593l71 158q4 7 11 7h11q6 0 6 -6v-3l-77 -157q-3 -7 -10 -7h-8q-5 0 -5 5q0 2 1 3z"/>
<glyph glyph-name="ocircumflex" horiz-adv-x="563" unicode="ô" d="M286 489h-9q-81 0 -131.5 -52.5t-50.5 -148.5v-76q0 -96 50.5 -148.5t131.5 -52.5h9q81 0 131.5 52.5t50.5 148.5v76q0 96 -50.5 148.5t-131.5 52.5zM276 513h11q92 0 149 -59t57 -167v-74q0 -108 -57 -167t-149 -59h-11q-92 0 -149 59t-57 167v74q0 108 57 167t149 59z M296 751l87 -157q1 -1 1 -3q0 -6 -7 -6h-11q-8 0 -11 7l-73 142l-73 -142q-3 -7 -11 -7h-11q-7 0 -7 6q0 2 1 3l87 157q4 7 10 7h8q6 0 10 -7z"/>
<glyph glyph-name="otilde" horiz-adv-x="563" unicode="õ" d="M286 489h-9q-81 0 -131.5 -52.5t-50.5 -148.5v-76q0 -96 50.5 -148.5t131.5 -52.5h9q81 0 131.5 52.5t50.5 148.5v76q0 96 -50.5 148.5t-131.5 52.5zM276 513h11q92 0 149 -59t57 -167v-74q0 -108 -57 -167t-149 -59h-11q-92 0 -149 59t-57 167v74q0 108 57 167t149 59z M402 650h10q6 0 6 -4v-4q-7 -23 -32 -45t-54 -22h-4q-25 0 -50.5 23.5t-45.5 23.5q-34 0 -60 -44q-3 -6 -10 -6h-10q-6 0 -6 4v4q7 23 32 45t54 22h4q25 0 50.5 -23.5t45.5 -23.5q34 0 60 44q3 6 10 6z"/>
<glyph glyph-name="odieresis" horiz-adv-x="563" unicode="ö" d="M286 489h-9q-81 0 -131.5 -52.5t-50.5 -148.5v-76q0 -96 50.5 -148.5t131.5 -52.5h9q81 0 131.5 52.5t50.5 148.5v76q0 96 -50.5 148.5t-131.5 52.5zM276 513h11q92 0 149 -59t57 -167v-74q0 -108 -57 -167t-149 -59h-11q-92 0 -149 59t-57 167v74q0 108 57 167t149 59z M332 651h34q5 0 5 -6v-39q0 -6 -5 -6h-34q-6 0 -6 6v39q0 6 6 6zM198 651h34q5 0 5 -6v-39q0 -6 -5 -6h-34q-6 0 -6 6v39q0 6 6 6z"/>
<glyph glyph-name="divide" d="M256 161h33q6 0 6 -6v-39q0 -6 -6 -6h-33q-6 0 -6 6v39q0 6 6 6zM45 335h454q5 0 5 -5v-14q0 -5 -5 -5h-454q-5 0 -5 5v14q0 5 5 5zM256 536h33q6 0 6 -6v-39q0 -6 -6 -6h-33q-6 0 -6 6v39q0 6 6 6z" unicode="÷"/>
<glyph glyph-name="oslash" horiz-adv-x="563" unicode="ø" d="M468 212v76q0 78 -35 129l-287 -354q49 -52 131 -52h9q81 0 131.5 52.5t50.5 148.5zM95 288v-76q0 -78 35 -129l287 354q-49 52 -131 52h-9q-81 0 -131.5 -52.5t-50.5 -148.5zM474 500h15q6 0 6 -4q0 -3 -2 -5l-43 -54q43 -59 43 -150v-74q0 -108 -57 -167t-149 -59h-11 q-90 0 -146 56l-29 -36q-7 -7 -12 -7h-15q-6 0 -6 4q0 3 2 5l43 54q-43 59 -43 150v74q0 108 57 167t149 59h11q90 0 146 -56l29 36q7 7 12 7z"/>
<glyph glyph-name="ugrave" horiz-adv-x="529" unicode="ù" d="M431 500h15q5 0 5 -5v-490q0 -5 -5 -5h-15q-5 0 -5 5v62q-40 -35 -90 -57.5t-93 -22.5h-4q-86 0 -123.5 47.5t-37.5 140.5v320q0 5 5 5h15q5 0 5 -5v-321q0 -81 30.5 -122t106.5 -41h2q90 0 184 87v397q0 5 5 5zM204 751l71 -158v-3q0 -5 -4 -5h-8q-7 0 -10 7l-77 157v1 l-1 2q0 6 7 6h11q7 0 11 -7z"/>
<glyph glyph-name="uacute" horiz-adv-x="529" unicode="ú" d="M431 500h15q5 0 5 -5v-490q0 -5 -5 -5h-15q-5 0 -5 5v62q-40 -35 -90 -57.5t-93 -22.5h-4q-86 0 -123.5 47.5t-37.5 140.5v320q0 5 5 5h15q5 0 5 -5v-321q0 -81 30.5 -122t106.5 -41h2q90 0 184 87v397q0 5 5 5zM259 593l71 158q4 7 11 7h11q6 0 6 -6v-3l-77 -157 q-3 -7 -10 -7h-8q-5 0 -5 5q0 2 1 3z"/>
<glyph glyph-name="ucircumflex" horiz-adv-x="529" unicode="û" d="M431 500h15q5 0 5 -5v-490q0 -5 -5 -5h-15q-5 0 -5 5v62q-40 -35 -90 -57.5t-93 -22.5h-4q-86 0 -123.5 47.5t-37.5 140.5v320q0 5 5 5h15q5 0 5 -5v-321q0 -81 30.5 -122t106.5 -41h2q90 0 184 87v397q0 5 5 5zM279 751l87 -157q1 -1 1 -3q0 -6 -7 -6h-11q-7 0 -11 7 l-73 142l-73 -142q-4 -7 -11 -7h-11q-7 0 -7 6q0 2 1 3l87 157q3 7 10 7h8q7 0 10 -7z"/>
<glyph glyph-name="udieresis" horiz-adv-x="529" unicode="ü" d="M431 500h15q5 0 5 -5v-490q0 -5 -5 -5h-15q-5 0 -5 5v62q-40 -35 -90 -57.5t-93 -22.5h-4q-86 0 -123.5 47.5t-37.5 140.5v320q0 5 5 5h15q5 0 5 -5v-321q0 -81 30.5 -122t106.5 -41h2q90 0 184 87v397q0 5 5 5zM316 651h32q7 0 7 -6v-39q0 -6 -7 -6h-32q-6 0 -6 6v39 q0 6 6 6zM182 651h32q7 0 7 -6v-39q0 -6 -7 -6h-32q-6 0 -6 6v39q0 6 6 6z"/>
<glyph glyph-name="yacute" horiz-adv-x="487" unicode="ý" d="M439 500h14q5 0 3 -5l-215 -549q-27 -69 -54 -97.5t-74 -28.5h-6q-28 0 -59 14q-6 2 -6 9v10q0 9 7 5q32 -14 59 -14h4q34 0 57 22t45 79l21 55h-3q-8 0 -11 8l-191 487q-2 5 4 5h13q8 0 11 -8l184 -468h3l183 468q3 8 11 8zM241 593l71 158q4 7 11 7h11q7 0 7 -6l-1 -1 v-2l-77 -157q-3 -7 -10 -7h-8q-5 0 -5 5q0 2 1 3z"/>
<glyph glyph-name="thorn" horiz-adv-x="549" unicode="þ" d="M454 212v76q0 98 -43.5 149.5t-125.5 51.5h-2q-94 0 -176 -97v-284q82 -97 176 -97h2q82 0 125.5 51.5t43.5 149.5zM282 513h4q92 0 142.5 -58t50.5 -168v-74q0 -110 -50.5 -168t-142.5 -58h-4q-43 0 -90.5 22t-84.5 65v-236q0 -5 -5 -5h-15q-5 0 -5 5v894q0 5 5 5h15 q5 0 5 -5v-306q37 43 84.5 65t90.5 22z"/>
<glyph glyph-name="OE" horiz-adv-x="1052" unicode="Œ" d="M353 689h-13q-105 0 -170 -70t-65 -209v-120q0 -139 65 -209t170 -70h13q105 0 170 70t65 209v120q0 139 -65 209t-170 70zM339 713h15q81 0 142.5 -38.5t91.5 -113.5v134q0 5 5 5h404q5 0 5 -5v-14q0 -5 -5 -5h-384v-302h364q5 0 5 -5v-14q0 -5 -5 -5h-364v-326h384 q5 0 5 -5v-14q0 -5 -5 -5h-404q-5 0 -5 5v134q-30 -75 -91.5 -113.5t-142.5 -38.5h-15q-115 0 -187 76t-72 221v132q0 145 72 221t187 76z"/>
<glyph glyph-name="oe" horiz-adv-x="932" unicode="œ" d="M678 489h-9q-78 0 -126.5 -57t-49.5 -153h346q0 210 -161 210zM286 489h-9q-81 0 -131.5 -52.5t-50.5 -148.5v-76q0 -96 50.5 -148.5t131.5 -52.5h9q81 0 131.5 52.5t50.5 148.5v76q0 96 -50.5 148.5t-131.5 52.5zM668 513h11q91 0 138 -57.5t47 -168.5v-27q0 -5 -5 -5 h-366v-62q0 -84 53.5 -133t137.5 -49h4q75 0 156 43q5 2 5 -3v-13q0 -7 -6 -10q-75 -41 -154 -41h-6q-74 0 -128.5 35t-75.5 98q-21 -65 -72 -99t-120 -34h-11q-92 0 -149 59t-57 167v74q0 108 57 167t149 59h11q71 0 123 -36.5t72 -104.5q21 67 70.5 104t115.5 37z"/>
<glyph glyph-name="Scaron" horiz-adv-x="549" unicode="Š" d="M237 360q-88 29 -132.5 69t-44.5 105v11q0 77 60.5 122.5t140.5 45.5h10q93 0 172 -46q6 -3 6 -10v-13q0 -6 -5 -3q-86 48 -174 48h-8q-70 0 -123.5 -40t-53.5 -110v-5q0 -55 39 -88.5t125 -62.5l51 -17q46 -15 73.5 -28t57.5 -34.5t44 -53.5t14 -75v-10 q0 -79 -61 -128.5t-154 -49.5h-10q-96 0 -184 51q-6 3 -6 10v13q0 5 5 3q95 -53 186 -53h8q83 0 137 44t54 116v4q0 38 -12 65t-39.5 46.5t-53 30t-71.5 26.5zM359 958h11q7 0 7 -6q0 -2 -1 -3l-87 -157q-3 -7 -10 -7h-8q-7 0 -10 7l-87 157q-1 1 -1 3q0 6 7 6h11q7 0 11 -7 l73 -142l73 142q4 7 11 7z"/>
<glyph glyph-name="scaron" horiz-adv-x="423" unicode="š" d="M204 513h11q32 0 72.5 -12t67.5 -29q6 -3 6 -10v-13q0 -5 -5 -3q-72 43 -142 43h-9q-56 0 -95.5 -27.5t-39.5 -74.5v-7q0 -22 10 -39t29 -28.5t36.5 -18.5t43.5 -15q9 -3 13 -4l24 -8q40 -13 62 -22.5t46 -25.5t34 -38.5t10 -53.5v-5q0 -64 -47 -99.5t-114 -35.5h-11 q-35 0 -78.5 12t-70.5 29q-6 3 -6 10v13q0 5 5 3q72 -43 151 -43h9q57 0 97 29t40 81v7q0 25 -9.5 44t-31 32t-37 19.5t-45.5 16.5l-24 8q-5 2 -15 5q-36 12 -54.5 19.5t-43.5 22.5t-36.5 35.5t-11.5 48.5v7q0 60 46 93.5t113 33.5zM296 758h11q7 0 7 -6q0 -2 -1 -3 l-87 -157q-4 -7 -10 -7h-8q-6 0 -10 7l-87 157q-1 1 -1 3q0 6 7 6h11q8 0 11 -7l73 -142l73 142q3 7 11 7z"/>
<glyph glyph-name="Ydieresis" horiz-adv-x="613" unicode="Ÿ" d="M552 700h17q5 0 3 -5l-254 -453v-237q0 -5 -5 -5h-14q-5 0 -5 5v237l-254 453q-2 5 3 5h17q7 0 10 -6l235 -419h2l235 419q3 6 10 6zM356 851h34q5 0 5 -6v-39q0 -6 -5 -6h-34q-6 0 -6 6v39q0 6 6 6zM222 851h34q5 0 5 -6v-39q0 -6 -5 -6h-34q-6 0 -6 6v39q0 6 6 6z"/>
<glyph glyph-name="circumflex" horiz-adv-x="284" unicode="ˆ" d="M156 951l87 -157q1 -1 1 -3q0 -6 -7 -6h-11q-8 0 -11 7l-73 142l-73 -142q-3 -7 -11 -7h-11q-7 0 -7 6q0 2 1 3l87 157q4 7 10 7h8q6 0 10 -7z"/>
<glyph glyph-name="tilde" horiz-adv-x="353" unicode="˜" d="M296 850h11q6 0 6 -4q0 -2 -1 -4q-7 -23 -32 -45t-54 -22h-4q-25 0 -50.5 23.5t-45.5 23.5q-34 0 -60 -44q-3 -6 -9 -6h-11q-6 0 -6 4q0 2 1 4q7 23 32 45t54 22h4q25 0 50.5 -23.5t45.5 -23.5q34 0 60 44q3 6 9 6z"/>
<glyph glyph-name="uni2009" horiz-adv-x="600" unicode=" "/>
<glyph glyph-name="endash" d="M45 335h454q5 0 5 -5v-14q0 -5 -5 -5h-454q-5 0 -5 5v14q0 5 5 5z" unicode="–"/>
<glyph glyph-name="emdash" horiz-adv-x="618" unicode="—" d="M45 335h528q5 0 5 -5v-14q0 -5 -5 -5h-528q-5 0 -5 5v14q0 5 5 5z"/>
<glyph glyph-name="quoteleft" horiz-adv-x="136" unicode="‘" d="M81 482h-35q-6 0 -6 6v34q0 6 1 10l30 164q0 4 5 4h15q5 0 5 -9l-29 -158h14q6 0 6 -6v-39q0 -6 -6 -6z"/>
<glyph glyph-name="quotesinglbase" horiz-adv-x="136" unicode="‚" d="M55 51h35q6 0 6 -6v-34q0 -6 -1 -10l-30 -164q0 -4 -5 -4h-15q-5 0 -5 9l29 158h-14q-6 0 -6 6v39q0 6 6 6z"/>
<glyph glyph-name="quotedblleft" horiz-adv-x="268" unicode="“" d="M213 482h-35q-6 0 -6 6v34q0 6 1 10l30 164q0 4 5 4h15q5 0 5 -9l-29 -158h14q6 0 6 -6v-39q0 -6 -6 -6zM81 482h-35q-6 0 -6 6v34q0 6 1 10l30 164q0 4 5 4h15q5 0 5 -9l-29 -158h14q6 0 6 -6v-39q0 -6 -6 -6z"/>
<glyph glyph-name="quotedblright" horiz-adv-x="268" unicode="”" d="M187 700h35q6 0 6 -6v-34q0 -6 -1 -10l-30 -164q0 -4 -5 -4h-15q-5 0 -5 9l29 158h-14q-6 0 -6 6v39q0 6 6 6zM55 700h35q6 0 6 -6v-34q0 -6 -1 -10l-30 -164q0 -4 -5 -4h-15q-5 0 -5 9l29 158h-14q-6 0 -6 6v39q0 6 6 6z"/>
<glyph glyph-name="dagger" horiz-adv-x="465" unicode="†" d="M245 500h175q5 0 5 -5v-14q0 -5 -5 -5h-175v-545q0 -5 -5 -5h-15q-5 0 -5 5v545h-175q-5 0 -5 5v14q0 5 5 5h175v195q0 5 5 5h15q5 0 5 -5v-195z"/>
<glyph glyph-name="daggerdbl" horiz-adv-x="465" unicode="‡" d="M245 170h175q5 0 5 -5v-14q0 -5 -5 -5h-175v-215q0 -5 -5 -5h-15q-5 0 -5 5v215h-175q-5 0 -5 5v14q0 5 5 5h175v306h-175q-5 0 -5 5v14q0 5 5 5h175v195q0 5 5 5h15q5 0 5 -5v-195h175q5 0 5 -5v-14q0 -5 -5 -5h-175v-306z"/>
<glyph glyph-name="ellipsis" horiz-adv-x="597" unicode="…" d="M518 51h33q6 0 6 -6v-39q0 -6 -6 -6h-33q-6 0 -6 6v39q0 6 6 6zM282 51h33q6 0 6 -6v-39q0 -6 -6 -6h-33q-6 0 -6 6v39q0 6 6 6zM46 51h33q6 0 6 -6v-39q0 -6 -6 -6h-33q-6 0 -6 6v39q0 6 6 6z"/>
<glyph glyph-name="perthousand" horiz-adv-x="1357" unicode="‰" d="M1154 366h-9q-66 0 -102 -44.5t-36 -117.5v-31q0 -73 36 -117.5t102 -44.5h9q66 0 102 44.5t36 117.5v31q0 73 -36 117.5t-102 44.5zM747 366h-9q-66 0 -102 -44.5t-36 -117.5v-31q0 -73 36 -117.5t102 -44.5h9q66 0 102 44.5t36 117.5v31q0 73 -36 117.5t-102 44.5z M1144 390h11q76 0 119 -51t43 -136v-29q0 -85 -43 -136t-119 -51h-11q-76 0 -119 51t-43 136v29q0 85 43 136t119 51zM737 390h11q76 0 119 -51t43 -136v-29q0 -85 -43 -136t-119 -51h-11q-76 0 -119 51t-43 136v29q0 85 43 136t119 51zM203 334h9q66 0 102 44.5t36 117.5 v31q0 73 -36 117.5t-102 44.5h-9q-66 0 -102 -44.5t-36 -117.5v-31q0 -73 36 -117.5t102 -44.5zM316 0h-11q-10 0 -6 9l325 684q4 7 10 7h11q7 0 7 -5q0 -1 -0.5 -2t-0.5 -2l-325 -684q-4 -7 -10 -7zM213 310h-11q-76 0 -119 51t-43 136v29q0 85 43 136t119 51h11 q76 0 119 -51t43 -136v-29q0 -85 -43 -136t-119 -51z"/>
<glyph glyph-name="guilsinglleft" horiz-adv-x="233" unicode="‹" d="M66 253l126 -149q1 -1 1 -4t-4 -3h-15q-4 0 -7 3l-124 143q-3 3 -3 8v4q0 5 3 8l124 143q3 3 7 3h15q4 0 4 -3t-1 -4z"/>
<glyph glyph-name="guilsinglright" horiz-adv-x="233" unicode="›" d="M167 253l-126 149q-1 1 -1 4t4 3h15q4 0 7 -3l124 -143q3 -3 3 -8v-4q0 -5 -3 -8l-124 -143q-3 -3 -7 -3h-15q-4 0 -4 3t1 4z"/>
<glyph glyph-name="fraction" horiz-adv-x="154" unicode="⁄" d="M236 700h11q7 0 7 -5q0 -1 -0.5 -2t-0.5 -2l-325 -684q-4 -7 -10 -7h-11q-7 0 -7 5q0 1 0.5 2t0.5 2l325 684q4 7 10 7z"/>
<glyph glyph-name="Euro" horiz-adv-x="670" unicode="€" d="M443 689h-8q-101 0 -173 -66.5t-81 -190.5h299q5 0 5 -5v-14q0 -5 -5 -5h-300v-6v-104v-6h300q5 0 5 -5v-14q0 -5 -5 -5h-299q9 -124 81 -190.5t173 -66.5h8q86 0 172 48q5 3 5 -3v-13q0 -7 -6 -10q-79 -46 -170 -46h-10q-111 0 -191 74t-87 207h-111q-5 0 -5 5v14 q0 5 5 5h110v116h-110q-5 0 -5 5v14q0 5 5 5h111q7 133 87 207t191 74h10q91 0 170 -46q6 -3 6 -10v-13q0 -6 -5 -3q-86 48 -172 48z"/>
<glyph glyph-name="trademark" horiz-adv-x="794" unicode="™" d="M718 740h33q3 0 3 -3v-384q0 -3 -3 -3h-19q-3 0 -3 3v361h-1l-139 -224q-3 -5 -8 -5h-7q-5 0 -8 5l-139 224h-1v-361q0 -3 -3 -3h-19q-3 0 -3 3v384q0 3 3 3h33q5 0 6 -3l133 -219h3l133 219q2 3 6 3zM43 740h295q2 0 2 -3v-19q0 -2 -2 -2h-135v-363q0 -3 -3 -3h-19 q-3 0 -3 3v363h-135q-3 0 -3 2v19q0 3 3 3z"/>
<glyph glyph-name="arrowleft" horiz-adv-x="650" unicode="←" d="M45 337l140 67q1 1 3 1q4 0 4 -6v-5q0 -7 -5 -10l-87 -48h505q5 0 5 -5v-15q0 -5 -5 -5h-505l87 -48q5 -3 5 -10v-5q0 -6 -4 -6q-2 0 -3 1l-140 67q-5 2 -5 8v11q0 5 5 8z"/>
<glyph glyph-name="arrowup" horiz-adv-x="244" unicode="↑" d="M117 570h10q6 0 8 -5l68 -139q1 -1 1 -4q0 -4 -6 -4h-6q-7 0 -10 6l-48 86v-505q0 -5 -5 -5h-14q-5 0 -5 5v505l-48 -86q-3 -6 -10 -6h-6q-6 0 -6 4q0 3 1 4l68 139q2 5 8 5z"/>
<glyph glyph-name="arrowright" horiz-adv-x="650" unicode="→" d="M466 404l139 -68q5 -2 5 -8v-10q0 -6 -5 -8l-139 -68q-1 -1 -4 -1q-4 0 -4 6v6q0 7 6 10l86 48h-505q-5 0 -5 5v14q0 5 5 5h505l-86 48q-6 3 -6 10v6q0 6 4 6q3 0 4 -1z"/>
<glyph glyph-name="arrowdown" horiz-adv-x="244" unicode="↓" d="M115 557h14q5 0 5 -5v-505l48 86q3 6 10 6h6q6 0 6 -4q0 -3 -1 -4l-68 -139q-2 -5 -8 -5h-10q-6 0 -8 5l-68 139q-1 1 -1 4q0 4 6 4h6q7 0 10 -6l48 -86v505q0 5 5 5z"/>
<glyph glyph-name="partialdiff" horiz-adv-x="511" unicode="∂" d="M414 212l15 167q-73 97 -168 97h-2q-167 0 -186 -201l-6 -63q-2 -20 -2 -30q0 -81 41.5 -126t110.5 -45h9q82 0 131 52.5t57 148.5zM297 750h6q82 0 125 -40.5t43 -118.5q0 -18 -1 -28l-31 -350q-10 -110 -67 -168t-147 -58h-11q-78 0 -126 51t-48 142q0 9 2 33l6 61 q11 111 64.5 168.5t147.5 57.5h4q43 0 89 -22t79 -65l13 151q1 9 1 25q0 137 -146 137h-4q-67 0 -159 -43q-5 -3 -5 3l1 13q0 8 6 10q78 41 158 41z"/>
<glyph glyph-name="emptyset" horiz-adv-x="607" unicode="∅" d="M303 11q102 1 170.5 70t68.5 169q0 95 -60 161l-339 -339q69 -61 160 -61zM65 248q0 -93 60 -159l339 339q-67 61 -161 61q-101 -1 -169.5 -70.5t-68.5 -170.5zM553 482l-54 -54q68 -74 68 -178q0 -110 -76 -186t-188 -77q-105 0 -178 67l-54 -54q-3 -4 -7 0l-10 11 q-4 3 0 7l54 54q-68 74 -68 176q0 111 75.5 187.5t187.5 77.5q104 0 178 -68l55 55q4 4 7 0l10 -11q3 -3 0 -7z"/>
<glyph glyph-name="product" horiz-adv-x="599" unicode="∏" d="M45 700h509q5 0 5 -5v-14q0 -5 -5 -5h-85v-671q0 -5 -5 -5h-15q-5 0 -5 5v671h-289v-671q0 -5 -5 -5h-15q-5 0 -5 5v671h-85q-5 0 -5 5v14q0 5 5 5z"/>
<glyph glyph-name="summation" horiz-adv-x="509" unicode="∑" d="M469 695v-14q0 -5 -5 -5h-390l303 -310q3 -3 3 -7v-18q0 -4 -3 -7l-303 -310h390q5 0 5 -5v-14q0 -5 -5 -5h-419q-5 0 -5 5v16q0 4 2 6l315 323l-315 323q-2 2 -2 6v16q0 5 5 5h419q5 0 5 -5z"/>
<glyph glyph-name="minus" d="M45 335h454q5 0 5 -5v-14q0 -5 -5 -5h-454q-5 0 -5 5v14q0 5 5 5z" unicode="−"/>
<glyph glyph-name="radical" horiz-adv-x="686" unicode="√" d="M629 700h14q5 0 3 -5l-267 -687q-3 -8 -11 -8h-21q-9 0 -11 8l-183 468h-108q-5 0 -5 5v14q0 5 5 5h118q8 0 11 -8l183 -468h1l92 237l168 431q3 8 11 8z"/>
<glyph glyph-name="infinity" horiz-adv-x="663" unicode="∞" d="M497 488h-7q-45 0 -74 -31.5t-72 -110.5q43 -79 72 -111t74 -32h7q47 0 74.5 39.5t27.5 95.5v15q0 56 -27.5 95.5t-74.5 39.5zM173 488h-7q-47 0 -74.5 -39.5t-27.5 -95.5v-15q0 -56 27.5 -95.5t74.5 -39.5h7q45 0 74 32t72 111q-43 79 -72 110.5t-74 31.5zM489 513h7 q60 0 93.5 -46t33.5 -113v-17q0 -67 -33.5 -113t-93.5 -46h-7q-54 0 -85.5 33.5t-71.5 109.5q-39 -76 -71.5 -109.5t-86.5 -33.5h-7q-60 0 -93.5 46t-33.5 113v17q0 67 33.5 113t93.5 46h7q54 0 86.5 -33.5t71.5 -109.5q40 76 71.5 109.5t85.5 33.5z"/>
<glyph glyph-name="approxequal" horiz-adv-x="462" unicode="≈" d="M154 258q34 0 80 -24.5t75 -24.5q35 0 104 36q9 5 9 -5v-9q0 -5 -5 -7q-2 -1 -9.5 -5.5t-10.5 -6t-10 -5.5t-12 -6t-12 -5t-13 -4.5t-13 -3.5t-14.5 -2.5t-14.5 -0.5q-34 0 -80 24.5t-75 24.5q-35 0 -104 -36q-9 -4 -9 5v9q0 6 3 7q2 1 15.5 8.5t18 9.5t16.5 7.5t20 7.5 t19 4t22 2zM154 398q34 0 80 -24.5t75 -24.5q35 0 104 36q9 5 9 -5v-9q0 -5 -5 -7q-2 -1 -9.5 -5.5t-10.5 -6t-10 -5.5t-12 -6t-12 -5t-13 -4.5t-13 -3.5t-14.5 -2.5t-14.5 -0.5q-34 0 -80 24.5t-75 24.5q-35 0 -104 -36q-9 -4 -9 5v9q0 6 3 7q2 1 15.5 8.5t18 9.5t16.5 7.5 t20 7.5t19 4t22 2z"/>
<glyph glyph-name="notequal" horiz-adv-x="545" unicode="≠" d="M321 364l-67 -116h246q5 0 5 -5v-14q0 -5 -5 -5h-260l-70 -121q-2 -2 -5 -2h-2l-13 8q-4 1 -2 7l62 108h-165q-5 0 -5 5v14q0 5 5 5h179l67 116h-246q-5 0 -5 5v14q0 5 5 5h260l70 121q2 2 5 2h2l13 -8q4 -1 2 -7l-62 -108h165q5 0 5 -5v-14q0 -5 -5 -5h-179z"/>
<glyph glyph-name="lessequal" d="M45 118h454q5 0 5 -5v-14q0 -5 -5 -5h-454q-5 0 -5 5v14q0 5 5 5zM46 355l449 109h3q6 0 6 -6v-11q0 -7 -7 -9l-411 -96l411 -96q7 -2 7 -9v-11q0 -6 -6 -6h-3l-449 109q-6 1 -6 9v8q0 8 6 9z" unicode="≤"/>
<glyph glyph-name="greaterequal" d="M45 118h454q5 0 5 -5v-14q0 -5 -5 -5h-454q-5 0 -5 5v14q0 5 5 5zM49 464l449 -109q6 -1 6 -9v-8q0 -8 -6 -9l-449 -109h-3q-6 0 -6 6v11q0 7 7 9l411 96l-411 96q-7 2 -7 9v11q0 6 6 6h3z" unicode="≥"/>
<glyph glyph-name="lozenge" horiz-adv-x="382" unicode="◊" d="M62 549l129 -131l129 131l-129 131zM180 700h22q4 0 7 -3l130 -130q3 -3 3 -7v-22q0 -4 -3 -7l-130 -130q-3 -3 -7 -3h-22q-4 0 -7 3l-130 130q-3 3 -3 7v22q0 4 3 7l130 130q3 3 7 3z"/>
</font>
</defs>
</svg>
