<?xml version="1.0" encoding="UTF-8" standalone="no"?>
<!DOCTYPE svg  PUBLIC '-//W3C//DTD SVG 1.1//EN'  'http://www.w3.org/Graphics/SVG/1.1/DTD/svg11.dtd'>
<svg xmlns="http://www.w3.org/2000/svg">
<defs>
<font id="Webnar-ThinItalic" horiz-adv-x="542">
<font-face underline-position="-50" font-weight="250" descent="-200" panose-1="0 0 3 0 0 0 0 0 0 0" units-per-em="1000" unicode-range="U+0020-25CA" bbox="-100 -215 1357 958" x-height="500" underline-thickness="50" font-family="Webnar" ascent="800" font-style="italic" cap-height="700"/>
<missing-glyph horiz-adv-x="1000"/>
<glyph glyph-name=".notdef" horiz-adv-x="1000"/>
<glyph glyph-name=".null" horiz-adv-x="0"/>
<glyph glyph-name="nonmarkingreturn" horiz-adv-x="333"/>
<glyph glyph-name="space" horiz-adv-x="190" unicode=" "/>
<glyph glyph-name="exclam" horiz-adv-x="125" unicode="!" d="M55 51h33q6 0 5 -6l-7 -39q-2 -6 -8 -6h-32q-6 0 -5 6l7 39q2 6 7 6zM178 700h16q6 0 5 -6l-91 -499q-2 -6 -7 -6h-10q-7 0 -6 6l85 499q2 6 8 6z"/>
<glyph glyph-name="quotedbl" horiz-adv-x="221" unicode='&quot;' d="M282 700h16q6 0 5 -6l-36 -188q-1 -6 -7 -6h-11q-7 0 -5 6l30 187q2 7 8 7zM170 700h16q6 0 5 -6l-36 -188q-1 -6 -7 -6h-11q-7 0 -5 6l30 187q2 7 8 7z"/>
<glyph glyph-name="numbersign" horiz-adv-x="541" unicode="#" d="M435 419h-146l-61 -138h146zM563 700h13q6 0 6 -6v-2l-110 -249h100q9 0 5 -8l-5 -12q-1 -4 -7 -4h-103l-61 -138h99q10 0 6 -8l-5 -12q-1 -4 -7 -4h-103l-111 -253q-1 -4 -7 -4h-13q-10 0 -6 8l110 249h-146l-111 -253q-1 -4 -7 -4h-13q-6 0 -6 6v2l110 249h-100 q-9 0 -5 8l5 12q1 4 7 4h103l61 138h-99q-10 0 -6 8l5 12q1 4 7 4h103l111 253q1 4 7 4h13q10 0 6 -8l-110 -249h146l112 253q1 4 6 4z"/>
<glyph glyph-name="dollar" horiz-adv-x="549" unicode="$" d="M560 668q5 -4 4 -9l-2 -13q-2 -8 -9 -4q-78 47 -162 47h-8q-70 0 -130.5 -39.5t-72.5 -109.5l-1 -5q-2 -16 -2 -24q0 -44 34 -73.5t106 -54.5l48 -17q38 -13 61.5 -24t48.5 -29t36.5 -43t11.5 -58q0 -16 -3 -36l-2 -10q-14 -78 -82 -127.5t-159 -51.5l-22 -121 q-1 -6 -7 -6h-12q-8 0 -6 6l22 121q-87 3 -165 50q-5 4 -4 9l2 13q2 8 9 4q88 -52 174 -52h8q83 0 144 43.5t74 115.5l1 4q3 16 3 32q0 54 -36 82t-114 55l-48 17q-74 26 -111.5 59.5t-37.5 85.5q0 13 3 28l2 11q14 75 80 121t144 48l21 121q1 6 8 6h12q7 0 5 -6l-21 -121 q83 -1 155 -45z"/>
<glyph glyph-name="percent" horiz-adv-x="950" unicode="%" d="M812 366h-9q-66 0 -110 -45t-57 -118l-6 -31q-4 -20 -4 -43q0 -55 28.5 -86.5t84.5 -31.5h9q66 0 110.5 45t57.5 118l5 31q4 20 4 43q0 55 -28.5 86.5t-84.5 31.5zM805 390h11q65 0 99.5 -37.5t34.5 -102.5q0 -25 -4 -48l-5 -29q-15 -85 -66.5 -135.5t-127.5 -50.5h-11 q-65 0 -100 37.5t-35 102.5q0 20 5 48l5 29q15 85 66.5 135.5t127.5 50.5zM334 689h-9q-66 0 -110 -45t-57 -118l-6 -31q-4 -20 -4 -43q0 -55 28.5 -86.5t84.5 -31.5h9q66 0 110.5 45t57.5 118l5 31q4 20 4 43q0 55 -28.5 86.5t-84.5 31.5zM758 700h14q4 0 4 -4q0 -1 -1 -2 l-448 -688q-3 -6 -11 -6h-14q-2 0 -3.5 2t-0.5 4l449 688q3 6 11 6zM327 713h11q65 0 99.5 -37.5t34.5 -102.5q0 -25 -4 -48l-6 -29q-15 -85 -66.5 -135.5t-127.5 -50.5h-11q-65 0 -99.5 37.5t-34.5 102.5q0 20 5 48l5 29q15 85 66.5 135.5t127.5 50.5z"/>
<glyph glyph-name="ampersand" horiz-adv-x="683" unicode="&amp;" d="M529 351l-191 1q-106 0 -162.5 -50t-67.5 -114l-1 -9q-3 -18 -3 -34q0 -60 39.5 -97t113.5 -37h8q100 0 220 93zM405 713h7q56 0 107 -24q7 -3 5 -10l-2 -13q0 -4 -5 -2q-51 25 -109 25h-5q-79 0 -136 -42t-69 -111l-2 -10q-2 -14 -2 -22q0 -53 40 -90.5t125 -37.5 l174 -1l40 226q2 10 10 11l12 3q5 2 5 -4l-42 -236h161l-4 -24h-161l-45 -253q-3 -16 -3 -30q0 -57 65 -57h4q29 0 76 18q2 1 4.5 -0.5t1.5 -3.5l-3 -15q-2 -5 -5 -6q-44 -17 -75 -17h-6q-86 0 -86 77v9q-113 -86 -218 -86h-10q-83 0 -129.5 43t-46.5 110q0 17 3 35l4 21 q10 56 54 105t123 67q-47 18 -70.5 54t-23.5 76q0 8 2 24l4 22q13 75 77.5 122t153.5 47z"/>
<glyph glyph-name="quotesingle" horiz-adv-x="109" unicode="&apos;" d="M170 700h16q6 0 5 -6l-36 -188q-1 -6 -7 -6h-11q-7 0 -5 6l30 187q2 7 8 7z"/>
<glyph glyph-name="parenleft" horiz-adv-x="251" unicode="(" d="M331 713h1q3 0 3 -4l-2 -14q-2 -6 -6 -7q-49 -17 -83.5 -57.5t-49.5 -125.5l-77 -439q-6 -34 -6 -61q0 -91 71 -120q7 -4 6 -11l-2 -11q0 -2 -3 -2h-1q-98 23 -98 137q0 26 6 56l82 467q28 161 159 192z"/>
<glyph glyph-name="parenright" horiz-adv-x="251" unicode=")" d="M164 699l2 12q0 2 3 2h1q45 -11 71.5 -46.5t26.5 -94.5q0 -21 -5 -53l-83 -467q-28 -161 -159 -192h-1q-3 0 -3 4l2 14q2 6 6 7q49 17 83.5 57.5t49.5 125.5l77 439q6 35 6 61q0 91 -71 120q-7 4 -6 11z"/>
<glyph glyph-name="asterisk" horiz-adv-x="402" unicode="*" d="M313 700h20q7 0 5 -7l-28 -139l144 53q6 2 7 -4l3 -20q0 -5 -3 -6l-148 -46l79 -112q3 -3 -1 -7l-18 -13q-1 -1 -3 -1q-4 0 -5 2l-72 118l-116 -119q-2 -2 -3 -2q-2 0 -4 2l-13 12q-4 4 0 8l118 112l-129 46q-3 1 -3 4v3l10 21q1 4 7 2l126 -53l22 142q0 4 5 4z"/>
<glyph glyph-name="plus" horiz-adv-x="545" unicode="+" d="M360 530h12q6 0 5 -6l-33 -189h214q6 0 5 -6l-2 -12q-1 -6 -8 -6h-213l-33 -189q-1 -6 -8 -6h-12q-7 0 -5 6l33 189h-214q-7 0 -5 6l2 12q2 6 8 6h213l33 189q2 6 8 6z"/>
<glyph glyph-name="comma" horiz-adv-x="136" unicode="," d="M65 51h34q7 0 5 -6l-6 -33q0 -2 -0.5 -5t-1.5 -5l-59 -164q-2 -5 -7 -5h-16q-6 0 -4 5l59 162h-13q-8 0 -6 6l7 39q1 6 8 6z"/>
<glyph glyph-name="hyphen" horiz-adv-x="392" unicode="-" d="M106 335h299q7 0 5 -6l-2 -12q-2 -6 -8 -6h-299q-7 0 -5 6l2 12q2 6 8 6z"/>
<glyph glyph-name="period" horiz-adv-x="125" unicode="." d="M55 51h33q6 0 5 -6l-7 -39q-2 -6 -7 -6h-33q-6 0 -5 6l7 39q2 6 7 6z"/>
<glyph glyph-name="slash" horiz-adv-x="288" unicode="/" d="M351 700h13q6 0 6 -6v-1l-1 -1l-302 -688q-1 -4 -7 -4h-13q-6 0 -6 6l1 1v1l302 688q1 4 7 4z"/>
<glyph glyph-name="zero" horiz-adv-x="657" unicode="0" d="M457 689h-13q-100 0 -171 -70t-96 -210l-21 -120q-8 -43 -8 -87q0 -96 46 -143.5t129 -47.5h13q100 0 171 70t96 210l21 120q9 48 9 87q0 96 -46.5 143.5t-129.5 47.5zM446 713h15q92 0 144.5 -53.5t52.5 -157.5q0 -46 -8 -87l-23 -132q-26 -147 -104 -221.5t-188 -74.5 h-15q-92 0 -145 53.5t-53 157.5q0 46 8 87l24 132q26 147 104 221.5t188 74.5z"/>
<glyph glyph-name="one" horiz-adv-x="375" unicode="1" d="M313 700h9q6 0 5 -6l-118 -670h124q7 0 5 -6l-2 -12q-2 -6 -8 -6h-282q-6 0 -5 6l2 12q1 6 8 6h133l114 647l-144 -57q-2 -1 -4 0.5t-1 3.5l3 16q2 6 5 7l145 57q8 2 11 2z"/>
<glyph glyph-name="two" horiz-adv-x="549" unicode="2" d="M392 713h10q71 0 121.5 -39t50.5 -110q0 -17 -3 -35l-2 -11q-3 -16 -10.5 -34t-16.5 -34t-24.5 -36.5t-27 -34.5t-32.5 -36t-32.5 -33t-35 -32.5t-31.5 -29t-31.5 -28t-26.5 -22.5l-202 -174h388q7 0 5 -6l-2 -12q-2 -6 -8 -6h-416q-7 0 -5 6l2 13q1 5 6 10l205 180 q44 38 56.5 49t54 48.5t59 57.5t44.5 51.5t40 56.5t17 48l1 5q3 18 3 33q0 64 -44 97.5t-107 33.5h-8q-83 0 -181 -48q-2 -1 -4 0.5t-1 4.5l2 15q0 3 5 6q92 46 181 46z"/>
<glyph glyph-name="three" horiz-adv-x="532" unicode="3" d="M364 713h10q81 0 129.5 -39t48.5 -103q0 -19 -2 -29l-4 -22q-8 -46 -45.5 -89t-100.5 -64q62 -15 90.5 -54.5t28.5 -88.5q0 -15 -3 -30l-3 -21q-14 -79 -85.5 -132.5t-171.5 -53.5h-10q-95 0 -171 47q-5 4 -4 9l3 12q0 5 5 3q80 -47 170 -47h8q90 0 154.5 49t77.5 121 l1 9q3 15 3 29q0 56 -40 94.5t-133 38.5h-92q-8 0 -6 7l2 11q2 6 8 6h71q95 0 152 47.5t67 104.5l2 10q2 10 2 28q0 57 -42 90t-114 33h-8q-84 0 -182 -48q-2 -1 -4 0.5t-1 4.5l2 15q0 3 5 6q92 46 182 46z"/>
<glyph glyph-name="four" horiz-adv-x="593" unicode="4" d="M110 219h327l80 453zM517 700h23q6 0 5 -6l-83 -475h123q7 0 5 -6l-1 -12q-1 -6 -8 -6h-124l-33 -189q-2 -6 -7 -6h-13q-6 0 -5 6l33 189h-351q-8 0 -6 6l3 14q0 5 3 8l424 471q5 6 12 6z"/>
<glyph glyph-name="five" horiz-adv-x="532" unicode="5" d="M214 700h336q6 0 5 -6l-2 -12q-1 -6 -7 -6h-318l-52 -293q121 26 164 26q93 0 138 -43t45 -114q0 -19 -5 -46l-3 -19q-15 -84 -86.5 -142t-172.5 -58h-10q-96 0 -174 47q-5 4 -4 9l3 12q0 5 5 3q80 -47 173 -47h8q92 0 156.5 53.5t77.5 130.5l2 7q4 21 4 46 q0 137 -158 137q-20 0 -45 -3.5t-43 -7.5t-46 -10.5t-38 -8.5q-6 -2 -10 4l-4 6q-3 7 -2 12l55 317q2 6 8 6z"/>
<glyph glyph-name="six" horiz-adv-x="579" unicode="6" d="M393 392q-100 0 -230 -70l-9 -47q-8 -45 -8 -78q0 -88 41 -137t118 -49h7q90 0 152 58.5t77 142.5l2 7q3 21 3 39q0 62 -39 98t-114 36zM449 713h10q73 0 149 -47q5 -4 4 -9l-2 -12q0 -5 -5 -3q-78 47 -150 47h-8q-35 0 -69.5 -13.5t-74.5 -47.5t-75.5 -105t-59.5 -172 q122 65 227 65q85 0 131 -42t46 -112q0 -11 -4 -39l-3 -19q-16 -90 -85 -153.5t-169 -63.5h-9q-86 0 -133.5 55t-47.5 151q0 40 7 78l3 19q18 102 48 180t62 123t71 73t71 37.5t66 9.5z"/>
<glyph glyph-name="seven" horiz-adv-x="529" unicode="7" d="M170 700h436q7 0 5 -6l-1 -9q-1 -9 -8 -17l-303 -321q-9 -10 -10 -21l-57 -320q-2 -6 -7 -6h-13q-6 0 -5 6l58 329q1 11 10 21l301 320h-410q-8 0 -6 6l2 12q2 6 8 6z"/>
<glyph glyph-name="eight" horiz-adv-x="587" unicode="8" d="M374 352h-35q-106 0 -163 -50.5t-68 -113.5l-1 -9q-3 -15 -3 -28q0 -62 48.5 -101t135.5 -39h13q98 0 164 48.5t79 121.5l1 9q3 14 3 28q0 56 -40.5 95t-133.5 39zM419 689h-7q-85 0 -143.5 -42t-70.5 -111l-2 -10q-2 -14 -2 -23q0 -52 37.5 -89.5t116.5 -37.5h16 q92 0 147.5 47.5t65.5 104.5l2 10q2 10 2 28q0 57 -43 90t-119 33zM414 713h9q84 0 134 -39t50 -103q0 -19 -2 -29l-4 -22q-8 -46 -46 -89t-101 -64q62 -15 91 -55t29 -89q0 -15 -3 -29l-3 -21q-14 -80 -87.5 -133t-180.5 -53h-15q-96 0 -151.5 44.5t-55.5 113.5q0 15 3 30 l4 21q10 56 54 104.5t123 67.5q-47 18 -70.5 54t-23.5 76q0 8 2 24l4 22q14 76 80 122.5t160 46.5z"/>
<glyph glyph-name="nine" horiz-adv-x="579" unicode="9" d="M397 689h-7q-90 0 -152 -58.5t-77 -142.5l-1 -7q-4 -28 -4 -39q0 -62 39.5 -98t114.5 -36q99 0 229 70l10 47q7 39 7 78q0 88 -41 137t-118 49zM392 713h9q86 0 133.5 -55t47.5 -151q0 -40 -7 -78l-4 -19q-18 -102 -47.5 -180t-62 -123t-71 -73t-70.5 -37.5t-66 -9.5h-10 q-74 0 -150 47q-5 4 -4 9l3 12q0 5 5 3q78 -47 149 -47h8q35 0 69.5 13.5t74.5 47.5t75.5 105t59.5 172q-122 -65 -226 -65q-85 0 -131 42t-46 112q0 18 3 39l3 19q16 90 85.5 153.5t169.5 63.5z"/>
<glyph glyph-name="colon" horiz-adv-x="125" unicode=":" d="M55 51h33q6 0 5 -6l-7 -39q-2 -6 -8 -6h-32q-6 0 -5 6l7 39q2 6 7 6zM124 440h32q6 0 5 -6l-6 -39q-1 -6 -8 -6h-32q-7 0 -5 6l6 39q2 6 8 6z"/>
<glyph glyph-name="semicolon" horiz-adv-x="136" unicode=";" d="M65 51h34q7 0 5 -6l-6 -33q0 -2 -0.5 -5t-1.5 -5l-59 -164q-2 -5 -7 -5h-16q-6 0 -4 5l59 162h-13q-8 0 -6 6l7 39q1 6 8 6zM134 440h32q6 0 5 -6l-7 -39q-2 -6 -7 -6h-32q-7 0 -6 6l7 39q2 6 8 6z"/>
<glyph glyph-name="less" horiz-adv-x="544" unicode="&lt;" d="M96 292l484 173l2 1q4 0 4 -5l-3 -15q-2 -6 -6 -7l-449 -160l389 -159q7 -4 6 -10l-2 -15q0 -3 -3 -3h-2l-422 173q-6 3 -5 10l1 10q2 6 6 7z"/>
<glyph glyph-name="equal" horiz-adv-x="544" unicode="=" d="M90 248h451q7 0 6 -6l-2 -12q-1 -6 -8 -6h-451q-6 0 -5 6l2 12q1 6 7 6zM115 388h451q8 0 6 -6l-3 -12q-1 -6 -7 -6h-451q-7 0 -6 6l2 12q1 6 8 6z"/>
<glyph glyph-name="greater" horiz-adv-x="544" unicode="&gt;" d="M119 448l3 15q0 3 3 3h1l422 -173q7 -4 6 -10l-2 -10q-2 -6 -6 -7l-484 -173l-1 -1q-4 0 -4 5l3 15q2 6 5 7l449 160l-389 159q-7 4 -6 10z"/>
<glyph glyph-name="question" horiz-adv-x="502" unicode="?" d="M168 51h33q7 0 5 -6l-7 -39q-1 -6 -7 -6h-33q-7 0 -5 6l7 39q1 6 7 6zM352 713h10q92 0 143.5 -44.5t51.5 -113.5q0 -15 -3 -31l-3 -19q-14 -77 -79.5 -131.5t-163.5 -54.5q-32 0 -62 5l-25 -129q-1 -6 -7 -6h-10q-8 0 -6 6l24 142q0 3 4 5l9 6q1 1 8 1q40 -6 59 -6 q95 0 154 49.5t71 120.5l2 7q2 10 2 30q0 61 -45.5 100t-127.5 39h-8q-92 0 -190 -48q-2 -1 -4 0.5t-1 4.5l2 15q0 3 5 6q92 46 190 46z"/>
<glyph glyph-name="at" horiz-adv-x="846" unicode="@" d="M549 489h-4q-79 0 -133.5 -52.5t-71.5 -149.5l-14 -76q-6 -35 -6 -64q0 -136 134 -136h2q95 0 194 98l59 329q-77 51 -160 51zM508 648h146q120 0 185.5 -55t65.5 -165q0 -39 -7 -78l-48 -270q-17 -93 -102 -93h-31q-25 0 -49.5 15.5t-24.5 52.5q0 5 2 19 q-44 -44 -95 -65.5t-95 -21.5h-4q-77 0 -116.5 40.5t-39.5 118.5q0 24 7 68l13 74q19 109 80.5 167t151.5 58h6q41 0 90 -16.5t85 -37.5q8 -5 6 -14l-62 -352q-2 -10 -2 -28q0 -54 49 -54h31q14 0 27.5 5t29 25t21.5 54l44 251q7 39 7 77q0 201 -228 201h-144 q-130 0 -213 -69.5t-108 -210.5l-33 -186q-7 -39 -7 -77q0 -201 228 -201h235q7 0 6 -6l-2 -12q-1 -6 -8 -6h-235q-120 0 -185 55t-65 165q0 39 7 78l35 198q26 148 116 222t230 74z"/>
<glyph glyph-name="A" horiz-adv-x="610" unicode="A" d="M422 672l-157 -299l-59 -109h291l-19 109l-53 299h-3zM418 700h17q11 0 13 -10l122 -684q2 -6 -6 -6h-11q-8 0 -10 8l-42 232h-308l-125 -235q-3 -5 -8 -5h-11q-7 0 -7 6q0 2 1 3l364 684q3 7 11 7z"/>
<glyph glyph-name="B" horiz-adv-x="603" unicode="B" d="M187 352l-58 -328h219q184 0 211 154l2 7q3 19 3 39q0 128 -173 128h-204zM244 676l-53 -300h183q97 0 152 44t67 108l1 4q3 19 3 37q0 53 -37.5 80t-120.5 27h-195zM232 700h211q180 0 180 -126q0 -18 -3 -38l-3 -16q-9 -51 -45 -92t-97 -61q115 -27 115 -139 q0 -13 -4 -39l-3 -19q-30 -170 -236 -170h-241q-6 0 -5 6l121 686q2 8 10 8z"/>
<glyph glyph-name="C" horiz-adv-x="595" unicode="C" d="M484 713h10q86 0 162 -47q5 -4 4 -9l-2 -12q0 -5 -5 -3q-80 47 -163 47h-8q-107 0 -194.5 -75.5t-111.5 -212.5l-19 -104q-6 -37 -6 -70q0 -105 59 -160.5t151 -55.5h8q83 0 179 47q2 2 4.5 0.5t1.5 -4.5l-2 -13q-2 -6 -7 -9q-90 -45 -178 -45h-10q-101 0 -166.5 61.5 t-65.5 173.5q0 27 7 71l20 116q26 144 120.5 224t211.5 80z"/>
<glyph glyph-name="D" horiz-adv-x="667" unicode="D" d="M616 304l16 94q8 46 8 79q0 100 -52 149.5t-141 49.5h-203l-115 -652h201q105 0 183.5 70.5t102.5 209.5zM230 700h221q97 0 155.5 -56t58.5 -163q0 -40 -7 -79l-19 -106q-26 -146 -110.5 -221t-199.5 -75h-223q-6 0 -5 6l121 688q2 6 8 6z"/>
<glyph glyph-name="E" horiz-adv-x="564" unicode="E" d="M191 374h362q7 0 6 -6l-2 -12q-1 -6 -8 -6h-362l-58 -326h383q6 0 5 -6l-2 -12q-1 -6 -7 -6h-402q-6 0 -5 6l121 688q2 6 8 6h401q7 0 5 -6l-2 -12q-2 -6 -7 -6h-383z"/>
<glyph glyph-name="F" horiz-adv-x="564" unicode="F" d="M230 700h401q7 0 5 -6l-2 -12q-2 -6 -7 -6h-383l-53 -302h363q6 0 5 -6l-2 -12q-1 -6 -8 -6h-362l-61 -344q-2 -6 -8 -6h-12q-6 0 -5 6l121 688q2 6 8 6z"/>
<glyph glyph-name="G" horiz-adv-x="653" unicode="G" d="M497 713h10q86 0 162 -47q5 -4 4 -9l-2 -12q0 -5 -5 -3q-80 47 -163 47h-8q-110 0 -202.5 -75.5t-116.5 -212.5l-19 -104q-6 -35 -6 -65q0 -107 63.5 -164t159.5 -57h8q78 0 159 38l51 284q2 6 7 6h12q7 0 6 -6l-50 -289q-2 -9 -9 -12q-90 -45 -177 -45h-10 q-104 0 -175 62t-71 175q0 35 7 69l20 116q26 144 125.5 224t219.5 80z"/>
<glyph glyph-name="H" horiz-adv-x="683" unicode="H" d="M688 700h12q6 0 5 -6l-121 -688q-2 -6 -8 -6h-12q-6 0 -5 6l61 344h-433l-61 -344q-2 -6 -8 -6h-12q-6 0 -5 6l121 688q2 6 8 6h12q6 0 5 -6l-56 -320h433l56 320q2 6 8 6z"/>
<glyph glyph-name="I" horiz-adv-x="225" unicode="I" d="M230 700h12q6 0 5 -6l-121 -688q-2 -6 -8 -6h-12q-6 0 -5 6l121 688q2 6 8 6z"/>
<glyph glyph-name="J" horiz-adv-x="389" unicode="J" d="M394 700h12q6 0 5 -6l-95 -541q-30 -166 -162 -166h-5q-53 0 -98 32q-6 5 -5 11l2 13q2 6 6 2q47 -34 98 -34h3q111 0 137 150l94 533q2 6 8 6z"/>
<glyph glyph-name="K" horiz-adv-x="604" unicode="K" d="M353 354l212 -348q4 -6 -3 -6h-18q-7 0 -10 5l-206 337h-143l-59 -336q-2 -6 -8 -6h-12q-6 0 -5 6l121 688q2 6 8 6h12q6 0 5 -6l-57 -328h142l305 330q4 4 8 4h17q4 0 4 -4q0 -2 -1 -3z"/>
<glyph glyph-name="L" horiz-adv-x="534" unicode="L" d="M129 24h363q6 0 5 -6l-2 -14q0 -4 -5 -4h-384q-6 0 -5 6l121 688q2 6 8 6h12q6 0 5 -6z"/>
<glyph glyph-name="M" horiz-adv-x="830" unicode="M" d="M829 700h15q10 0 8 -9l-121 -687q0 -4 -5 -4h-11q-10 0 -8 10l113 644h-1l-184 -232l-175 -217q-3 -3 -7 -3h-9q-5 0 -6 4l-98 216l-102 232h-3l-114 -648q-1 -6 -7 -6h-13q-7 0 -5 6l121 688q1 6 8 6h15q6 0 9 -5l204 -458h2l367 460q3 3 7 3z"/>
<glyph glyph-name="N" horiz-adv-x="682" unicode="N" d="M689 700h15q6 0 5 -6l-121 -688q-2 -6 -7 -6h-19q-5 0 -8 5l-182 378l-134 278h-1l-116 -657q0 -4 -5 -4h-15q-7 0 -5 6l121 688q1 6 8 6h19q5 0 8 -5l316 -656h1l116 657q0 4 4 4z"/>
<glyph glyph-name="O" horiz-adv-x="693" unicode="O" d="M475 689h-13q-105 0 -183 -70.5t-102 -209.5l-21 -120q-7 -41 -7 -79q0 -100 51.5 -149.5t140.5 -49.5h13q105 0 183 70.5t102 209.5l21 120q8 46 8 79q0 100 -52 149.5t-141 49.5zM464 713h15q98 0 156.5 -56t58.5 -163q0 -34 -8 -79l-23 -132q-26 -146 -110.5 -221 t-199.5 -75h-15q-98 0 -156.5 56t-58.5 163q0 40 7 79l24 132q26 146 110.5 221t199.5 75z"/>
<glyph glyph-name="P" horiz-adv-x="630" unicode="P" d="M611 490l2 12q4 20 4 41q0 133 -197 133h-176l-66 -378h174q117 0 180.5 52.5t78.5 139.5zM230 700h194q219 0 219 -152q0 -22 -4 -42l-4 -24q-16 -94 -87 -151t-198 -57h-177l-47 -268q-2 -6 -8 -6h-12q-6 0 -5 6l121 688q2 6 8 6z"/>
<glyph glyph-name="Q" horiz-adv-x="693" unicode="Q" d="M639 291l21 120q8 46 8 79q0 100 -52 149.5t-141 49.5h-13q-105 0 -183 -70.5t-102 -209.5l-21 -120q-7 -41 -7 -79q0 -100 51.5 -149.5t140.5 -49.5h13q105 0 183 70.5t102 209.5zM464 713h15q98 0 156.5 -56t58.5 -163q0 -34 -8 -79l-23 -132q-35 -194 -172 -264 l101 -123q4 -4 0 -7l-13 -10q-1 -1 -3 -1t-4 2l-106 128q-52 -21 -113 -21h-15q-98 0 -156.5 56t-58.5 163q0 40 7 79l24 132q26 146 110.5 221t199.5 75z"/>
<glyph glyph-name="R" horiz-adv-x="614" unicode="R" d="M244 676l-63 -358h174q117 0 180.5 52t77.5 132l2 7q4 20 4 43q0 62 -45.5 93t-148.5 31h-181zM230 700h199q216 0 216 -143q0 -19 -5 -44l-3 -19q-13 -75 -68.5 -128.5t-152.5 -67.5l55 -103l103 -190q2 -5 -3 -5h-17q-6 0 -9 6l-157 288h-211l-51 -288q-2 -7 -8 -7h-12 q-7 0 -5 7l121 688q2 6 8 6z"/>
<glyph glyph-name="S" horiz-adv-x="549" unicode="S" d="M300 360q-74 26 -111.5 59.5t-37.5 85.5q0 13 3 28l2 11q14 77 83 123t149 46h10q89 0 162 -45q5 -4 4 -9l-2 -13q-2 -8 -9 -4q-78 47 -162 47h-8q-70 0 -130.5 -39.5t-72.5 -109.5l-1 -5q-2 -16 -2 -24q0 -44 34 -73.5t106 -54.5l48 -17q38 -13 61.5 -24t48.5 -29 t36.5 -43t11.5 -58q0 -16 -3 -36l-2 -10q-14 -79 -84 -129t-163 -50h-10q-91 0 -174 50q-5 4 -4 9l2 13q2 8 9 4q88 -52 174 -52h8q83 0 144 43.5t74 115.5l1 4q3 16 3 32q0 54 -36 82t-114 55z"/>
<glyph glyph-name="T" horiz-adv-x="599" unicode="T" d="M170 700h506q6 0 5 -6l-2 -12q-1 -6 -7 -6h-241l-118 -670q-1 -6 -8 -6h-12q-7 0 -5 6l118 670h-240q-8 0 -6 6l2 12q2 6 8 6z"/>
<glyph glyph-name="U" horiz-adv-x="688" unicode="U" d="M699 700h11q6 0 5 -6l-78 -447q-22 -127 -97 -193.5t-187 -66.5h-15q-95 0 -148 49.5t-53 143.5q0 25 7 69l78 445q2 6 8 6h11q7 0 5 -6l-77 -441q-7 -44 -7 -69q0 -86 46.5 -129.5t132.5 -43.5h13q103 0 171 62t89 182l77 439q1 6 8 6z"/>
<glyph glyph-name="V" horiz-adv-x="602" unicode="V" d="M666 700h15q3 0 3 -3v-2l-363 -690q-3 -5 -8 -5h-23q-6 0 -8 6l-119 688q-1 6 6 6h13q6 0 8 -6l73 -426l42 -240h2l349 666q3 6 10 6z"/>
<glyph glyph-name="W" horiz-adv-x="960" unicode="W" d="M1025 700h14q5 0 3 -5l-326 -690q-3 -5 -8 -5h-24q-8 0 -8 7l-32 271l-45 385h-3l-181 -385l-129 -273q-3 -5 -8 -5h-24q-8 0 -8 7l-83 687q0 6 5 6h13q8 0 8 -7l32 -272l47 -392h3l315 667q1 4 7 4h18q8 0 8 -7l32 -272l48 -392h2l314 665q3 6 10 6z"/>
<glyph glyph-name="X" horiz-adv-x="580" unicode="X" d="M635 700h17q4 0 4 -4q0 -2 -1 -3l-283 -336l169 -352q2 -5 -3 -5h-19q-5 0 -8 5l-120 252l-39 81h-3l-277 -333q-3 -5 -10 -5h-17q-4 0 -4 4q0 2 1 3l293 350l-165 338q-2 5 3 5h19q5 0 8 -5l115 -238l40 -81h3l267 319q3 5 10 5z"/>
<glyph glyph-name="Y" horiz-adv-x="613" unicode="Y" d="M674 700h17q4 0 4 -4q0 -1 -1 -2l-333 -452l-41 -236q-2 -6 -8 -6h-11q-7 0 -5 6l41 236l-173 450q-1 3 1 5.5t5 2.5h15q5 0 7 -5l115 -299l47 -121h2l310 421q3 4 8 4z"/>
<glyph glyph-name="Z" horiz-adv-x="566" unicode="Z" d="M90 24h419q7 0 5 -6l-2 -12q-2 -6 -8 -6h-443q-7 0 -5 6l2 13q1 5 4 9l533 648h-400q-7 0 -6 6l2 12q1 6 8 6h424q7 0 5 -6l-2 -13q-1 -5 -4 -9z"/>
<glyph glyph-name="bracketleft" horiz-adv-x="312" unicode="[" d="M230 700h159q7 0 6 -6l-3 -12q-2 -6 -7 -6h-141l-137 -779h140q7 0 6 -6l-2 -12q-1 -6 -8 -6h-159q-6 0 -5 6l143 815q2 6 8 6z"/>
<glyph glyph-name="backslash" horiz-adv-x="288" unicode="\" d="M168 700h16q5 0 5 -5l59 -689q0 -6 -5 -6h-16q-5 0 -5 5l-59 689q0 6 5 6z"/>
<glyph glyph-name="bracketright" horiz-adv-x="312" unicode="]" d="M170 700h159q7 0 6 -6l-144 -815q-1 -6 -8 -6h-159q-6 0 -5 6l2 12q1 6 7 6h141l137 779h-140q-8 0 -6 6l2 12q2 6 8 6z"/>
<glyph glyph-name="asciicircum" horiz-adv-x="369" unicode="^" d="M307 713h6q8 0 10 -8l71 -344q0 -4 -3 -4h-14q-8 0 -10 8l-62 309h-2l-172 -310q-3 -7 -12 -7h-13q-4 0 -4 3v1q1 1 1 2l192 343q3 7 12 7z"/>
<glyph glyph-name="underscore" horiz-adv-x="544" unicode="_" d="M38 -47h451q7 0 6 -6l-2 -12q-1 -6 -8 -6h-451q-6 0 -5 6l2 12q1 6 7 6z"/>
<glyph glyph-name="grave" horiz-adv-x="180" unicode="`" d="M210 958h17q7 0 9 -7l44 -162q2 -4 -3 -4h-10q-7 0 -9 7l-51 162q-2 4 3 4z"/>
<glyph glyph-name="a" d="M348 489h-2q-81 0 -132 -51.5t-68 -150.5l-14 -76q-6 -35 -6 -64q0 -136 134 -136h2q95 0 194 98l51 284q-64 96 -159 96zM348 513h4q43 0 86.5 -22.5t72.5 -65.5l13 69q2 6 8 6h12q6 0 5 -6l-86 -488q-1 -6 -7 -6h-12q-8 0 -6 6l12 67q-89 -86 -189 -86h-4 q-77 0 -116.5 40.5t-39.5 118.5q0 24 7 68l13 74q19 111 77 168t150 57z" unicode="a"/>
<glyph glyph-name="b" horiz-adv-x="547" unicode="b" d="M370 489h-2q-94 0 -193 -98l-60 -329q77 -51 160 -51h4q80 0 137 53t74 149l13 76q6 33 6 60q0 140 -139 140zM216 737h12q8 0 6 -6l-54 -304q44 43 95.5 64.5t94.5 21.5h4q78 0 119 -41.5t41 -120.5q0 -25 -7 -65l-13 -74q-19 -109 -82.5 -167t-153.5 -58h-6 q-40 0 -89 16t-84 37q-9 6 -8 18l118 673q1 6 7 6z"/>
<glyph glyph-name="c" horiz-adv-x="507" unicode="c" d="M375 513h11q67 0 130 -42q5 -4 4 -9l-2 -12q0 -2 -2 -3t-4 0q-65 42 -130 42h-9q-82 0 -146 -53.5t-81 -148.5l-14 -76q-4 -21 -4 -46q0 -73 44 -113.5t115 -40.5h9q66 0 145 42q2 2 4.5 0.5t1.5 -4.5l-2 -13q-2 -6 -7 -9q-73 -40 -143 -40h-11q-80 0 -130.5 45.5 t-50.5 129.5q0 22 5 52l13 74q19 107 90.5 166t163.5 59z"/>
<glyph glyph-name="d" horiz-adv-x="547" unicode="d" d="M353 489h-2q-82 0 -135 -52t-70 -150l-14 -76q-6 -33 -6 -60q0 -140 139 -140h2q95 0 194 98l51 284q-64 96 -159 96zM578 737h13q7 0 5 -6l-128 -725q-2 -6 -7 -6h-12q-7 0 -6 6l12 67q-89 -86 -189 -86h-4q-78 0 -119 41.5t-41 120.5q0 31 6 65l13 74 q19 110 79.5 167.5t152.5 57.5h4q43 0 86.5 -22.5t72.5 -65.5l55 306q1 6 7 6z"/>
<glyph glyph-name="e" horiz-adv-x="534" unicode="e" d="M367 489h-9q-78 0 -137 -57.5t-77 -153.5l346 2q7 38 7 73q0 136 -130 136zM360 513h11q152 0 152 -157q0 -26 -7 -70l-4 -23q-2 -8 -9 -8h-363l-11 -63q-4 -26 -4 -38q0 -67 44.5 -105t117.5 -38h4q71 0 162 43q2 1 4.5 -1t1.5 -4l-2 -12q-2 -7 -7 -10q-85 -40 -160 -40 h-6q-82 0 -133 44t-51 121q0 23 4 43l15 82q19 109 85.5 172.5t155.5 63.5z"/>
<glyph glyph-name="f" horiz-adv-x="344" unicode="f" d="M435 733q8 -4 6 -10l-2 -12q0 -1 -1.5 -2t-3.5 0q-39 17 -74 17h-4q-42 0 -76.5 -28.5t-44.5 -83.5l-20 -114h155q6 0 5 -6l-2 -12q-1 -6 -8 -6h-154l-112 -637q-1 -6 -8 -6h-12q-7 0 -5 6l112 637h-66q-6 0 -5 6l2 12q1 6 8 6h65l20 115q12 68 53 101.5t94 33.5h6 q33 0 72 -17z"/>
<glyph glyph-name="g" d="M355 489h-4q-79 0 -133.5 -52.5t-71.5 -149.5l-14 -76q-6 -35 -6 -64q0 -136 134 -136h2q95 0 194 98l59 329q-77 51 -160 51zM353 513h6q40 0 88.5 -16t83.5 -37q9 -6 8 -18l-76 -436q-34 -186 -215 -186h-6q-77 0 -147 41q-6 4 -4 10l2 13q0 4 5 2q74 -42 148 -42h4 q159 0 188 163l12 66q-89 -86 -189 -86h-4q-77 0 -116.5 40.5t-39.5 118.5q0 24 7 68l13 74q19 109 80.5 167t151.5 58z" unicode="g"/>
<glyph glyph-name="h" horiz-adv-x="543" unicode="h" d="M218 737h13q7 0 5 -6l-53 -297q46 35 100 57t97 22h4q144 0 144 -132q0 -25 -6 -57l-56 -318q-2 -6 -7 -6h-13q-6 0 -5 6l57 321q5 32 5 53q0 54 -29 81.5t-94 27.5h-2q-90 0 -200 -88l-70 -395q-2 -6 -7 -6h-13q-6 0 -5 6l128 725q1 6 7 6z"/>
<glyph glyph-name="i" horiz-adv-x="201" unicode="i" d="M184 500h12q6 0 5 -6l-86 -488q-1 -6 -7 -6h-13q-7 0 -5 6l86 488q2 6 8 6zM203 651h26q7 0 6 -6l-7 -39q-2 -6 -8 -6h-26q-6 0 -5 6l7 39q2 6 7 6z"/>
<glyph glyph-name="j" horiz-adv-x="269" unicode="j" d="M252 500h12q6 0 5 -6l-103 -587q-8 -46 -35.5 -66.5t-61.5 -20.5h-6q-22 0 -54 13q-8 4 -6 10l2 12q0 1 1.5 2t3.5 0q30 -13 57 -13h4q23 0 43.5 15.5t26.5 48.5l103 586q2 6 8 6zM271 651h27q6 0 5 -6l-7 -39q-2 -6 -8 -6h-26q-6 0 -5 6l7 39q2 6 7 6z"/>
<glyph glyph-name="k" horiz-adv-x="461" unicode="k" d="M218 737h12q8 0 6 -6l-81 -461h112l203 227q3 3 7 3h18q4 0 4 -4q0 -2 -1 -3l-211 -235l146 -252q4 -6 -3 -6h-19q-6 0 -9 5l-139 241h-113l-42 -240q-2 -6 -8 -6h-12q-6 0 -5 6l128 725q1 6 7 6z"/>
<glyph glyph-name="l" horiz-adv-x="185" unicode="l" d="M218 737h12q8 0 6 -6l-128 -725q-2 -6 -8 -6h-12q-6 0 -5 6l128 725q1 6 7 6z"/>
<glyph glyph-name="m" horiz-adv-x="885" unicode="m" d="M729 513h4q72 0 104.5 -32t32.5 -95q0 -28 -6 -62l-56 -318q-2 -6 -7 -6h-13q-6 0 -5 6l57 321q6 31 6 58q0 52 -27.5 78t-89.5 26h-2q-93 0 -207 -95q0 -34 -7 -70l-56 -318q-1 -6 -7 -6h-13q-7 0 -5 6l57 321q6 31 6 58q0 52 -27.5 78t-89.5 26h-2q-90 0 -200 -88 l-70 -395q-2 -6 -7 -6h-13q-6 0 -5 6l86 488q1 6 8 6h12q7 0 5 -6l-11 -60q46 35 100 57t97 22h4q120 0 134 -93q52 42 109.5 67.5t103.5 25.5z"/>
<glyph glyph-name="n" horiz-adv-x="539" unicode="n" d="M378 513h4q142 0 142 -130q0 -27 -6 -59l-56 -318q-2 -6 -7 -6h-13q-6 0 -5 6l57 321q5 33 5 54q0 54 -28.5 81t-92.5 27h-2q-90 0 -200 -88l-70 -395q-2 -6 -7 -6h-13q-6 0 -5 6l86 488q1 6 8 6h12q7 0 5 -6l-11 -60q46 35 100 57t97 22z"/>
<glyph glyph-name="o" horiz-adv-x="563" unicode="o" d="M373 489h-9q-81 0 -141 -53t-77 -149l-14 -76q-4 -24 -4 -50q0 -72 40 -111t110 -39h9q81 0 141.5 53t77.5 149l13 76q5 30 5 50q0 72 -40.5 111t-110.5 39zM366 513h11q78 0 125 -44.5t47 -126.5q0 -26 -6 -56l-13 -74q-19 -108 -85.5 -166.5t-158.5 -58.5h-11 q-78 0 -125 44.5t-47 126.5q0 31 5 56l13 74q19 108 86 166.5t159 58.5z"/>
<glyph glyph-name="p" horiz-adv-x="549" unicode="p" d="M372 489h-2q-94 0 -193 -98l-52 -284q64 -96 159 -96h2q82 0 135.5 52t70.5 150l13 76q6 33 6 60q0 140 -139 140zM372 513h4q78 0 119 -41.5t41 -120.5q0 -25 -7 -65l-13 -74q-19 -110 -79 -167.5t-152 -57.5h-4q-43 0 -87 22.5t-73 65.5l-42 -236q-1 -6 -8 -6h-12 q-7 0 -5 6l115 655q1 6 8 6h12q7 0 5 -6l-12 -67q44 43 95.5 64.5t94.5 21.5z"/>
<glyph glyph-name="q" d="M355 489h-4q-79 0 -133.5 -52.5t-71.5 -149.5l-14 -76q-6 -35 -6 -64q0 -136 134 -136h2q95 0 194 98l59 329q-77 51 -160 51zM353 513h6q40 0 88.5 -16t83.5 -37q9 -6 8 -18l-105 -603q-2 -6 -8 -6h-12q-6 0 -5 6l41 234q-89 -86 -189 -86h-4q-77 0 -116.5 40.5 t-39.5 118.5q0 24 7 68l13 74q19 109 80.5 167t151.5 58z" unicode="q"/>
<glyph glyph-name="r" horiz-adv-x="348" unicode="r" d="M367 513h4q8 0 28 -2q8 -2 6 -10l-1 -9q-2 -5 -7 -5q-11 2 -30 2h-2q-84 0 -192 -108l-67 -375q-2 -6 -7 -6h-13q-6 0 -5 6l86 488q1 6 8 6h12q7 0 5 -6l-14 -76q95 95 189 95z"/>
<glyph glyph-name="s" horiz-adv-x="423" unicode="s" d="M294 513h11q68 0 133 -42q5 -4 4 -9l-2 -12q0 -6 -6 -3q-66 42 -133 42h-9q-56 0 -100.5 -28t-53.5 -75l-1 -7q-2 -10 -2 -15q0 -8 2 -15.5t4.5 -13t8.5 -11.5l10 -10t13 -8.5t13.5 -7t15.5 -7t15 -5.5t17 -5.5t16 -5.5l22 -8q45 -16 69 -27.5t43 -34.5t19 -54 q0 -11 -3 -25l-1 -5q-11 -64 -63.5 -99t-119.5 -35h-11q-34 0 -74.5 12t-68.5 30q-5 4 -4 9l3 12q0 6 5 3q66 -42 142 -42h9q57 0 102.5 29.5t54.5 81.5l2 7q1 7 1 18q0 20 -8 35t-26 26t-31.5 17t-38.5 15l-22 8q-80 28 -103 45q-38 27 -38 68q0 5 2 19l1 7q11 60 62.5 93 t118.5 33z"/>
<glyph glyph-name="t" horiz-adv-x="318" unicode="t" d="M218 612l11 2h1q6 0 4 -5l-19 -109h155q6 0 5 -6l-2 -12q-1 -6 -8 -6h-154l-67 -378q-3 -16 -3 -30q0 -57 65 -57h4q29 0 76 18q2 1 4.5 -0.5t1.5 -3.5l-3 -14q-2 -6 -5 -7q-44 -17 -75 -17h-6q-87 0 -87 79q0 9 4 35l66 375h-66q-6 0 -5 6l2 12q1 6 8 6h65l18 101 q2 10 10 11z"/>
<glyph glyph-name="u" horiz-adv-x="529" unicode="u" d="M521 500h12q7 0 5 -6l-86 -488q-2 -6 -8 -6h-11q-7 0 -6 6l11 60q-46 -35 -99.5 -57t-96.5 -22h-4q-135 0 -135 126q0 29 6 63l56 318q1 6 8 6h12q7 0 5 -6l-56 -321q-6 -32 -6 -59q0 -52 26 -77.5t87 -25.5h2q90 0 200 88l70 395q1 6 8 6z"/>
<glyph glyph-name="v" horiz-adv-x="483" unicode="v" d="M522 500h14q4 0 4 -3v-3l-277 -489q-3 -5 -8 -5h-25q-6 0 -8 6l-104 487q-2 7 6 7h13q5 0 7 -6l54 -251l47 -219h2l123 219l142 252q3 5 10 5z"/>
<glyph glyph-name="w" horiz-adv-x="729" unicode="w" d="M769 500h14q5 0 3 -5l-236 -490q-3 -5 -9 -5h-25q-6 0 -8 7l-19 149l-40 315h-3l-151 -315l-72 -151q-3 -5 -8 -5h-26q-6 0 -8 7l-63 487q0 6 5 6h13q6 0 8 -7l28 -216l33 -251h2l121 251l104 218q3 5 8 5h23q6 0 8 -7l28 -216l33 -251h2l120 251l105 217q3 6 10 6z"/>
<glyph glyph-name="x" horiz-adv-x="435" unicode="x" d="M464 500h16q4 0 4 -4q0 -2 -1 -3l-203 -235l127 -253q2 -5 -4 -5h-18q-5 0 -8 5l-93 185l-23 45h-3l-38 -45l-160 -186q-3 -4 -10 -4h-16q-4 0 -4 4q0 2 1 3l215 251l-122 237q-2 5 4 5h18q5 0 8 -5l111 -215h3l38 45l148 171q3 4 10 4z"/>
<glyph glyph-name="y" horiz-adv-x="487" unicode="y" d="M526 500h14q4 0 4 -3v-3l-312 -549q-39 -68 -71 -96.5t-79 -28.5h-6q-24 0 -55 14q-7 3 -5 10l2 12q0 4 4 2q32 -14 58 -14h4q34 0 61 22.5t59 79.5l31 54h-3q-7 0 -9 8l-105 485q-2 7 6 7h13q5 0 7 -6l64 -298l38 -172h3l267 471q3 5 10 5z"/>
<glyph glyph-name="z" horiz-adv-x="439" unicode="z" d="M150 500h326q7 0 5 -6l-2 -14q0 -3 -3 -6l-400 -450h321q7 0 5 -6l-2 -12q-2 -6 -8 -6h-346q-7 0 -5 6l2 14q0 3 3 6l401 450h-302q-7 0 -5 6l2 12q2 6 8 6z"/>
<glyph glyph-name="braceleft" horiz-adv-x="340" unicode="{" d="M302 700h115q7 0 5 -6l-2 -12q-2 -6 -7 -6h-112q-29 0 -34 -31l-57 -321q-5 -25 -23 -39q10 -10 10 -29q0 -7 -1 -10l-56 -320q0 -2 -0.5 -4.5t-0.5 -3.5q0 -21 23 -21h113q7 0 6 -6l-2 -12q-1 -6 -8 -6h-114q-19 0 -31 11.5t-12 30.5q0 6 1 10l56 320q0 2 0.5 4.5 t0.5 3.5q0 21 -23 21h-54q-7 0 -6 6l2 12q1 6 8 6h53q29 0 34 31l57 321q4 22 20 36t39 14z"/>
<glyph glyph-name="bar" horiz-adv-x="225" unicode="|" d="M230 700h12q6 0 5 -6l-134 -762q-1 -6 -8 -6h-12q-7 0 -5 6l134 762q2 6 8 6z"/>
<glyph glyph-name="braceright" horiz-adv-x="340" unicode="}" d="M170 700h114q19 0 31 -11.5t12 -30.5q0 -6 -1 -10l-57 -321v-8q0 -21 23 -21h54q6 0 5 -6l-2 -12q-1 -6 -7 -6h-53q-29 0 -34 -31l-57 -320q-4 -22 -20 -36t-39 -14h-115q-6 0 -5 6l2 12q1 6 7 6h112q29 0 34 31l57 320q5 25 23 39q-10 10 -10 29v10l57 321q0 2 0.5 4.5 t0.5 3.5q0 21 -23 21h-113q-8 0 -6 6l2 12q2 6 8 6z"/>
<glyph glyph-name="asciitilde" horiz-adv-x="462" unicode="~" d="M213 345q35 0 77 -24.5t70 -24.5q36 0 114 38q6 2 6 -4l-1 -12q0 -5 -5 -7q-76 -39 -116 -39q-35 0 -77 24.5t-70 24.5q-37 0 -115 -38q-5 -2 -5 4l1 13q0 5 5 7q3 1 13.5 6.5t14 7t13.5 6t15 6.5t14 5t15.5 4t14.5 2t16 1z"/>
<glyph glyph-name="exclamdown" horiz-adv-x="125" unicode="¡" d="M118 344h10q8 0 6 -6l-85 -499q-1 -6 -8 -6h-16q-7 0 -5 6l90 499q2 6 8 6zM140 533h33q7 0 5 -6l-7 -39q-1 -6 -8 -6h-32q-7 0 -5 6l7 39q1 6 7 6z"/>
<glyph glyph-name="cent" horiz-adv-x="507" unicode="¢" d="M516 471q5 -4 4 -9l-2 -12q0 -2 -2 -3t-4 0q-65 42 -130 42h-9q-82 0 -146 -53.5t-81 -148.5l-14 -76q-4 -21 -4 -46q0 -73 44 -113.5t115 -40.5h9q66 0 145 42q2 2 4.5 0.5t1.5 -4.5l-2 -13q-2 -6 -7 -9q-70 -39 -137 -40l-22 -121q-1 -6 -7 -6h-12q-8 0 -6 6l22 121 q-77 2 -125 48t-48 127q0 22 5 52l13 74q19 105 88 164t159 61l22 121q2 6 7 6h12q7 0 6 -6l-22 -121q65 -3 123 -42z"/>
<glyph glyph-name="sterling" d="M587 666q5 -4 4 -9l-2 -12q0 -5 -5 -3q-39 24 -72.5 35.5t-81.5 11.5h-8q-78 0 -136.5 -50.5t-73.5 -134.5l-1 -5q-9 -52 -9 -119v-34v-7h238q8 0 6 -6l-2 -12q-2 -6 -8 -6h-234q-2 -42 -8 -77q-12 -65 -34.5 -113t-61.5 -102l392 1q6 0 5 -6l-2 -12q-1 -6 -8 -6h-412 q-7 0 -5 6l1 10q1 5 4 9q27 40 40.5 61t30.5 62.5t25 87.5q5 28 7 79h-74q-6 0 -5 6l2 12q1 6 7 6h71q0 111 9 162l2 11q16 90 82.5 145.5t153.5 55.5h10q77 0 153 -47z" unicode="£"/>
<glyph glyph-name="currency" horiz-adv-x="603" unicode="¤" d="M563 281q3 18 3 36q0 74 -49 123t-125 49h-2h-1q-87 0 -159 -62t-89 -150q-3 -19 -3 -38q0 -74 49 -122.5t126 -48.5q88 0 161 62.5t89 150.5zM646 540l8 -11q2 -2 2 -3q0 -2 -2 -4l-100 -85q37 -49 37 -118q0 -23 -4 -42q-16 -90 -88 -157l69 -82q3 -3 -1 -7l-13 -11 q-1 -1 -3 -1t-4 2l-67 82q-78 -60 -168 -60q-93 0 -149 61l-100 -84q-2 -2 -3 -2q-2 0 -4 2l-9 11q-1 1 -1 3t2 4l99 85q-34 48 -34 114q0 24 4 44q16 91 87 157l-70 84q-4 4 0 7l13 11q1 1 4 1q2 0 4 -2l69 -85q78 60 167 60q91 0 147 -58l100 84q2 2 4 2t4 -2z"/>
<glyph glyph-name="yen" horiz-adv-x="613" unicode="¥" d="M674 700h17q4 0 4 -4q0 -1 -1 -2l-317 -431h166q7 0 6 -6l-2 -12q-1 -6 -8 -6h-178l-21 -116h179q7 0 5 -6l-2 -12q-2 -6 -8 -6h-178l-16 -93q-2 -6 -8 -6h-11q-7 0 -5 6l16 93h-179q-7 0 -5 6l2 12q2 6 8 6h178l21 116h-179q-6 0 -5 6l2 12q1 6 7 6h167l-165 429 q-1 3 1 5.5t5 2.5h15q5 0 7 -5l115 -299l47 -121h2l310 421q3 4 8 4z"/>
<glyph glyph-name="brokenbar" horiz-adv-x="225" unicode="¦" d="M148 237h12q8 0 6 -6l-53 -299q-1 -6 -8 -6h-12q-7 0 -5 6l53 299q1 6 7 6zM230 700h12q6 0 5 -6l-52 -299q-1 -6 -8 -6h-12q-7 0 -5 6l52 299q2 6 8 6z"/>
<glyph glyph-name="section" horiz-adv-x="433" unicode="§" d="M312 376l-78 28q-45 -9 -77.5 -37t-39.5 -70l-1 -7q-2 -14 -2 -18q0 -20 8 -35t26.5 -26t31.5 -17t39 -15l78 -28q44 9 76.5 37t39.5 70l2 7q1 7 1 18q0 20 -8 35t-26 26t-31.5 17t-38.5 15zM325 649h11q68 0 133 -42q5 -4 4 -9l-2 -12q0 -6 -6 -3q-66 42 -133 42h-9 q-55 0 -96.5 -28t-49.5 -75l-1 -7q-2 -10 -2 -15q0 -8 2 -15.5t4.5 -13t8.5 -11.5l10 -10t13 -8.5t13.5 -7t15.5 -7t15 -5.5t17 -5.5t16 -5.5l22 -8q45 -16 69 -27.5t43 -34.5t19 -54q0 -11 -3 -25l-1 -5q-16 -88 -108 -122q52 -29 52 -77q0 -5 -2 -19l-1 -7 q-10 -59 -59 -92.5t-114 -33.5h-11q-68 0 -133 42q-5 4 -4 9l2 12q0 6 6 3q66 -42 133 -42h9q55 0 96.5 28t49.5 75l1 7q1 5 1 15q0 18 -8 32t-25.5 24t-31 15.5t-37.5 13.5q-8 3 -12 4l-22 8q-45 16 -69 27.5t-43 34.5t-19 54q0 12 3 25l1 5q15 88 108 122q-52 29 -52 77 q0 5 2 19l1 7q10 59 59 92.5t114 33.5z"/>
<glyph glyph-name="dieresis" horiz-adv-x="259" unicode="¨" d="M331 851h32q7 0 5 -6l-7 -39q-1 -6 -7 -6h-32q-8 0 -6 6l7 39q1 6 8 6zM197 851h32q7 0 5 -6l-7 -39q-1 -6 -7 -6h-32q-8 0 -6 6l7 39q1 6 8 6z"/>
<glyph glyph-name="copyright" horiz-adv-x="630" unicode="©" d="M423 617h5q35 0 67 -20q5 -4 4 -9l-2 -12q0 -6 -5 -3q-35 20 -67 20h-5q-39 0 -71 -27t-39 -70l-7 -41q-2 -14 -2 -20q0 -35 21.5 -55t55.5 -20h5q31 0 73 20q5 2 6 -4l-3 -15q0 -4 -4 -6q-38 -19 -75 -19h-5q-44 0 -71.5 24.5t-27.5 69.5q0 12 3 27l7 41q10 57 48.5 88 t88.5 31zM445 726q-111 0 -194.5 -72t-101.5 -176q-4 -20 -4 -45q0 -86 56.5 -142.5t153.5 -56.5q111 0 194 72t101 176q4 20 4 45q0 87 -56 143t-153 56zM446 750q106 0 169.5 -63.5t63.5 -159.5q0 -22 -5 -49q-19 -111 -110 -189.5t-210 -78.5q-106 0 -169.5 63.5 t-63.5 159.5q0 28 4 49q19 111 110.5 189.5t210.5 78.5z"/>
<glyph glyph-name="guillemotleft" horiz-adv-x="373" unicode="«" d="M245 409h15q3 0 4 -2.5t-1 -4.5l-152 -149l100 -150q4 -6 -4 -6h-15q-4 0 -8 4l-98 142q-2 3 -2 8l1 4q0 4 4 8l150 144q2 2 6 2zM385 409h15q4 0 4 -4q0 -2 -1 -3l-152 -149l100 -150q4 -6 -4 -6h-15q-4 0 -8 4l-98 142q-2 3 -2 8l1 4q0 4 4 8l150 144q2 2 6 2z"/>
<glyph glyph-name="logicalnot" horiz-adv-x="544" unicode="¬" d="M106 335h451q7 0 5 -6l-24 -136q-2 -6 -8 -6h-12q-6 0 -5 6l21 118h-433q-7 0 -5 6l2 12q2 6 8 6z"/>
<glyph glyph-name="registered" horiz-adv-x="630" unicode="®" d="M345 593l-21 -120h81q37 0 58 17.5t25 41.5l1 6q2 8 2 12q0 43 -63 43h-83zM330 618h101q85 0 85 -64q0 -6 -2 -18v-6q-6 -32 -28.5 -54t-61.5 -27l11 -21l55 -97q3 -5 -3 -5h-16q-9 0 -12 6l-65 116h-74l-21 -114q-2 -8 -9 -8h-11q-7 0 -5 6l49 280q1 6 7 6zM445 726 q-111 0 -194.5 -72t-101.5 -176q-4 -20 -4 -45q0 -86 56.5 -142.5t153.5 -56.5q111 0 194 72t101 176q4 20 4 45q0 87 -56 143t-153 56zM446 750q106 0 169.5 -63.5t63.5 -159.5q0 -22 -5 -49q-19 -111 -110 -189.5t-210 -78.5q-106 0 -169.5 63.5t-63.5 159.5q0 28 4 49 q19 111 110.5 189.5t210.5 78.5z"/>
<glyph glyph-name="macron" horiz-adv-x="339" unicode="¯" d="M192 824h246q6 0 5 -6l-2 -12q-1 -6 -7 -6h-246q-8 0 -6 6l2 12q2 6 8 6z"/>
<glyph glyph-name="degree" horiz-adv-x="323" unicode="°" d="M291 726q-42 0 -74.5 -27.5t-40.5 -68.5q-1 -6 -1 -17q0 -33 21.5 -54.5t57.5 -21.5q42 0 75 28t41 69q1 6 1 17q0 33 -21.5 54t-56.5 21h-2zM292 750q46 0 75 -28t29 -71q0 -7 -2 -21q-8 -49 -49 -82.5t-92 -34.5q-45 0 -74 28.5t-29 71.5q0 7 2 21q8 48 49 82t91 34z "/>
<glyph glyph-name="plusminus" horiz-adv-x="545" unicode="±" d="M63 92h452q7 0 5 -6l-2 -12q-2 -6 -8 -6h-452q-6 0 -5 6l2 12q1 6 8 6zM355 500h12q7 0 5 -6l-28 -159h214q6 0 5 -6l-2 -12q-1 -6 -8 -6h-213l-28 -159q-2 -6 -8 -6h-12q-6 0 -5 6l28 159h-214q-7 0 -5 6l2 12q2 6 8 6h213l28 159q1 6 8 6z"/>
<glyph glyph-name="acute" horiz-adv-x="180" unicode="´" d="M288 958h18q4 0 4 -4q0 -1 -1 -2l-108 -163q-4 -4 -8 -4h-11q-4 0 -4 4q0 1 0.5 1t0.5 1l102 163q3 4 7 4z"/>
<glyph glyph-name="paragraph" horiz-adv-x="520" unicode="¶" d="M341 700h196q7 0 5 -6l-150 -855q-2 -6 -8 -6h-12q-6 0 -5 6l147 837h-152l-147 -837q-1 -6 -8 -6h-12q-7 0 -5 6l83 469q-150 0 -150 137q0 31 5 57q18 101 74 149.5t139 48.5z"/>
<glyph glyph-name="periodcentered" horiz-adv-x="125" unicode="·" d="M102 314h32q6 0 5 -6l-7 -39q-2 -6 -7 -6h-32q-7 0 -6 6l7 39q2 6 8 6z"/>
<glyph glyph-name="cedilla" horiz-adv-x="242" unicode="¸" d="M93 0l-24 -67q22 6 41 6q32 0 50.5 -16t18.5 -44q0 -10 -1 -16q-7 -38 -36 -58t-70 -20q-30 0 -59 9q-9 2 -5 11l3 10q1 5 6 3q32 -8 54 -8q73 0 83 56q1 4 1 11q0 37 -48 37q-22 0 -50 -8q-2 -1 -6 1l-7 6q-3 1 -1 5l28 82h22z"/>
<glyph glyph-name="guillemotright" horiz-adv-x="373" unicode="»" d="M255 409h16q3 0 7 -4l98 -142q3 -4 3 -8l-1 -4q0 -4 -4 -8l-150 -144q-2 -2 -6 -2h-15q-3 0 -4 2.5t1 4.5l152 149l-100 150q-4 6 3 6zM115 409h16q3 0 7 -4l98 -142q2 -3 2 -8v-4q0 -4 -4 -8l-150 -144q-2 -2 -6 -2h-15q-5 0 -5 4q0 1 2 3l152 149l-100 150q-4 6 3 6z "/>
<glyph glyph-name="onequarter" horiz-adv-x="810" unicode="¼" d="M514 126h167l39 224zM723 377h20q7 0 6 -6l-43 -245h80q6 0 5 -6l-2 -12q-1 -6 -7 -6h-81l-17 -96q-2 -6 -7 -6h-12q-7 0 -6 6l17 96h-194q-8 0 -6 6l2 8q2 8 4 9l228 247q4 5 13 5zM649 700h14q4 0 4 -4v-2l-449 -688q-3 -6 -11 -6h-14q-7 0 -3 6l448 688q3 6 11 6z M268 700h11q7 0 5 -6l-61 -347h81q6 0 5 -6l-2 -12q-1 -6 -8 -6h-196q-7 0 -5 6l2 12q2 6 8 6h90l58 325l-98 -39q-2 -1 -4.5 0.5t-1.5 3.5l3 15q2 6 5 7l100 39q6 2 8 2z"/>
<glyph glyph-name="onehalf" horiz-adv-x="756" unicode="½" d="M644 390h10q40 0 68.5 -23.5t28.5 -63.5q0 -12 -1 -18l-2 -11q-2 -13 -8 -26t-13 -24t-21 -26t-23.5 -24.5t-30.5 -27t-32 -26.5t-38 -30.5t-40 -31.5l-44 -34h216q6 0 5 -6l-2 -12q-1 -6 -7 -6h-246q-8 0 -6 6l2 13q1 5 6 10l52 42q13 10 36 28l34.5 27t30 24t28.5 24 t23.5 21.5t20.5 21.5t14.5 19.5t11.5 20t6 19.5l1 5q1 6 1 17q0 33 -21.5 50.5t-52.5 17.5h-8q-46 0 -106 -30q-5 -2 -6 4l2 15q0 5 5 7q56 28 106 28zM649 700h14q4 0 4 -4v-2l-449 -688q-3 -6 -11 -6h-14q-7 0 -3 6l448 688q3 6 11 6zM268 700h11q7 0 5 -6l-61 -347h81 q6 0 5 -6l-2 -12q-1 -6 -8 -6h-196q-7 0 -5 6l2 12q2 6 8 6h90l58 325l-98 -39q-2 -1 -4.5 0.5t-1.5 3.5l3 15q2 6 5 7l100 39q6 2 8 2z"/>
<glyph glyph-name="threequarters" horiz-adv-x="853" unicode="¾" d="M557 126h167l39 224zM766 377h20q8 0 6 -6l-43 -245h80q7 0 5 -6l-2 -12q-2 -6 -7 -6h-81l-17 -96q-1 -6 -7 -6h-12q-8 0 -6 6l17 96h-194q-8 0 -6 6l2 8q3 8 4 9l228 247q4 5 13 5zM692 700h14q4 0 4 -4v-2l-449 -688q-3 -6 -11 -6h-14q-7 0 -3 6l448 688q3 6 11 6z M280 713h5q46 0 76.5 -23.5t30.5 -62.5q0 -10 -1 -16l-2 -8q-10 -56 -71 -85q51 -22 51 -74q0 -6 -2 -18l-2 -11q-8 -46 -51 -75.5t-99 -29.5h-8q-48 0 -99 27q-8 4 -6 12l2 11q0 6 5 3q52 -29 101 -29h6q47 0 83 25t43 64v5q2 8 2 12q0 27 -19.5 46t-61.5 19h-65q-8 0 -6 6 l2 11q2 7 8 7h55q46 0 74.5 24.5t33.5 51.5v2q1 5 1 15q0 32 -24 49.5t-61 17.5h-3q-46 0 -109 -30q-2 -1 -4 0.5t-1 3.5l2 14q2 7 6 8q59 28 108 28z"/>
<glyph glyph-name="questiondown" horiz-adv-x="502" unicode="¿" d="M380 344h12q8 0 6 -6l-24 -140q-1 -5 -6 -8l-7 -5q-1 -1 -8 -1q-40 6 -59 6q-95 0 -154 -49.5t-71 -120.5l-2 -7q-2 -10 -2 -30q0 -61 45.5 -100t127.5 -39h8q92 0 190 48q2 2 4 0t1 -5l-2 -15q0 -4 -5 -6q-92 -46 -190 -46h-10q-92 0 -143.5 44.5t-51.5 113.5q0 15 3 31 l3 19q14 77 79.5 131.5t163.5 54.5q32 0 62 -5l25 131q0 4 5 4zM404 533h33q7 0 5 -6l-7 -39q-1 -6 -8 -6h-32q-7 0 -5 6l7 39q1 6 7 6z"/>
<glyph glyph-name="Agrave" horiz-adv-x="610" unicode="À" d="M422 672l-157 -299l-59 -109h291l-19 109l-53 299h-3zM418 700h17q11 0 13 -10l122 -684q2 -6 -6 -6h-11q-8 0 -10 8l-42 232h-308l-125 -235q-3 -5 -8 -5h-11q-7 0 -7 6q0 2 1 3l364 684q3 7 11 7zM389 958h17q7 0 9 -7l44 -162q2 -4 -3 -4h-11q-7 0 -9 7l-50 162 q-2 4 3 4z"/>
<glyph glyph-name="Aacute" horiz-adv-x="610" unicode="Á" d="M422 672l-157 -299l-59 -109h291l-19 109l-53 299h-3zM418 700h17q11 0 13 -10l122 -684q2 -6 -6 -6h-11q-8 0 -10 8l-42 232h-308l-125 -235q-3 -5 -8 -5h-11q-7 0 -7 6q0 2 1 3l364 684q3 7 11 7zM541 958h18q4 0 4 -4q0 -1 -1 -2l-109 -163q-4 -4 -7 -4h-11q-4 0 -4 4 v2l103 163q3 4 7 4z"/>
<glyph glyph-name="Acircumflex" horiz-adv-x="610" unicode="Â" d="M422 672l-157 -299l-59 -109h291l-19 109l-53 299h-3zM418 700h17q11 0 13 -10l122 -684q2 -6 -6 -6h-11q-8 0 -10 8l-42 232h-308l-125 -235q-3 -5 -8 -5h-11q-7 0 -7 6q0 2 1 3l364 684q3 7 11 7zM468 958h9q7 0 9 -6l61 -162q3 -5 -3 -5h-17q-7 0 -9 6l-48 143 l-100 -145q-4 -4 -7 -4h-18q-4 0 -4 4q0 1 1 2l119 163q4 4 7 4z"/>
<glyph glyph-name="Atilde" horiz-adv-x="610" unicode="Ã" d="M422 672l-157 -299l-59 -109h291l-19 109l-53 299h-3zM418 700h17q11 0 13 -10l122 -684q2 -6 -6 -6h-11q-8 0 -10 8l-42 232h-308l-125 -235q-3 -5 -8 -5h-11q-7 0 -7 6q0 2 1 3l364 684q3 7 11 7zM573 849h13q4 0 4 -3v-1q-1 -1 -1 -2q-44 -68 -97 -68h-4 q-25 0 -46.5 23.5t-40.5 23.5q-34 0 -71 -46q-3 -3 -7 -3h-13q-4 0 -4 3v1q1 1 1 2q44 68 97 68h4q26 0 47 -23.5t40 -23.5q35 0 71 46q3 3 7 3z"/>
<glyph glyph-name="Adieresis" horiz-adv-x="610" unicode="Ä" d="M422 672l-157 -299l-59 -109h291l-19 109l-53 299h-3zM418 700h17q11 0 13 -10l122 -684q2 -6 -6 -6h-11q-8 0 -10 8l-42 232h-308l-125 -235q-3 -5 -8 -5h-11q-7 0 -7 6q0 2 1 3l364 684q3 7 11 7zM507 851h32q7 0 5 -6l-7 -39q-1 -6 -7 -6h-32q-8 0 -6 6l7 39q1 6 8 6z M373 851h32q7 0 5 -6l-7 -39q-1 -6 -7 -6h-32q-8 0 -6 6l7 39q1 6 8 6z"/>
<glyph glyph-name="Aring" horiz-adv-x="610" unicode="Å" d="M422 672l-157 -299l-59 -109h291l-19 109l-53 299h-3zM418 700h17q11 0 13 -10l122 -684q2 -6 -6 -6h-11q-8 0 -10 8l-42 232h-308l-125 -235q-3 -5 -8 -5h-11q-7 0 -7 6q0 2 1 3l364 684q3 7 11 7zM465 896q-22 0 -38 -14.5t-20 -35.5q-2 -6 -2 -10q0 -17 10.5 -28 t28.5 -11q22 0 38.5 15.5t20.5 37.5q1 3 1 9q0 16 -10 26.5t-29 10.5zM465 918q28 0 45.5 -17t17.5 -43q0 -9 -1 -13q-5 -29 -30 -49.5t-54 -20.5q-28 0 -45 17.5t-17 43.5q0 9 1 13q5 28 29 48.5t54 20.5z"/>
<glyph glyph-name="AE" horiz-adv-x="769" unicode="Æ" d="M424 672h-2l-157 -299l-59 -109h146zM418 700h418q6 0 5 -6l-2 -12q-1 -6 -7 -6h-383l-53 -302h363q7 0 5 -6l-2 -12q-2 -6 -8 -6h-362l-58 -326h383q7 0 5 -6l-2 -12q-2 -6 -7 -6h-401q-8 0 -6 6l41 234h-154l-125 -235q-3 -5 -8 -5h-11q-7 0 -7 6q0 2 1 3l364 684 q3 7 11 7z"/>
<glyph glyph-name="Ccedilla" horiz-adv-x="595" unicode="Ç" d="M656 666q5 -4 4 -9l-2 -12q0 -5 -5 -3q-80 47 -163 47h-8q-107 0 -194.5 -75.5t-111.5 -212.5l-19 -104q-6 -37 -6 -70q0 -105 59 -160.5t151 -55.5h8q83 0 179 47q2 2 4.5 0.5t1.5 -4.5l-2 -13q-2 -6 -7 -9q-90 -45 -177 -45h-10h-2l-19 -54q22 6 40 6q32 0 50.5 -16 t18.5 -44q0 -10 -1 -16q-7 -38 -36 -58t-70 -20q-30 0 -59 9q-9 2 -5 11l3 10q2 5 6 3q32 -8 54 -8q73 0 83 56q1 4 1 11q0 37 -48 37q-21 0 -49 -8q-3 -1 -7 1l-7 6q-3 1 -1 5l24 70q-92 7 -150.5 68t-58.5 166q0 27 7 71l20 116q26 144 120.5 224t211.5 80h10 q86 0 162 -47z"/>
<glyph glyph-name="Egrave" horiz-adv-x="564" unicode="È" d="M191 374h363q6 0 5 -6l-2 -12q-1 -6 -8 -6h-362l-58 -326h383q6 0 5 -6l-2 -12q-1 -6 -7 -6h-402q-6 0 -5 6l121 688q2 6 8 6h401q7 0 5 -6l-2 -12q-2 -6 -7 -6h-383zM389 958h17q7 0 9 -7l44 -162q2 -4 -3 -4h-10q-7 0 -9 7l-51 162q-2 4 3 4z"/>
<glyph glyph-name="Eacute" horiz-adv-x="564" unicode="É" d="M230 700h401q7 0 5 -6l-2 -12q-2 -6 -7 -6h-383l-53 -302h362q7 0 6 -6l-2 -12q-1 -6 -8 -6h-362l-58 -326h383q6 0 5 -6l-2 -12q-1 -6 -7 -6h-402q-6 0 -5 6l121 688q2 6 8 6zM532 958h17q4 0 4 -4v-2l-109 -163q-4 -4 -7 -4h-11q-4 0 -4 4v2l102 163q3 4 8 4z"/>
<glyph glyph-name="Ecircumflex" horiz-adv-x="564" unicode="Ê" d="M191 374h363q6 0 5 -6l-2 -12q-1 -6 -8 -6h-362l-58 -326h383q6 0 5 -6l-2 -12q-1 -6 -7 -6h-402q-6 0 -5 6l121 688q2 6 8 6h401q7 0 5 -6l-2 -12q-2 -6 -7 -6h-383zM470 958h10q6 0 8 -6l62 -162q2 -5 -3 -5h-17q-8 0 -9 6l-48 143l-101 -145q-4 -4 -7 -4h-18 q-4 0 -4 4q0 1 1 2l119 163q4 4 7 4z"/>
<glyph glyph-name="Edieresis" horiz-adv-x="564" unicode="Ë" d="M191 374h362q7 0 6 -6l-2 -12q-1 -6 -8 -6h-362l-58 -326h383q6 0 5 -6l-2 -12q-1 -6 -7 -6h-402q-6 0 -5 6l121 688q2 6 8 6h401q7 0 5 -6l-2 -12q-2 -6 -7 -6h-383zM505 851h32q7 0 5 -6l-6 -39q-2 -6 -8 -6h-32q-6 0 -5 6l6 39q1 6 8 6zM371 851h32q7 0 5 -6l-6 -39 q-2 -6 -8 -6h-32q-6 0 -5 6l6 39q1 6 8 6z"/>
<glyph glyph-name="Igrave" horiz-adv-x="225" unicode="Ì" d="M230 700h12q6 0 5 -6l-121 -688q-2 -6 -7 -6h-13q-6 0 -5 6l121 688q2 6 8 6zM195 958h17q7 0 9 -7l44 -162q2 -4 -3 -4h-10q-7 0 -9 7l-51 162q-2 4 3 4z"/>
<glyph glyph-name="Iacute" horiz-adv-x="225" unicode="Í" d="M230 700h12q6 0 5 -6l-121 -688q-2 -6 -7 -6h-13q-6 0 -5 6l121 688q2 6 8 6zM348 958h18q4 0 4 -4q0 -1 -1 -2l-109 -163q-4 -4 -7 -4h-11q-4 0 -4 4q0 1 0.5 1t0.5 1l102 163q3 4 7 4z"/>
<glyph glyph-name="Icircumflex" horiz-adv-x="225" unicode="Î" d="M230 700h12q6 0 5 -6l-121 -688q-2 -6 -8 -6h-12q-6 0 -5 6l121 688q2 6 8 6zM276 958h9q7 0 9 -6l61 -162q3 -5 -3 -5h-17q-7 0 -9 6l-48 143l-100 -145q-4 -4 -7 -4h-18q-4 0 -4 4q0 1 1 2l119 163q4 4 7 4z"/>
<glyph glyph-name="Idieresis" horiz-adv-x="225" unicode="Ï" d="M230 700h12q6 0 5 -6l-121 -688q-2 -6 -8 -6h-12q-6 0 -5 6l121 688q2 6 8 6zM314 851h32q6 0 5 -6l-6 -39q-1 -6 -8 -6h-32q-7 0 -5 6l6 39q2 6 8 6zM180 851h32q6 0 5 -6l-6 -39q-1 -6 -8 -6h-32q-7 0 -5 6l6 39q2 6 8 6z"/>
<glyph glyph-name="Eth" horiz-adv-x="667" unicode="Ð" d="M616 304l16 94q8 46 8 79q0 100 -52 149.5t-141 49.5h-203l-60 -341h221q7 0 5 -6l-2 -12q-2 -6 -8 -6h-220l-51 -287h201q105 0 183.5 70.5t102.5 209.5zM230 700h221q97 0 155.5 -56t58.5 -163q0 -40 -7 -79l-19 -106q-26 -146 -110.5 -221t-199.5 -75h-223q-6 0 -5 6 l54 305h-54q-7 0 -5 6l2 12q2 6 8 6h53l63 359q2 6 8 6z"/>
<glyph glyph-name="Ntilde" horiz-adv-x="682" unicode="Ñ" d="M689 700h15q6 0 5 -6l-121 -688q-2 -6 -8 -6h-18q-6 0 -9 5l-181 378l-134 278h-1l-116 -657q0 -4 -5 -4h-15q-7 0 -5 6l121 688q1 6 8 6h19q5 0 8 -5l316 -656h1l116 657q0 4 4 4zM609 849h13q4 0 4 -3v-1q-1 -1 -1 -2q-44 -68 -97 -68h-4q-25 0 -46 23.5t-41 23.5 q-34 0 -71 -46q-3 -3 -7 -3h-13q-4 0 -4 3v1q1 1 1 2q44 68 97 68h4q26 0 47 -23.5t40 -23.5q35 0 71 46q3 3 7 3z"/>
<glyph glyph-name="Ograve" horiz-adv-x="693" unicode="Ò" d="M475 689h-13q-105 0 -183 -70.5t-102 -209.5l-21 -120q-7 -41 -7 -79q0 -100 51.5 -149.5t140.5 -49.5h13q105 0 183 70.5t102 209.5l21 120q8 46 8 79q0 100 -52 149.5t-141 49.5zM464 713h15q98 0 156.5 -56t58.5 -163q0 -34 -8 -79l-23 -132q-26 -146 -110.5 -221 t-199.5 -75h-15q-98 0 -156.5 56t-58.5 163q0 40 7 79l24 132q26 146 110.5 221t199.5 75zM427 958h17q7 0 9 -7l44 -162q2 -4 -3 -4h-11q-7 0 -9 7l-50 162q-2 4 3 4z"/>
<glyph glyph-name="Oacute" horiz-adv-x="693" unicode="Ó" d="M475 689h-13q-105 0 -183 -70.5t-102 -209.5l-21 -120q-7 -41 -7 -79q0 -100 51.5 -149.5t140.5 -49.5h13q105 0 183 70.5t102 209.5l21 120q8 46 8 79q0 100 -52 149.5t-141 49.5zM464 713h15q98 0 156.5 -56t58.5 -163q0 -34 -8 -79l-23 -132q-26 -146 -110.5 -221 t-199.5 -75h-15q-98 0 -156.5 56t-58.5 163q0 40 7 79l24 132q26 146 110.5 221t199.5 75zM587 958h18q4 0 4 -4q0 -1 -1 -2l-109 -163q-4 -4 -7 -4h-11q-4 0 -4 4q0 1 0.5 1t0.5 1l102 163q3 4 7 4z"/>
<glyph glyph-name="Ocircumflex" horiz-adv-x="693" unicode="Ô" d="M475 689h-13q-105 0 -183 -70.5t-102 -209.5l-21 -120q-7 -41 -7 -79q0 -100 51.5 -149.5t140.5 -49.5h13q105 0 183 70.5t102 209.5l21 120q8 46 8 79q0 100 -52 149.5t-141 49.5zM464 713h15q98 0 156.5 -56t58.5 -163q0 -34 -8 -79l-23 -132q-26 -146 -110.5 -221 t-199.5 -75h-15q-98 0 -156.5 56t-58.5 163q0 40 7 79l24 132q26 146 110.5 221t199.5 75zM511 958h8q6 0 9 -8l59 -157q0 -1 1 -3q0 -5 -7 -5h-11q-8 0 -10 8l-48 141l-98 -143q-4 -6 -12 -6h-11q-7 0 -7 6q0 3 1 4l115 157q4 6 11 6z"/>
<glyph glyph-name="Otilde" horiz-adv-x="693" unicode="Õ" d="M475 689h-13q-105 0 -183 -70.5t-102 -209.5l-21 -120q-7 -41 -7 -79q0 -100 51.5 -149.5t140.5 -49.5h13q105 0 183 70.5t102 209.5l21 120q8 46 8 79q0 100 -52 149.5t-141 49.5zM464 713h15q98 0 156.5 -56t58.5 -163q0 -34 -8 -79l-23 -132q-26 -146 -110.5 -221 t-199.5 -75h-15q-98 0 -156.5 56t-58.5 163q0 40 7 79l23 132q26 145 111 220.5t200 75.5zM615 849h13q4 0 4 -3v-1q-1 -1 -1 -2q-44 -68 -97 -68h-4q-26 0 -47 23.5t-40 23.5q-34 0 -71 -46q-3 -3 -7 -3h-13q-4 0 -4 3v1q1 1 1 2q44 68 97 68h4q26 0 47 -23.5t40 -23.5 q35 0 71 46q3 3 7 3z"/>
<glyph glyph-name="Odieresis" horiz-adv-x="693" unicode="Ö" d="M475 689h-13q-105 0 -183 -70.5t-102 -209.5l-21 -120q-7 -41 -7 -79q0 -100 51.5 -149.5t140.5 -49.5h13q105 0 183 70.5t102 209.5l21 120q8 46 8 79q0 100 -52 149.5t-141 49.5zM464 713h15q98 0 156.5 -56t58.5 -163q0 -34 -8 -79l-23 -132q-26 -146 -110.5 -221 t-199.5 -75h-15q-98 0 -156.5 56t-58.5 163q0 40 7 79l24 132q26 146 110.5 221t199.5 75zM548 851h32q6 0 5 -6l-7 -39q-2 -6 -7 -6h-32q-7 0 -6 6l7 39q2 6 8 6zM414 851h32q6 0 5 -6l-7 -39q-2 -6 -7 -6h-32q-7 0 -6 6l7 39q2 6 8 6z"/>
<glyph glyph-name="multiply" horiz-adv-x="421" unicode="×" d="M271 348l179 152q2 2 4 2q1 0 3 -2l8 -10q2 -2 2 -3q0 -2 -2 -4l-179 -152l125 -152q3 -3 -1 -7l-11 -10q-1 -1 -4 -1q-2 0 -4 2l-125 151l-179 -152q-2 -2 -3 -2q-2 0 -4 2l-8 10q-1 1 -1 3t2 4l179 152l-125 152q-3 3 0 7l12 10q1 1 4 1q2 0 4 -2z"/>
<glyph glyph-name="Oslash" horiz-adv-x="693" unicode="Ø" d="M639 291l21 120q8 46 8 79q0 61 -20 104l-466 -511q50 -72 159 -72h13q105 0 183 70.5t102 209.5zM177 409l-21 -120q-7 -41 -7 -79q0 -61 20 -104l466 511q-50 72 -160 72h-13q-105 0 -183 -70.5t-102 -209.5zM716 700h19q4 0 4 -4q0 -2 -1 -3l-71 -78q27 -51 27 -121 q0 -34 -8 -79l-23 -132q-26 -146 -110.5 -221t-199.5 -75h-15q-117 0 -174 76l-54 -59q-3 -4 -10 -4h-18q-5 0 -5 4q0 1 2 3l71 78q-27 51 -27 121q0 40 7 79l24 132q26 146 110.5 221t199.5 75h15q117 0 174 -76l54 59q3 4 9 4z"/>
<glyph glyph-name="Ugrave" horiz-adv-x="688" unicode="Ù" d="M699 700h11q6 0 5 -6l-78 -447q-22 -127 -97 -193.5t-187 -66.5h-15q-95 0 -148 49.5t-53 143.5q0 25 7 69l78 445q2 6 8 6h11q7 0 5 -6l-77 -441q-7 -44 -7 -69q0 -86 46.5 -129.5t132.5 -43.5h13q103 0 171 62t89 182l77 439q1 6 8 6zM425 958h17q7 0 9 -7l44 -162 q2 -4 -3 -4h-10q-7 0 -9 7l-51 162q-2 4 3 4z"/>
<glyph glyph-name="Uacute" horiz-adv-x="688" unicode="Ú" d="M699 700h11q6 0 5 -6l-78 -447q-22 -127 -97 -193.5t-187 -66.5h-15q-95 0 -148 49.5t-53 143.5q0 25 7 69l78 445q2 6 8 6h11q7 0 5 -6l-77 -441q-7 -44 -7 -69q0 -86 46.5 -129.5t132.5 -43.5h13q103 0 171 62t89 182l77 439q1 6 8 6zM588 958h17q4 0 4 -4v-2 l-109 -163q-4 -4 -7 -4h-12q-4 0 -4 4q0 1 0.5 1t0.5 1l102 163q3 4 8 4z"/>
<glyph glyph-name="Ucircumflex" horiz-adv-x="688" unicode="Û" d="M699 700h11q6 0 5 -6l-78 -447q-22 -127 -97 -193.5t-187 -66.5h-15q-95 0 -148 49.5t-53 143.5q0 25 7 69l78 445q2 6 8 6h11q7 0 5 -6l-77 -441q-7 -44 -7 -69q0 -86 46.5 -129.5t132.5 -43.5h13q103 0 171 62t89 182l77 439q1 6 8 6zM507 958h9q8 0 9 -6l61 -162 q2 -5 -3 -5h-17q-8 0 -9 6l-48 143l-100 -145q-4 -4 -7 -4h-18q-4 0 -4 4q0 1 1 2l119 163q4 4 7 4z"/>
<glyph glyph-name="Udieresis" horiz-adv-x="688" unicode="Ü" d="M699 700h11q6 0 5 -6l-78 -447q-22 -127 -97 -193.5t-187 -66.5h-15q-95 0 -148 49.5t-53 143.5q0 25 7 69l78 445q2 6 8 6h11q7 0 5 -6l-77 -441q-7 -44 -7 -69q0 -86 46.5 -129.5t132.5 -43.5h13q103 0 171 62t89 182l77 439q1 6 8 6zM545 851h32q7 0 5 -6l-6 -39 q-2 -6 -8 -6h-32q-6 0 -5 6l6 39q1 6 8 6zM411 851h32q7 0 5 -6l-6 -39q-2 -6 -8 -6h-32q-6 0 -5 6l6 39q1 6 8 6z"/>
<glyph glyph-name="Yacute" horiz-adv-x="613" unicode="Ý" d="M674 700h17q4 0 4 -4q0 -1 -1 -2l-333 -452l-41 -236q-2 -6 -8 -6h-11q-7 0 -5 6l41 236l-173 450q-1 3 1 5.5t5 2.5h15q5 0 7 -5l115 -299l47 -121h2l310 421q3 4 8 4zM550 958h18q4 0 4 -4q0 -1 -1 -2l-109 -163q-4 -4 -7 -4h-11q-4 0 -4 4v2l102 163q3 4 8 4z"/>
<glyph glyph-name="Thorn" horiz-adv-x="630" unicode="Þ" d="M595 397l2 12q4 20 4 41q0 133 -197 133h-176l-67 -378h174q118 0 181.5 52.5t78.5 139.5zM232 607h175q220 0 220 -152q0 -22 -4 -42l-4 -24q-16 -94 -87 -151t-198 -57h-177l-31 -175q-2 -6 -8 -6h-12q-6 0 -5 6l121 688q2 6 8 6h12q6 0 5 -6z"/>
<glyph glyph-name="germandbls" horiz-adv-x="526" unicode="ß" d="M337 750h6q46 0 76 -25t30 -73q0 -13 -3 -28l-1 -7q-6 -34 -28 -62t-49 -47t-54 -36.5t-48 -39t-25 -46.5l-1 -7q-2 -10 -2 -15q0 -18 8 -32t25.5 -24t31 -15.5t37.5 -13.5q8 -3 12 -4l23 -8q67 -23 98.5 -47t31.5 -69q0 -16 -2 -25l-1 -5q-11 -64 -64 -99t-120 -35h-11 q-34 0 -74 12t-68 30q-5 4 -4 9l2 12q0 6 6 3q66 -42 142 -42h9q57 0 102.5 29.5t54.5 81.5l1 7q2 14 2 18q0 20 -8 35t-26 26t-31.5 17t-38.5 15l-23 8q-80 28 -103 45q-37 27 -37 68q0 5 2 19l1 7q5 29 26 54t48.5 44t54.5 37.5t48.5 43.5t26.5 54l2 7q2 16 2 22 q0 38 -24 57.5t-60 19.5h-4q-42 0 -76.5 -28.5t-44.5 -83.5l-107 -608q-2 -6 -7 -6h-13q-6 0 -5 6l107 609q12 68 53 101.5t94 33.5z"/>
<glyph glyph-name="agrave" d="M348 489h-2q-81 0 -132 -51.5t-68 -150.5l-14 -76q-6 -35 -6 -64q0 -136 134 -136h2q95 0 194 98l51 284q-64 96 -159 96zM348 513h4q43 0 86.5 -22.5t72.5 -65.5l13 69q2 6 8 6h12q6 0 5 -6l-86 -488q-1 -6 -7 -6h-12q-8 0 -6 6l12 67q-89 -86 -189 -86h-4 q-77 0 -116.5 40.5t-39.5 118.5q0 24 7 68l13 74q19 111 77 168t150 57zM310 758h17q7 0 9 -7l44 -162q2 -4 -3 -4h-10q-7 0 -9 7l-51 162q-2 4 3 4z" unicode="à"/>
<glyph glyph-name="aacute" d="M348 489h-2q-81 0 -132 -51.5t-68 -150.5l-14 -76q-6 -35 -6 -64q0 -136 134 -136h2q95 0 194 98l51 284q-64 96 -159 96zM348 513h4q43 0 86.5 -22.5t72.5 -65.5l13 69q2 6 8 6h12q6 0 5 -6l-86 -488q-1 -6 -7 -6h-12q-8 0 -6 6l12 67q-89 -86 -189 -86h-4 q-77 0 -116.5 40.5t-39.5 118.5q0 24 7 68l13 74q19 111 77 168t150 57zM468 758h18q4 0 4 -4q0 -1 -1 -2l-109 -163q-4 -4 -7 -4h-11q-4 0 -4 4v2l102 163q3 4 8 4z" unicode="á"/>
<glyph glyph-name="acircumflex" d="M348 489h-2q-81 0 -132 -51.5t-68 -150.5l-14 -76q-6 -35 -6 -64q0 -136 134 -136h2q95 0 194 98l51 284q-64 96 -159 96zM348 513h4q43 0 86.5 -22.5t72.5 -65.5l13 69q2 6 8 6h12q6 0 5 -6l-86 -488q-1 -6 -7 -6h-12q-8 0 -6 6l12 67q-89 -86 -189 -86h-4 q-77 0 -116.5 40.5t-39.5 118.5q0 24 7 68l13 74q19 111 77 168t150 57zM399 758h9q8 0 9 -6l61 -162q2 -5 -3 -5h-17q-8 0 -9 6l-48 143l-101 -145q-4 -4 -7 -4h-17q-4 0 -4 4v2l120 163q4 4 7 4z" unicode="â"/>
<glyph glyph-name="atilde" d="M348 489h-2q-81 0 -132 -51.5t-68 -150.5l-14 -76q-6 -35 -6 -64q0 -136 134 -136h2q95 0 194 98l51 284q-64 96 -159 96zM348 513h4q43 0 86.5 -22.5t72.5 -65.5l13 69q2 6 8 6h12q6 0 5 -6l-86 -488q-1 -6 -8 -6h-11q-8 0 -6 6l12 67q-89 -86 -189 -86h-4 q-77 0 -116.5 40.5t-39.5 118.5q0 24 7 68l13 74q19 111 77 168t150 57zM512 649h13q4 0 4 -3l-1 -1v-2q-44 -68 -97 -68h-4q-25 0 -46 23.5t-41 23.5q-34 0 -71 -46q-3 -3 -7 -3h-13q-4 0 -4 3l1 1v2q44 68 97 68h4q25 0 46 -23.5t41 -23.5q35 0 71 46q3 3 7 3z" unicode="ã"/>
<glyph glyph-name="adieresis" d="M348 489h-2q-81 0 -132 -51.5t-68 -150.5l-14 -76q-6 -35 -6 -64q0 -136 134 -136h2q95 0 194 98l51 284q-64 96 -159 96zM348 513h4q43 0 86.5 -22.5t72.5 -65.5l13 69q2 6 8 6h12q6 0 5 -6l-86 -488q-1 -6 -7 -6h-12q-8 0 -6 6l12 67q-89 -86 -189 -86h-4 q-77 0 -116.5 40.5t-39.5 118.5q0 24 7 68l13 74q19 111 77 168t150 57zM444 651h32q8 0 6 -6l-7 -39q-1 -6 -8 -6h-32q-7 0 -5 6l7 39q1 6 7 6zM310 651h32q8 0 6 -6l-7 -39q-1 -6 -8 -6h-32q-7 0 -5 6l7 39q1 6 7 6z" unicode="ä"/>
<glyph glyph-name="aring" d="M348 489h-2q-81 0 -132 -51.5t-68 -150.5l-14 -76q-6 -35 -6 -64q0 -136 134 -136h2q95 0 194 98l51 284q-64 96 -159 96zM348 513h4q43 0 86.5 -22.5t72.5 -65.5l13 69q2 6 8 6h12q6 0 5 -6l-86 -488q-1 -6 -7 -6h-12q-8 0 -6 6l12 67q-89 -86 -189 -86h-4 q-77 0 -116.5 40.5t-39.5 118.5q0 24 7 68l13 74q19 111 77 168t150 57zM406 696q-22 0 -38 -14.5t-20 -35.5q-1 -3 -1 -10q0 -17 10 -28t28 -11q22 0 38.5 15.5t20.5 37.5q1 3 1 9q0 16 -10 26.5t-29 10.5zM407 718q28 0 45.5 -17t17.5 -43q0 -5 -2 -13q-5 -29 -29.5 -49.5 t-53.5 -20.5q-28 0 -45.5 17.5t-17.5 43.5q0 9 1 13q5 28 29.5 48.5t54.5 20.5z" unicode="å"/>
<glyph glyph-name="ae" horiz-adv-x="901" unicode="æ" d="M734 489h-9q-78 0 -137 -57.5t-77 -153.5l346 2q7 38 7 73q0 136 -130 136zM348 489h-2q-81 0 -132 -51.5t-68 -150.5l-14 -76q-6 -35 -6 -64q0 -136 134 -136h2q95 0 194 98l51 284q-64 96 -159 96zM727 513h11q152 0 152 -157q0 -26 -7 -70l-4 -23q-2 -8 -9 -8h-363 l-11 -63q-3 -20 -3 -38q0 -67 44 -105t117 -38h4q71 0 162 43q2 1 4.5 -1t1.5 -4l-2 -12q-2 -7 -7 -10q-85 -40 -160 -40h-6q-64 0 -109.5 27t-63.5 76l-15 -84q-1 -6 -7 -6h-12q-8 0 -6 6l12 67q-89 -86 -189 -86h-4q-77 0 -116.5 40.5t-39.5 118.5q0 24 7 68l13 74 q19 111 77 168t150 57h4q43 0 86.5 -22.5t72.5 -65.5l13 69q2 6 8 6h12q6 0 5 -6l-16 -92q72 111 194 111z"/>
<glyph glyph-name="ccedilla" horiz-adv-x="507" unicode="ç" d="M516 471q5 -4 4 -9l-2 -12q0 -2 -2 -3t-4 0q-65 42 -130 42h-9q-82 0 -146 -53.5t-81 -148.5l-14 -76q-4 -21 -4 -46q0 -73 44 -113.5t115 -40.5h9q64 0 145 43q2 2 4.5 0t1.5 -5l-2 -13q-2 -6 -7 -9q-73 -40 -143 -40h-11q-15 0 -22 1l-19 -55q22 6 40 6q32 0 51 -16 t19 -44q0 -10 -1 -16q-6 -38 -36 -58t-71 -20q-30 0 -59 9q-9 2 -5 11l4 10q1 5 6 3q32 -8 53 -8q74 0 84 56q1 4 1 11q0 37 -49 37q-21 0 -49 -8q-2 -1 -6 1l-7 6q-4 2 -2 5l25 73q-63 12 -100.5 56t-37.5 115q0 22 5 52l13 74q19 107 90.5 166t163.5 59h11q67 0 130 -42z "/>
<glyph glyph-name="egrave" horiz-adv-x="534" unicode="è" d="M367 489h-9q-78 0 -137 -57.5t-77 -153.5l346 2q7 38 7 73q0 136 -130 136zM360 513h11q152 0 152 -157q0 -26 -7 -70l-4 -23q-2 -8 -9 -8h-363l-11 -63q-4 -26 -4 -38q0 -67 44.5 -105t117.5 -38h4q71 0 162 43q2 1 4.5 -1t1.5 -4l-2 -12q-2 -7 -7 -10q-85 -40 -160 -40 h-6q-82 0 -133 44t-51 121q0 23 4 43l15 82q19 109 85.5 172.5t155.5 63.5zM318 758h17q7 0 9 -7l44 -162q2 -4 -3 -4h-10q-7 0 -9 7l-51 162q-2 4 3 4z"/>
<glyph glyph-name="eacute" horiz-adv-x="534" unicode="é" d="M367 489h-9q-78 0 -137 -57.5t-77 -153.5l346 2q7 38 7 73q0 136 -130 136zM360 513h11q152 0 152 -157q0 -26 -7 -70l-4 -23q-2 -8 -9 -8h-363l-11 -63q-4 -26 -4 -38q0 -67 44.5 -105t117.5 -38h4q71 0 162 43q2 1 4.5 -1t1.5 -4l-2 -12q-2 -7 -7 -10q-85 -40 -160 -40 h-6q-82 0 -133 44t-51 121q0 23 4 43l15 82q19 109 85.5 172.5t155.5 63.5zM475 758h17q4 0 4 -4v-2l-109 -163q-4 -4 -7 -4h-12q-4 0 -4 4q0 1 0.5 1t0.5 1l102 163q3 4 8 4z"/>
<glyph glyph-name="ecircumflex" horiz-adv-x="534" unicode="ê" d="M367 489h-9q-78 0 -137 -57.5t-77 -153.5l346 2q7 38 7 73q0 136 -130 136zM360 513h11q152 0 152 -157q0 -26 -7 -70l-4 -23q-2 -8 -9 -8h-363l-11 -63q-4 -26 -4 -38q0 -67 44.5 -105t117.5 -38h4q71 0 162 43q2 1 4.5 -1t1.5 -4l-2 -12q-2 -7 -7 -10q-85 -40 -160 -40 h-6q-82 0 -133 44t-51 121q0 23 4 43l15 82q19 109 85.5 172.5t155.5 63.5zM395 758h9q8 0 9 -6l61 -162q2 -5 -3 -5h-17q-8 0 -9 6l-48 143l-101 -145q-4 -4 -7 -4h-17q-4 0 -4 4v2l120 163q4 4 7 4z"/>
<glyph glyph-name="edieresis" horiz-adv-x="534" unicode="ë" d="M367 489h-9q-78 0 -137 -57.5t-77 -153.5l346 2q7 38 7 73q0 136 -130 136zM360 513h11q152 0 152 -157q0 -26 -7 -70l-4 -23q-2 -8 -9 -8h-363l-11 -63q-4 -26 -4 -38q0 -67 44.5 -105t117.5 -38h4q71 0 162 43q2 1 4.5 -1t1.5 -4l-2 -12q-2 -7 -7 -10q-85 -40 -160 -40 h-6q-82 0 -133 44t-51 121q0 23 4 43l15 82q19 109 85.5 172.5t155.5 63.5zM433 651h32q7 0 5 -6l-7 -39q-1 -6 -7 -6h-32q-8 0 -6 6l7 39q1 6 8 6zM299 651h32q7 0 5 -6l-7 -39q-1 -6 -7 -6h-32q-8 0 -6 6l7 39q1 6 8 6z"/>
<glyph glyph-name="igrave" horiz-adv-x="187" unicode="ì" d="M177 500h12q7 0 5 -6l-85 -488q-1 -6 -8 -6h-12q-7 0 -5 6l85 488q1 6 8 6zM138 758h17q7 0 9 -7l44 -162q2 -4 -3 -4h-11q-7 0 -9 7l-51 162q-2 4 4 4z"/>
<glyph glyph-name="iacute" horiz-adv-x="187" unicode="í" d="M176 500h12q8 0 6 -6l-86 -488q-2 -6 -8 -6h-12q-6 0 -5 6l86 488q1 6 7 6zM301 758h18q4 0 4 -4q0 -1 -1 -2l-109 -163q-4 -4 -7 -4h-11q-4 0 -4 4v2l102 163q3 4 8 4z"/>
<glyph glyph-name="icircumflex" horiz-adv-x="187" unicode="î" d="M176 500h12q6 0 5 -6l-85 -488q-2 -6 -8 -6h-12q-6 0 -5 6l85 488q2 6 8 6zM222 758h9q7 0 9 -6l62 -162q2 -5 -4 -5h-17q-7 0 -9 6l-48 143l-100 -145q-4 -4 -8 -4h-17q-4 0 -4 4q0 1 1 2l119 163q4 4 7 4z"/>
<glyph glyph-name="idieresis" horiz-adv-x="187" unicode="ï" d="M176 500h12q8 0 6 -6l-86 -488q-2 -6 -8 -6h-12q-6 0 -5 6l86 488q1 6 7 6zM260 651h32q6 0 5 -6l-6 -39q-1 -6 -8 -6h-32q-7 0 -5 6l6 39q2 6 8 6zM126 651h32q6 0 5 -6l-6 -39q-1 -6 -8 -6h-32q-7 0 -5 6l6 39q2 6 8 6z"/>
<glyph glyph-name="eth" horiz-adv-x="537" unicode="ð" d="M480 213l29 167q-64 96 -158 96h-2q-82 0 -135.5 -52t-70.5 -150l-11 -63q-5 -33 -5 -55q0 -70 36.5 -107.5t100.5 -37.5h9q80 0 135 52.5t72 149.5zM630 748l6 -13v-1l1 -2q0 -3 -2 -4l-78 -48q14 -30 14 -68q0 -20 -5 -50l-62 -350q-19 -109 -80.5 -167t-151.5 -58h-11 q-73 0 -116 43.5t-43 123.5q0 28 6 60l10 61q19 110 79.5 167.5t152.5 57.5h4q43 0 87 -22.5t73 -65.5l28 153q4 21 4 45q0 31 -11 56l-102 -63q-6 -4 -8 2l-7 13q-2 5 2 7l102 63q-33 38 -110 38h-4q-71 0 -162 -43q-5 -2 -6 4l3 16q0 5 4 6q85 41 162 41h6q91 0 129 -49 l78 49q1 1 3 1q3 0 5 -3z"/>
<glyph glyph-name="ntilde" horiz-adv-x="539" unicode="ñ" d="M378 513h4q142 0 142 -130q0 -27 -6 -59l-56 -318q-2 -6 -8 -6h-12q-6 0 -5 6l57 321q5 33 5 54q0 54 -28.5 81t-92.5 27h-2q-90 0 -200 -88l-70 -395q-2 -6 -7 -6h-13q-6 0 -5 6l86 488q1 6 8 6h12q7 0 5 -6l-11 -60q46 35 100 57t97 22zM503 649h13q4 0 4 -3v-1 q-1 -1 -1 -2q-44 -68 -97 -68h-4q-26 0 -47 23.5t-40 23.5q-34 0 -71 -46q-3 -3 -7 -3h-13q-4 0 -4 3v3q44 68 98 68h4q26 0 46 -23.5t40 -23.5q36 0 72 46q3 3 7 3z"/>
<glyph glyph-name="ograve" horiz-adv-x="563" unicode="ò" d="M373 489h-9q-81 0 -141 -53t-77 -149l-14 -76q-4 -24 -4 -50q0 -72 40 -111t110 -39h9q81 0 141.5 53t77.5 149l13 76q5 30 5 50q0 72 -40.5 111t-110.5 39zM366 513h11q78 0 125 -44.5t47 -126.5q0 -26 -6 -56l-13 -74q-19 -108 -85.5 -166.5t-158.5 -58.5h-11 q-78 0 -125 44.5t-47 126.5q0 31 5 56l13 74q19 108 86 166.5t159 58.5zM324 758h17q7 0 9 -7l44 -162q2 -4 -3 -4h-10q-7 0 -9 7l-51 162q-2 4 3 4z"/>
<glyph glyph-name="oacute" horiz-adv-x="563" unicode="ó" d="M373 489h-9q-81 0 -141 -53t-77 -149l-14 -76q-4 -24 -4 -50q0 -72 40 -111t110 -39h9q81 0 141.5 53t77.5 149l13 76q5 30 5 50q0 72 -40.5 111t-110.5 39zM366 513h11q78 0 125 -44.5t47 -126.5q0 -26 -6 -56l-13 -74q-19 -108 -85.5 -166.5t-158.5 -58.5h-11 q-78 0 -125 44.5t-47 126.5q0 31 5 56l13 74q19 108 86 166.5t159 58.5zM486 758h18q4 0 4 -4q0 -1 -1 -2l-108 -163q-4 -4 -8 -4h-11q-4 0 -4 4q0 1 0.5 1t0.5 1l102 163q3 4 7 4z"/>
<glyph glyph-name="ocircumflex" horiz-adv-x="563" unicode="ô" d="M373 489h-9q-81 0 -141 -53t-77 -149l-14 -76q-4 -24 -4 -50q0 -72 40 -111t110 -39h9q81 0 141.5 53t77.5 149l13 76q5 30 5 50q0 72 -40.5 111t-110.5 39zM366 513h11q78 0 125 -44.5t47 -126.5q0 -26 -6 -56l-13 -74q-19 -108 -85.5 -166.5t-158.5 -58.5h-11 q-78 0 -125 44.5t-47 126.5q0 31 5 56l13 74q19 108 86 166.5t159 58.5zM410 758h9q7 0 9 -6l61 -162q3 -5 -3 -5h-17q-7 0 -9 6l-48 143l-101 -145q-4 -4 -7 -4h-17q-4 0 -4 4v2l120 163q4 4 7 4z"/>
<glyph glyph-name="otilde" horiz-adv-x="563" unicode="õ" d="M373 489h-9q-81 0 -141 -53t-77 -149l-14 -76q-4 -24 -4 -50q0 -72 40 -111t110 -39h9q81 0 141.5 53t77.5 149l13 76q5 30 5 50q0 72 -40.5 111t-110.5 39zM366 513h11q78 0 125 -44.5t47 -126.5q0 -26 -6 -56l-13 -74q-19 -108 -85.5 -166.5t-158.5 -58.5h-11 q-78 0 -125 44.5t-47 126.5q0 31 5 56l13 74q19 108 86 166.5t159 58.5zM515 649h13q4 0 4 -3v-1q-1 -1 -1 -2q-44 -68 -97 -68h-4q-26 0 -47 23.5t-40 23.5q-34 0 -71 -46q-3 -3 -7 -3h-13q-4 0 -4 3v3q44 68 98 68h4q26 0 46 -23.5t40 -23.5q36 0 72 46q3 3 7 3z"/>
<glyph glyph-name="odieresis" horiz-adv-x="563" unicode="ö" d="M373 489h-9q-81 0 -141 -53t-77 -149l-14 -76q-4 -24 -4 -50q0 -72 40 -111t110 -39h9q81 0 141.5 53t77.5 149l13 76q5 30 5 50q0 72 -40.5 111t-110.5 39zM366 513h11q78 0 125 -44.5t47 -126.5q0 -26 -6 -56l-13 -74q-19 -108 -85.5 -166.5t-158.5 -58.5h-11 q-78 0 -125 44.5t-47 126.5q0 31 5 56l13 74q19 108 86 166.5t159 58.5zM448 651h32q6 0 5 -6l-7 -39q-2 -6 -7 -6h-32q-7 0 -6 6l7 39q2 6 8 6zM314 651h32q6 0 5 -6l-7 -39q-2 -6 -7 -6h-32q-7 0 -6 6l7 39q2 6 8 6z"/>
<glyph glyph-name="divide" horiz-adv-x="544" unicode="÷" d="M285 161h32q7 0 5 -6l-6 -39q-2 -6 -8 -6h-32q-6 0 -5 6l6 39q1 6 8 6zM106 335h451q7 0 5 -6l-2 -12q-2 -6 -8 -6h-451q-7 0 -5 6l2 12q2 6 8 6zM351 536h32q7 0 5 -6l-6 -39q-2 -6 -8 -6h-32q-6 0 -5 6l6 39q1 6 8 6z"/>
<glyph glyph-name="oslash" horiz-adv-x="563" unicode="ø" d="M506 213l13 76q5 30 5 50q0 42 -17 78l-350 -355q39 -51 121 -51h9q81 0 141.5 53t77.5 149zM146 287l-14 -76q-4 -24 -4 -50q0 -44 16 -78l350 355q-39 51 -121 51h-9q-81 0 -141 -53t-77 -149zM560 500h20q4 0 4 -4q0 -2 -1 -3l-56 -57q22 -39 22 -94q0 -26 -6 -56 l-13 -74q-19 -108 -85.5 -166.5t-158.5 -58.5h-11q-91 0 -136 56l-39 -39q-4 -4 -9 -4h-19q-5 0 -5 4q0 1 2 3l55 57q-21 37 -21 94q0 31 5 56l13 74q19 108 86 166.5t159 58.5h11q90 0 135 -56l39 39q4 4 9 4z"/>
<glyph glyph-name="ugrave" horiz-adv-x="529" unicode="ù" d="M521 500h12q7 0 5 -6l-86 -488q-2 -6 -7 -6h-12q-7 0 -6 6l11 60q-46 -35 -99.5 -57t-96.5 -22h-4q-135 0 -135 126q0 29 6 63l56 318q1 6 8 6h12q7 0 5 -6l-56 -321q-6 -32 -6 -59q0 -52 26 -77.5t87 -25.5h2q90 0 200 88l70 395q1 6 8 6zM311 758h17q7 0 9 -7l44 -162 q2 -4 -3 -4h-10q-7 0 -9 7l-51 162q-2 4 3 4z"/>
<glyph glyph-name="uacute" horiz-adv-x="529" unicode="ú" d="M521 500h12q7 0 5 -6l-86 -488q-2 -6 -8 -6h-11q-7 0 -6 6l11 60q-46 -35 -99.5 -57t-96.5 -22h-4q-135 0 -135 126q0 29 6 63l56 318q1 6 8 6h12q7 0 5 -6l-56 -321q-6 -32 -6 -59q0 -52 26 -77.5t87 -25.5h2q90 0 200 88l70 395q1 6 8 6zM471 758h18q4 0 4 -4 q0 -1 -1 -2l-109 -163q-4 -4 -7 -4h-11q-4 0 -4 4v2l102 163q3 4 8 4z"/>
<glyph glyph-name="ucircumflex" horiz-adv-x="529" unicode="û" d="M521 500h12q7 0 5 -6l-86 -488q-2 -6 -8 -6h-11q-7 0 -6 6l11 60q-46 -35 -99.5 -57t-96.5 -22h-4q-135 0 -135 126q0 29 6 63l56 318q1 6 8 6h12q7 0 5 -6l-56 -321q-6 -32 -6 -59q0 -52 26 -77.5t87 -25.5h2q90 0 200 88l70 395q1 6 8 6zM393 758h9q8 0 9 -6l61 -162 q2 -5 -3 -5h-17q-8 0 -9 6l-48 143l-101 -145q-4 -4 -7 -4h-17q-4 0 -4 4v2l120 163q4 4 7 4z"/>
<glyph glyph-name="udieresis" horiz-adv-x="529" unicode="ü" d="M521 500h12q7 0 5 -6l-86 -488q-2 -6 -8 -6h-11q-7 0 -6 6l11 60q-46 -35 -99.5 -57t-96.5 -22h-4q-135 0 -135 126q0 29 6 63l56 318q1 6 8 6h12q7 0 5 -6l-56 -321q-6 -32 -6 -59q0 -52 26 -77.5t87 -25.5h2q90 0 200 88l70 395q1 6 8 6zM431 651h32q7 0 5 -6l-7 -39 q-1 -6 -7 -6h-32q-8 0 -6 6l7 39q1 6 8 6zM297 651h32q7 0 5 -6l-7 -39q-1 -6 -7 -6h-32q-8 0 -6 6l7 39q1 6 8 6z"/>
<glyph glyph-name="yacute" horiz-adv-x="487" unicode="ý" d="M526 500h14q4 0 4 -3v-3l-312 -549q-39 -68 -71 -96.5t-79 -28.5h-6q-24 0 -55 14q-7 3 -5 10l2 12q0 4 4 2q32 -14 58 -14h4q34 0 61 22.5t59 79.5l31 54h-3q-7 0 -9 8l-105 485q-2 7 6 7h13q5 0 7 -6l64 -298l38 -172h3l267 471q3 5 10 5zM453 758h18q4 0 4 -4 q0 -1 -1 -2l-109 -163q-4 -4 -7 -4h-11q-4 0 -4 4q0 1 0.5 1t0.5 1l102 163q3 4 7 4z"/>
<glyph glyph-name="thorn" horiz-adv-x="549" unicode="þ" d="M372 489h-2q-94 0 -193 -98l-52 -284q64 -96 159 -96h2q82 0 135.5 52t70.5 150l13 76q6 33 6 60q0 140 -139 140zM218 737h12q8 0 6 -6l-54 -304q44 43 95.5 64.5t94.5 21.5h4q78 0 119 -41.5t41 -120.5q0 -25 -7 -65l-13 -74q-19 -110 -79 -167.5t-152 -57.5h-4 q-43 0 -87 22.5t-73 65.5l-42 -236q-1 -6 -8 -6h-12q-7 0 -5 6l157 892q1 6 7 6z"/>
<glyph glyph-name="OE" horiz-adv-x="1052" unicode="Œ" d="M341 11h13q105 0 183 70.5t102 209.5l21 120q8 46 8 79q0 100 -52 149.5t-141 49.5h-13q-105 0 -183 -70.5t-102 -209.5l-21 -120q-7 -41 -7 -79q0 -100 51.5 -149.5t140.5 -49.5zM718 700h401q7 0 5 -6l-2 -12q-2 -6 -7 -6h-383l-53 -302h362q7 0 6 -6l-2 -12 q-1 -6 -8 -6h-362l-58 -326h383q6 0 5 -6l-2 -12q-1 -6 -7 -6h-402q-6 0 -5 6l23 132q-43 -75 -110.5 -113t-148.5 -38h-15q-98 0 -156.5 56t-58.5 163q0 40 7 79l24 132q26 146 110.5 221t199.5 75h15q81 0 136 -39t72 -114l23 134q2 6 8 6z"/>
<glyph glyph-name="oe" horiz-adv-x="932" unicode="œ" d="M765 489h-9q-78 0 -137 -57.5t-77 -153.5l346 2q7 38 7 73q0 136 -130 136zM373 489h-9q-81 0 -141 -53t-77 -149l-14 -76q-4 -24 -4 -50q0 -72 40 -111t110 -39h9q81 0 141.5 53t77.5 149l13 76q5 30 5 50q0 72 -40.5 111t-110.5 39zM758 513h11q152 0 152 -157 q0 -26 -7 -70l-4 -23q-2 -8 -9 -8h-363l-11 -63q-3 -20 -3 -38q0 -67 44 -105t117 -38h4q71 0 162 43q2 1 4.5 -1t1.5 -4l-2 -12q-2 -7 -7 -10q-85 -40 -160 -40h-6q-74 0 -122.5 35t-58.5 98q-32 -65 -88.5 -99t-126.5 -34h-11q-78 0 -125 44.5t-47 126.5q0 31 5 56l13 74 q19 108 86 166.5t159 58.5h11q71 0 116.5 -36.5t53.5 -104.5q33 67 88.5 104t122.5 37z"/>
<glyph glyph-name="Scaron" horiz-adv-x="549" unicode="Š" d="M300 360q-74 26 -111.5 59.5t-37.5 85.5q0 13 3 28l2 11q14 77 83 123t149 46h10q89 0 162 -45q5 -4 4 -9l-2 -13q-2 -8 -9 -4q-78 47 -162 47h-8q-70 0 -130.5 -39.5t-72.5 -109.5l-1 -5q-2 -16 -2 -24q0 -44 34 -73.5t106 -54.5l48 -17q38 -13 61.5 -24t48.5 -29 t36.5 -43t11.5 -58q0 -16 -3 -36l-2 -10q-14 -79 -84 -129t-163 -50h-10q-91 0 -174 50q-5 4 -4 9l2 13q2 8 9 4q88 -52 174 -52h8q83 0 144 43.5t74 115.5l1 4q3 16 3 32q0 54 -36 82t-114 55zM525 958h18q4 0 4 -4q0 -1 -1 -2l-119 -163q-4 -4 -7 -4h-10q-6 0 -8 6 l-61 162q-3 5 3 5h17q7 0 9 -6l48 -143l100 145q4 4 7 4z"/>
<glyph glyph-name="scaron" horiz-adv-x="423" unicode="š" d="M294 513h11q68 0 133 -42q5 -4 4 -9l-2 -12q0 -6 -6 -3q-66 42 -133 42h-9q-56 0 -100.5 -28t-53.5 -75l-1 -7q-2 -10 -2 -15q0 -8 2 -15.5t4.5 -13t8.5 -11.5l10 -10t13 -8.5t13.5 -7t15.5 -7t15 -5.5t17 -5.5t16 -5.5l22 -8q45 -16 69 -27.5t43 -34.5t19 -54 q0 -11 -3 -25l-1 -5q-11 -64 -63.5 -99t-119.5 -35h-11q-34 0 -74.5 12t-68.5 30q-5 4 -4 9l3 12q0 6 5 3q66 -42 142 -42h9q57 0 102.5 29.5t54.5 81.5l2 7q1 7 1 18q0 20 -8 35t-26 26t-31.5 17t-38.5 15l-22 8q-80 28 -103 45q-38 27 -38 68q0 5 2 19l1 7q11 60 62.5 93 t118.5 33zM428 758h17q5 0 5 -4q0 -1 -1 -2l-120 -163q-4 -4 -7 -4h-9q-7 0 -9 6l-61 162q-3 5 3 5h17q7 0 9 -6l48 -143l101 145q4 4 7 4z"/>
<glyph glyph-name="Ydieresis" horiz-adv-x="613" unicode="Ÿ" d="M674 700h17q4 0 4 -4q0 -1 -1 -2l-333 -452l-41 -236q-2 -6 -8 -6h-11q-7 0 -5 6l41 236l-173 450q-1 3 1 5.5t5 2.5h15q5 0 7 -5l115 -299l47 -121h2l310 421q3 4 8 4zM507 851h32q7 0 5 -6l-6 -39q-2 -6 -8 -6h-32q-6 0 -5 6l6 39q1 6 8 6zM373 851h32q7 0 5 -6l-6 -39 q-2 -6 -8 -6h-32q-6 0 -5 6l6 39q1 6 8 6z"/>
<glyph glyph-name="circumflex" horiz-adv-x="284" unicode="ˆ" d="M305 958h9q8 0 9 -6l61 -162q2 -5 -3 -5h-17q-8 0 -9 6l-48 143l-100 -145q-4 -4 -7 -4h-18q-4 0 -4 4q0 1 1 2l119 163q4 4 7 4z"/>
<glyph glyph-name="tilde" horiz-adv-x="353" unicode="˜" d="M444 849h13q4 0 4 -3v-3q-44 -68 -98 -68h-4q-25 0 -46 23.5t-40 23.5q-35 0 -72 -46q-3 -3 -7 -3h-13q-4 0 -4 3l1 1v2q44 68 97 68h4q25 0 46 -23.5t41 -23.5q35 0 71 46q3 3 7 3z"/>
<glyph glyph-name="uni2009" horiz-adv-x="600" unicode=" "/>
<glyph glyph-name="endash" horiz-adv-x="544" unicode="–" d="M106 335h451q7 0 5 -6l-2 -12q-2 -6 -8 -6h-451q-7 0 -5 6l2 12q2 6 8 6z"/>
<glyph glyph-name="emdash" horiz-adv-x="618" unicode="—" d="M106 335h525q7 0 5 -6l-2 -12q-2 -6 -8 -6h-525q-7 0 -5 6l2 12q2 6 8 6z"/>
<glyph glyph-name="quoteleft" horiz-adv-x="136" unicode="‘" d="M200 700h13q7 0 5 -8l-57 -159h14q7 0 5 -6l-7 -39q-1 -6 -8 -6h-34q-7 0 -5 6l6 35q0 1 2 7l59 165q2 5 7 5z"/>
<glyph glyph-name="quotesinglbase" horiz-adv-x="136" unicode="‚" d="M65 51h34q7 0 5 -6l-6 -33q0 -2 -0.5 -5t-1.5 -5l-59 -164q-2 -5 -7 -5h-16q-6 0 -4 5l59 162h-13q-8 0 -6 6l7 39q1 6 8 6z"/>
<glyph glyph-name="quotedblleft" horiz-adv-x="268" unicode="“" d="M332 700h13q7 0 5 -8l-57 -159h14q7 0 5 -6l-7 -39q-1 -6 -8 -6h-34q-7 0 -5 6l6 35q0 1 2 7l59 165q2 5 7 5zM200 700h13q7 0 5 -8l-57 -159h14q7 0 5 -6l-7 -39q-1 -6 -8 -6h-34q-7 0 -5 6l6 35q0 1 2 7l59 165q2 5 7 5z"/>
<glyph glyph-name="quotedblright" horiz-adv-x="268" unicode="”" d="M179 700h34q7 0 5 -6l-5 -33q-1 -4 -3 -10l-59 -164q-2 -5 -7 -5h-16q-6 0 -3 5l58 162h-13q-6 0 -5 6l6 39q1 6 8 6zM311 700h34q7 0 5 -6l-5 -33q-1 -4 -3 -10l-59 -164q-2 -5 -7 -5h-16q-6 0 -3 5l58 162h-13q-6 0 -5 6l6 39q1 6 8 6z"/>
<glyph glyph-name="dagger" horiz-adv-x="465" unicode="†" d="M350 700h12q6 0 5 -6l-34 -194h174q7 0 5 -6l-2 -12q-2 -6 -8 -6h-173l-96 -544q-1 -6 -8 -6h-12q-7 0 -5 6l96 544h-174q-6 0 -5 6l2 12q1 6 8 6h173l34 194q2 6 8 6z"/>
<glyph glyph-name="daggerdbl" horiz-adv-x="465" unicode="‡" d="M350 700h12q6 0 5 -6l-34 -194h174q7 0 5 -6l-2 -12q-2 -6 -8 -6h-173l-54 -306h174q7 0 5 -6l-2 -12q-2 -6 -8 -6h-173l-38 -214q-1 -6 -8 -6h-12q-7 0 -5 6l38 214h-174q-6 0 -5 6l2 12q1 6 7 6h174l54 306h-174q-6 0 -5 6l2 12q1 6 8 6h173l34 194q2 6 8 6z"/>
<glyph glyph-name="ellipsis" horiz-adv-x="597" unicode="…" d="M527 51h33q6 0 5 -6l-7 -39q-2 -6 -7 -6h-33q-6 0 -5 6l7 39q2 6 7 6zM291 51h33q6 0 5 -6l-7 -39q-2 -6 -7 -6h-33q-6 0 -5 6l7 39q2 6 7 6zM55 51h33q6 0 5 -6l-7 -39q-2 -6 -7 -6h-33q-6 0 -5 6l7 39q2 6 7 6z"/>
<glyph glyph-name="perthousand" horiz-adv-x="1357" unicode="‰" d="M1219 366h-9q-66 0 -110 -45t-57 -118l-6 -31q-4 -20 -4 -43q0 -55 28.5 -86.5t84.5 -31.5h9q66 0 110.5 45t57.5 118l5 31q4 20 4 43q0 55 -28.5 86.5t-84.5 31.5zM812 366h-9q-66 0 -110 -45t-57 -118l-6 -31q-4 -20 -4 -43q0 -55 28.5 -86.5t84.5 -31.5h9 q66 0 110.5 45t57.5 118l5 31q4 20 4 43q0 55 -28.5 86.5t-84.5 31.5zM1212 390h11q65 0 99.5 -37.5t34.5 -102.5q0 -25 -4 -48l-5 -29q-15 -85 -66.5 -135.5t-127.5 -50.5h-11q-65 0 -100 37.5t-35 102.5q0 20 5 48l5 29q15 85 66.5 135.5t127.5 50.5zM805 390h11 q65 0 99.5 -37.5t34.5 -102.5q0 -25 -4 -48l-5 -29q-15 -85 -66.5 -135.5t-127.5 -50.5h-11q-65 0 -100 37.5t-35 102.5q0 20 5 48l5 29q15 85 66.5 135.5t127.5 50.5zM334 689h-9q-66 0 -110 -45t-57 -118l-6 -31q-4 -20 -4 -43q0 -55 28.5 -86.5t84.5 -31.5h9 q66 0 110.5 45t57.5 118l5 31q4 20 4 43q0 55 -28.5 86.5t-84.5 31.5zM758 700h14q4 0 4 -4q0 -1 -1 -2l-448 -688q-3 -6 -11 -6h-14q-2 0 -3.5 2t-0.5 4l449 688q3 6 11 6zM327 713h11q65 0 99.5 -37.5t34.5 -102.5q0 -25 -4 -48l-6 -29q-15 -85 -66.5 -135.5t-127.5 -50.5 h-11q-65 0 -99.5 37.5t-34.5 102.5q0 20 5 48l5 29q15 85 66.5 135.5t127.5 50.5z"/>
<glyph glyph-name="guilsinglleft" horiz-adv-x="233" unicode="‹" d="M245 409h15q4 0 4 -4q0 -2 -1 -3l-152 -149l100 -150q4 -6 -4 -6h-15q-4 0 -8 4l-98 142q-2 3 -2 8l1 4q0 4 4 8l150 144q2 2 6 2z"/>
<glyph glyph-name="guilsinglright" horiz-adv-x="233" unicode="›" d="M115 409h16q3 0 7 -4l98 -142q3 -5 3 -8l-1 -4q0 -4 -4 -8l-150 -144q-2 -2 -6 -2h-15q-5 0 -5 4q0 1 2 3l152 149l-100 150q-4 6 3 6z"/>
<glyph glyph-name="fraction" horiz-adv-x="128" unicode="⁄" d="M360 700h14q4 0 4 -4v-2l-449 -688q-3 -6 -11 -6h-14q-4 0 -4 4q0 1 1 2l448 688q3 6 11 6z"/>
<glyph glyph-name="Euro" horiz-adv-x="670" unicode="€" d="M731 666q5 -4 4 -9l-2 -12q0 -5 -5 -3q-80 47 -163 47h-8q-100 0 -184.5 -67t-115.5 -190h298q7 0 5 -6l-2 -12q-2 -6 -8 -6h-298q0 -1 -0.5 -3.5t-0.5 -3.5l-19 -104v-5h298q6 0 5 -6l-2 -12q-1 -6 -7 -6h-298q-2 -14 -2 -41q0 -105 59 -160.5t151 -55.5h8q83 0 179 47 q2 2 4.5 0.5t1.5 -4.5l-2 -13q-2 -6 -7 -9q-90 -45 -177 -45h-10q-101 0 -167 61.5t-66 173.5q0 22 3 46h-109q-8 0 -6 6l2 12q2 6 8 6l109 1l20 115h-109q-6 0 -5 6l2 12q1 6 8 6h109q31 134 123.5 207.5t203.5 73.5h10q86 0 162 -47z"/>
<glyph glyph-name="trademark" horiz-adv-x="794" unicode="™" d="M850 740h28q6 0 5 -6l-66 -378q-1 -6 -8 -6h-12q-7 0 -5 6l63 358h-1l-180 -226q-3 -3 -6 -3h-7q-5 0 -8 5l-51 114l-49 110h-1l-63 -358q-1 -6 -8 -6h-12q-7 0 -5 6l66 378q2 6 8 6h24q10 0 13 -8l92 -214h3l170 217q3 5 10 5zM177 740h287q6 0 5 -6l-2 -12q-1 -6 -7 -6 h-131l-63 -360q-2 -6 -8 -6h-12q-6 0 -5 6l63 360h-131q-7 0 -6 6l2 12q1 6 8 6z"/>
<glyph glyph-name="arrowleft" horiz-adv-x="650" unicode="←" d="M103 336l154 70h2q4 0 4 -4l-1 -8q-2 -7 -7 -10l-95 -48h503q7 0 5 -6l-2 -12q-2 -6 -7 -6h-504l75 -47q7 -4 6 -13l-1 -8q0 -3 -3 -3h-2l-129 69q-7 3 -5 10l2 10q0 4 5 6z"/>
<glyph glyph-name="arrowup" horiz-adv-x="244" unicode="↑" d="M219 570h7q7 0 9 -7l44 -141q2 -4 -3 -4h-10q-8 0 -9 6l-33 86l-89 -504q-1 -6 -7 -6h-12q-6 0 -5 6l89 504l-65 -89q-3 -3 -7 -3h-10q-7 0 -3 6l93 140q3 6 11 6z"/>
<glyph glyph-name="arrowright" horiz-adv-x="650" unicode="→" d="M527 392l2 11q0 3 3 3h2l129 -69q7 -3 5 -10l-2 -10q0 -4 -5 -6l-154 -70h-2q-4 0 -4 4l2 10q0 6 4 7l97 49h-503q-7 0 -5 6l2 12q2 6 8 6h503l-78 48q-5 4 -4 9z"/>
<glyph glyph-name="arrowdown" horiz-adv-x="244" unicode="↓" d="M215 557h11q6 0 5 -6l-89 -504l64 87q3 5 10 5h9q7 0 3 -6l-94 -140q-3 -6 -10 -6h-8q-7 0 -9 7l-44 141q-2 4 4 4h6q10 0 13 -9l32 -83l89 504q1 6 8 6z"/>
<glyph glyph-name="partialdiff" horiz-adv-x="511" unicode="∂" d="M346 476h-2q-83 0 -139.5 -52t-83.5 -150l-17 -63q-11 -42 -11 -74q0 -61 33 -93.5t92 -32.5h9q82 0 140.5 53t83.5 149l45 167q-56 96 -150 96zM428 750h6q145 0 145 -120q0 -32 -10 -68l-93 -350q-29 -110 -95.5 -167.5t-156.5 -57.5h-11q-67 0 -106.5 38t-39.5 108 q0 36 12 81l17 61q61 225 251 225h4q43 0 85 -22.5t68 -65.5l40 153q9 35 9 61q0 100 -124 100h-4q-64 0 -166 -43q-2 -1 -4 0.5t-1 4.5l4 15q2 5 5 6q89 41 165 41z"/>
<glyph glyph-name="emptyset" horiz-adv-x="607" unicode="∅" d="M586 252q4 20 4 43q0 67 -35 116l-400 -340q57 -60 148 -60q102 1 183.5 70.5t99.5 170.5zM109 248q-4 -20 -4 -45q0 -67 35 -114l400 340q-57 60 -149 60q-102 -1 -182.5 -70t-99.5 -171zM631 499l8 -10q1 -1 1 -3t-2 -4l-64 -55q41 -55 41 -131q0 -27 -4 -48 q-20 -109 -109 -184.5t-200 -76.5q-103 0 -166 68l-65 -55q-3 -3 -7 1l-8 10q-1 1 -1 3t2 4l64 54q-41 57 -41 130q0 27 4 50q20 110 108.5 185t199.5 76q104 0 167 -68l65 55q3 3 7 -1z"/>
<glyph glyph-name="product" horiz-adv-x="599" unicode="∏" d="M170 700h506q6 0 5 -6l-2 -12q-1 -6 -7 -6h-84l-118 -670q-2 -6 -8 -6h-12q-6 0 -5 6l118 670h-289l-118 -670q-2 -6 -8 -6h-12q-6 0 -5 6l118 670h-83q-8 0 -6 6l2 12q2 6 8 6z"/>
<glyph glyph-name="summation" horiz-adv-x="509" unicode="∑" d="M170 700h416q6 0 5 -6l-2 -12q-1 -6 -7 -6h-389l247 -309q4 -6 3 -10l-3 -15q0 -4 -4 -8l-357 -310h388q7 0 5 -6l-2 -12q-2 -6 -8 -6h-416q-7 0 -5 6l2 13q1 5 6 10l370 321l-255 319q-4 6 -3 13l1 11q2 7 8 7z"/>
<glyph glyph-name="minus" horiz-adv-x="544" unicode="−" d="M106 335h451q7 0 5 -6l-2 -12q-2 -6 -8 -6h-451q-7 0 -5 6l2 12q2 6 8 6z"/>
<glyph glyph-name="radical" horiz-adv-x="686" unicode="√" d="M750 700h15q4 0 4 -4l-1 -1v-1l-389 -690q-3 -4 -8 -4h-24q-7 0 -9 8l-100 468h-108q-6 0 -5 6l2 12q1 6 8 6h116q7 0 9 -8l49 -231l52 -237h1l133 237l246 434q3 5 9 5z"/>
<glyph glyph-name="infinity" horiz-adv-x="663" unicode="∞" d="M584 488h-7q-45 0 -80 -32.5t-92 -111.5q28 -78 51 -109.5t69 -31.5h7q47 0 82 40t45 96l2 15q4 24 4 35q0 44 -20.5 71.5t-60.5 27.5zM260 488h-7q-47 0 -82 -40t-45 -96l-3 -15q-3 -18 -3 -35q0 -44 20.5 -71.5t60.5 -27.5h7q45 0 80 32.5t92 111.5q-28 78 -51 109.5 t-69 31.5zM579 513h7q50 0 76.5 -34t26.5 -87q0 -13 -4 -39l-3 -17q-12 -67 -53 -112.5t-101 -45.5h-7q-54 0 -80.5 33.5t-51.5 109.5q-53 -77 -91 -110t-92 -33h-7q-50 0 -76.5 34t-26.5 87q0 13 4 39l3 17q12 67 53 112.5t101 45.5h7q54 0 80.5 -33.5t51.5 -109.5 q53 77 91 110t92 33z"/>
<glyph glyph-name="approxequal" horiz-adv-x="462" unicode="≈" d="M198 258q35 0 76.5 -24.5t69.5 -24.5q37 0 115 38q6 2 6 -4l-2 -12q0 -6 -4 -7q-76 -39 -117 -39q-35 0 -76.5 24.5t-69.5 24.5q-37 0 -115 -38q-5 -2 -5 4l1 13q0 5 5 7q3 1 13.5 6.5t14 7t13.5 6t15 6.5t14 5t15.5 4t14.5 2t16 1zM222 398q35 0 77 -24.5t70 -24.5 q37 0 115 38q6 2 6 -4l-2 -12q0 -5 -5 -7q-76 -39 -116 -39q-35 0 -76.5 24.5t-69.5 24.5q-37 0 -115 -38q-6 -2 -6 4l2 13q0 5 5 7q3 2 15.5 8t16.5 8t14.5 6.5t17 6.5t16 4.5t18 3.5t17.5 1z"/>
<glyph glyph-name="notequal" horiz-adv-x="545" unicode="≠" d="M403 388h164q7 0 6 -6l-3 -12q-2 -6 -7 -6h-178l-87 -116h244q8 0 6 -6l-2 -12q-2 -6 -8 -6h-258l-92 -122q-2 -2 -4 -2t-3 1l-11 8q-5 3 -2 7l82 108h-164q-6 0 -5 6l2 12q1 6 7 6h178l87 116h-244q-7 0 -6 6l2 12q1 6 8 6h258l92 122q2 2 4 2t3 -1l11 -8q4 -3 1 -7z "/>
<glyph glyph-name="lessequal" horiz-adv-x="544" unicode="≤" d="M67 118h451q8 0 6 -6l-2 -12q-2 -6 -8 -6h-451q-7 0 -5 6l2 12q2 6 7 6zM108 355l473 110h1q4 0 4 -4l-3 -15q-2 -7 -7 -8l-430 -96l392 -95q9 -2 7 -12l-2 -14q0 -2 -3 -2h-1l-432 109q-9 2 -7 12l1 8q1 6 7 7z"/>
<glyph glyph-name="greaterequal" horiz-adv-x="544" unicode="≥" d="M67 118h451q8 0 6 -6l-2 -12q-2 -6 -8 -6h-451q-7 0 -5 6l2 12q2 6 7 6zM119 449l3 14q0 2 3 2l432 -109q10 -2 8 -12l-2 -8q-1 -6 -7 -7l-472 -110h-1q-4 0 -4 4l3 15q2 7 7 8l429 96l-391 95q-10 2 -8 12z"/>
<glyph glyph-name="lozenge" horiz-adv-x="382" unicode="◊" d="M159 549l105 -131l153 131l-105 131zM304 700h19q7 0 10 -5l105 -127q3 -5 2 -10l-3 -19q0 -4 -4 -8l-153 -130q-3 -3 -8 -3h-20q-6 0 -9 5l-105 127q-4 6 -3 10l3 19q0 3 5 8l153 130q3 3 8 3z"/>
</font>
</defs>
</svg>
