<?xml version="1.0" standalone="no"?>
<!DOCTYPE svg PUBLIC "-//W3C//DTD SVG 1.1//EN" "http://www.w3.org/Graphics/SVG/1.1/DTD/svg11.dtd" >
<svg xmlns="http://www.w3.org/2000/svg">
<metadata></metadata>
<defs>
<font id="webnarmedium_italic" horiz-adv-x="1073" >
<font-face units-per-em="2048" ascent="1536" descent="-512" />
<missing-glyph horiz-adv-x="419" />
<glyph horiz-adv-x="0" />
<glyph horiz-adv-x="682" />
<glyph unicode=" "  horiz-adv-x="419" />
<glyph unicode="&#x09;" horiz-adv-x="419" />
<glyph unicode="&#xa0;" horiz-adv-x="419" />
<glyph unicode="!" horiz-adv-x="356" d="M70 26l31 174q5 27 32 27h171q11 0 17 -7.5t4 -18.5l-32 -182q-3 -19 -22 -19h-179q-11 0 -17.5 7.5t-4.5 18.5zM182 464l137 941q2 13 10.5 21t21.5 8h161q11 0 17 -8.5t4 -19.5l-197 -949q-3 -18 -22 -18h-110q-11 0 -17 7.5t-5 17.5z" />
<glyph unicode="&#x22;" horiz-adv-x="694" d="M265 980l46 423q2 14 11 22.5t22 8.5h159q12 0 18.5 -9t3.5 -20l-106 -432q-5 -16 -22 -16h-111q-10 0 -16 6.5t-5 16.5zM621 980l46 423q2 14 11 22.5t22 8.5h159q12 0 18.5 -9t3.5 -20l-106 -432q-5 -16 -22 -16h-110q-10 0 -16.5 6.5t-5.5 16.5z" />
<glyph unicode="#" horiz-adv-x="1208" d="M151 503l39 88q9 19 27 19h369l94 214h-352q-14 0 -21 10.5t-1 23.5l39 88q9 19 28 19h368l199 450q9 19 27 19h35h103q14 0 21 -10.5t1 -23.5l-191 -435h351q14 0 21 -10.5t1 -23.5l-39 -89q-8 -18 -27 -18h-369l-94 -214h352q14 0 21 -10.5t1 -23.5l-39 -89 q-8 -18 -28 -18h-369l-197 -451q-8 -18 -28 -18h-138q-14 0 -21.5 10.5t-1.5 23.5l192 435h-351q-14 0 -21 10.5t-1 23.5z" />
<glyph unicode="$" horiz-adv-x="1142" d="M157 97l24 138q2 11 11 16t20 1q127 -55 197 -75.5t158 -20.5h13q125 0 211.5 58.5t104.5 158.5l1 7q4 21 4.5 39t-3.5 34t-9 29.5t-15.5 25.5t-20.5 22t-26.5 20t-30.5 17.5t-35.5 16.5t-39 15.5t-42.5 15.5l-81 28q-174 62 -252 155t-52 243l4 23q19 109 87.5 194.5 t159.5 132.5t196 61l43 242q5 26 32 26h100q11 0 17.5 -7.5t4.5 -17.5l-43 -239q150 -11 272 -67q29 -10 24 -43l-25 -137q-2 -11 -11 -15.5t-19 -0.5q-97 42 -167 61t-153 19h-12q-106 0 -190 -55t-101 -152l-1 -8q-14 -77 34 -123t167 -88l84 -30q44 -16 79 -31t70 -34 t60.5 -38.5t49.5 -45t36.5 -53t23 -62t8.5 -73.5t-8 -86l-3 -18q-30 -171 -163.5 -276.5t-315.5 -124.5l-43 -243q-3 -19 -22 -19h-108q-11 0 -17.5 8t-4.5 18l41 235q-163 14 -302 82q-26 11 -21 41z" />
<glyph unicode="%" horiz-adv-x="1990" d="M240 1013l15 85q30 167 140.5 264.5t264.5 97.5h31q153 0 234.5 -105t51.5 -272l-15 -85q-30 -167 -140 -265t-263 -98h-32q-154 0 -235.5 105.5t-51.5 272.5zM406 1006q-18 -105 20 -165t127 -60h15q89 0 150 61t79 166l14 81q18 105 -20 165.5t-127 60.5h-15 q-89 0 -150 -61.5t-79 -166.5zM589.5 8.5q-4.5 8.5 1.5 17.5l899 1381q17 27 48 27h100q11 0 15.5 -9t-1.5 -18l-899 -1381q-17 -26 -48 -26h-100q-11 0 -15.5 8.5zM1266 352l15 84q30 167 140 265t264 98h31q153 0 234.5 -105.5t51.5 -272.5l-15 -84q-30 -167 -140 -265.5 t-263 -98.5h-32q-153 0 -234.5 106t-51.5 273zM1431 344q-18 -105 20.5 -165t127.5 -60h14q89 0 150 61t79 166l15 82q18 105 -20.5 165t-127.5 60h-14q-89 0 -150 -61t-79 -166z" />
<glyph unicode="&#x26;" horiz-adv-x="1435" d="M145 386l5 29q20 116 97 206.5t213 134.5q-87 45 -127.5 129.5t-24.5 175.5l5 28q32 179 170.5 275t336.5 96h14q109 0 195 -34q30 -10 25 -44l-23 -134q-2 -10 -10 -14.5t-18 -0.5q-93 41 -185 41h-10q-115 0 -194 -61.5t-96 -161.5l-3 -19q-7 -42 3 -80.5t37.5 -70.5 t78.5 -51t120 -19h296l71 405q5 27 32 33l162 36q9 2 14.5 -3.5t3.5 -14.5l-80 -456l285 -1l-28 -158h-285l-67 -379q-12 -70 9.5 -102t81.5 -32h10q37 0 140 33q10 3 16.5 -2.5t5.5 -15.5l-19 -109q-3 -19 -22 -27q-112 -45 -185 -45h-17q-87 0 -139.5 36.5t-63.5 101.5 q-85 -59 -194 -98.5t-223 -39.5h-17q-128 0 -225.5 49.5t-145 145t-25.5 218.5zM366 405q-19 -108 44 -177t188 -69h13q60 0 124.5 19t109.5 40.5t111 58.5l66 375l-327 1q-141 0 -225.5 -69.5t-101.5 -166.5z" />
<glyph unicode="'" horiz-adv-x="339" d="M265 980l46 423q2 14 11 22.5t22 8.5h159q12 0 18.5 -9t3.5 -20l-106 -432q-5 -16 -22 -16h-111q-10 0 -16 6.5t-5 16.5z" />
<glyph unicode="(" horiz-adv-x="608" d="M157 59q-6 80 14 181l125 709q43 245 166.5 366.5t315.5 145.5q10 1 16.5 -5.5t4.5 -17.5l-21 -119q-2 -12 -14 -17q-49 -18 -83 -38.5t-70 -59t-61.5 -101.5t-41.5 -153l-128 -728q-13 -71 -13 -125.5t9.5 -90.5t30 -62.5t43 -41.5t54.5 -28q18 -8 15 -27l-21 -118 q-3 -18 -21 -15q-73 14 -128.5 39.5t-98.5 67.5t-65 100t-28 138z" />
<glyph unicode=")" horiz-adv-x="608" d="M16 -265l21 120q1 12 15 17q48 17 82.5 38t70 59t61 101.5t41.5 153.5l129 728q13 71 12.5 125.5t-9.5 90t-30 62.5t-43.5 42t-54.5 28q-17 8 -14 27l20 118q3 18 22 15q71 -13 125 -38t98.5 -66.5t66.5 -99.5t29 -138.5t-13 -183.5l-125 -709q-83 -474 -483 -514 q-10 -1 -16.5 6t-4.5 18z" />
<glyph unicode="*" horiz-adv-x="929" d="M256 1080.5q-4 9.5 1 19.5l83 159q10 19 29 9l215 -105l26 252q2 19 21 19h163q12 0 19 -9t3 -21l-60 -241l242 102q10 5 20 0.5t12 -16.5l29 -155q3 -18 -16 -23l-264 -71l145 -186q7 -8 5.5 -17t-9.5 -15l-146 -102q-9 -7 -19 -4t-14 13l-112 214l-195 -222 q-14 -17 -30 -3l-114 101q-8 7 -7.5 16.5t8.5 16.5l209 188l-229 68q-11 3 -15 12.5z" />
<glyph unicode="+" horiz-adv-x="1075" d="M166 589l19 109q5 26 32 26h366l60 335q5 27 32 27h110q11 0 17.5 -7.5t4.5 -18.5l-60 -336h368q11 0 17 -7.5t4 -17.5l-19 -109q-5 -26 -32 -26h-366l-60 -335q-5 -27 -32 -27h-110q-11 0 -17.5 7.5t-4.5 18.5l60 336h-368q-11 0 -17 7.5t-4 17.5z" />
<glyph unicode="," horiz-adv-x="364" d="M6.5 -334.5q-4.5 7.5 0.5 16.5l149 318h-56q-11 0 -17 7.5t-4 18.5l31 174q5 27 31 27h176q11 0 17 -7.5t5 -17.5l-27 -165q-3 -14 -10 -29l-158 -332q-10 -18 -30 -18h-93q-10 0 -14.5 7.5z" />
<glyph unicode="-" horiz-adv-x="761" d="M166 589l19 109q5 26 32 26h585q11 0 17.5 -7.5t4.5 -17.5l-21 -117q-3 -18 -22 -18h-594q-11 0 -17 7.5t-4 17.5z" />
<glyph unicode="." horiz-adv-x="348" d="M66 26l31 174q5 27 32 27h171q11 0 17 -7.5t4 -18.5l-32 -182q-3 -19 -22 -19h-179q-11 0 -17.5 7.5t-4.5 18.5z" />
<glyph unicode="/" horiz-adv-x="643" d="M69 34l607 1381q9 19 28 19h102q14 0 21 -10.5t1 -23.5l-606 -1382q-8 -18 -28 -18h-103q-14 0 -21 10.5t-1 23.5z" />
<glyph unicode="0" horiz-adv-x="1343" d="M228 320.5q-21 115.5 5 268.5l47 271q26 149 87 265.5t145 188.5t184 109t211 37h31q110 0 199 -38.5t150 -116t82 -193t-5 -268.5l-48 -270q-26 -149 -87 -265.5t-145 -189t-184 -109.5t-211 -37h-31q-110 0 -199 38.5t-149.5 116t-81.5 193zM446 569 q-36 -203 28.5 -306.5t214.5 -103.5h20q149 0 251 104.5t138 307.5l52 294q35 203 -29 306t-213 103h-21q-149 0 -251.5 -104.5t-137.5 -306.5z" />
<glyph unicode="1" horiz-adv-x="847" d="M66 26l25 141q3 19 23 19h247l180 1017l-249 -87q-13 -4 -22 3.5t-7 20.5l23 136q6 34 37 43l317 110q17 5 30 5h97q11 0 17.5 -8t4.5 -18l-216 -1222h220q11 0 17.5 -8t4.5 -18l-25 -141q-3 -19 -22 -19h-680q-11 0 -17.5 8t-4.5 18z" />
<glyph unicode="2" horiz-adv-x="1120" d="M107 26l21 115q5 28 25 47l454 413q80 71 124.5 112.5t104.5 105t92 117t41 101.5l1 8q19 110 -44 170t-169 60h-12q-83 0 -160 -19t-190 -62q-10 -3 -16.5 2.5t-5.5 15.5l26 147q3 21 22 27q177 74 359 74h16q130 0 225.5 -45.5t142 -138t24.5 -217.5l-3 -18 q-12 -67 -53 -141t-108.5 -151.5t-126 -136.5t-140.5 -135l-335 -291h602q11 0 17.5 -7.5t4.5 -18.5l-25 -141q-3 -19 -22 -19h-870q-10 0 -17 7.5t-5 18.5z" />
<glyph unicode="3" horiz-adv-x="1071" d="M123 87l25 144q4 18 20 11q103 -44 171.5 -63.5t154.5 -19.5h13q132 0 227.5 70.5t114.5 177.5l2 12q17 97 -42.5 165.5t-200.5 68.5h-183q-11 0 -17.5 7.5t-4.5 18.5l20 114q3 18 22 18h156q134 0 219 66.5t101 156.5l3 18q17 99 -45 160.5t-180 61.5h-13 q-81 0 -157.5 -19.5t-189.5 -61.5q-10 -4 -17 2t-5 16l26 148q3 21 23 28q175 73 355 73h17q132 0 229.5 -43.5t145.5 -132.5t27 -210l-5 -29q-17 -93 -83 -173.5t-177 -130.5q114 -39 162 -132.5t28 -208.5l-5 -29q-33 -185 -190 -291.5t-375 -106.5h-17q-177 0 -331 71 q-29 10 -24 43z" />
<glyph unicode="4" horiz-adv-x="1253" d="M130 391l21 124q3 21 16 37l729 862q17 20 41 20h234q11 0 17.5 -8t4.5 -18l-151 -857h220q11 0 17 -7.5t4 -18.5l-24 -141q-3 -19 -23 -19h-227l-61 -346q-3 -19 -22 -19h-167q-11 0 -17.5 7.5t-4.5 18.5l60 339h-645q-10 0 -17 7.5t-5 18.5zM383 551h447l119 661z" />
<glyph unicode="5" horiz-adv-x="1081" d="M119 87l25 144q4 18 20 11q103 -44 173 -63.5t156 -19.5h13q141 0 238.5 76.5t118.5 195.5l2 11q22 127 -43 198.5t-211 71.5q-27 0 -55.5 -2.5t-62.5 -9t-55 -10.5t-61 -13t-53 -12q-16 -3 -28 8l-13 12q-14 13 -11 31l122 691q5 27 32 27h712q11 0 17 -8t4 -18 l-25 -142q-3 -18 -22 -18h-536l-78 -408q143 31 218 31q142 0 233 -57t123 -154.5t9 -226.5l-5 -26q-34 -196 -194.5 -315t-387.5 -119h-16q-182 0 -336 71q-28 9 -23 43z" />
<glyph unicode="6" horiz-adv-x="1198" d="M225 324.5q-17 118.5 10 277.5l5 31q68 383 246.5 605t445.5 222h16q149 0 293 -71q28 -11 23 -42l-25 -138q-1 -10 -10 -14.5t-19 0.5q-92 45 -146 62t-128 17h-10q-67 0 -128 -24.5t-120.5 -79t-109 -153.5t-83.5 -236q73 43 169.5 71t185.5 28q201 0 298 -116t62 -313 l-5 -27q-34 -191 -183 -321t-367 -130h-16q-107 0 -191 38.5t-140 116.5t-73 196.5zM439 531q-32 -179 25.5 -275.5t185.5 -96.5h11q130 0 215 84t107 210l2 10q22 124 -34.5 191t-178.5 67q-134 0 -314 -92z" />
<glyph unicode="7" horiz-adv-x="1069" d="M286 1273l24 134q5 27 32 27h893q10 0 16.5 -7.5t4.5 -18.5l-18 -113q-4 -26 -22 -47l-530 -598q-18 -21 -23 -50l-105 -581q-3 -19 -22 -19h-168q-10 0 -16.5 7.5t-4.5 18.5l109 630q4 28 25 52l489 540h-662q-11 0 -17.5 7.5t-4.5 17.5z" />
<glyph unicode="8" horiz-adv-x="1202" d="M145 384l5 29q20 114 98.5 205t217.5 135q-89 43 -130.5 127t-25.5 175l5 29q21 119 97 205t186 128.5t243 42.5h23q203 0 319 -106.5t85 -284.5l-5 -29q-17 -92 -83.5 -172t-178.5 -128q79 -27 128 -82t64.5 -121t2.5 -139l-5 -29q-32 -184 -191 -290t-382 -106h-29 q-223 0 -349.5 113t-94.5 298zM365 402q-19 -107 46.5 -175t199.5 -68h36q134 0 224 69t109 176l2 12q4 35 3 68.5t-17.5 64t-42.5 54t-72 37t-106 13.5h-59q-143 0 -223.5 -70.5t-97.5 -168.5zM517 1035q-15 -88 36.5 -154t172.5 -66h32q124 0 201 67t92 155l4 18 q17 98 -41.5 159.5t-174.5 61.5h-23q-116 0 -197.5 -62t-98.5 -160z" />
<glyph unicode="9" horiz-adv-x="1198" d="M187 86l24 138q1 10 10.5 15t19.5 0q93 -46 146.5 -63t127.5 -17h10q67 0 128 24.5t120.5 79t109 153.5t83.5 236q-73 -43 -169.5 -71t-185.5 -28q-201 0 -298.5 116t-62.5 313l5 27q34 191 183.5 321t367.5 130h15q107 0 191 -38.5t140.5 -116.5t73 -196t-9.5 -277 l-6 -31q-45 -252 -136.5 -435.5t-233.5 -288t-321 -104.5h-16q-149 0 -293 71q-28 11 -23 42zM465 970q-22 -124 34.5 -191t178.5 -67q135 0 315 92l18 98q32 179 -25 275.5t-185 96.5h-12q-130 0 -215 -84t-107 -210z" />
<glyph unicode=":" horiz-adv-x="348" d="M66 26l31 174q5 27 32 27h171q11 0 17 -7.5t4 -18.5l-32 -182q-3 -19 -22 -19h-179q-11 0 -17.5 7.5t-4.5 18.5zM191 734l31 175q5 26 32 26h170q11 0 17.5 -7.5t4.5 -17.5l-32 -183q-3 -19 -22 -19h-179q-11 0 -17.5 8t-4.5 18z" />
<glyph unicode=";" horiz-adv-x="364" d="M6.5 -334.5q-4.5 7.5 0.5 16.5l149 318h-56q-11 0 -17 7.5t-4 18.5l31 174q5 27 31 27h176q11 0 17 -7.5t5 -17.5l-27 -165q-3 -14 -10 -29l-158 -332q-10 -18 -30 -18h-93q-10 0 -14.5 7.5zM208 734l30 175q5 26 32 26h171q11 0 17 -7t4 -18l-32 -183q-3 -19 -22 -19 h-179q-11 0 -17 7.5t-4 18.5z" />
<glyph unicode="&#x3c;" d="M157 535l17 104q5 28 31 36l957 314q9 3 15.5 -2.5t5.5 -15.5l-24 -138q-3 -17 -20 -22l-722 -227l632 -223q25 -8 20 -34l-23 -138q-4 -16 -19 -11l-845 314q-30 11 -25 43z" />
<glyph unicode="=" d="M164 581l14 76q5 27 32 27h896q11 0 17.5 -7.5t4.5 -18.5l-13 -75v-1q-5 -27 -32 -27h-897q-11 0 -17.5 8t-4.5 18z" />
<glyph unicode="&#x3e;" d="M97 198l23 135q3 20 23 25l720 226l-627 223q-13 4 -20 15t-5 25l22 127q1 10 9 14t17 1l843 -313q27 -10 22 -38l-18 -108q-5 -28 -31 -36l-957 -314q-9 -3 -15.5 2.5t-5.5 15.5z" />
<glyph unicode="?" horiz-adv-x="1026" d="M248 26l30 174q5 27 32 27h171q11 0 17 -7.5t4 -18.5l-32 -182q-3 -19 -22 -19h-179q-11 0 -17 7.5t-4 18.5zM278 1220l25 139q3 22 22 28q174 73 361 73h16q229 0 353.5 -115.5t92.5 -298.5l-5 -27q-29 -166 -155 -273.5t-311 -107.5q-51 0 -119 12l-45 -194 q-5 -17 -21 -17h-111q-10 0 -16.5 7t-4.5 18l38 270q2 14 12 23l33 26q11 9 28 7q93 -11 119 -11q144 0 231 68.5t105 170.5l2 11q20 112 -50.5 178.5t-213.5 66.5h-13q-84 0 -159.5 -19t-183.5 -60q-13 -4 -22.5 3.5t-7.5 21.5z" />
<glyph unicode="@" horiz-adv-x="1972" d="M196 -25.5q-25 115.5 1 268.5l99 561q26 150 91 266t157.5 188.5t205 109.5t241.5 37l566 -1q128 0 229.5 -38.5t170.5 -115.5t94 -192.5t-1 -268.5l-92 -522q-51 -294 -342 -294h-98q-45 0 -90 14t-83 53t-40 95q-170 -162 -352 -162h-7q-181 0 -258 125.5t-41 332.5 l29 164q39 221 171 338.5t329 117.5h17q102 0 208.5 -33.5t185.5 -80.5q27 -16 22 -51l-105 -624q-12 -68 11.5 -95.5t62.5 -27.5h44q39 0 73 28.5t46 96.5l96 545q36 204 -44.5 307t-265.5 103h-557q-185 0 -302.5 -104t-153.5 -308l-103 -585q-36 -204 44.5 -306.5 t265.5 -102.5h676q11 0 17.5 -8t4.5 -18l-25 -142q-3 -18 -22 -18h-682q-128 0 -229.5 38.5t-170.5 116t-94 193zM848 426q-50 -287 173 -287h7q128 0 267 119l100 558q-115 72 -226 72h-9q-109 0 -183 -74.5t-98 -214.5z" />
<glyph unicode="A" horiz-adv-x="1304" d="M67 25l672 1387q11 22 33 22h261q25 0 28 -25l181 -1385v-5q0 -8 -4 -13q-6 -6 -16 -6h-168q-10 0 -17 7t-8 15l-53 376h-505l-187 -379q-9 -19 -29 -19h-171q-11 0 -16 8q-3 4 -3 9q0 4 2 8zM551 584h410l-23 181l-58 492h-11l-228 -492z" />
<glyph unicode="B" horiz-adv-x="1234" d="M159 26l243 1379q2 13 11.5 21t22.5 8h472q220 0 324 -92q79 -70 79 -195q0 -39 -8 -84l-4 -24q-17 -97 -80.5 -174.5t-171.5 -125.5q111 -39 157 -131q31 -62 31 -137q0 -37 -7 -76l-4 -27q-65 -368 -515 -368h-528q-11 0 -17.5 7.5t-4.5 18.5zM399 186h321 q253 0 293 221l2 10q5 28 5 53q0 70 -38 118q-52 65 -195 65h-305zM510 811h270q135 0 211.5 61.5t93.5 157.5l1 7q5 28 5 53q-1 66 -37 104q-50 54 -185 54h-282z" />
<glyph unicode="C" horiz-adv-x="1181" d="M232 392q-6 42 -6 87q0 67 13 143l35 205q26 151 95.5 273t165.5 199.5t210 119t233 41.5h26q174 0 317 -76q20 -9 20 -30q0 -4 -1 -9l-23 -134q-1 -10 -10 -14.5t-19 0.5q-79 40 -144 58.5t-147 18.5h-12q-117 0 -218.5 -51.5t-176.5 -157.5t-101 -252l-34 -195 q-11 -62 -11 -116q0 -135 68 -222q95 -121 275 -121h12q83 0 154.5 19t165.5 60q10 4 17.5 -1.5t5.5 -16.5l-23 -133q-5 -28 -30 -39q-164 -75 -335 -75h-25q-94 0 -177.5 27t-150.5 79.5t-110.5 131t-58.5 181.5z" />
<glyph unicode="D" horiz-adv-x="1343" d="M159 26l244 1381q5 27 31 27h467q118 0 212.5 -38.5t159.5 -116t87 -194.5q10 -54 11 -117q0 -73 -14 -158l-35 -201q-27 -154 -90.5 -272t-152 -191t-194 -109.5t-224.5 -36.5h-480q-11 0 -17.5 8t-4.5 18zM399 186h263q177 0 293 108.5t155 327.5l34 191q13 73 13 134 q1 121 -51 193q-78 108 -255 108h-264z" />
<glyph unicode="E" horiz-adv-x="1124" d="M159 26l244 1381q5 27 31 27h840q11 0 17.5 -7.5t4.5 -18.5l-25 -142q-3 -18 -22 -18h-662l-75 -421h604q11 0 17.5 -8t4.5 -18l-25 -141q-3 -19 -22 -19h-611l-81 -455h655q11 0 17.5 -8t4.5 -18l-25 -141q-3 -19 -22 -19h-848q-11 0 -17.5 7.5t-4.5 18.5z" />
<glyph unicode="F" horiz-adv-x="1124" d="M159 26l244 1381q5 27 31 27h840q11 0 17.5 -8t4.5 -18l-25 -142q-3 -18 -22 -18h-662l-76 -432h603q11 0 17.5 -8t4.5 -18l-25 -141q-3 -19 -22 -19h-611l-108 -611q-3 -19 -22 -19h-167q-11 0 -17.5 8t-4.5 18z" />
<glyph unicode="G" horiz-adv-x="1310" d="M231 395q-6 41 -6 86q0 66 13 140l36 206q21 122 73 225.5t123 177.5t158.5 126.5t182.5 78t192 25.5h25q175 0 318 -77q20 -9 20 -30q0 -4 -1 -9l-24 -133q-2 -11 -10 -15t-18 0q-89 43 -149 60.5t-142 17.5h-12q-121 0 -228.5 -51.5t-187 -158t-105.5 -251.5l-34 -195 q-12 -65 -12 -122q0 -133 65 -217q92 -120 277 -120h12q93 0 194 43l87 490q5 26 32 26h159q10 0 16.5 -7t4.5 -18l-100 -574q-5 -29 -32 -46q-73 -43 -178 -71.5t-208 -28.5h-27q-97 0 -184 27.5t-156 81t-114 132.5t-60 181z" />
<glyph unicode="H" horiz-adv-x="1390" d="M159 26l244 1381q5 27 32 27h158q11 0 17.5 -7.5t4.5 -18.5l-103 -581h657l102 580q5 27 32 27h159q11 0 17 -8q5 -6 5 -13q0 -3 -1 -5l-244 -1389q-3 -19 -23 -19h-167q-11 0 -17 8t-4 18l108 615h-656l-110 -622q-3 -19 -22 -19h-167q-11 0 -17.5 7.5t-4.5 18.5z" />
<glyph unicode="I" horiz-adv-x="520" d="M159 26l244 1381q5 27 31 27h159q11 0 17.5 -7.5t4.5 -18.5l-245 -1389q-3 -19 -22 -19h-167q-11 0 -17.5 8t-4.5 18z" />
<glyph unicode="J" horiz-adv-x="800" d="M71 50l25 140q1 10 10 15t19 0q79 -46 144 -46h8q85 0 143 55.5t79 173.5l180 1019q5 27 32 27h163q11 0 17.5 -7.5t4.5 -18.5l-181 -1027q-38 -213 -151 -310.5t-274 -97.5h-10q-96 0 -194 49q-15 7 -15 23v5z" />
<glyph unicode="K" horiz-adv-x="1277" d="M159 26l244 1381q5 27 31 27h159q11 0 17.5 -8t4.5 -18l-105 -594h187l500 603q12 17 33 17h185q13 0 17 -10q2 -4 1 -7q0 -6 -4 -12l-557 -678l345 -705q4 -8 -1 -15t-14 -7h-184q-30 0 -41 27l-305 601h-195l-107 -609q-3 -19 -22 -19h-167q-11 0 -17.5 8t-4.5 18z" />
<glyph unicode="L" horiz-adv-x="1058" d="M159 26l244 1381q5 27 31 27h159q11 0 17.5 -8t4.5 -18l-216 -1222h604q11 0 17.5 -8t4.5 -18l-25 -144q-3 -16 -20 -16h-799q-11 0 -17.5 8t-4.5 18z" />
<glyph unicode="M" horiz-adv-x="1679" d="M152 26l243 1381q5 27 32 27l207 -1q26 0 32 -23l280 -749h9l551 759q9 14 26 14h217q12 0 19 -8q5 -7 5 -16v-5l-245 -1389q-3 -16 -19 -16h-170q-13 0 -20 8.5t-5 21.5l133 732l96 372h-24l-262 -372l-273 -362q-9 -12 -26 -12h-96q-24 0 -30 21l-140 353l-134 372h-20 l-45 -373l-126 -742q-3 -19 -22 -19h-172q-11 0 -17 8q-4 6 -4 13v5z" />
<glyph unicode="N" horiz-adv-x="1390" d="M152 26l243 1381q5 27 32 27h185q22 0 30 -22l245 -596l203 -490h18l68 489l105 602q3 17 20 17h169q11 0 17.5 -7.5t4.5 -18.5l-245 -1389q-3 -19 -23 -19h-192q-23 0 -31 21l-277 666l-170 420h-18l-56 -420l-118 -671q-3 -16 -19 -16h-170q-11 0 -17 8q-4 6 -4 13v5z " />
<glyph unicode="O" horiz-adv-x="1402" d="M232 320q-11 56 -12 121q0 69 13 148l47 271q26 149 90 265.5t153 188.5t194 109t220 37h31q114 0 207.5 -38.5t159.5 -115.5q65 -78 89 -194q11 -56 12 -120q0 -69 -13 -148l-47 -270q-26 -149 -90.5 -265.5t-153 -189t-193.5 -109.5t-220 -37h-31q-114 0 -207.5 38.5 t-159 115.5t-89.5 193zM446 569q-12 -65 -12 -121q0 -114 50 -184q74 -104 234 -105h21q159 0 271 105.5t148 306.5l52 294q11 64 11 119q-1 116 -51 186q-74 104 -233 104h-20q-159 0 -271.5 -105t-147.5 -306z" />
<glyph unicode="P" horiz-adv-x="1275" d="M159 26l244 1381q5 27 31 27h453q241 0 357 -114q87 -86 88 -228q0 -46 -9 -97l-6 -33q-38 -216 -192.5 -333t-398.5 -117h-269l-87 -493q-3 -19 -22 -19h-167q-11 0 -17.5 8t-4.5 18zM484 690h240q167 0 258.5 73.5t114.5 203.5l4 22q6 33 6 61q-1 84 -49 132 q-64 66 -232 66h-243z" />
<glyph unicode="Q" horiz-adv-x="1402" d="M232 320q-12 56 -12 121q0 69 13 148l47 271q26 149 90 265.5t153 188.5t194 109t220 37h31q114 0 207.5 -38.5t159.5 -116t89 -193.5q12 -55 12 -120q0 -69 -13 -148l-47 -270q-58 -332 -294 -492l164 -195q14 -15 -2 -29l-120 -104q-7 -7 -14 -7q-9 0 -16 9l-201 240 q-87 -23 -174 -23h-31q-114 0 -207.5 38.5t-159.5 116t-89 192.5zM446 569q-12 -65 -12 -121q0 -114 50 -184q75 -105 234 -105h21q159 0 271 105.5t148 306.5l52 294q11 64 11 119q0 115 -51 186q-74 104 -233 104h-20q-159 0 -271.5 -105t-147.5 -306z" />
<glyph unicode="R" horiz-adv-x="1284" d="M159 25l244 1382q5 27 31 27h471q243 0 353 -106q83 -80 82 -214q0 -44 -8 -94l-4 -27q-27 -152 -122 -257t-255 -146l101 -204l171 -364q4 -8 -1 -15t-14 -7h-183q-29 0 -40 27l-247 532h-273l-95 -541q-3 -19 -23 -19h-166q-11 0 -17.5 7.5t-4.5 18.5zM495 731h255 q162 0 251 72t109 189l2 12q5 32 5 60q1 78 -43 123q-60 61 -225 61h-262z" />
<glyph unicode="S" horiz-adv-x="1122" d="M140 97q-1 -5 -1 -9q0 -23 22 -32q174 -85 366 -85h18q133 0 248.5 46t198 139.5t104.5 219.5l4 18q6 47 8 86v12q0 32 -8 62q-10 34 -23 61.5t-37.5 53t-49.5 45t-60.5 38.5t-70.5 34t-79 31l-84 30q-119 42 -167 88q-37 36 -38 90q0 16 4 33l1 8q17 97 101 152t190 55 h12q83 0 153 -19t167 -61q10 -4 19 0.5t11 15.5l25 137q1 5 1 9q0 25 -25 34q-151 69 -327 69h-16q-87 0 -172.5 -25.5t-159 -73.5t-125.5 -124.5t-69 -170.5l-4 -23q-7 -38 -7 -71q0 -102 59 -172q78 -93 252 -155l82 -28q25 -9 42.5 -15.5t38.5 -15.5t35.5 -16.5 t30.5 -17.5t26 -20t20.5 -22t15.5 -25.5t9 -29.5t3.5 -34t-4.5 -39l-1 -7q-18 -100 -104.5 -158.5t-211.5 -58.5h-13q-87 0 -156.5 20.5t-197.5 75.5q-11 4 -20.5 -1t-11.5 -16z" />
<glyph unicode="T" horiz-adv-x="1218" d="M286 1273l24 134q5 27 32 27h1042q11 0 17 -8q5 -6 5 -13q0 -3 -1 -5l-25 -142q-3 -18 -22 -18h-423l-216 -1229q-3 -19 -23 -19h-166q-11 0 -17.5 7.5t-4.5 18.5l215 1222h-415q-11 0 -17.5 7.5t-4.5 17.5z" />
<glyph unicode="U" horiz-adv-x="1378" d="M246 286q-10 49 -10 107q0 64 12 139l155 875q5 27 31 27h163q11 0 17.5 -8t4.5 -18l-157 -887q-11 -59 -10 -109q0 -100 42 -162q64 -92 215 -91h21q150 0 247.5 92.5t129.5 271.5l156 884q5 27 31 27h163q11 0 17.5 -8t4.5 -18l-157 -892q-32 -183 -122.5 -307 t-214 -180t-275.5 -56h-31q-113 0 -202 34.5t-150 104t-81 174.5z" />
<glyph unicode="V" horiz-adv-x="1253" d="M313 1405q-1 12 6.5 20.5t19.5 8.5h155q14 0 23 -9t10 -22l93 -772l33 -454h9l191 454l368 777q11 26 39 26h168q10 0 14 -7q2 -4 2 -8t-2 -7l-649 -1393q-8 -19 -30 -19h-269q-21 0 -23 21z" />
<glyph unicode="W" horiz-adv-x="2041" d="M313 1405q-1 12 6.5 20.5t19.5 8.5h156q14 0 23.5 -9t10.5 -22l52 -612l36 -598h11l244 598l275 624q8 19 28 19h183q14 0 23 -9t10 -22l53 -612l36 -598h11l244 598l272 616q12 27 40 27h169q10 0 14 -7q2 -4 2 -8t-2 -7l-618 -1392q-8 -20 -30 -20h-240q-22 0 -24 22 l-46 510l-39 626h-13l-258 -626l-229 -512q-8 -20 -29 -20h-242q-21 0 -23 21z" />
<glyph unicode="X" horiz-adv-x="1273" d="M66 9q-2 4 -1 7q0 6 4 12l544 702l-284 683q-3 8 1 14.5t13 6.5h180q30 0 40 -28l161 -369l57 -180h11l115 180l299 376q15 21 42 21h180q12 0 16 -9q2 -4 2 -7q0 -6 -4 -12l-524 -676l294 -709q3 -8 -1 -14.5t-13 -6.5h-183q-29 0 -39 27l-171 394l-54 181h-12 l-115 -182l-316 -399q-15 -21 -42 -21h-183q-13 0 -17 9z" />
<glyph unicode="Y" horiz-adv-x="1275" d="M314 1404q-2 5 -2 9q0 7 4 12q6 9 19 9h172q23 0 30 -23l165 -481l52 -246h6l134 246l340 485q13 19 35 19h181q11 0 16 -9q1 -4 1 -8q0 -5 -3 -10l-633 -926l-84 -462q-3 -19 -22 -19h-167q-11 0 -17.5 7.5t-4.5 18.5l83 455z" />
<glyph unicode="Z" horiz-adv-x="1138" d="M92 25l19 118q3 23 17 40l869 1065h-638q-11 0 -17 7.5t-4 17.5l23 134q5 27 32 27h874q10 0 17 -7.5t5 -18.5l-19 -117q-3 -22 -18 -40l-869 -1065h675q11 0 17.5 -8t4.5 -18l-25 -141q-3 -19 -22 -19h-920q-10 0 -16.5 7t-4.5 18z" />
<glyph unicode="[" horiz-adv-x="677" d="M113 -234l290 1641q5 27 31 27h408q11 0 17.5 -7.5t4.5 -18.5l-21 -116q-3 -19 -22 -19h-230l-242 -1372h223q11 0 17 -8t4 -18l-20 -116q-3 -19 -23 -19h-415q-11 0 -17.5 7.5t-4.5 18.5z" />
<glyph unicode="\" horiz-adv-x="643" d="M312 1410q-1 10 5 17t16 7h111q18 0 20 -19l121 -1392q1 -10 -5 -16.5t-16 -6.5h-112q-19 0 -21 18z" />
<glyph unicode="]" horiz-adv-x="677" d="M21 -234l20 116q3 19 22 19h230l242 1372h-223q-11 0 -17 8t-4 18l19 108q5 27 32 27h407q11 0 17.5 -8t4.5 -18l-291 -1649q-3 -19 -22 -19h-416q-11 0 -17 7.5t-4 18.5z" />
<glyph unicode="^" horiz-adv-x="768" d="M196 741q-6 10 0 22l349 662q11 22 36 22h113q11 0 19.5 -7t9.5 -18l116 -668q2 -9 -3.5 -16t-15.5 -7h-123q-16 0 -26 10.5t-10 26.5l-53 471h-8l-224 -483q-8 -25 -35 -25h-125q-14 0 -20 10z" />
<glyph unicode="_" d="M26 -203l19 108q5 27 32 27h897q11 0 17.5 -8t4.5 -18l-21 -116q-3 -19 -22 -19h-905q-11 0 -17.5 7.5t-4.5 18.5z" />
<glyph unicode="`" horiz-adv-x="462" d="M405 1918q-3 8 1 13.5t12 5.5h131q28 0 36 -27l93 -311q2 -7 -1.5 -11.5t-10.5 -4.5h-99q-24 0 -34 21z" />
<glyph unicode="a" horiz-adv-x="1099" d="M174 431l31 177q36 207 150 325t295 118h7q82 0 158 -42t129 -115l32 111q8 19 28 19h136q11 0 17 -8q5 -6 5 -13q0 -2 -1 -5l-172 -979q-3 -19 -23 -19h-139q-9 0 -15 6t-6 15l12 98q-78 -71 -166 -108.5t-172 -37.5h-7q-181 -1 -258 125q-52 86 -52 209q0 58 11 124z M376 426q-9 -53 -9 -96q0 -191 181 -191h8q128 0 267 119l91 509q-97 118 -225 118h-7q-111 0 -181 -73.5t-95 -215.5z" />
<glyph unicode="b" horiz-adv-x="1107" d="M143 135l232 1347q5 27 32 27h150q11 0 17 -7t4 -18l-100 -566q72 64 155.5 98.5t163.5 34.5h15q182 -1 260 -123q54 -84 55 -207q0 -57 -12 -121l-30 -171q-39 -220 -175 -338t-334 -118h-17q-103 0 -210 34t-186 82q-21 13 -21 36q0 5 1 10zM357 208q115 -72 225 -72 h10q110 0 187.5 75t101.5 214l31 173q9 49 9 90q0 77 -31 124q-47 73 -159 73h-7q-129 0 -268 -119z" />
<glyph unicode="c" horiz-adv-x="974" d="M179 456l21 127q25 145 103 252t190.5 161.5t245.5 54.5h23q125 0 262 -72q22 -9 22 -31q0 -4 -1 -9l-20 -112q-2 -10 -11 -14.5t-19 0.5q-71 38 -122.5 55t-106.5 17h-14q-127 0 -223.5 -82.5t-122.5 -231.5l-21 -120q-7 -42 -8 -79q-1 -94 47 -152q66 -82 194 -81h15 q55 0 112.5 17.5t144.5 56.5q10 4 17.5 -2t5.5 -17l-20 -113q-5 -27 -28 -36q-157 -72 -280 -72h-23q-203 0 -312 131q-81 97 -81 244q0 51 10 108z" />
<glyph unicode="d" horiz-adv-x="1107" d="M174 431l29 164q39 221 165.5 338.5t308.5 117.5h15q72 0 141 -32.5t116 -92.5l103 557q5 26 31 26h151q11 0 17 -7q5 -5 5 -13q0 -2 -1 -5l-258 -1465q-3 -19 -22 -19h-140q-9 0 -15 6t-6 15l12 91q-72 -67 -158.5 -103t-171.5 -36h-15q-183 0 -263 126q-55 87 -55 212 q0 56 11 120zM380 426q-9 -49 -9 -90q1 -76 31 -124q46 -73 159 -73h7q129 0 268 119l90 507q-99 120 -224 120h-7q-114 0 -187 -74t-98 -215z" />
<glyph unicode="e" horiz-adv-x="1069" d="M175 437l24 134q26 150 104 260t186 165t233 55h22q188 0 280 -121q65 -85 66 -219q0 -57 -12 -122l-15 -89q-3 -21 -24 -21h-648l-12 -71q-6 -33 -5 -62q0 -86 50 -138q68 -72 196 -72h9q114 0 316 78q10 4 16.5 -2t5.5 -16l-20 -114q-5 -28 -30 -37q-79 -32 -170.5 -52 t-165.5 -20h-18q-209 1 -317 127q-81 94 -80 235q0 48 9 102zM412 603l478 1q11 59 11 106q0 72 -26 116q-43 72 -158 72h-12q-107 0 -186.5 -79t-106.5 -216z" />
<glyph unicode="f" horiz-adv-x="763" d="M134 -316l208 1179h-122q-11 0 -17.5 8t-4.5 18l19 108q5 27 32 27h121l37 209q26 148 123 225.5t238 77.5h18q91 0 174 -37q21 -10 21 -31q0 -4 -1 -9l-18 -103q-1 -10 -9 -14t-18 -1q-83 32 -135 32h-10q-65 0 -118 -45t-70 -138l-29 -166h242q11 0 17 -8t4 -18 l-20 -116q-3 -19 -23 -19h-248l-209 -1186q-3 -19 -23 -19h-157q-11 0 -17.5 7.5t-4.5 18.5z" />
<glyph unicode="g" horiz-adv-x="1097" d="M133 -264l20 114q2 10 10 14.5t18 0.5q155 -74 278 -74h9q140 0 218 63.5t101 194.5l16 91q-154 -132 -310 -132h-15q-182 0 -258 124q-51 84 -51 207q0 59 12 126l22 131q38 221 170.5 338t328.5 117h18q103 0 209.5 -33.5t186.5 -82.5q21 -13 21 -36q0 -5 -1 -10 l-144 -848q-32 -191 -165.5 -300.5t-332.5 -109.5h-10q-156 0 -328 67q-24 8 -24 30q0 4 1 8zM383 459q-9 -53 -9 -95q0 -191 181 -191h7q128 0 267 119l94 524q-115 72 -226 72h-9q-110 0 -182.5 -73.5t-97.5 -213.5z" />
<glyph unicode="h" horiz-adv-x="1103" d="M122 26l257 1457q5 26 32 26h149q11 0 17.5 -7.5t4.5 -18.5l-105 -568q181 136 345 136h17q161 0 234 -96q52 -68 52 -173q0 -43 -9 -92l-118 -671q-3 -19 -22 -19h-158q-11 0 -17.5 8t-4.5 18l112 633q7 39 7 71q1 62 -25 98q-38 56 -147 57h-7q-122 0 -278 -111 l-134 -755q-3 -19 -22 -19h-158q-11 0 -17.5 8t-4.5 18z" />
<glyph unicode="i" horiz-adv-x="448" d="M129 26l172 971q5 27 32 27h149q11 0 17.5 -7.5t4.5 -18.5l-173 -979q-3 -19 -22 -19h-158q-11 0 -17.5 8t-4.5 18zM331 1214l29 161q5 27 32 27h164q11 0 17 -8q5 -6 5 -13q0 -2 -1 -5l-28 -161q-5 -26 -32 -26h-164q-11 0 -17.5 7.5t-4.5 17.5z" />
<glyph unicode="j" horiz-adv-x="587" d="M-13 -310l19 104q2 9 9 13.5t16 1.5q46 -18 86 -18h9q101 0 121 114l193 1092q5 27 32 27h149q11 0 17 -8t4 -18l-194 -1102q-23 -131 -100.5 -198t-187.5 -67h-18q-70 0 -138 28q-17 7 -17 25v6zM471 1214l28 161q5 27 32 27h164q11 0 17.5 -7.5t4.5 -18.5l-29 -161 q-5 -26 -31 -26h-165q-11 0 -17 7q-5 6 -5 13q0 3 1 5z" />
<glyph unicode="k" horiz-adv-x="1026" d="M122 26l257 1457q5 26 32 26h150q11 0 17 -7.5t4 -17.5l-154 -878h146l324 401q12 17 33 17h171q12 0 16 -9q2 -4 2 -7q0 -6 -4 -12l-374 -464l246 -510q4 -8 -1 -15t-14 -7h-175q-29 0 -40 27l-208 418h-151l-75 -426q-3 -19 -22 -19h-158q-11 0 -17.5 8t-4.5 18z" />
<glyph unicode="l" horiz-adv-x="430" d="M122 26l257 1457q5 26 32 26h150q11 0 17 -7q4 -5 4 -13v-5l-258 -1465q-3 -19 -22 -19h-158q-11 0 -17.5 8t-4.5 18z" />
<glyph unicode="m" horiz-adv-x="1732" d="M118 26l171 971q5 27 32 27h132q20 0 20 -21l-10 -93q186 141 351 141h17q106 0 171 -45t83 -124q205 169 382 169h18q158 0 224 -95q45 -65 46 -167q0 -46 -10 -99l-118 -671q-3 -19 -22 -19h-158q-11 0 -17.5 7.5t-4.5 18.5l112 633q8 45 8 80q0 57 -20 91 q-32 55 -137 55h-7q-124 0 -284 -117q0 -50 -11 -110l-113 -639q-3 -19 -22 -19h-158q-11 0 -17 7.5t-4 18.5l111 633q8 46 8 82q0 55 -19 89q-32 55 -137 55h-7q-120 0 -274 -109l-134 -757q-3 -19 -22 -19h-158q-11 0 -17.5 8t-4.5 18z" />
<glyph unicode="n" horiz-adv-x="1091" d="M118 26l171 971q5 27 32 27h132q20 0 20 -21l-10 -93q186 141 351 141h17q159 1 231 -95q50 -67 51 -172q0 -44 -9 -94l-118 -671q-3 -19 -23 -19h-158q-11 0 -17 8t-4 18l112 633q7 40 7 73q1 60 -23 97q-36 56 -145 56h-7q-120 0 -274 -109l-134 -757q-3 -19 -22 -19 h-158q-11 0 -17.5 7.5t-4.5 18.5z" />
<glyph unicode="o" horiz-adv-x="1128" d="M176 444l27 151q26 145 105 250t188 155.5t236 50.5h22q196 0 306 -127q82 -95 82 -239q0 -50 -9 -105l-27 -151q-26 -145 -105 -250t-188 -155.5t-236 -50.5h-22q-197 0 -307 127q-82 95 -82 239q0 49 10 105zM380 426q-7 -42 -8 -78q0 -82 40 -134q56 -74 169 -75h14 q114 0 197 75.5t107 213.5l30 170q7 42 7 78q0 82 -38 134q-55 74 -169 75h-15q-114 0 -197 -75.5t-107 -213.5z" />
<glyph unicode="p" horiz-adv-x="1112" d="M62 -316l231 1313q5 27 32 27h132q9 0 15 -6t6 -15l-12 -91q72 67 158.5 103t171.5 36h15q182 0 263 -126q55 -87 55 -212q0 -56 -11 -120l-29 -164q-39 -220 -166 -338t-308 -118h-16q-72 0 -140.5 32t-115.5 93l-79 -422q-3 -18 -22 -18h-158q-11 0 -17.5 7.5 t-4.5 18.5zM366 259q99 -120 224 -120h7q113 0 186.5 74t98.5 215l30 170q9 49 9 90q0 76 -31 124q-47 73 -159 73h-8q-128 0 -267 -119z" />
<glyph unicode="q" horiz-adv-x="1099" d="M174 431l29 164q39 221 171 338.5t329 117.5h18q103 0 210 -34t186 -82q21 -13 21 -36q0 -5 -1 -10l-209 -1212q-3 -19 -22 -19h-158q-11 0 -17 7.5t-4 18.5l75 422q-148 -133 -314 -133h-15q-181 0 -258 125q-52 86 -52 209q0 58 11 124zM380 426q-9 -53 -9 -96 q0 -191 182 -191h7q128 0 267 119l100 558q-115 72 -226 72h-9q-109 0 -183 -74.5t-98 -214.5z" />
<glyph unicode="r" horiz-adv-x="737" d="M118 26l171 971q5 27 32 27h132q9 0 15 -6t6 -15l-12 -121q79 83 166.5 126t168.5 43h9q11 0 49 -4q10 -1 16 -9q5 -6 5 -14q0 -3 -1 -5l-25 -146q-3 -19 -25 -17q-39 5 -74 5h-10q-141 0 -295 -130l-126 -712q-3 -19 -22 -19h-158q-11 0 -17.5 8t-4.5 18z" />
<glyph unicode="s" horiz-adv-x="880" d="M109 77l18 105q1 10 10 15t19 0q154 -75 266 -75h15q85 0 147 37.5t74 106.5l2 9q6 33 -2.5 57t-30.5 40t-44.5 26t-58.5 22h-1l-58 21q-66 23 -104.5 41.5t-85 53t-62.5 86.5q-9 29 -9 64q0 26 5 56l2 12q17 95 82 164.5t151 101t180 31.5h22q138 0 260 -61 q23 -8 23 -32q0 -4 -1 -9l-19 -105q-1 -10 -10 -14.5t-19 0.5q-140 72 -243 72h-10q-80 0 -140.5 -35.5t-71.5 -97.5l-1 -10q-5 -29 3 -51t29 -36.5t42 -24t54 -20.5q4 -1 6 -2t5.5 -2t6.5 -2l58 -20q71 -25 115.5 -48t82.5 -59q38 -34 50 -86q6 -25 5 -55q0 -31 -6 -66 l-2 -12q-25 -142 -148.5 -222t-284.5 -80h-17q-70 0 -148.5 17.5t-134.5 45.5q-22 8 -22 32q0 4 1 9z" />
<glyph unicode="t" horiz-adv-x="710" d="M197 889l16 90q3 23 26 28l122 17l34 192q5 27 32 33l159 36q3 1 5 1q7 0 11 -4q6 -6 5 -16l-43 -242h259q11 0 17 -8q4 -6 4 -13v-5l-20 -116q-3 -19 -23 -19h-265l-104 -590q-4 -25 -4 -45q0 -36 14 -57q22 -32 81 -32h9q38 0 141 33q10 3 16.5 -2.5t5.5 -15.5 l-20 -109q-3 -20 -21 -27q-112 -45 -185 -45h-17q-130 0 -190 73q-43 53 -43 135q0 32 6 68l108 614h-114q-10 0 -17 7.5t-5 18.5z" />
<glyph unicode="u" d="M168 334l117 663q5 27 32 27h150q11 0 17.5 -7.5t4.5 -18.5l-112 -633q-8 -45 -7 -80q0 -57 18 -91q32 -56 134 -55h7q120 0 274 109l134 757q3 19 22 19h158q11 0 17.5 -7.5t4.5 -18.5l-173 -979q-3 -19 -22 -19h-140q-20 0 -20 21l10 93q-186 -141 -351 -141h-17 q-156 0 -222 95q-45 65 -45 166q0 46 9 100z" />
<glyph unicode="v" horiz-adv-x="1040" d="M221 993v5q0 10 6 17q8 9 21 9h146q13 0 22 -7.5t10 -20.5l73 -412l49 -412h4l189 412l223 416q11 24 38 24h161q10 0 14 -7q2 -4 2 -7.5t-2 -8.5l-520 -984q-9 -17 -28 -17h-213q-19 0 -22 19z" />
<glyph unicode="w" horiz-adv-x="1603" d="M220 994q-1 13 6.5 21.5t20.5 8.5h158q21 0 23 -21l44 -420l25 -399h8l163 399l190 414q13 27 42 27h171q21 0 23 -21l44 -420l26 -399h8l162 399l191 415q11 26 40 26h162q10 0 14 -8q2 -4 2 -7.5t-2 -7.5l-468 -983q-7 -18 -29 -18h-191q-21 0 -23 20l-34 290l-43 504 h-13l-217 -504l-139 -292q-8 -18 -29 -18h-192q-20 0 -22 20z" />
<glyph unicode="x" horiz-adv-x="991" d="M44 10q-2 4 -1 7q0 6 4 12l402 494l-216 479q-4 8 0.5 15t13.5 7h164q29 0 39 -27l118 -255l33 -112h9l67 112l215 261q16 21 42 21h163q13 0 17 -10q2 -4 1 -7q0 -6 -4 -12l-383 -472l226 -501q4 -8 -0.5 -15t-13.5 -7h-168q-29 0 -39 27l-126 272l-32 112h-9l-68 -112 l-228 -278q-16 -21 -42 -21h-167q-13 0 -17 10z" />
<glyph unicode="y" horiz-adv-x="1044" d="M43 -302l19 110q1 10 9 14t17 1q79 -29 131 -29h6q54 0 94 31t81 105l39 70h-20q-21 0 -25 21l-173 972q-2 13 6 22t21 9h146q13 0 22 -7.5t10 -20.5l85 -461l38 -363h5l163 363l251 465q11 24 38 24h160q10 0 14 -7q3 -4 3 -8t-2 -8l-571 -1079q-78 -147 -162 -219 t-212 -72h-15q-72 0 -157 30q-22 7 -22 28q0 4 1 9z" />
<glyph unicode="z" horiz-adv-x="894" d="M66 25l15 97q3 21 19 39l624 697h-459q-11 0 -17.5 7.5t-4.5 18.5l20 113q5 27 32 27h682q10 0 16.5 -7t4.5 -18l-15 -97q-3 -21 -19 -39l-624 -697h495q11 0 17.5 -7.5t4.5 -18.5l-21 -121q-3 -19 -23 -19h-725q-11 0 -17 7.5t-5 17.5z" />
<glyph unicode="{" horiz-adv-x="772" d="M156 532l19 108q5 27 32 27h93q33 0 53 20t26 50l97 548q12 68 59.5 108.5t115.5 40.5h286q11 0 17 -8t4 -18l-20 -116q-3 -19 -23 -19h-168q-28 0 -48 -18t-25 -46l-85 -483q-9 -51 -41.5 -88.5t-79.5 -52.5q41 -15 61 -52.5t11 -87.5l-86 -483q-5 -28 8 -44.5t41 -16.5 h163q11 0 17.5 -8t4.5 -18l-21 -116q-3 -19 -22 -19h-280q-68 0 -106.5 47.5t-26.5 115.5l97 548q9 55 -45 55h-107q-11 0 -17 8t-4 18z" />
<glyph unicode="|" horiz-adv-x="520" d="M132 -126l271 1533q5 27 31 27h159q11 0 17.5 -7.5t4.5 -18.5l-270 -1533q-5 -27 -32 -27h-159q-11 0 -17.5 8t-4.5 18z" />
<glyph unicode="}" horiz-adv-x="772" d="M21 -234l20 116q3 19 22 19h169q28 0 47.5 17.5t24.5 45.5l85 482q9 51 41.5 88.5t79.5 52.5q-40 14 -60 52.5t-11 88.5l85 483q5 28 -8 45t-40 17h-164q-11 0 -17 8t-4 18l19 108q5 27 32 27h271q68 0 107 -48t27 -116l-97 -549q-10 -54 44 -54h107q11 0 17.5 -7.5 t4.5 -18.5l-21 -116q-3 -19 -22 -19h-101q-35 0 -54.5 -19.5t-24.5 -50.5l-97 -548q-12 -68 -59.5 -108t-115.5 -40h-286q-11 0 -17 7.5t-4 18.5z" />
<glyph unicode="~" horiz-adv-x="905" d="M158 523l13 122q1 17 23 29q48 24 75 36t68 23.5t77 11.5q48 0 91 -16t69 -34.5t63.5 -34.5t75.5 -16q35 0 78 12.5t71.5 25t81.5 38.5q8 4 14.5 -0.5t5.5 -13.5l-13 -122q-1 -18 -18 -27q-142 -73 -225 -73q-47 0 -89.5 15.5t-69.5 34.5t-64.5 34.5t-75.5 15.5 q-35 0 -77.5 -12t-71.5 -25t-81 -38q-8 -4 -15 0.5t-6 13.5z" />
<glyph unicode="&#xa1;" horiz-adv-x="356" d="M15 -315l196 942q5 25 31 25h102q11 0 17 -7t5 -17l-138 -950q-3 -20 -22 -20h-169q-11 0 -17.5 8t-4.5 19zM223 890l31 175q5 27 32 27h170q11 0 17.5 -8t4.5 -18l-32 -183q-3 -19 -23 -19h-178q-11 0 -17.5 7.5t-4.5 18.5z" />
<glyph unicode="&#xa2;" horiz-adv-x="974" d="M179 456l21 127q34 201 165.5 324t314.5 141l41 236q5 27 32 27h101q11 0 17 -8t4 -18l-42 -240q98 -16 191 -66q26 -11 21 -40l-20 -112q-1 -10 -10.5 -14.5t-19.5 0.5q-71 38 -122.5 55t-106.5 17h-14q-127 0 -223.5 -82.5t-122.5 -231.5l-21 -120 q-26 -149 39.5 -230.5t193.5 -81.5h15q55 0 112 17.5t144 56.5q10 4 18 -2t6 -17l-20 -113q-5 -27 -28 -36q-117 -54 -220 -67l-44 -246q-3 -19 -22 -19h-108q-11 0 -17.5 7.5t-4.5 18.5l42 239q-172 23 -259 150.5t-53 327.5z" />
<glyph unicode="&#xa3;" horiz-adv-x="1083" d="M113 25l20 126q3 22 16 39q5 7 27 37t28.5 39t25 36t26 41.5t21.5 41.5t21 48.5t15.5 50t13.5 58.5q8 44 9 85h-137q-11 0 -17.5 8t-4.5 18l13 75q5 27 32 27h112q-8 166 9 263l3 17q34 193 180 309t353 116h17q153 0 289 -70q27 -11 22 -42l-25 -138q-1 -10 -9.5 -14.5 t-18.5 0.5q-62 31 -91.5 44t-77.5 24t-103 11h-13q-117 0 -204.5 -76t-109.5 -198l-1 -8q-17 -98 -15 -238h374q11 0 17 -7.5t4 -18.5l-13 -75q-5 -27 -32 -27h-351q-2 -56 -10 -106q-17 -100 -60.5 -178t-120.5 -158l651 1q11 0 17.5 -7.5t4.5 -18.5l-25 -141 q-3 -19 -22 -19h-838q-11 0 -17 7.5t-5 17.5z" />
<glyph unicode="&#xa4;" horiz-adv-x="1263" d="M85 88q-14 15 2 29l205 179q-67 130 -38 290q28 154 138 277l-141 161q-14 15 2 29l92 81q17 14 30 -2l134 -169q138 89 296 89q159 0 270 -89l207 173q16 13 29 -2l68 -79q14 -15 -2 -29l-205 -179q69 -129 41 -292q-29 -158 -138 -278l138 -158q14 -15 -2 -29l-91 -81 q-18 -14 -31 2l-133 166q-138 -89 -295 -89q-160 0 -272 91l-207 -172q-16 -12 -28 2zM414 569q-25 -134 50.5 -226.5t210.5 -91.5q135 0 244 93t134 228q23 133 -53 225t-209 91q-135 1 -243.5 -91t-133.5 -228z" />
<glyph unicode="&#xa5;" horiz-adv-x="1275" d="M233 219l13 75q5 27 32 27h312l29 160l-2 5h-311q-11 0 -17.5 7.5t-4.5 18.5l14 75q5 27 31 27h246l-261 790q-4 12 2 21t19 9h172q23 0 30 -23l165 -481l52 -246h6l134 246l340 485q13 19 35 19h181q11 0 15.5 -9t-1.5 -18l-542 -793h241q11 0 17.5 -7.5t4.5 -18.5 l-13 -75q-5 -27 -32 -27h-305l-4 -5l-29 -160h310q11 0 17 -7.5t4 -18.5l-13 -75q-5 -26 -32 -26h-309l-32 -175q-3 -19 -22 -19h-167q-11 0 -17.5 7.5t-4.5 18.5l31 168h-313q-11 0 -17 7.5t-4 17.5z" />
<glyph unicode="&#xa6;" horiz-adv-x="520" d="M132 -126l111 627q5 27 32 27h158q11 0 17.5 -8t4.5 -18l-110 -627q-5 -27 -32 -27h-159q-11 0 -17.5 8t-4.5 18zM292 780l111 627q5 27 31 27h159q11 0 17.5 -8t4.5 -18l-111 -627q-5 -27 -32 -27h-158q-11 0 -17.5 7.5t-4.5 18.5z" />
<glyph unicode="&#xa7;" horiz-adv-x="894" d="M119 -91l19 105q1 10 10 14.5t19 -0.5q139 -72 243 -72h10q78 0 135 36t68 98l2 9q5 29 -3.5 51t-28 36t-44 24.5t-52.5 20.5q-13 4 -19 6l-63 22q-39 14 -68.5 26.5t-60.5 29t-51 34t-39.5 41.5t-26 50.5t-11 61.5t5.5 75l2 13q26 153 180 238q-90 74 -68 199l2 12 q25 140 138 215t260 75h22q137 0 254 -60q27 -11 22 -42l-18 -104q-1 -10 -10 -15t-19 0q-139 72 -243 72h-11q-79 0 -135.5 -35.5t-67.5 -97.5l-2 -9q-5 -29 3.5 -51t28 -36t44 -24.5t52.5 -20.5q3 -1 5 -1.5t4.5 -1.5t5 -1.5t4.5 -1.5l63 -23q71 -25 116.5 -48.5t84 -60 t51 -88.5t0.5 -121l-3 -12q-27 -156 -180 -239q90 -74 68 -198l-2 -13q-25 -140 -138 -215t-260 -75h-21q-136 0 -255 61q-27 11 -22 41zM334 595q-6 -33 2.5 -57t30.5 -40t44.5 -26t58.5 -22h1l145 -52q56 13 94.5 47.5t47.5 86.5l2 10q6 33 -2.5 57t-30.5 40t-44.5 26 t-58.5 22h-1l-145 51q-56 -13 -94.5 -47.5t-47.5 -86.5z" />
<glyph unicode="&#xa8;" horiz-adv-x="657" d="M348 1624l31 175q5 26 32 26h144q11 0 17.5 -7.5t4.5 -17.5l-31 -175q-5 -27 -32 -27h-144q-11 0 -17.5 8t-4.5 18zM684 1624l31 175q5 26 32 26h144q11 0 17.5 -7.5t4.5 -17.5l-31 -175q-5 -27 -32 -27h-144q-11 0 -17.5 7.5t-4.5 18.5z" />
<glyph unicode="&#xa9;" horiz-adv-x="1239" d="M238 998q26 145 118 268.5t230.5 196.5t291.5 73q159 0 277.5 -77.5t169.5 -207.5t24 -283q-26 -145 -118 -268.5t-230.5 -196.5t-291.5 -73q-159 0 -277.5 77.5t-169.5 207.5t-24 283zM324 981q-22 -126 19 -232t137.5 -169t228.5 -63q202 0 360.5 136.5t192.5 331.5 q22 126 -18.5 231.5t-137.5 168.5t-229 63q-201 0 -360 -136.5t-193 -330.5zM548 952l11 67q21 118 98 178.5t181 60.5h10q65 0 133 -33q20 -8 16 -31l-12 -63q-2 -13 -13 -7q-72 37 -120 37h-8q-62 0 -109.5 -41t-59.5 -113l-11 -61q-12 -71 20 -111.5t94 -40.5h8 q46 0 129 36q7 3 12 -0.5t3 -10.5l-11 -67q-3 -12 -16 -19q-77 -35 -141 -35h-10q-104 0 -164.5 67.5t-39.5 186.5z" />
<glyph unicode="&#xab;" horiz-adv-x="866" d="M154 517l5 41q1 16 15 31l257 257q11 11 25 11h102q17 0 23 -13.5t-4 -26.5l-251 -280l152 -290q4 -11 -2 -20t-18 -9h-105q-19 0 -30 17l-161 248q-10 16 -8 34zM514 517l4 41q1 16 15 31l257 257q11 11 25 11h102q17 0 23 -13.5t-4 -26.5l-250 -280l151 -290 q5 -11 -1 -20t-18 -9h-105q-20 0 -31 17l-161 248q-9 14 -7 34z" />
<glyph unicode="&#xac;" d="M166 589l19 109q5 26 32 26h897q11 0 17 -7.5t4 -17.5l-59 -335q-5 -27 -32 -27h-113q-11 0 -17.5 7.5t-4.5 17.5l36 202h-758q-11 0 -17 7.5t-4 17.5z" />
<glyph unicode="&#xad;" horiz-adv-x="761" d="M166 589l19 109q5 26 32 26h585q11 0 17.5 -7.5t4.5 -17.5l-21 -117q-3 -18 -22 -18h-594q-11 0 -17 7.5t-4 17.5z" />
<glyph unicode="&#xae;" horiz-adv-x="1239" d="M238 998q26 145 118 268.5t230.5 196.5t291.5 73q159 0 277.5 -77.5t169.5 -207.5t24 -283q-26 -145 -118 -268.5t-230.5 -196.5t-291.5 -73q-159 0 -277.5 77.5t-169.5 207.5t-24 283zM324 981q-22 -126 19 -232t137.5 -169t228.5 -63q202 0 360.5 136.5t192.5 331.5 q22 126 -18.5 231.5t-137.5 168.5t-229 63q-201 0 -360 -136.5t-193 -330.5zM533 722l89 506q5 27 32 27h211q98 0 142.5 -50t30.5 -130l-2 -10q-9 -56 -45.5 -94.5t-98.5 -51.5l22 -46l77 -156q3 -8 -1 -14.5t-13 -6.5h-77q-25 0 -35 23l-89 186h-95l-33 -189 q-3 -20 -25 -20h-69q-11 0 -17 7.5t-4 18.5zM696 990h108q50 0 79.5 23t35.5 59l2 10q6 36 -14.5 57t-71.5 21h-109z" />
<glyph unicode="&#xaf;" horiz-adv-x="653" d="M348 1624l17 96q5 27 32 27h477q11 0 17.5 -7.5t4.5 -18.5l-17 -96q-5 -27 -32 -27h-477q-11 0 -17.5 7.5t-4.5 18.5z" />
<glyph unicode="&#xb0;" horiz-adv-x="634" d="M291 1299q17 99 99.5 168t184.5 69q112 0 176.5 -78t44.5 -189q-17 -99 -99 -168t-185 -70q-111 0 -176 78.5t-45 189.5zM404 1282q-10 -57 22.5 -95.5t90.5 -38.5q60 0 107.5 40t58.5 98q10 57 -22.5 96t-91.5 38q-59 0 -106.5 -40t-58.5 -98z" />
<glyph unicode="&#xb1;" horiz-adv-x="1075" d="M84 124l13 75q5 27 32 27h898q11 0 17 -8t4 -18l-13 -75q-5 -27 -32 -27h-898q-11 0 -17 8t-4 18zM171 616l19 109q5 26 31 26h367l44 246q5 27 32 27h110q11 0 17.5 -7.5t4.5 -18.5l-44 -247h367q11 0 17.5 -7.5t4.5 -17.5l-19 -109q-5 -26 -32 -26h-367l-43 -246 q-5 -27 -32 -27h-111q-11 0 -17 7.5t-4 18.5l43 247h-367q-11 0 -17 7t-4 18z" />
<glyph unicode="&#xb4;" horiz-adv-x="462" d="M345.5 1590q-3.5 7 1.5 15l204 312q12 20 36 20h135q11 0 15 -8.5t-3 -16.5l-239 -314q-12 -15 -33 -15h-103q-10 0 -13.5 7z" />
<glyph unicode="&#xb6;" horiz-adv-x="1107" d="M245 1039q36 204 147.5 299.5t280.5 95.5h507q11 0 17.5 -8t4.5 -18l-305 -1731q-3 -19 -23 -19h-109q-11 0 -17.5 7.5t-4.5 18.5l288 1633h-218l-289 -1640q-3 -19 -22 -19h-110q-11 0 -17 7.5t-4 18.5l173 947q-172 0 -254 98t-45 310z" />
<glyph unicode="&#xb7;" horiz-adv-x="348" d="M153 515l30 175q5 26 32 26h171q11 0 17 -7.5t4 -17.5l-32 -183q-3 -19 -22 -19h-179q-11 0 -17 8t-4 18z" />
<glyph unicode="&#xb8;" horiz-adv-x="495" d="M-5 -383l9 39q4 15 18 10q60 -18 112 -18q112 0 125 79q6 35 -13 53t-61 18q-35 0 -87 -16q-7 -2 -13 1l-16 10q-7 4 -4 12l71 195h106l-42 -113q24 6 50 6q71 0 110 -47.5t25 -125.5t-75 -119t-153 -41q-81 0 -147 27q-20 8 -15 30z" />
<glyph unicode="&#xbb;" horiz-adv-x="866" d="M116 231q-6 13 4 26l251 280l-152 290q-5 11 1.5 20.5t18.5 9.5h105q19 0 30 -17l162 -251q8 -15 7 -29l-5 -46q-1 -14 -13 -26l-259 -260q-10 -10 -25 -10h-102q-17 0 -23 13zM475.5 231q-6.5 13 3.5 26l251 280l-152 290q-4 11 2 20.5t18 9.5h105q19 0 30 -17l162 -251 q8 -15 7 -29l-5 -46q-1 -14 -13 -26l-259 -260q-10 -10 -24 -10h-102q-17 0 -23.5 13z" />
<glyph unicode="&#xbc;" horiz-adv-x="1806" d="M183 687l18 101q3 19 22 19h166l81 457l-172 -59q-9 -3 -15.5 2.5t-4.5 15.5l15 90q5 28 31 36l231 80q17 5 29 5h48q11 0 17 -8t4 -18l-106 -601h140q11 0 17.5 -8t4.5 -18l-18 -101q-3 -18 -22 -18h-464q-11 0 -17.5 7.5t-4.5 17.5zM430.5 8.5q-4.5 8.5 1.5 17.5 l898 1381q17 27 49 27h100q11 0 15.5 -9t-1.5 -18l-899 -1381q-17 -26 -48 -26h-100q-11 0 -15.5 8.5zM1083 211l12 76q3 17 12 27l379 439q16 19 40 19h162q11 0 17.5 -8t4.5 -18l-75 -427h140q11 0 17 -7t4 -18l-15 -89q-3 -19 -23 -19h-147l-29 -167q-3 -19 -23 -19h-113 q-11 0 -17.5 8t-4.5 18l28 160h-347q-11 0 -17 7.5t-5 17.5zM1254 319h222l59 323z" />
<glyph unicode="&#xbd;" horiz-adv-x="1675" d="M183 687l18 101q3 19 22 19h166l81 457l-172 -59q-9 -3 -15.5 2.5t-4.5 15.5l15 90q5 28 31 36l231 80q17 5 29 5h48q11 0 17 -8t4 -18l-106 -601h140q11 0 17.5 -8t4.5 -18l-18 -101q-3 -18 -22 -18h-464q-11 0 -17.5 7.5t-4.5 17.5zM430.5 8.5q-4.5 8.5 1.5 17.5 l898 1381q17 27 49 27h100q11 0 15.5 -9t-1.5 -18l-899 -1381q-17 -26 -48 -26h-100q-11 0 -15.5 8.5zM1051 26l13 75q5 25 24 38l169 121q73 56 106 82t74.5 64t59 66.5t22.5 57.5l1 7q10 57 -22.5 90t-87.5 33h-12q-42 0 -82 -11t-113 -39q-10 -3 -16.5 2.5t-5.5 15.5 l17 98q3 21 26 28q119 45 210 45h14q119 0 188.5 -68.5t50.5 -178.5l-2 -16q-4 -25 -15 -50t-23 -45t-34.5 -45t-39 -41t-48.5 -42t-50 -40t-56 -43t-56 -43l-54 -41h304q11 0 17.5 -8t4.5 -18l-18 -101q-3 -19 -22 -19h-523q-10 0 -16.5 7.5t-4.5 18.5z" />
<glyph unicode="&#xbe;" horiz-adv-x="1843" d="M194 714l17 94q3 15 19 10q67 -28 107.5 -39.5t84.5 -11.5h9q68 0 116.5 33t58.5 86l2 8q7 42 -18.5 72.5t-90.5 30.5h-103q-11 0 -17.5 7.5t-4.5 18.5l12 69q3 18 23 18h94q62 0 101 32t47 73v5q9 52 -24 81t-92 29h-6q-59 0 -199 -51q-10 -3 -16.5 2.5t-4.5 15.5l16 91 q3 23 25 29q113 43 208 43h9q123 0 194 -64.5t53 -165.5l-2 -13q-19 -107 -136 -166q49 -21 76.5 -68.5t16.5 -111.5l-3 -16q-18 -101 -108.5 -160.5t-226.5 -59.5h-11q-94 0 -205 44q-26 9 -21 35zM468 8.5q-5 8.5 1 17.5l899 1381q17 27 48 27h101q11 0 15.5 -9t-1.5 -18 l-899 -1381q-17 -26 -48 -26h-100q-11 0 -16 8.5zM1121 211l12 76q3 17 12 27l379 439q16 19 40 19h162q11 0 17.5 -8t4.5 -18l-75 -427h139q11 0 17.5 -7.5t4.5 -17.5l-16 -89q-3 -19 -22 -19h-147l-29 -167q-3 -19 -23 -19h-113q-11 0 -17.5 8t-4.5 18l28 160h-348 q-10 0 -16.5 7t-4.5 18zM1292 319h222l59 323z" />
<glyph unicode="&#xbf;" horiz-adv-x="1026" d="M70 46l5 27q29 165 155 272.5t311 107.5q57 0 119 -11l45 196q3 14 18 14h114q11 0 16.5 -7t4.5 -17l-38 -269q-1 -15 -15 -25l-31 -25q-13 -9 -28 -8q-102 12 -119 12q-144 0 -231 -68.5t-105 -171.5l-1 -10q-20 -112 50 -179t213 -67h14q84 0 158.5 19t183.5 60 q13 4 22.5 -3.5t7.5 -21.5l-24 -139q-3 -20 -23 -27q-176 -74 -360 -74h-17q-228 0 -352.5 115.5t-92.5 299.5zM715 890l31 175q5 27 32 27h170q11 0 17.5 -8t4.5 -18l-32 -183q-3 -19 -22 -19h-179q-11 0 -17.5 7.5t-4.5 18.5z" />
<glyph unicode="&#xc0;" horiz-adv-x="1304" d="M67 26l672 1386q11 22 33 22h261q25 0 28 -25l182 -1385q2 -12 -5 -18t-16 -6h-168q-10 0 -17 7t-8 15l-53 376h-505l-187 -379q-9 -19 -29 -19h-171q-11 0 -16 8t-1 18zM551 584h410l-23 181l-58 492h-11l-228 -492zM727 1918q-3 8 1 13.5t12 5.5h131q28 0 36 -27 l93 -311q2 -7 -1.5 -11.5t-10.5 -4.5h-99q-24 0 -34 21z" />
<glyph unicode="&#xc1;" horiz-adv-x="1304" d="M67 25l672 1387q11 22 33 22h261q25 0 28 -25l181 -1385q2 -12 -4.5 -18t-15.5 -6h-168q-10 0 -17 7t-8 15l-53 376h-505l-187 -379q-9 -19 -29 -19h-171q-11 0 -16 7.5t-1 17.5zM551 584h410l-23 181l-58 492h-11l-228 -492zM862.5 1590q-3.5 7 1.5 15l204 312 q12 20 36 20h135q11 0 15 -8.5t-3 -16.5l-239 -314q-12 -15 -33 -15h-103q-10 0 -13.5 7z" />
<glyph unicode="&#xc2;" horiz-adv-x="1304" d="M67 25l672 1387q11 22 33 22h261q25 0 28 -25l181 -1385q2 -12 -4.5 -18t-15.5 -6h-168q-10 0 -17 7t-8 15l-53 376h-505l-187 -379q-9 -19 -29 -19h-171q-11 0 -16 7.5t-1 17.5zM551 584h410l-23 181l-58 492h-11l-228 -492zM661 1591.5q-4 8.5 3 16.5l252 316 q11 13 27 13h89q23 0 33 -21l139 -314q4 -7 0 -13t-12 -6h-122q-21 0 -28 20l-67 206l-147 -212q-10 -14 -29 -14h-123q-11 0 -15 8.5z" />
<glyph unicode="&#xc3;" horiz-adv-x="1304" d="M67 25l672 1387q11 22 33 22h261q25 0 28 -25l182 -1385q2 -12 -5 -18t-16 -6h-168q-10 0 -17 7t-8 15l-53 376h-505l-187 -379q-9 -19 -29 -19h-171q-11 0 -16 7.5t-1 17.5zM551 584h410l-23 181l-58 492h-11l-228 -492zM642.5 1579.5q-3.5 6.5 0.5 14.5 q62 109 117.5 157t120.5 48h8q27 0 48 -9t34 -21.5t25 -25.5t28 -22t36 -9q51 0 108 66q10 10 24 10h61q8 0 12 -7t0 -14q-62 -109 -118 -157t-121 -48h-8q-26 0 -46.5 9t-33 22t-24.5 25.5t-29 21.5t-38 9q-30 0 -54 -16.5t-53 -49.5q-10 -10 -25 -10h-61q-8 0 -11.5 6.5z " />
<glyph unicode="&#xc4;" horiz-adv-x="1304" d="M67 25l672 1387q11 22 33 22h261q25 0 28 -25l181 -1385q2 -12 -4.5 -18t-15.5 -6h-168q-10 0 -17 7t-8 15l-53 376h-505l-187 -379q-9 -19 -29 -19h-171q-11 0 -16 7.5t-1 17.5zM551 584h410l-23 181l-58 492h-11l-228 -492zM672 1624l31 175q5 26 32 26h144 q11 0 17.5 -7.5t4.5 -17.5l-31 -175q-5 -27 -32 -27h-144q-11 0 -17.5 8t-4.5 18zM1008 1624l30 175q5 26 32 26h145q11 0 17 -7.5t4 -17.5l-30 -175q-5 -27 -32 -27h-145q-11 0 -17 7.5t-4 18.5z" />
<glyph unicode="&#xc5;" horiz-adv-x="1304" d="M67 26l672 1386q11 22 33 22h261q25 0 28 -25l181 -1385q2 -12 -4.5 -18t-15.5 -6h-168q-10 0 -17 7t-8 15l-53 376h-505l-187 -379q-9 -19 -29 -19h-171q-11 0 -16 8t-1 18zM551 584h410l-23 181l-58 492h-11l-228 -492zM780 1746q12 67 68.5 114t127.5 47q79 0 125 -56 t32 -135q-12 -68 -68.5 -116t-125.5 -48q-81 0 -127 57t-32 137zM881 1730q-5 -32 12 -55t49 -23q33 0 59 24.5t32 57.5q5 31 -11.5 52t-48.5 21q-34 0 -60.5 -22.5t-31.5 -54.5z" />
<glyph unicode="&#xc6;" horiz-adv-x="1626" d="M67 25l672 1387q11 22 33 22h1004q11 0 17 -8t4 -18l-25 -142q-3 -18 -22 -18h-662l-74 -421h604q11 0 17 -7.5t4 -17.5l-24 -142q-3 -19 -23 -19h-611l-80 -455h655q11 0 17 -8t4 -18l-25 -141q-3 -19 -22 -19h-848q-11 0 -17 7.5t-4 18.5l65 372h-255l-187 -379 q-9 -19 -29 -19h-171q-11 0 -16 7.5t-1 17.5zM551 584h208l119 673h-9l-228 -492z" />
<glyph unicode="&#xc7;" horiz-adv-x="1181" d="M236 366.5q-20 112.5 3 255.5l35 205q26 151 95.5 273t165.5 199.5t210 119t233 41.5h26q174 0 317 -76q24 -11 19 -39l-23 -134q-1 -10 -10 -14.5t-19 0.5q-79 40 -144 58.5t-147 18.5h-12q-117 0 -218.5 -51.5t-176.5 -157.5t-101 -252l-34 -195q-38 -217 57 -338 t275 -121h12q83 0 154.5 19t165.5 60q10 4 17.5 -1.5t5.5 -16.5l-23 -133q-5 -28 -30 -39q-164 -75 -335 -75h-12l-31 -86q24 6 50 6q71 0 110 -47.5t25 -125.5t-75.5 -119t-153.5 -41q-81 0 -147 27q-19 8 -14 30l8 39q4 15 18 10q60 -18 112 -18q112 0 125 79q6 35 -13 53 t-61 18q-35 0 -87 -16q-7 -2 -12 1l-17 10q-7 4 -4 12l64 175q-103 15 -185.5 63.5t-140 129.5t-77.5 193.5z" />
<glyph unicode="&#xc8;" horiz-adv-x="1124" d="M159 26l244 1381q5 27 32 27h839q11 0 17.5 -7.5t4.5 -18.5l-25 -142q-3 -18 -22 -18h-662l-75 -421h604q11 0 17.5 -8t4.5 -18l-25 -141q-3 -19 -22 -19h-611l-81 -455h655q11 0 17.5 -8t4.5 -18l-25 -141q-3 -19 -22 -19h-848q-11 0 -17.5 7.5t-4.5 18.5zM687 1918 q-3 8 0.5 13.5t11.5 5.5h132q28 0 36 -27l93 -311q2 -7 -1.5 -11.5t-10.5 -4.5h-100q-23 0 -33 21z" />
<glyph unicode="&#xc9;" horiz-adv-x="1124" d="M159 26l244 1381q5 27 31 27h840q11 0 17.5 -8t4.5 -18l-25 -142q-3 -18 -22 -18h-662l-75 -421h604q11 0 17.5 -8t4.5 -18l-25 -141q-3 -19 -22 -19h-611l-81 -455h655q11 0 17.5 -8t4.5 -18l-25 -141q-3 -19 -22 -19h-848q-11 0 -17.5 7.5t-4.5 18.5zM785.5 1590 q-3.5 7 1.5 15l204 312q12 20 36 20h135q10 0 14 -8.5t-3 -16.5l-238 -314q-12 -15 -33 -15h-103q-10 0 -13.5 7z" />
<glyph unicode="&#xca;" horiz-adv-x="1124" d="M159 26l244 1381q5 27 31 27h840q11 0 17.5 -8t4.5 -18l-25 -142q-3 -18 -22 -18h-662l-75 -421h604q11 0 17.5 -7.5t4.5 -18.5l-25 -141q-3 -19 -22 -19h-611l-81 -455h655q11 0 17.5 -7.5t4.5 -18.5l-25 -141q-3 -19 -22 -19h-848q-11 0 -17.5 8t-4.5 18zM598 1591.5 q-4 8.5 3 16.5l252 316q11 13 27 13h89q23 0 33 -21l139 -314q4 -7 0 -13t-12 -6h-122q-20 0 -27 20l-68 206l-147 -212q-10 -14 -29 -14h-123q-11 0 -15 8.5z" />
<glyph unicode="&#xcb;" horiz-adv-x="1124" d="M159 26l244 1381q5 27 31 27h840q11 0 17.5 -7.5t4.5 -18.5l-25 -142q-3 -18 -22 -18h-662l-75 -421h604q11 0 17.5 -8t4.5 -18l-25 -141q-3 -19 -22 -19h-611l-81 -455h655q11 0 17.5 -8t4.5 -18l-25 -141q-3 -19 -22 -19h-848q-11 0 -17.5 7.5t-4.5 18.5zM605 1624 l31 175q5 26 32 26h144q11 0 17.5 -7.5t4.5 -17.5l-31 -175q-5 -27 -32 -27h-144q-11 0 -17.5 7.5t-4.5 18.5zM941 1624l30 175q5 26 32 26h145q11 0 17 -7t4 -18l-30 -175q-5 -27 -32 -27h-145q-11 0 -17 8t-4 18z" />
<glyph unicode="&#xcc;" horiz-adv-x="520" d="M159 26l244 1381q5 27 32 27h158q11 0 17.5 -7.5t4.5 -18.5l-245 -1389q-3 -19 -22 -19h-167q-11 0 -17.5 8t-4.5 18zM340 1918q-3 8 0.5 13.5t11.5 5.5h132q28 0 36 -27l93 -311q2 -7 -1.5 -11.5t-10.5 -4.5h-100q-23 0 -33 21z" />
<glyph unicode="&#xcd;" horiz-adv-x="520" d="M159 26l244 1381q5 27 31 27h159q11 0 17.5 -7.5t4.5 -18.5l-245 -1389q-3 -19 -22 -19h-167q-11 0 -17.5 8t-4.5 18zM468.5 1590q-3.5 7 1.5 15l203 312q12 20 37 20h135q10 0 14 -8.5t-3 -16.5l-238 -314q-12 -15 -33 -15h-103q-10 0 -13.5 7z" />
<glyph unicode="&#xce;" horiz-adv-x="520" d="M159 26l244 1381q5 27 31 27h159q11 0 17.5 -7.5t4.5 -18.5l-245 -1389q-3 -19 -22 -19h-167q-11 0 -17.5 8t-4.5 18zM271 1591.5q-4 8.5 3 16.5l252 316q11 13 26 13h90q23 0 33 -21l139 -314q4 -7 -0.5 -13t-12.5 -6h-122q-20 0 -27 20l-67 206l-147 -212 q-10 -14 -29 -14h-123q-11 0 -15 8.5z" />
<glyph unicode="&#xcf;" horiz-adv-x="520" d="M159 26l244 1381q5 27 31 27h159q11 0 17.5 -7.5t4.5 -18.5l-245 -1389q-3 -19 -22 -19h-167q-11 0 -17.5 8t-4.5 18zM281 1624l31 175q5 26 32 26h144q11 0 17.5 -7.5t4.5 -17.5l-31 -175q-5 -27 -32 -27h-144q-11 0 -17.5 8t-4.5 18zM617 1624l31 175q5 26 32 26h144 q11 0 17.5 -7.5t4.5 -17.5l-31 -175q-5 -27 -32 -27h-144q-11 0 -17.5 7.5t-4.5 18.5z" />
<glyph unicode="&#xd0;" horiz-adv-x="1343" d="M159 26l98 558h-66q-11 0 -17.5 7.5t-4.5 17.5l19 109q5 26 32 26h66l117 663q5 27 31 27h467q118 0 212.5 -38.5t159.5 -116t87.5 -194.5t-3.5 -275l-35 -201q-27 -154 -90.5 -272t-152 -191t-194 -109.5t-224.5 -36.5h-480q-11 0 -17.5 7.5t-4.5 18.5zM399 186h263 q177 0 293 108.5t155 327.5l34 191q39 219 -38.5 327t-254.5 108h-264l-89 -504h308q11 0 17 -7t4 -18l-19 -109q-5 -26 -31 -26h-307z" />
<glyph unicode="&#xd1;" horiz-adv-x="1390" d="M152 26l243 1381q5 27 32 27h185q22 0 30 -22l245 -596l203 -490h18l68 489l105 602q3 17 20 17h169q11 0 17.5 -8t4.5 -18l-245 -1389q-3 -19 -23 -19h-192q-23 0 -31 21l-277 666l-170 420h-18l-56 -420l-118 -671q-3 -16 -19 -16h-169q-11 0 -17.5 7.5t-4.5 18.5z M686 1579.5q-4 6.5 0 14.5q62 109 117.5 157t120.5 48h9q27 0 48 -9t34 -21.5t25 -25.5t28 -22t36 -9q50 0 107 66q10 10 25 10h61q8 0 11.5 -7t-0.5 -14q-62 -109 -117.5 -157t-120.5 -48h-8q-26 0 -46.5 9t-33 22t-24.5 25.5t-29 21.5t-38 9q-30 0 -54.5 -16.5 t-53.5 -49.5q-10 -10 -24 -10h-61q-8 0 -12 6.5z" />
<glyph unicode="&#xd2;" horiz-adv-x="1402" d="M231.5 320.5q-23.5 115.5 1.5 268.5l47 271q26 149 90 265.5t153 188.5t194 109t220 37h31q114 0 207.5 -38.5t159.5 -116t89.5 -193t-1.5 -268.5l-47 -270q-26 -149 -90.5 -265.5t-153 -189t-193.5 -109.5t-220 -37h-31q-114 0 -207.5 38.5t-159.5 116t-89.5 193z M446 569q-36 -201 38.5 -305.5t233.5 -104.5h21q159 0 271 105.5t148 306.5l52 294q35 201 -39.5 305t-233.5 104h-20q-159 0 -271.5 -105t-147.5 -306zM781 1918q-3 8 0.5 13.5t11.5 5.5h131q29 0 37 -27l93 -311q2 -7 -1.5 -11.5t-10.5 -4.5h-100q-23 0 -33 21z" />
<glyph unicode="&#xd3;" horiz-adv-x="1402" d="M231.5 320.5q-23.5 115.5 1.5 268.5l47 271q26 149 90 265.5t153 188.5t194 109t220 37h31q114 0 207.5 -38.5t159.5 -116t89.5 -193t-1.5 -268.5l-47 -270q-26 -149 -90.5 -265.5t-153 -189t-193.5 -109.5t-220 -37h-31q-114 0 -207.5 38.5t-159.5 116t-89.5 193z M446 569q-36 -201 38.5 -305.5t233.5 -104.5h21q159 0 271 105.5t148 306.5l52 294q35 201 -39.5 305t-233.5 104h-20q-159 0 -271.5 -105t-147.5 -306zM919.5 1590q-3.5 7 1.5 15l204 312q12 20 36 20h135q11 0 15 -8.5t-3 -16.5l-239 -314q-12 -15 -33 -15h-103 q-10 0 -13.5 7z" />
<glyph unicode="&#xd4;" horiz-adv-x="1402" d="M231.5 320.5q-23.5 115.5 1.5 268.5l47 271q26 149 90 265.5t153 188.5t194 109t220 37h31q114 0 207.5 -38.5t159.5 -116t89.5 -193t-1.5 -268.5l-47 -270q-26 -149 -90.5 -265.5t-153 -189t-193.5 -109.5t-220 -37h-31q-114 0 -207.5 38.5t-159.5 116t-89.5 193z M446 569q-36 -201 38.5 -305.5t233.5 -104.5h21q159 0 271 105.5t148 306.5l52 294q35 201 -39.5 305t-233.5 104h-20q-159 0 -271.5 -105t-147.5 -306zM714 1592q-5 9 3 19l247 311q11 15 31 15h88q24 0 33 -23l137 -308q4 -9 -0.5 -16t-14.5 -7h-116q-22 0 -29 21l-67 205 l-145 -209q-12 -17 -33 -17h-117q-12 0 -17 9z" />
<glyph unicode="&#xd5;" horiz-adv-x="1402" d="M231.5 320.5q-23.5 115.5 1.5 268.5l47 271q26 149 90 265.5t153 188.5t194 109t220 37h31q114 0 207.5 -38.5t159.5 -116t89.5 -193t-1.5 -268.5l-47 -270q-26 -149 -90.5 -265.5t-153 -189t-193.5 -109.5t-220 -37h-31q-114 0 -207.5 38.5t-159.5 116t-89.5 193z M446 569q-36 -201 39 -305.5t234 -104.5h20q159 0 271 105.5t148 306.5l52 294q35 201 -39.5 305t-233.5 104h-20q-159 0 -271.5 -105t-147.5 -306zM693.5 1579.5q-3.5 6.5 0.5 14.5q62 109 117.5 157t120.5 48h8q27 0 48 -9t34 -21.5t25 -25.5t28 -22t36 -9q51 0 108 66 q10 10 24 10h61q8 0 11.5 -7t-0.5 -14q-62 -109 -117.5 -157t-120.5 -48h-8q-26 0 -46.5 9t-33 22t-24.5 25.5t-29 21.5t-38 9q-30 0 -54.5 -16.5t-53.5 -49.5q-10 -10 -24 -10h-61q-8 0 -11.5 6.5z" />
<glyph unicode="&#xd6;" horiz-adv-x="1402" d="M231.5 320.5q-23.5 115.5 1.5 268.5l47 271q26 149 90 265.5t153 188.5t194 109t220 37h31q114 0 207.5 -38.5t159.5 -116t89.5 -193t-1.5 -268.5l-47 -270q-26 -149 -90.5 -265.5t-153 -189t-193.5 -109.5t-220 -37h-31q-114 0 -207.5 38.5t-159.5 116t-89.5 193z M446 569q-36 -201 38.5 -305.5t233.5 -104.5h21q159 0 271 105.5t148 306.5l52 294q35 201 -39.5 305t-233.5 104h-20q-159 0 -271.5 -105t-147.5 -306zM722 1624l31 175q5 26 31 26h145q11 0 17 -7t4 -18l-30 -175q-5 -27 -32 -27h-145q-11 0 -17 8t-4 18zM1058 1624 l30 175q5 26 32 26h145q11 0 17 -7.5t4 -17.5l-31 -175q-5 -27 -32 -27h-144q-11 0 -17 7.5t-4 18.5z" />
<glyph unicode="&#xd7;" horiz-adv-x="892" d="M133 350q-14 15 3 30l312 265l-218 264q-12 16 2 28l98 87q16 14 30 -3l217 -262l312 265q15 14 29 -2l71 -82q14 -16 -2 -30l-312 -265l217 -263q13 -16 -2 -29l-99 -86q-16 -14 -30 3l-215 262l-313 -266q-15 -14 -29 2z" />
<glyph unicode="&#xd8;" horiz-adv-x="1402" d="M117 8.5q-4 8.5 3 16.5l153 175q-81 155 -40 389l47 271q26 149 90 265.5t153 188.5t194 109t220 37h31q196 0 320 -106l56 63q14 17 35 17h146q11 0 15 -9t-4 -17l-153 -174q81 -155 40 -390l-47 -270q-26 -149 -90.5 -265.5t-153 -189t-193.5 -109.5t-220 -37h-31 q-195 0 -319 106l-56 -63q-13 -16 -35 -16h-146q-11 0 -15 8.5zM439 389l710 807q-73 78 -212 78h-20q-159 0 -271.5 -105t-147.5 -306l-52 -294q-18 -102 -7 -180zM507 237q73 -78 211 -78h21q159 0 271 105.5t148 306.5l52 294q18 101 7 179z" />
<glyph unicode="&#xd9;" horiz-adv-x="1378" d="M245.5 286q-20.5 105 2.5 246l155 875q5 27 32 27h162q11 0 17.5 -8t4.5 -18l-156 -887q-32 -179 32 -270.5t214 -91.5h21q150 0 247.5 92.5t129.5 271.5l156 884q5 27 31 27h163q11 0 17.5 -8t4.5 -18l-157 -892q-32 -183 -122.5 -307t-214 -180t-275.5 -56h-31 q-113 0 -202 34.5t-150 104t-81.5 174.5zM766 1918q-3 8 0.5 13.5t11.5 5.5h132q28 0 36 -27l93 -311q2 -7 -1.5 -11.5t-10.5 -4.5h-100q-23 0 -33 21z" />
<glyph unicode="&#xda;" horiz-adv-x="1378" d="M245.5 286q-20.5 105 2.5 246l155 875q5 27 31 27h163q11 0 17.5 -7.5t4.5 -18.5l-157 -887q-32 -179 32.5 -270.5t214.5 -91.5h21q150 0 247.5 92.5t129.5 271.5l156 884q5 27 31 27h163q11 0 17.5 -7.5t4.5 -18.5l-157 -892q-32 -183 -122.5 -307t-214 -180t-275.5 -56 h-31q-113 0 -202 34.5t-150 104t-81.5 174.5zM910.5 1590q-3.5 7 1.5 15l204 312q12 20 36 20h135q11 0 15 -8.5t-3 -16.5l-239 -314q-12 -15 -33 -15h-103q-10 0 -13.5 7z" />
<glyph unicode="&#xdb;" horiz-adv-x="1378" d="M245.5 286q-20.5 105 2.5 246l155 875q5 27 31 27h163q11 0 17.5 -8t4.5 -18l-156 -887q-32 -179 32 -270.5t214 -91.5h21q150 0 247.5 92.5t129.5 271.5l156 884q5 27 31 27h163q11 0 17.5 -8t4.5 -18l-157 -892q-32 -183 -122.5 -307t-214 -180t-275.5 -56h-31 q-113 0 -202 34.5t-150 104t-81.5 174.5zM699 1591.5q-4 8.5 3 16.5l252 316q11 13 26 13h90q23 0 33 -21l138 -314q4 -7 0 -13t-12 -6h-122q-20 0 -27 20l-67 206l-147 -212q-10 -14 -29 -14h-123q-11 0 -15 8.5z" />
<glyph unicode="&#xdc;" horiz-adv-x="1378" d="M245.5 286q-20.5 105 2.5 246l155 875q5 27 31 27h163q11 0 17.5 -7.5t4.5 -18.5l-157 -887q-32 -179 32.5 -270.5t214.5 -91.5h21q150 0 247.5 92.5t129.5 271.5l156 884q5 27 31 27h163q11 0 17.5 -7.5t4.5 -18.5l-157 -892q-32 -183 -122.5 -307t-214 -180t-275.5 -56 h-31q-113 0 -202 34.5t-150 104t-81.5 174.5zM709 1624l31 175q5 26 32 26h144q11 0 17.5 -7.5t4.5 -17.5l-31 -175q-5 -27 -32 -27h-144q-11 0 -17.5 7.5t-4.5 18.5zM1045 1624l31 175q5 26 31 26h145q11 0 17 -7t4 -18l-30 -175q-5 -27 -32 -27h-145q-11 0 -17 8t-4 18z " />
<glyph unicode="&#xdd;" horiz-adv-x="1275" d="M314 1404q-4 12 2 21t19 9h172q23 0 30 -23l165 -481l52 -246h6l134 246l340 485q13 19 35 19h181q11 0 15.5 -9t-1.5 -18l-633 -926l-84 -462q-3 -19 -22 -19h-167q-11 0 -17.5 7.5t-4.5 18.5l83 455zM856.5 1590q-3.5 7 1.5 15l204 312q12 20 37 20h134q11 0 15 -8.5 t-3 -16.5l-239 -314q-12 -15 -33 -15h-103q-10 0 -13.5 7z" />
<glyph unicode="&#xde;" horiz-adv-x="1275" d="M159 26l244 1381q5 27 32 27h158q11 0 17.5 -7.5t4.5 -18.5l-29 -163h268q242 0 357.5 -113.5t78.5 -325.5l-6 -32q-38 -216 -192.5 -333.5t-398.5 -117.5h-269l-54 -304q-3 -19 -22 -19h-167q-11 0 -17.5 7.5t-4.5 18.5zM455 501h240q167 0 258.5 73.5t114.5 203.5l3 22 q23 128 -41.5 193.5t-232.5 65.5h-244z" />
<glyph unicode="&#xdf;" horiz-adv-x="1202" d="M120 26l212 1200q26 149 127 229.5t241 80.5h17q136 0 216.5 -77.5t54.5 -224.5l-1 -10q-8 -48 -31.5 -91t-52.5 -72t-62 -59.5t-61.5 -55t-50 -56.5t-27.5 -66l-1 -9q-6 -36 3 -66t24.5 -48t45 -35.5t48.5 -25t51 -18.5q2 -1 3 -1l56 -20q72 -25 117 -48.5t82.5 -59 t49 -86.5t-0.5 -120l-2 -12q-25 -142 -148 -222t-284 -80h-18q-67 0 -145.5 17.5t-136.5 45.5q-27 10 -22 42l18 104q1 10 10 15t19 0q152 -75 266 -75h15q86 0 147.5 38t73.5 106l2 9q5 27 -1 48t-16 34t-34 26.5t-38.5 19t-47.5 17.5l-58 21q-67 24 -106 42t-84.5 53 t-61.5 86t-4 120l2 12q10 57 43.5 107.5t75.5 88t83.5 74.5t74 82t41.5 94l2 10q15 82 -21 122.5t-100 40.5h-9q-66 0 -118.5 -45t-68.5 -138l-207 -1171q-3 -19 -22 -19h-158q-11 0 -17.5 7.5t-4.5 18.5z" />
<glyph unicode="&#xe0;" horiz-adv-x="1099" d="M174 431l31 177q36 207 150 325t295 118h7q82 0 158 -42t129 -115l32 111q8 19 28 19h136q11 0 17 -8t4 -18l-172 -979q-3 -19 -23 -19h-139q-9 0 -15 6t-6 15l12 98q-78 -71 -166 -108.5t-172 -37.5h-7q-181 0 -258 125.5t-41 332.5zM376 426q-50 -287 172 -287h8 q128 0 267 119l91 509q-97 118 -225 118h-7q-111 0 -181 -73.5t-95 -215.5zM533 1508q-3 8 0.5 13.5t11.5 5.5h132q28 0 36 -26l93 -312q2 -7 -1.5 -11.5t-10.5 -4.5h-99q-24 0 -34 21z" />
<glyph unicode="&#xe1;" horiz-adv-x="1099" d="M174 431l31 177q36 207 150 325t295 118h7q82 0 158 -42t129 -115l32 111q8 19 28 19h136q11 0 17 -8t4 -18l-172 -979q-3 -19 -23 -19h-139q-9 0 -15 6t-6 15l12 98q-78 -71 -166 -108.5t-172 -37.5h-7q-181 0 -258 125.5t-41 332.5zM376 426q-50 -287 172 -287h8 q128 0 267 119l91 509q-97 118 -225 118h-7q-111 0 -181 -73.5t-95 -215.5zM667.5 1180q-3.5 7 1.5 15l203 313q12 19 37 19h134q11 0 15 -8t-3 -16l-238 -314q-13 -16 -33 -16h-103q-10 0 -13.5 7z" />
<glyph unicode="&#xe2;" horiz-adv-x="1099" d="M174 431l31 177q36 207 150 325t295 118h7q82 0 158 -42t129 -115l32 111q8 19 28 19h136q11 0 17 -8t4 -18l-172 -979q-3 -19 -23 -19h-139q-9 0 -15 6t-6 15l12 98q-78 -71 -166 -108.5t-172 -37.5h-7q-181 0 -258 125.5t-41 332.5zM376 426q-50 -287 172 -287h8 q128 0 267 119l91 509q-97 118 -225 118h-7q-111 0 -181 -73.5t-95 -215.5zM487 1181.5q-4 8.5 3 16.5l252 317q10 12 26 12h90q23 0 33 -21l139 -314q4 -7 0 -13t-12 -6h-123q-20 0 -27 20l-67 206l-147 -211q-10 -15 -29 -15h-123q-11 0 -15 8.5z" />
<glyph unicode="&#xe3;" horiz-adv-x="1099" d="M174 431l31 177q36 207 150 325t295 118h7q82 0 158 -42t129 -115l32 111q8 19 28 19h136q11 0 17 -7.5t4 -18.5l-172 -979q-3 -19 -23 -19h-139q-9 0 -15 6t-6 15l12 98q-78 -71 -166 -108.5t-172 -37.5h-7q-181 0 -258 125.5t-41 332.5zM376 426q-50 -287 172 -287h8 q128 0 267 119l91 509q-97 118 -225 118h-7q-111 0 -181 -73.5t-95 -215.5zM491.5 1170.5q-3.5 7.5 0.5 14.5q62 109 117.5 156.5t120.5 47.5h8q27 0 48 -9t34 -21.5t25 -25.5t28 -22t36 -9q51 0 108 66q11 11 24 11h61q8 0 12 -7.5t-1 -14.5q-62 -109 -117.5 -157 t-120.5 -48h-8q-32 0 -56 14t-36 30t-32.5 30t-46.5 14q-30 0 -54.5 -16.5t-53.5 -49.5q-11 -11 -24 -11h-61q-8 0 -11.5 7.5z" />
<glyph unicode="&#xe4;" horiz-adv-x="1099" d="M174 431l31 177q36 207 150 325t295 118h7q82 0 158 -42t129 -115l32 111q8 19 28 19h136q11 0 17 -8t4 -18l-172 -979q-3 -19 -23 -19h-139q-9 0 -15 6t-6 15l12 98q-78 -71 -166 -108.5t-172 -37.5h-7q-181 0 -258 125.5t-41 332.5zM376 426q-50 -287 172 -287h8 q128 0 267 119l91 509q-97 118 -225 118h-7q-111 0 -181 -73.5t-95 -215.5zM505 1214l31 175q5 27 32 27h144q11 0 17.5 -8t4.5 -18l-31 -175q-5 -26 -32 -26h-144q-11 0 -17.5 7.5t-4.5 17.5zM841 1214l31 175q5 27 31 27h145q11 0 17 -7.5t4 -18.5l-30 -175 q-5 -26 -32 -26h-145q-11 0 -17 7.5t-4 17.5z" />
<glyph unicode="&#xe5;" horiz-adv-x="1099" d="M174 431l31 177q36 207 150 325t295 118h7q82 0 158 -42t129 -115l32 111q8 19 28 19h136q11 0 17 -8t4 -18l-172 -979q-3 -19 -23 -19h-139q-9 0 -15 6t-6 15l12 98q-78 -71 -166 -108.5t-172 -37.5h-7q-181 0 -258 125.5t-41 332.5zM376 426q-50 -287 172 -287h8 q128 0 267 119l91 509q-97 118 -225 118h-7q-111 0 -181 -73.5t-95 -215.5zM618 1336q12 67 68.5 114.5t126.5 47.5q79 0 125.5 -56.5t32.5 -135.5q-12 -68 -69 -116t-126 -48q-81 0 -126.5 57t-31.5 137zM718 1320q-5 -32 12 -54.5t49 -22.5q34 0 59.5 24t31.5 57 q5 31 -11.5 52t-48.5 21q-34 0 -60.5 -22.5t-31.5 -54.5z" />
<glyph unicode="&#xe6;" horiz-adv-x="1798" d="M174 431l31 177q36 207 150 325t295 118h7q82 0 158 -42t129 -115l32 111q8 19 28 19h69q20 0 22 -21l-17 -97q134 145 328 145h22q188 0 281 -121t54 -341l-16 -89q-3 -21 -24 -21h-647l-13 -71q-23 -129 45 -200.5t196 -71.5h9q114 0 316 78q10 4 16.5 -2t5.5 -16 l-20 -114q-5 -28 -29 -37q-79 -32 -171 -52t-166 -20h-17q-105 0 -185 37t-124 105l-17 -96q-3 -19 -22 -19h-73q-9 0 -15 6t-6 15l12 98q-78 -71 -166 -108.5t-172 -37.5h-7q-181 0 -258 125.5t-41 332.5zM376 426q-50 -287 172 -287h8q128 0 267 119l91 509 q-97 118 -225 118h-7q-111 0 -181 -73.5t-95 -215.5zM1096 603l479 1q28 149 -15 221.5t-158 72.5h-13q-107 0 -186.5 -79t-106.5 -216z" />
<glyph unicode="&#xe7;" horiz-adv-x="974" d="M179 456l21 127q25 145 103 252t190.5 161.5t245.5 54.5h23q125 0 262 -72q26 -11 21 -40l-20 -112q-1 -10 -10 -14.5t-19 0.5q-71 38 -122.5 55t-107.5 17h-14q-127 0 -223.5 -82.5t-122.5 -231.5l-21 -120q-26 -149 39.5 -230.5t193.5 -81.5h15q55 0 112.5 17.5 t144.5 56.5q10 4 17.5 -2t5.5 -17l-20 -113q-5 -27 -28 -36q-157 -72 -280 -72h-23q-2 0 -5 0.5t-5 0.5l-32 -87q24 6 50 6q71 0 110 -47.5t25 -125.5t-75.5 -119t-153.5 -41q-80 0 -146 27q-20 8 -15 30l9 39q4 15 17 10q60 -18 113 -18q112 0 125 79q6 35 -13.5 53 t-61.5 18q-34 0 -86 -16q-7 -2 -13 1l-17 10q-7 4 -4 12l66 180q-153 35 -228 159t-43 312z" />
<glyph unicode="&#xe8;" horiz-adv-x="1069" d="M175 437l24 134q26 150 104 260t186 165t233 55h22q188 0 280.5 -121t53.5 -341l-15 -89q-3 -21 -24 -21h-648l-12 -71q-23 -129 45 -200.5t196 -71.5h9q114 0 316 78q10 4 17 -2t5 -17l-20 -113q-5 -28 -30 -37q-79 -32 -170.5 -52t-165.5 -20h-18q-208 0 -316.5 126.5 t-71.5 337.5zM412 603l478 1q28 149 -15 221.5t-158 72.5h-12q-107 0 -186.5 -79t-106.5 -216zM566 1508q-3 8 0.5 13.5t11.5 5.5h132q28 0 36 -26l93 -312q2 -7 -1.5 -11.5t-10.5 -4.5h-100q-23 0 -33 21z" />
<glyph unicode="&#xe9;" horiz-adv-x="1069" d="M175 437l24 134q26 150 104 260t186 165t233 55h22q188 0 280.5 -121t53.5 -341l-15 -89q-3 -21 -24 -21h-648l-12 -71q-23 -129 45 -200.5t196 -71.5h9q114 0 316 78q10 4 17 -2t5 -17l-20 -113q-5 -28 -30 -37q-79 -32 -170.5 -52t-165.5 -20h-18q-208 0 -316.5 126.5 t-71.5 337.5zM412 603l478 1q28 149 -15 221.5t-158 72.5h-12q-107 0 -186.5 -79t-106.5 -216zM672.5 1180q-3.5 7 1.5 15l204 313q12 19 36 19h135q11 0 14.5 -8t-3.5 -16l-238 -314q-13 -16 -33 -16h-103q-10 0 -13.5 7z" />
<glyph unicode="&#xea;" horiz-adv-x="1069" d="M175 437l24 134q26 150 104 260t186 165t233 55h22q188 0 280.5 -121t53.5 -341l-15 -89q-3 -21 -24 -21h-648l-12 -71q-23 -129 45 -200.5t196 -71.5h9q114 0 316 78q10 4 17 -2t5 -17l-20 -113q-5 -28 -30 -37q-79 -32 -170.5 -52t-165.5 -20h-18q-208 0 -316.5 126.5 t-71.5 337.5zM412 603l478 1q28 149 -15 221.5t-158 72.5h-12q-107 0 -186.5 -79t-106.5 -216zM472 1181.5q-4 8.5 3 16.5l252 317q11 12 26 12h90q23 0 33 -21l139 -314q4 -7 -0.5 -13t-12.5 -6h-122q-20 0 -27 20l-67 206l-147 -211q-11 -15 -29 -15h-123q-11 0 -15 8.5z " />
<glyph unicode="&#xeb;" horiz-adv-x="1069" d="M175 437l24 134q26 150 104 260t186 165t233 55h22q188 0 280.5 -121t53.5 -341l-15 -89q-3 -21 -24 -21h-648l-12 -71q-23 -129 45 -200.5t196 -71.5h9q114 0 316 78q10 4 17 -2t5 -17l-20 -113q-5 -28 -30 -37q-79 -32 -170.5 -52t-165.5 -20h-18q-208 0 -316.5 126.5 t-71.5 337.5zM412 603l478 1q28 149 -15 221.5t-158 72.5h-12q-107 0 -186.5 -79t-106.5 -216zM482 1214l31 175q5 27 32 27h144q11 0 17.5 -8t4.5 -18l-31 -175q-5 -26 -32 -26h-144q-11 0 -17.5 7.5t-4.5 17.5zM818 1214l31 175q5 27 32 27h144q11 0 17.5 -7.5t4.5 -18.5 l-31 -175q-5 -26 -32 -26h-144q-11 0 -17.5 7.5t-4.5 17.5z" />
<glyph unicode="&#xec;" horiz-adv-x="434" d="M123 26l171 971q5 27 32 27h150q11 0 17 -8t4 -18l-173 -979q-3 -19 -22 -19h-158q-11 0 -17 7.5t-4 18.5zM215 1508q-3 8 0.5 13.5t11.5 5.5h131q28 0 36 -26l94 -312q2 -7 -1.5 -11.5t-10.5 -4.5h-100q-23 0 -33 21z" />
<glyph unicode="&#xed;" horiz-adv-x="434" d="M122 26l171 971q5 27 32 27h150q11 0 17 -7.5t4 -18.5l-172 -979q-3 -19 -23 -19h-158q-11 0 -17 8t-4 18zM363.5 1180q-3.5 7 1.5 15l203 313q12 19 37 19h135q11 0 14.5 -8t-3.5 -16l-238 -314q-13 -16 -33 -16h-103q-10 0 -13.5 7z" />
<glyph unicode="&#xee;" horiz-adv-x="434" d="M122 26l171 971q5 27 32 27h150q11 0 17 -8t4 -18l-173 -979q-3 -19 -22 -19h-158q-11 0 -17 7.5t-4 18.5zM158 1181.5q-4 8.5 3 16.5l252 317q11 12 26 12h90q23 0 33 -21l138 -314q4 -7 0 -13t-12 -6h-122q-20 0 -27 20l-67 206l-148 -211q-10 -15 -28 -15h-124 q-10 0 -14 8.5z" />
<glyph unicode="&#xef;" horiz-adv-x="434" d="M122 26l171 971q5 27 32 27h150q11 0 17 -7.5t4 -18.5l-173 -979q-3 -19 -22 -19h-158q-11 0 -17 8t-4 18zM166 1214l31 175q5 27 32 27h145q11 0 17 -7.5t4 -18.5l-31 -175q-5 -26 -32 -26h-144q-11 0 -17.5 7.5t-4.5 17.5zM502 1214l31 175q5 27 32 27h144 q11 0 17.5 -8t4.5 -18l-31 -175q-5 -26 -32 -26h-144q-11 0 -17.5 7.5t-4.5 17.5z" />
<glyph unicode="&#xf0;" horiz-adv-x="1095" d="M177 444l23 133q36 206 153.5 324t299.5 118h15q81 0 155 -35t123 -99l42 235q12 67 3 116l-161 -99q-19 -12 -29 7l-46 83q-9 18 7 27l151 94q-53 28 -147 28h-9q-118 0 -295 -72q-14 -5 -23.5 3t-7.5 22l20 111q3 21 25 28q183 68 344 68h11q158 0 259 -79l128 80 q19 12 30 -8l45 -83q9 -18 -7 -27l-112 -70q44 -100 20 -237l-121 -684q-39 -220 -178.5 -337.5t-331.5 -117.5h-23q-90 0 -164.5 31t-126 89t-71.5 149t-1 202zM380 426q-24 -138 27 -212.5t159 -74.5h14q112 0 186.5 74.5t99.5 214.5l54 308q-96 117 -224 117h-7 q-113 0 -186.5 -74t-98.5 -215z" />
<glyph unicode="&#xf1;" horiz-adv-x="1091" d="M118 26l171 971q5 27 32 27h132q20 0 20 -21l-10 -93q186 141 351 141h17q160 0 231.5 -95.5t41.5 -265.5l-118 -671q-3 -19 -23 -19h-157q-11 0 -17.5 7.5t-4.5 18.5l112 633q20 114 -16.5 170t-144.5 56h-7q-120 0 -274 -109l-134 -757q-3 -19 -22 -19h-158 q-11 0 -17.5 8t-4.5 18zM465.5 1170.5q-3.5 7.5 0.5 14.5q62 109 117.5 156.5t120.5 47.5h8q27 0 48 -9t34 -21.5t25 -25.5t28 -22t36 -9q51 0 108 66q11 11 24 11h61q8 0 12 -7.5t0 -14.5q-62 -109 -118 -157t-121 -48h-8q-32 0 -56 14t-36 30t-32.5 30t-46.5 14 q-30 0 -54 -16.5t-53 -49.5q-11 -11 -25 -11h-61q-8 0 -11.5 7.5z" />
<glyph unicode="&#xf2;" horiz-adv-x="1128" d="M176 444l27 151q26 145 105 250t188 155.5t236 50.5h22q196 0 306.5 -127t72.5 -344l-27 -151q-26 -146 -104.5 -250.5t-187.5 -155t-236 -50.5h-23q-196 0 -306.5 127t-72.5 344zM380 426q-24 -138 31.5 -212.5t169.5 -74.5h14q114 0 197 75.5t107 213.5l30 170 q24 138 -31 212.5t-169 74.5h-15q-114 0 -197 -75.5t-107 -213.5zM573 1508q-3 8 0.5 13.5t11.5 5.5h132q28 0 36 -26l93 -312q2 -7 -1.5 -11.5t-10.5 -4.5h-100q-23 0 -33 21z" />
<glyph unicode="&#xf3;" horiz-adv-x="1128" d="M176 444l27 151q26 145 105 250t188 155.5t236 50.5h22q196 0 306.5 -127t72.5 -344l-27 -151q-26 -146 -104.5 -250.5t-187.5 -155t-236 -50.5h-23q-196 0 -306.5 127t-72.5 344zM380 426q-24 -138 31.5 -212.5t169.5 -74.5h14q114 0 197 75.5t107 213.5l30 170 q24 138 -31 212.5t-169 74.5h-15q-114 0 -197 -75.5t-107 -213.5zM710.5 1180q-3.5 7 1.5 15l203 313q12 19 37 19h134q11 0 15 -8t-3 -16l-238 -314q-13 -16 -34 -16h-102q-10 0 -13.5 7z" />
<glyph unicode="&#xf4;" horiz-adv-x="1128" d="M176 444l27 151q26 145 105 250t188 155.5t236 50.5h22q196 0 306.5 -127t72.5 -344l-27 -151q-26 -146 -104.5 -250.5t-187.5 -155t-236 -50.5h-23q-196 0 -306.5 127t-72.5 344zM380 426q-24 -138 31.5 -212.5t169.5 -74.5h14q114 0 197 75.5t107 213.5l30 170 q24 138 -31 212.5t-169 74.5h-15q-114 0 -197 -75.5t-107 -213.5zM503 1181.5q-4 8.5 3 16.5l251 317q11 12 27 12h90q22 0 32 -21l139 -314q4 -7 0 -13t-12 -6h-122q-20 0 -27 20l-67 206l-148 -211q-11 -15 -28 -15h-124q-10 0 -14 8.5z" />
<glyph unicode="&#xf5;" horiz-adv-x="1128" d="M176 444l27 151q26 145 105 250t188 155.5t236 50.5h22q196 0 306.5 -127t72.5 -344l-27 -151q-26 -146 -104.5 -250.5t-187.5 -155t-236 -50.5h-23q-196 0 -306.5 127t-72.5 344zM380 426q-24 -138 31.5 -212.5t169.5 -74.5h14q114 0 197 75.5t107 213.5l30 170 q24 138 -31 212.5t-169 74.5h-15q-114 0 -197 -75.5t-107 -213.5zM484 1170.5q-4 7.5 0 14.5q62 109 117.5 156.5t120.5 47.5h9q27 0 48 -9t34 -21.5t25 -25.5t28 -22t36 -9q50 0 107 66q11 11 25 11h60q8 0 12 -7.5t0 -14.5q-62 -109 -117.5 -157t-120.5 -48h-8 q-32 0 -56 14t-36 30t-32.5 30t-46.5 14q-30 0 -54.5 -16.5t-53.5 -49.5q-11 -11 -25 -11h-60q-8 0 -12 7.5z" />
<glyph unicode="&#xf6;" horiz-adv-x="1128" d="M176 444l27 151q26 145 105 250t188 155.5t236 50.5h22q196 0 306.5 -127t72.5 -344l-27 -151q-26 -145 -105 -250t-188 -155.5t-236 -50.5h-22q-196 0 -306.5 127t-72.5 344zM380 426q-24 -138 31.5 -212.5t169.5 -74.5h14q114 0 197 75.5t107 213.5l30 170 q24 138 -31 212.5t-169 74.5h-15q-114 0 -197 -75.5t-107 -213.5zM513 1214l31 175q5 27 32 27h144q11 0 17.5 -8t4.5 -18l-31 -175q-5 -26 -32 -26h-145q-11 0 -17 7t-4 18zM849 1214l30 175q5 27 32 27h145q11 0 17 -7.5t4 -18.5l-30 -175q-5 -26 -32 -26h-145 q-11 0 -17 7.5t-4 17.5z" />
<glyph unicode="&#xf7;" d="M166 589l19 108q5 27 32 27h897q11 0 17 -7.5t4 -17.5l-19 -109q-5 -26 -32 -26h-897q-11 0 -17 7t-4 18zM450 140l31 175q5 27 32 27h170q11 0 17.5 -7.5t4.5 -18.5l-32 -183q-3 -18 -22 -18h-179q-11 0 -17.5 7.5t-4.5 17.5zM597 972l31 174q5 27 32 27h170 q11 0 17.5 -7.5t4.5 -18.5l-32 -182q-3 -19 -23 -19h-178q-11 0 -17.5 7.5t-4.5 18.5z" />
<glyph unicode="&#xf8;" horiz-adv-x="1128" d="M85.5 9.5q-4.5 9.5 3.5 17.5l123 126q-66 121 -36 291l27 151q26 145 105 250t188 155.5t236 50.5h22q152 0 257 -80l37 38q14 15 35 15h126q11 0 15 -9t-4 -17l-123 -127q66 -121 36 -291l-27 -151q-26 -145 -105 -250t-188 -155.5t-236 -50.5h-22q-150 0 -253 77 l-34 -35q-14 -15 -34 -15h-133q-11 0 -15.5 9.5zM375 319l502 515q-54 51 -148 51h-15q-114 0 -197 -75.5t-107 -213.5l-30 -170q-10 -56 -5 -107zM435 187q54 -48 146 -48h14q114 0 197 75.5t107 213.5l30 170q11 58 6 105z" />
<glyph unicode="&#xf9;" d="M168 334l117 663q5 27 32 27h150q11 0 17.5 -7.5t4.5 -18.5l-112 -634q-20 -115 11.5 -170t133.5 -55h7q120 0 274 109l134 757q3 19 22 19h158q11 0 17.5 -7.5t4.5 -18.5l-173 -979q-3 -19 -22 -19h-140q-20 0 -20 21l10 93q-186 -141 -351 -141h-17q-157 0 -222.5 95 t-35.5 266zM539 1508q-3 8 0.5 13.5t11.5 5.5h132q28 0 36 -26l93 -312q2 -7 -1.5 -11.5t-10.5 -4.5h-100q-23 0 -33 21z" />
<glyph unicode="&#xfa;" d="M168 334l117 663q5 27 32 27h150q11 0 17.5 -7.5t4.5 -18.5l-112 -633q-20 -115 11.5 -170.5t133.5 -55.5h7q120 0 274 109l134 757q3 19 22 19h158q11 0 17.5 -7.5t4.5 -18.5l-173 -979q-3 -19 -22 -19h-140q-20 0 -20 21l10 93q-186 -141 -351 -141h-17 q-157 0 -222.5 95t-35.5 266zM679.5 1180q-3.5 7 1.5 15l204 313q12 19 36 19h135q11 0 14.5 -8t-3.5 -16l-238 -314q-13 -16 -33 -16h-103q-10 0 -13.5 7z" />
<glyph unicode="&#xfb;" d="M168 334l117 663q5 27 32 27h150q11 0 17.5 -7.5t4.5 -18.5l-112 -633q-20 -115 11.5 -170.5t133.5 -55.5h7q120 0 274 109l134 757q3 19 22 19h158q11 0 17.5 -7.5t4.5 -18.5l-173 -979q-3 -19 -22 -19h-140q-20 0 -20 21l10 93q-186 -141 -351 -141h-17 q-157 0 -222.5 95t-35.5 266zM474 1181.5q-4 8.5 3 16.5l251 317q10 12 27 12h89q23 0 33 -21l139 -314q4 -7 0 -13t-12 -6h-122q-20 0 -27 20l-67 206l-148 -211q-10 -15 -28 -15h-124q-10 0 -14 8.5z" />
<glyph unicode="&#xfc;" d="M168 334l117 663q5 27 32 27h150q11 0 17.5 -7.5t4.5 -18.5l-112 -633q-20 -115 11.5 -170.5t133.5 -55.5h7q120 0 274 109l134 757q3 19 22 19h158q11 0 17.5 -7.5t4.5 -18.5l-173 -979q-3 -19 -22 -19h-140q-20 0 -20 21l10 93q-186 -141 -351 -141h-17 q-157 0 -222.5 95t-35.5 266zM484 1214l31 175q5 27 32 27h144q11 0 17.5 -7.5t4.5 -18.5l-31 -175q-5 -26 -32 -26h-144q-11 0 -17.5 7.5t-4.5 17.5zM820 1214l31 175q5 27 32 27h144q11 0 17.5 -8t4.5 -18l-31 -175q-5 -26 -32 -26h-144q-11 0 -17.5 7.5t-4.5 17.5z" />
<glyph unicode="&#xfd;" horiz-adv-x="1044" d="M43 -302l19 110q1 10 9 14t17 1q79 -29 131 -29h6q54 0 94 31t81 105l39 70h-20q-21 0 -25 21l-173 972q-2 13 6 22t21 9h146q13 0 22 -7.5t10 -20.5l85 -461l38 -363h5l163 363l251 465q11 24 38 24h160q10 0 14.5 -7t0.5 -16l-571 -1079q-78 -147 -162 -219t-212 -72 h-15q-72 0 -157 30q-26 8 -21 37zM672.5 1180q-3.5 7 1.5 15l204 313q12 19 37 19h134q11 0 15 -8t-3 -16l-238 -314q-13 -16 -34 -16h-103q-10 0 -13.5 7z" />
<glyph unicode="&#xfe;" horiz-adv-x="1112" d="M62 -316l317 1799q5 26 32 26h149q11 0 17.5 -7.5t4.5 -18.5l-103 -560q70 63 153 95.5t164 32.5h15q182 0 262.5 -126t44.5 -332l-29 -164q-39 -220 -166 -338t-308 -118h-16q-72 0 -140.5 32t-115.5 93l-79 -422q-3 -18 -22 -18h-158q-11 0 -17.5 7.5t-4.5 18.5z M366 259q99 -120 224 -120h7q113 0 186.5 74t98.5 215l30 170q25 141 -22 214t-159 73h-8q-128 0 -267 -119z" />
<glyph unicode="&#xff;" horiz-adv-x="1044" d="M43 -302l19 110q1 10 9 14t17 1q79 -29 131 -29h6q54 0 94 31t81 105l39 70h-20q-21 0 -25 21l-173 972q-2 13 6 22t21 9h146q13 0 22 -7.5t10 -20.5l85 -461l38 -363h5l163 363l251 465q11 24 38 24h160q10 0 14.5 -7t0.5 -16l-571 -1079q-78 -147 -162 -219t-212 -72 h-15q-72 0 -157 30q-26 8 -21 37zM469 1214l31 175q5 27 32 27h144q11 0 17.5 -8t4.5 -18l-31 -175q-5 -26 -32 -26h-144q-11 0 -17.5 7.5t-4.5 17.5zM805 1214l31 175q5 27 32 27h144q11 0 17.5 -7.5t4.5 -18.5l-31 -175q-5 -26 -32 -26h-144q-11 0 -17.5 7.5t-4.5 17.5z " />
<glyph unicode="&#x152;" horiz-adv-x="2027" d="M231.5 320.5q-23.5 115.5 1.5 268.5l47 271q26 149 90 265.5t153 188.5t194 109t220 37h31q130 0 228.5 -54t148.5 -158l28 159q5 27 32 27h772q11 0 17.5 -7.5t4.5 -18.5l-25 -142q-3 -18 -22 -18h-662l-75 -421h604q11 0 17.5 -7.5t4.5 -17.5l-25 -142q-3 -19 -22 -19 h-611l-81 -455h655q11 0 17.5 -7.5t4.5 -18.5l-25 -141q-3 -19 -22 -19h-781q-11 0 -17 7.5t-4 18.5l26 147q-83 -99 -196 -149.5t-241 -50.5h-31q-114 0 -207.5 38.5t-159.5 116t-89.5 193zM446 569q-36 -201 39 -305.5t234 -104.5h20q159 0 271 105.5t148 306.5l52 294 q35 201 -39.5 305t-233.5 104h-20q-159 0 -271.5 -105t-147.5 -306z" />
<glyph unicode="&#x153;" horiz-adv-x="1794" d="M176 444l27 151q26 145 105 250t188 155.5t236 50.5h22q115 0 199 -50t120 -143q68 93 165.5 143t208.5 50h23q188 0 280.5 -121t53.5 -341l-15 -89q-3 -21 -25 -21h-647l-12 -71q-23 -130 44.5 -201t195.5 -71h9q115 0 317 78q10 4 17 -2t5 -17l-20 -113q-5 -28 -30 -37 q-79 -32 -171 -52t-166 -20h-17q-120 0 -206.5 48t-123.5 135q-68 -90 -167 -136.5t-214 -46.5h-23q-196 0 -306.5 127t-72.5 344zM380 426q-24 -138 31.5 -212.5t169.5 -74.5h14q114 0 197 75.5t107 213.5l30 170q24 138 -31 212.5t-169 74.5h-15q-114 0 -197 -75.5 t-107 -213.5zM1137 603l479 1q28 149 -15 221.5t-158 72.5h-12q-107 0 -187 -79t-107 -216z" />
<glyph unicode="&#x178;" horiz-adv-x="1275" d="M314 1404q-4 12 2 21t19 9h172q23 0 30 -23l165 -481l52 -246h6l134 246l340 485q13 19 35 19h181q11 0 15.5 -9t-1.5 -18l-633 -926l-84 -462q-3 -19 -22 -19h-167q-11 0 -17.5 7.5t-4.5 18.5l83 455zM656 1624l31 175q5 26 32 26h144q11 0 17.5 -7.5t4.5 -17.5 l-31 -175q-5 -27 -32 -27h-144q-11 0 -17.5 8t-4.5 18zM992 1624l31 175q5 26 32 26h144q11 0 17.5 -7.5t4.5 -17.5l-31 -175q-5 -27 -32 -27h-144q-11 0 -17.5 7.5t-4.5 18.5z" />
<glyph unicode="&#x2c6;" horiz-adv-x="673" d="M346 1591.5q-4 8.5 3 16.5l252 316q11 13 27 13h89q23 0 33 -21l139 -314q4 -7 0 -13t-12 -6h-122q-21 0 -28 20l-67 206l-147 -212q-10 -14 -29 -14h-123q-11 0 -15 8.5z" />
<glyph unicode="&#x2dc;" horiz-adv-x="720" d="M340 1579.5q-4 6.5 0 14.5q62 109 117.5 157t120.5 48h8q33 0 58 -13.5t37.5 -30t32.5 -30t44 -13.5q50 0 107 66q10 10 25 10h60q8 0 12 -7t0 -14q-62 -109 -117.5 -157t-120.5 -48h-8q-26 0 -46.5 9t-33 22t-24.5 25.5t-29 21.5t-38 9q-30 0 -54.5 -16.5t-53.5 -49.5 q-10 -10 -25 -10h-60q-8 0 -12 6.5z" />
<glyph unicode="&#x2000;" horiz-adv-x="968" />
<glyph unicode="&#x2001;" horiz-adv-x="1937" />
<glyph unicode="&#x2002;" horiz-adv-x="968" />
<glyph unicode="&#x2003;" horiz-adv-x="1937" />
<glyph unicode="&#x2004;" horiz-adv-x="645" />
<glyph unicode="&#x2005;" horiz-adv-x="484" />
<glyph unicode="&#x2006;" horiz-adv-x="322" />
<glyph unicode="&#x2007;" horiz-adv-x="322" />
<glyph unicode="&#x2008;" horiz-adv-x="242" />
<glyph unicode="&#x2009;" horiz-adv-x="387" />
<glyph unicode="&#x200a;" horiz-adv-x="107" />
<glyph unicode="&#x2010;" horiz-adv-x="761" d="M166 589l19 109q5 26 32 26h585q11 0 17.5 -7.5t4.5 -17.5l-21 -117q-3 -18 -22 -18h-594q-11 0 -17 7.5t-4 17.5z" />
<glyph unicode="&#x2011;" horiz-adv-x="761" d="M166 589l19 109q5 26 32 26h585q11 0 17.5 -7.5t4.5 -17.5l-21 -117q-3 -18 -22 -18h-594q-11 0 -17 7.5t-4 17.5z" />
<glyph unicode="&#x2012;" horiz-adv-x="761" d="M166 589l19 109q5 26 32 26h585q11 0 17.5 -7.5t4.5 -17.5l-21 -117q-3 -18 -22 -18h-594q-11 0 -17 7.5t-4 17.5z" />
<glyph unicode="&#x2013;" d="M166 589l19 109q5 26 32 26h897q11 0 17 -7.5t4 -17.5l-20 -117q-3 -18 -23 -18h-905q-11 0 -17 7.5t-4 17.5z" />
<glyph unicode="&#x2014;" horiz-adv-x="1224" d="M166 589l19 109q5 26 32 26h1048q11 0 17.5 -7.5t4.5 -17.5l-21 -117q-3 -19 -22 -19h-1057q-11 0 -17 7.5t-4 18.5z" />
<glyph unicode="&#x2018;" horiz-adv-x="364" d="M219 890l27 164q3 14 10 29l157 333q10 18 30 18h90q11 0 16.5 -9t0.5 -19l-149 -314h56q11 0 17.5 -7.5t4.5 -18.5l-32 -183q-3 -19 -23 -19h-184q-10 0 -16.5 7.5t-4.5 18.5z" />
<glyph unicode="&#x2019;" horiz-adv-x="364" d="M219 888l150 318h-56q-11 0 -17 7.5t-4 18.5l30 175q5 27 32 27h176q10 0 17 -7.5t5 -18.5l-28 -164q-3 -17 -9 -29l-158 -333q-10 -18 -30 -18h-93q-10 0 -14.5 7.5t-0.5 16.5z" />
<glyph unicode="&#x201a;" horiz-adv-x="364" d="M6.5 -334.5q-4.5 7.5 0.5 16.5l149 318h-56q-11 0 -17 7.5t-4 18.5l31 174q5 27 31 27h176q11 0 17 -7.5t5 -17.5l-27 -165q-3 -14 -10 -29l-158 -332q-10 -18 -30 -18h-93q-10 0 -14.5 7.5z" />
<glyph unicode="&#x201c;" horiz-adv-x="737" d="M219 890l27 164q3 14 10 29l157 333q10 18 30 18h90q11 0 16.5 -9t0.5 -19l-149 -314h56q11 0 17.5 -7.5t4.5 -18.5l-32 -183q-3 -19 -23 -19h-184q-10 0 -16.5 7.5t-4.5 18.5zM591 890l28 164q3 14 10 29l157 333q10 18 30 18h90q11 0 16.5 -9t0.5 -19l-149 -314h56 q11 0 17.5 -8t4.5 -18l-33 -183q-3 -19 -22 -19h-184q-10 0 -17 7.5t-5 18.5z" />
<glyph unicode="&#x201d;" horiz-adv-x="737" d="M219 888l150 318h-56q-11 0 -17 7.5t-4 18.5l30 175q5 27 32 27h176q10 0 17 -7.5t5 -18.5l-28 -164q-3 -17 -9 -29l-158 -333q-10 -18 -30 -18h-93q-10 0 -14.5 7.5t-0.5 16.5zM592 871.5q-4 7.5 0 16.5l150 318h-56q-11 0 -17.5 7.5t-4.5 18.5l31 175q5 27 32 27h176 q10 0 17 -7.5t5 -18.5l-28 -164q-3 -17 -9 -29l-158 -333q-10 -18 -30 -18h-94q-10 0 -14 7.5z" />
<glyph unicode="&#x201e;" horiz-adv-x="737" d="M6.5 -334.5q-4.5 7.5 0.5 16.5l149 318h-56q-11 0 -17 7.5t-4 18.5l31 174q5 27 31 27h176q11 0 17 -7.5t5 -17.5l-27 -165q-3 -14 -10 -29l-158 -332q-10 -18 -30 -18h-93q-10 0 -14.5 7.5zM379 -318l150 318h-56q-11 0 -17 7.5t-4 18.5l30 174q5 27 32 27h176 q11 0 17 -7.5t5 -17.5l-28 -165q-3 -17 -9 -29l-158 -332q-10 -18 -30 -18h-93q-10 0 -14.5 7.5t-0.5 16.5z" />
<glyph unicode="&#x2022;" horiz-adv-x="563" d="M168 601q15 85 86 145t157 60q96 0 152 -69t39 -166q-15 -85 -86 -145t-157 -60q-96 0 -152 69t-39 166z" />
<glyph unicode="&#x2026;" horiz-adv-x="1394" d="M66 26l31 174q5 27 32 27h171q11 0 17 -7.5t4 -18.5l-32 -182q-3 -19 -22 -19h-179q-11 0 -17.5 7.5t-4.5 18.5zM590 26l31 174q5 27 32 27h170q11 0 17.5 -8t4.5 -18l-33 -182q-3 -19 -22 -19h-178q-11 0 -17.5 8t-4.5 18zM1113 26l31 174q5 27 32 27h171q11 0 17 -7.5 t4 -18.5l-32 -182q-3 -19 -22 -19h-179q-11 0 -17.5 7.5t-4.5 18.5z" />
<glyph unicode="&#x202f;" horiz-adv-x="387" />
<glyph unicode="&#x2039;" horiz-adv-x="507" d="M154 517l5 41q1 16 15 31l257 257q11 11 25 11h102q17 0 23 -13.5t-4 -26.5l-251 -280l152 -290q4 -11 -2 -20t-18 -9h-105q-19 0 -30 17l-161 248q-10 16 -8 34z" />
<glyph unicode="&#x203a;" horiz-adv-x="507" d="M116 231q-6 13 4 26l251 280l-152 290q-5 11 1.5 20.5t18.5 9.5h105q19 0 30 -17l162 -251q8 -15 7 -29l-5 -46q-1 -14 -13 -26l-259 -260q-10 -10 -25 -10h-102q-17 0 -23 13z" />
<glyph unicode="&#x205f;" horiz-adv-x="484" />
<glyph unicode="&#x20ac;" horiz-adv-x="1341" d="M156 533l13 75q5 27 32 27h201l29 165h-202q-11 0 -17 7.5t-4 18.5l13 75q5 27 32 27h205q49 169 157 291.5t242.5 181.5t281.5 59h26q174 0 317 -76q24 -11 19 -39l-23 -134q-1 -10 -10 -14.5t-19 0.5q-79 40 -144 58.5t-147 18.5h-12q-154 0 -280.5 -90.5 t-185.5 -255.5h460q11 0 17 -8t4 -18l-13 -75q-5 -27 -32 -27h-468l-29 -165h469q11 0 17.5 -8t4.5 -18l-13 -75q-5 -26 -32 -26h-460q-1 -167 93.5 -258t249.5 -91h12q83 0 154.5 19t165.5 60q10 4 17.5 -1.5t5.5 -16.5l-23 -133q-5 -28 -30 -39q-164 -75 -335 -75h-25 q-107 0 -200 35t-162.5 100.5t-107.5 168.5t-33 231h-209q-11 0 -17.5 7.5t-4.5 17.5z" />
<glyph unicode="&#x2122;" horiz-adv-x="1605" d="M313 1427l11 62q5 27 32 27l567 -1q11 0 17.5 -7.5t4.5 -17.5l-12 -70q-3 -19 -23 -19h-226l-117 -665q-3 -19 -23 -19h-84q-11 0 -17.5 8t-4.5 18l116 658h-219q-11 0 -17.5 8t-4.5 18zM908 742l132 747q5 27 31 27h114q28 0 36 -27l131 -366h8l267 375q12 17 33 17 l124 1q11 0 17.5 -8t4.5 -18l-133 -754q-3 -19 -22 -19h-87q-11 0 -17 7.5t-4 18.5l74 417l55 189h-17l-128 -189l-144 -189q-12 -15 -29 -15h-40q-23 0 -31 23l-71 181l-67 189h-16l-19 -189l-71 -424q-4 -20 -22 -20h-87q-11 0 -17.5 8t-4.5 18z" />
<glyph unicode="&#x25fc;" horiz-adv-x="1024" d="M0 0v1024h1024v-1024h-1024z" />
</font>
</defs>
</svg>
