<?xml version="1.0" standalone="no"?>
<!DOCTYPE svg PUBLIC "-//W3C//DTD SVG 1.1//EN" "http://www.w3.org/Graphics/SVG/1.1/DTD/svg11.dtd" >
<svg xmlns="http://www.w3.org/2000/svg">
<metadata></metadata>
<defs>
<font id="webnarblack_italic" horiz-adv-x="1093" >
<font-face units-per-em="2048" ascent="1536" descent="-512" />
<missing-glyph horiz-adv-x="450" />
<glyph horiz-adv-x="0" />
<glyph horiz-adv-x="682" />
<glyph unicode=" "  horiz-adv-x="450" />
<glyph unicode="&#x09;" horiz-adv-x="450" />
<glyph unicode="&#xa0;" horiz-adv-x="450" />
<glyph unicode="!" horiz-adv-x="458" d="M56 39l49 274q7 41 48 41h280q17 0 26 -11.5t6 -27.5l-51 -290q-5 -25 -29 -25h-296q-17 0 -26.5 11.5t-6.5 27.5zM190 530l98 859q2 20 16 32.5t34 12.5h292q17 0 27 -12.5t6 -29.5l-209 -876q-5 -22 -29 -22h-202q-16 0 -25.5 10.5t-7.5 25.5z" />
<glyph unicode="&#x22;" horiz-adv-x="946" d="M260 921l29 465q2 21 16 34.5t35 13.5h290q19 0 28.5 -13.5t4.5 -31.5l-140 -481q-6 -21 -28 -21h-203q-14 0 -23.5 10t-8.5 24zM747 921l29 465q2 21 16 34.5t35 13.5h290q19 0 28.5 -13.5t4.5 -31.5l-140 -481q-6 -21 -27 -21h-204q-14 0 -23.5 10t-8.5 24z" />
<glyph unicode="#" horiz-adv-x="1310" d="M125 461l68 156q13 28 43 28h162l63 143h-137q-21 0 -31.5 16.5t-2.5 35.5l68 156q13 28 43 28h163l168 382q13 28 43 28h181q22 0 31.5 -16t1.5 -36l-157 -358h171l167 382q13 28 43 28h181q22 0 31.5 -16t1.5 -36l-157 -358h138q21 0 31 -15.5t2 -35.5l-68 -157 q-13 -28 -43 -28h-163l-63 -143h138q21 0 31.5 -16t2.5 -35l-69 -156q-13 -28 -42 -28h-164l-167 -382q-13 -28 -43 -28h-183q-22 0 -31.5 15.5t-1.5 35.5l158 359h-170l-167 -382q-13 -28 -43 -28h-183q-22 0 -31.5 15.5t-1.5 35.5l157 359h-136q-21 0 -31 15.5t-2 35.5z M666 645h170l63 143h-170z" />
<glyph unicode="$" horiz-adv-x="1161" d="M143 100l45 254q3 16 16 23.5t29 1.5q154 -54 217.5 -69t136.5 -15h8q79 0 125 27t55 77l1 6q8 43 -21 66.5t-109 52.5l-64 22q-178 63 -259.5 170t-51.5 273l4 22q30 170 147.5 279.5t279.5 147.5l43 241q7 41 48 41h179q17 0 26.5 -11.5t6.5 -27.5l-40 -230 q124 -11 223 -41q21 -7 32 -25.5t7 -41.5l-45 -253q-3 -16 -15.5 -23t-28.5 -2q-114 37 -176 51t-129 14h-9q-66 0 -109 -27t-52 -77l-1 -6q-7 -40 19 -62t97 -47l69 -25q196 -69 275.5 -173t47.5 -283l-3 -17q-21 -122 -90 -214.5t-163 -144.5t-209 -73l-43 -243 q-5 -25 -29 -25h-195q-17 0 -26.5 11.5t-6.5 27.5l39 223q-148 16 -266 60q-19 7 -29 25.5t-6 39.5z" />
<glyph unicode="%" horiz-adv-x="2035" d="M219 1007l19 110q19 108 80.5 187t147 117.5t184.5 38.5h40q150 0 242.5 -104t64.5 -266l-19 -110q-19 -108 -80.5 -187.5t-146.5 -118.5t-183 -39h-41q-151 0 -243.5 105t-64.5 267zM504 997q-20 -116 69 -116h10q42 0 71.5 28.5t39.5 87.5l18 101q20 116 -70 116h-10 q-42 0 -71.5 -28.5t-39.5 -87.5zM568 13.5q-7 13.5 2 27.5l879 1352q27 41 75 41h174q17 0 24 -13.5t-2 -27.5l-879 -1352q-27 -41 -75 -41h-174q-17 0 -24 13.5zM1292 345l19 111q19 108 80.5 187t147 117.5t184.5 38.5h41q150 0 242 -104t64 -266l-19 -111 q-19 -108 -80.5 -187.5t-146.5 -118.5t-183 -39h-41q-151 0 -243.5 105t-64.5 267zM1577 336q-20 -117 69 -117h11q42 0 71 29t39 88l18 100q10 59 -9 88t-61 29h-10q-42 0 -71.5 -29t-39.5 -88z" />
<glyph unicode="&#x26;" horiz-adv-x="1474" d="M124 415l3 14q20 116 81.5 196t171.5 133q-64 51 -97 129t-18 165l3 12q19 105 68.5 183t123 124t161 67.5t190.5 21.5h13q96 0 170 -19q22 -6 33.5 -25t7.5 -43l-44 -246q-3 -16 -16 -23.5t-29 -1.5q-83 31 -146 31h-10q-67 0 -105.5 -37t-49.5 -95l-3 -16 q-11 -61 28.5 -96t112.5 -35h234l60 346q6 37 43 45l303 67q14 3 22.5 -5.5t6.5 -21.5l-75 -431h238l-48 -272h-238l-41 -234q-15 -88 54 -88h10q14 0 125 29q15 4 25 -5t8 -23l-34 -192q-5 -29 -33 -40q-136 -56 -216 -56h-22q-80 0 -142 27.5t-91 70.5q-73 -42 -174 -70 t-212 -28h-12q-95 0 -180.5 28t-151 81t-96.5 139.5t-12 193.5zM519 444q-12 -65 32 -104t121 -39h10q89 0 235 42l42 239h-260q-65 0 -116.5 -34t-62.5 -97z" />
<glyph unicode="'" horiz-adv-x="458" d="M260 921l29 465q2 21 16 34.5t35 13.5h290q19 0 28.5 -13.5t4.5 -31.5l-140 -481q-6 -21 -28 -21h-203q-14 0 -23.5 10t-8.5 24z" />
<glyph unicode="(" horiz-adv-x="706" d="M139.5 174q1.5 88 18.5 200l80 453q24 134 66.5 237.5t99 174.5t132 119t159.5 72.5t186 31.5q17 1 27.5 -10.5t7.5 -28.5l-37 -212q-3 -17 -18 -21q-52 -19 -83.5 -36.5t-64 -52.5t-54 -93t-36.5 -146l-97 -551q-12 -69 -13 -119.5t6 -83t26 -56.5t40 -37.5t55 -27.5 q23 -10 18 -32l-38 -216q-2 -13 -12.5 -20t-23.5 -5q-85 14 -151 37t-122.5 59.5t-92 87t-58 119.5t-21 157z" />
<glyph unicode=")" horiz-adv-x="706" d="M-3 -251l37 214q3 17 18 21q52 19 83.5 36.5t64 52.5t54 92.5t36.5 145.5l98 551q12 69 13 119.5t-6 83t-26 56.5t-40 37.5t-55 27.5q-23 10 -18 32l38 217q2 13 12 20t23 5q71 -12 128.5 -29t109 -44.5t89.5 -64.5t65.5 -87.5t40.5 -113.5t11.5 -144t-18.5 -178 l-79 -452q-57 -322 -219 -474.5t-427 -162.5q-16 -1 -26 10.5t-7 28.5z" />
<glyph unicode="*" horiz-adv-x="1040" d="M217 969.5q-7 14.5 2 31.5l148 279q7 13 19.5 16.5t24.5 -4.5l170 -98l8 210q1 13 9.5 21.5t21.5 8.5h290q19 0 29.5 -14t4.5 -32l-64 -194l188 95q17 8 31 0.5t18 -25.5l54 -273q5 -29 -25 -36l-225 -45l127 -143q11 -11 9.5 -25t-14.5 -23l-259 -181q-14 -10 -29 -5.5 t-22 20.5l-74 187l-151 -200q-9 -12 -22.5 -13.5t-24.5 8.5l-203 179q-12 10 -12 25t13 25l176 145l-193 42q-18 4 -25 18.5z" />
<glyph unicode="+" horiz-adv-x="1032" d="M134 526l34 197q3 19 16.5 30t32.5 11h294l50 281q3 19 16.5 30t32.5 11h199q17 0 26.5 -12t6.5 -28l-51 -282h295q17 0 26.5 -11.5t6.5 -27.5l-35 -197q-7 -41 -48 -41h-294l-50 -280q-3 -19 -16.5 -30t-32.5 -11h-199q-17 0 -26.5 11.5t-6.5 27.5l50 282h-294 q-17 0 -26.5 11.5t-6.5 27.5z" />
<glyph unicode="," horiz-adv-x="454" d="M-10 -329.5q-7 12.5 1 26.5l181 303h-85q-17 0 -26.5 11.5t-6.5 27.5l48 274q3 19 16.5 30t32.5 11h286q17 0 26.5 -11t6.5 -27l-44 -264q-3 -20 -14 -39l-197 -329q-15 -26 -46 -26h-156q-16 0 -23 12.5z" />
<glyph unicode="-" horiz-adv-x="720" d="M134 526l34 197q3 19 16.5 30t32.5 11h558q17 0 26.5 -11.5t6.5 -27.5l-38 -213q-5 -25 -29 -25h-574q-17 0 -26.5 11.5t-6.5 27.5z" />
<glyph unicode="." horiz-adv-x="442" d="M48 39l48 274q3 19 16.5 30t32.5 11h279q17 0 26.5 -11.5t6.5 -27.5l-51 -290q-5 -25 -30 -25h-295q-17 0 -26.5 11.5t-6.5 27.5z" />
<glyph unicode="/" horiz-adv-x="700" d="M51 51l595 1355q13 28 43 28h181q22 0 31.5 -16t1.5 -36l-593 -1354q-13 -28 -43 -28h-183q-22 0 -31.5 15.5t-1.5 35.5z" />
<glyph unicode="0" horiz-adv-x="1341" d="M197 595l48 271q21 118 67.5 216.5t110 167.5t142 117t163 70.5t173.5 22.5h31q111 0 205.5 -41.5t162.5 -117.5t95.5 -196.5t1.5 -266.5l-48 -270q-26 -146 -91 -262t-155 -187.5t-194.5 -108.5t-215.5 -37h-31q-111 0 -205.5 41.5t-162.5 117.5t-95.5 196.5t-1.5 266.5 zM577 545q-21 -117 13.5 -180.5t126.5 -63.5h14q92 0 148 63.5t77 180.5l61 344q20 116 -14 180t-125 64h-15q-91 0 -148 -64t-77 -180z" />
<glyph unicode="1" horiz-adv-x="931" d="M48 39l46 264q5 25 30 25h221l124 698l-202 -58q-22 -6 -36.5 6.5t-10.5 34.5l41 244q10 57 64 73l338 102q18 6 36 6h180q17 0 26.5 -11.5t6.5 -27.5l-189 -1067h186q17 0 26.5 -11.5t6.5 -27.5l-47 -264q-5 -25 -29 -25h-785q-17 0 -26.5 11.5t-6.5 27.5z" />
<glyph unicode="2" horiz-adv-x="1116" d="M89 39l37 208q8 44 39 74l489 459q84 78 118.5 126t44.5 102l1 6q10 55 -23.5 88t-98.5 33h-8q-66 0 -132.5 -14t-196.5 -52q-15 -4 -24.5 4.5t-7.5 23.5l47 269q6 33 37 42q173 52 345 52h12q235 0 354 -114.5t84 -312.5l-2 -12q-20 -113 -89 -223.5t-211 -246.5 l-254 -223h402q17 0 26.5 -11.5t6.5 -27.5l-46 -264q-5 -25 -30 -25h-887q-17 0 -26.5 11.5t-6.5 27.5z" />
<glyph unicode="3" horiz-adv-x="1052" d="M99 86l47 267q2 11 10.5 16t18.5 1q124 -41 181.5 -55t120.5 -14h10q77 0 134.5 39t69.5 104l1 7q11 62 -28.5 96.5t-104.5 34.5h-177q-17 0 -26.5 11.5t-6.5 27.5l37 208q5 25 29 25h166q73 0 124.5 35t62.5 96l2 16q10 55 -26.5 93.5t-105.5 38.5h-10q-60 0 -125 -14 t-195 -52q-15 -4 -25 4.5t-8 23.5l48 271q6 33 36 42q173 52 338 52h12q83 0 156 -15.5t133.5 -49t101 -82t56 -119.5t0.5 -157l-3 -12q-31 -178 -220 -295q82 -43 120.5 -129t18.5 -199l-2 -14q-19 -108 -75.5 -189.5t-139.5 -130t-181 -72t-209 -23.5h-12q-158 0 -315 46 q-21 7 -32 25.5t-7 41.5z" />
<glyph unicode="4" horiz-adv-x="1292" d="M105 368l37 226q6 34 25 58l587 755q21 27 56 27h429q17 0 26.5 -11.5t6.5 -27.5l-130 -738h186q17 0 26 -11.5t6 -27.5l-46 -264q-5 -24 -29 -24h-201l-54 -305q-5 -25 -29 -25h-314q-17 0 -26.5 11.5t-6.5 27.5l51 291h-567q-16 0 -25.5 11t-7.5 27zM546 657h217 l72 383z" />
<glyph unicode="5" horiz-adv-x="1073" d="M97 86l47 267q2 11 10.5 16t18.5 1q124 -41 181.5 -55t120.5 -14h10q93 0 154.5 42.5t75.5 121.5l1 6q15 87 -40 124.5t-151 37.5q-76 0 -218 -31q-20 -5 -38 6l-17 11q-22 12 -17 38l129 736q3 19 16.5 30t32.5 11h736q17 0 26.5 -11.5t6.5 -27.5l-47 -265 q-5 -24 -29 -24h-417l-48 -208q33 7 94 7q202 0 302.5 -123.5t62.5 -336.5l-2 -14q-39 -221 -212 -339.5t-423 -118.5h-12q-158 0 -315 46q-21 7 -32 25.5t-7 41.5z" />
<glyph unicode="6" horiz-adv-x="1210" d="M189 427q-2 99 18 224l4 22q11 63 27 125.5t46 143t68 150t96 139.5t127 119t164.5 79.5t204.5 30.5h13q135 0 279 -45q21 -7 31.5 -25t6.5 -41l-44 -255q-3 -17 -17.5 -24t-31.5 0q-102 41 -143 52t-99 11h-4q-122 0 -194.5 -75.5t-110.5 -212.5q88 64 243 64 q204 0 303.5 -122.5t61.5 -341.5l-3 -14q-34 -196 -191.5 -327t-389.5 -131h-12q-73 0 -136.5 15.5t-121.5 49t-98.5 87t-67.5 128.5t-29 174zM569 498q-34 -197 107 -197h8q139 0 169 172l2 6q28 158 -116 158q-63 0 -152 -38z" />
<glyph unicode="7" horiz-adv-x="1054" d="M243 1145l44 248q7 41 48 41h893q16 0 25 -11.5t7 -27.5l-34 -212q-6 -36 -27 -61l-436 -535q-21 -26 -27 -58l-93 -505q-5 -24 -29 -24h-315q-17 0 -26 11.5t-6 27.5l99 585q6 37 29 63l359 419h-478q-17 0 -26.5 11.5t-6.5 27.5z" />
<glyph unicode="8" horiz-adv-x="1204" d="M124 411l2 14q39 224 267 328q-67 46 -102.5 124t-20.5 165l2 12q18 103 71 182.5t129.5 127.5t168 72t193.5 24h28q101 0 187.5 -28.5t149.5 -81.5t90.5 -136.5t9.5 -186.5l-2 -13q-32 -180 -223 -286q86 -44 127.5 -131t21.5 -199l-2 -14q-19 -106 -75.5 -187 t-138.5 -129t-178.5 -71.5t-205.5 -23.5h-29q-85 0 -161.5 17t-140 53t-106.5 87t-60 123.5t-2 157.5zM518 438q-11 -63 19 -100t96 -37h45q65 0 108.5 36.5t54.5 100.5l1 6q12 66 -18.5 102t-96.5 36h-45q-66 0 -108.5 -36t-54.5 -102zM638 991q-11 -59 15.5 -94t84.5 -35 h33q58 0 96 35t49 94l3 17q9 55 -17.5 92t-82.5 37h-33q-57 0 -96.5 -37t-48.5 -92z" />
<glyph unicode="9" horiz-adv-x="1210" d="M189 84l45 255q3 17 17 24t31 0q101 -41 142.5 -52t99.5 -11h4q122 0 194.5 75.5t110.5 211.5q-86 -63 -243 -63q-204 0 -303.5 122.5t-61.5 341.5l3 15q34 196 191.5 326.5t389.5 130.5h13q73 0 136.5 -15.5t121 -49t98.5 -86.5t67.5 -128t28.5 -174t-18 -224l-4 -22 q-11 -63 -27 -125t-46 -143t-68 -151t-96.5 -139.5t-127.5 -119t-164 -80t-204 -30.5h-13q-135 0 -279 45q-21 7 -31.5 25t-6.5 41zM608 954q-28 -158 116 -158q63 0 152 38l18 101q34 197 -107 197h-8q-139 0 -169 -172z" />
<glyph unicode=":" horiz-adv-x="442" d="M48 39l48 274q3 19 16.5 30t32.5 11h279q17 0 26.5 -11.5t6.5 -27.5l-51 -290q-5 -25 -30 -25h-295q-17 0 -26.5 11.5t-6.5 27.5zM157 655l48 275q3 19 16.5 30t32.5 11h279q17 0 26.5 -11.5t6.5 -27.5l-52 -291q-5 -25 -29 -25h-296q-17 0 -26 11.5t-6 27.5z" />
<glyph unicode=";" horiz-adv-x="454" d="M-10 -329.5q-7 12.5 1 26.5l181 303h-85q-17 0 -26.5 11.5t-6.5 27.5l48 274q3 19 16.5 30t32.5 11h286q17 0 26.5 -11t6.5 -27l-44 -264q-3 -20 -14 -39l-197 -329q-15 -26 -46 -26h-156q-16 0 -23 12.5zM169 655l49 275q3 19 16.5 30t32.5 11h279q17 0 26.5 -11.5 t6.5 -27.5l-52 -291q-5 -25 -29 -25h-296q-17 0 -26.5 11.5t-6.5 27.5z" />
<glyph unicode="&#x3c;" horiz-adv-x="1032" d="M131 505l32 191q8 45 52 58l920 273q14 5 24 -4t8 -24l-43 -249q-5 -24 -28 -30l-520 -122l461 -118q16 -5 24.5 -18t5.5 -29l-43 -250q-1 -10 -9 -15t-19 -2l-825 273q-22 8 -33 26t-7 40z" />
<glyph unicode="=" horiz-adv-x="1032" d="M111 397l23 129q3 19 16.5 30t32.5 11h869q17 0 26 -11.5t6 -27.5l-22 -129q-3 -19 -16.5 -30t-32.5 -11h-869q-17 0 -26.5 11.5t-6.5 27.5zM164 696l22 129q3 19 16.5 30t32.5 11h869q17 0 26.5 -11.5t6.5 -27.5l-23 -129q-7 -41 -48 -41h-869q-17 0 -26.5 11.5 t-6.5 27.5z" />
<glyph unicode="&#x3e;" horiz-adv-x="1032" d="M77 197l41 243q5 31 35 37l514 121l-452 116q-20 5 -30.5 21.5t-6.5 36.5l39 228q3 16 15 23.5t27 2.5l821 -271q18 -6 27.5 -21.5t6.5 -34.5l-34 -199q-8 -45 -52 -58l-920 -273q-14 -4 -23.5 4.5t-7.5 23.5z" />
<glyph unicode="?" horiz-adv-x="1021" d="M177 39l48 274q3 19 16.5 30t32.5 11h279q17 0 26.5 -11.5t6.5 -27.5l-51 -290q-5 -25 -30 -25h-295q-17 0 -26.5 11.5t-6.5 27.5zM238 1115l45 251q7 33 36 42q172 52 330 52h13q162 0 282.5 -51.5t180 -153t35.5 -238.5l-2 -15q-30 -173 -147 -276t-286 -103 q-49 0 -112 13l-37 -122q-7 -20 -28 -20h-205q-15 0 -24.5 10.5t-7.5 25.5l28 251q1 19 17 33l48 42q17 15 41 12q89 -10 117 -10q92 0 143 34.5t61 92.5l2 6q13 74 -33.5 108t-142.5 34h-10q-59 0 -117 -12.5t-177 -47.5q-22 -7 -38 6t-12 36z" />
<glyph unicode="@" horiz-adv-x="2220" d="M126.5 -52.5q-15.5 98.5 5.5 219.5l127 723q26 146 93.5 262t160.5 187.5t201.5 108.5t223.5 37h844q91 0 173 -26t149 -77t111.5 -126t60 -173.5t-5.5 -219.5l-87 -490q-38 -215 -159.5 -307.5t-318.5 -92.5h-136q-89 0 -170.5 39t-109.5 105q-156 -144 -314 -144h-6 q-118 0 -193 65.5t-97.5 165.5t-1.5 219l31 178q38 219 177 334.5t350 115.5h22q232 0 430 -117q41 -25 33 -74l-84 -524q-7 -36 7 -56t43 -20h25q28 0 49 20t28 56l102 577q20 115 -21 179.5t-141 64.5h-828q-100 0 -163.5 -64.5t-83.5 -179.5l-141 -796 q-21 -116 20.5 -180t141.5 -64h878q17 0 26.5 -11.5t6.5 -27.5l-47 -264q-5 -25 -29 -25h-890q-91 0 -173 26t-149 77t-111 126t-59.5 173.5zM1035 420q-29 -160 80 -160h11q58 0 133 35l77 436q-67 39 -120 39h-11q-110 0 -136 -160z" />
<glyph unicode="A" horiz-adv-x="1361" d="M45 33l596 1372q5 11 17 20t26 9h496q12 0 20 -8.5t10 -20.5l111 -1370q1 -4 1 -8q0 -13 -8 -19q-10 -8 -24 -8h-317q-14 0 -22.5 10t-8.5 19l-18 272h-375l-115 -272q-5 -12 -17 -20.5t-26 -8.5h-323q-14 0 -21 10q-4 6 -4 13q0 5 2 10zM685 629h218l-7 137l-5 367h-17 l-130 -367z" />
<glyph unicode="B" horiz-adv-x="1236" d="M109 39l239 1354q3 19 16.5 30t32.5 11h512q106 0 189.5 -21.5t146 -67.5t87.5 -127q14 -46 14 -101q0 -42 -8 -90l-2 -15q-32 -175 -212 -285q78 -45 116 -129q24 -55 24 -122q0 -35 -7 -74l-3 -14q-68 -388 -546 -388h-566q-16 0 -26 12q-7 9 -8 20q0 3 1 7zM539 328 h188q60 0 99.5 32.5t49.5 90.5l1 6q3 17 3 31q0 37 -20 61q-28 33 -88 33h-188zM632 854h162q135 0 157 123l1 6q3 17 3 32q0 91 -117 91h-162z" />
<glyph unicode="C" horiz-adv-x="1142" d="M207 645l29 172q25 151 96.5 274.5t171 203t218 122.5t243.5 43h31q176 0 302 -55q32 -15 32 -47q0 -7 -1 -14l-44 -245q-3 -17 -17 -24.5t-31 -0.5q-79 34 -129.5 46.5t-117.5 12.5h-8q-139 0 -236 -88.5t-123 -239.5l-31 -176q-7 -43 -8 -81q0 -94 47 -158 q65 -88 204 -89h9q68 0 123.5 13t147.5 47q16 6 27 -3t8 -25l-43 -243q-8 -45 -46 -60q-140 -57 -305 -57h-30q-124 0 -229.5 45t-180 127.5t-105.5 212.5q-17 69 -17 146q0 67 13 141z" />
<glyph unicode="D" horiz-adv-x="1318" d="M109 39l239 1354q3 19 16.5 30t32.5 11h481q123 0 223 -39.5t171 -119.5q70 -79 96 -199q13 -59 12 -129q0 -71 -13 -152l-32 -184q-27 -156 -93 -275.5t-158.5 -191.5t-202 -108t-233.5 -36h-506q-16 0 -26 12q-7 9 -8 20q0 3 1 7zM539 328h109q136 0 207.5 71t98.5 224 l33 188q10 56 10 101q1 78 -29 123q-46 71 -183 71h-109z" />
<glyph unicode="E" d="M109 39l239 1354q3 19 16.5 30t32.5 11h859q17 0 26 -12q7 -9 7 -19q0 -4 -1 -8l-46 -265q-5 -24 -30 -24h-536l-38 -215h460q17 0 26.5 -11.5t6.5 -27.5l-46 -264q-5 -25 -30 -25h-474l-42 -235h522q17 0 26 -11.5t6 -27.5l-46 -264q-5 -25 -30 -25h-875q-16 0 -26 12 q-7 9 -8 20q0 3 1 7z" />
<glyph unicode="F" d="M109 39l239 1354q3 19 16.5 30t32.5 11h859q17 0 26 -12q7 -9 7 -19q0 -4 -1 -8l-46 -265q-5 -24 -30 -24h-536l-42 -238h460q17 0 26.5 -11.5t6.5 -27.5l-46 -264q-5 -24 -30 -24h-474l-91 -516q-5 -25 -30 -25h-314q-16 0 -26 12q-7 9 -8 20q0 3 1 7z" />
<glyph unicode="G" horiz-adv-x="1284" d="M205 643l31 174q22 123 74 228t125 180.5t163 129t188.5 79.5t200.5 26h31q177 0 303 -58q31 -15 31 -47q0 -6 -1 -13l-43 -244q-3 -17 -17.5 -24.5t-30.5 -0.5q-97 39 -138.5 49.5t-108.5 10.5h-9q-148 0 -251 -88.5t-130 -239.5l-31 -176q-10 -58 -10 -105 q0 -223 223 -223h8q33 0 56 6l70 395q3 19 16.5 30t32.5 11h298q17 0 26.5 -11t6.5 -27l-98 -558q-7 -43 -45 -67q-66 -44 -181.5 -75.5t-230.5 -31.5h-33q-128 0 -236.5 47t-182.5 132t-104 212q-16 68 -16 141q0 66 13 138z" />
<glyph unicode="H" horiz-adv-x="1380" d="M109 39l239 1354q3 19 16.5 30t32.5 11h297q17 0 26.5 -11.5t6.5 -27.5l-89 -504h418l89 502q7 41 48 41h298q17 0 27 -12q7 -9 7 -20q0 -4 -1 -7l-242 -1370q-5 -25 -29 -25h-314q-17 0 -26.5 11.5t-6.5 27.5l92 524h-417l-95 -538q-5 -25 -30 -25h-314q-16 0 -26 12 q-7 9 -8 20q0 3 1 7z" />
<glyph unicode="I" horiz-adv-x="583" d="M109 39l239 1354q3 19 16.5 30t32.5 11h297q16 0 26 -12q7 -9 7 -20v-7l-241 -1370q-5 -25 -30 -25h-314q-16 0 -26 12q-7 9 -8 20q0 3 1 7z" />
<glyph unicode="J" horiz-adv-x="806" d="M48 38l45 258q3 16 16.5 23.5t30.5 1.5q56 -20 85 -20h10q60 0 103.5 38t56.5 110l167 944q3 19 16.5 30t32.5 11h308q17 0 27 -12q7 -8 7 -20q0 -3 -1 -7l-168 -944q-23 -130 -74 -225.5t-122.5 -149t-151 -78.5t-171.5 -25h-10q-93 0 -188 31q-20 7 -20 26q0 4 1 8z " />
<glyph unicode="K" horiz-adv-x="1318" d="M109 39l239 1354q3 19 16.5 30t32.5 11h297q17 0 26.5 -11.5t6.5 -27.5l-90 -514h77l371 526q19 27 50 27h341q18 0 25 -14q3 -6 3 -12q0 -8 -6 -17l-472 -662l252 -697q5 -13 -2 -22.5t-20 -9.5h-338q-46 0 -62 44l-184 509h-93l-93 -528q-5 -25 -30 -25h-314 q-16 0 -26 12q-7 9 -8 20q0 3 1 7z" />
<glyph unicode="L" horiz-adv-x="1021" d="M109 39l239 1354q3 19 16.5 30t32.5 11h297q17 0 26.5 -11.5t6.5 -27.5l-188 -1067h460q17 0 27 -12q7 -9 6 -20v-7l-47 -264q-5 -25 -29 -25h-814q-16 0 -26 12q-7 9 -8 20q0 3 1 7z" />
<glyph unicode="M" horiz-adv-x="1658" d="M105 39l239 1354q3 19 16.5 30t32.5 11l387 -1q37 0 47 -37l137 -552h17l340 568q13 22 39 22h410q17 0 26 -12q7 -9 7 -19q0 -4 -1 -8l-241 -1370q-5 -25 -29 -25h-324q-17 0 -26.5 12t-6.5 28l116 615l109 267h-44l-143 -267l-186 -275q-12 -20 -37 -20h-178 q-36 0 -46 35l-78 260l-57 267h-34l-6 -267l-100 -630q-1 -11 -9.5 -18t-19.5 -7h-324q-16 0 -26 12q-7 9 -8 20q0 3 1 7z" />
<glyph unicode="N" horiz-adv-x="1384" d="M105 39l239 1354q3 19 16.5 30t32.5 11h335q33 0 45 -33l180 -553l61 -266h34l10 266l98 561q5 25 29 25h314q17 0 27 -12q7 -9 7 -20q0 -4 -1 -7l-242 -1370q-5 -25 -29 -25h-352q-33 0 -45 33l-180 553l-61 266h-34l-10 -266l-98 -561q-5 -25 -29 -25h-314 q-16 0 -26 12q-7 9 -8 20q0 3 1 7z" />
<glyph unicode="O" horiz-adv-x="1386" d="M192 376q-7 42 -7 87q0 62 12 132l48 271q26 146 93.5 262t160.5 187t201.5 108t223.5 37h31q91 0 173 -26t149 -77t111 -126t60 -173q7 -42 7 -88q0 -62 -13 -132l-47 -270q-26 -146 -93.5 -262t-161 -187.5t-202 -108.5t-223.5 -37h-30q-91 0 -173 26t-149 77 t-111 126.5t-60 173.5zM577 545q-7 -39 -7 -72q0 -65 28 -108q42 -64 141 -64h14q100 0 163.5 64t84.5 180l61 344q7 38 7 70q0 65 -28 109q-41 64 -141 65h-14q-100 0 -164 -65t-84 -179z" />
<glyph unicode="P" horiz-adv-x="1261" d="M109 39l239 1354q3 19 16.5 30t32.5 11h510q105 0 191 -29t148 -87t87 -152q14 -51 14 -110q0 -50 -10 -105l-2 -14q-18 -100 -58.5 -180t-96.5 -134.5t-128 -91.5t-150.5 -53.5t-165.5 -16.5h-173l-77 -436q-5 -25 -30 -25h-314q-16 0 -26 12q-7 9 -8 20q0 3 1 7z M610 772h119q180 0 208 158l3 18q4 23 4 42q0 50 -26 78q-36 38 -126 38h-123z" />
<glyph unicode="Q" horiz-adv-x="1386" d="M192 376q-7 41 -7 87q0 62 12 132l48 271q26 146 93.5 262t160.5 187t201.5 108t223.5 37h31q91 0 173 -26t149 -77t111 -126t60 -173q6 -42 6 -88q0 -62 -12 -132l-47 -270q-48 -274 -237 -435l122 -143q20 -23 -3 -44l-217 -190q-9 -8 -20 -8h-3q-13 1 -22 11l-190 223 q-54 -9 -110 -9h-30q-91 0 -173 26t-149 77t-111.5 126t-59.5 174zM577 545q-7 -39 -7 -72q0 -66 28 -108q41 -64 141 -64h15q100 0 163 64t84 180l61 344q7 38 7 70q0 66 -28 109q-41 65 -141 65h-14q-100 0 -164 -65t-84 -179z" />
<glyph unicode="R" horiz-adv-x="1312" d="M109 39l239 1354q3 19 16.5 30t32.5 11h537q83 0 153.5 -17t127.5 -51.5t93 -87.5q36 -54 50 -126q6 -32 5 -68q0 -45 -9 -96l-3 -14q-52 -290 -298 -405l90 -196l129 -341q4 -13 -2.5 -22.5t-20.5 -9.5h-338q-46 0 -62 44l-169 470h-108l-86 -489q-5 -25 -30 -25h-314 q-16 0 -26 12q-7 9 -8 20q0 3 1 7zM625 813h149q159 0 185 141l2 11q4 20 4 36q0 105 -139 105h-150z" />
<glyph unicode="S" horiz-adv-x="1120" d="M109 100q-1 -6 -1 -12q0 -14 6 -28q10 -18 29 -25q74 -28 176.5 -47t200.5 -19h14q105 0 202 27.5t179.5 80.5t140.5 139.5t77 196.5l2 17q9 50 9 95q0 63 -18 115q-32 88 -107.5 144t-205.5 102l-70 25q-71 25 -97 47q-20 17 -20 46q0 8 1 16l1 6q9 50 52.5 77t109.5 27 h8q67 0 130 -14t176 -51q16 -5 28 2t15 23l45 254q1 6 1 12q1 16 -7 29q-10 18 -33 25q-156 46 -320 46h-12q-98 0 -191.5 -28t-174 -81.5t-138 -140.5t-76.5 -195l-4 -22q-8 -45 -8 -85q-1 -110 59 -188q82 -107 260 -170l63 -22q79 -28 109 -52q23 -18 24 -50q0 -8 -2 -17 l-1 -6q-9 -50 -55 -77t-125 -27h-8q-73 0 -136.5 15t-217.5 69q-16 6 -29.5 -1.5t-16.5 -23.5z" />
<glyph unicode="T" horiz-adv-x="1210" d="M243 1145l44 248q7 41 48 41h1048q17 0 26 -12q7 -9 6 -19v-8l-46 -265q-5 -24 -30 -24h-349l-191 -1081q-5 -25 -29 -25h-315q-17 0 -26 11.5t-6 27.5l188 1067h-335q-16 0 -26 12q-7 9 -8 20q0 3 1 7z" />
<glyph unicode="U" horiz-adv-x="1345" d="M193 338q-6 38 -6 81q0 63 13 135l148 839q3 19 16.5 30t32.5 11h308q17 0 26 -11.5t6 -27.5l-153 -871q-7 -40 -7 -72q0 -57 22 -94q35 -57 122 -57h14q176 0 216 223l153 869q7 41 48 41h308q16 0 26 -12q7 -9 8 -20q0 -4 -1 -7l-153 -868q-26 -146 -88.5 -255.5 t-150.5 -173.5t-189 -94.5t-215 -30.5h-31q-90 0 -168 21.5t-143 66.5t-106 114t-56 163z" />
<glyph unicode="V" horiz-adv-x="1275" d="M290 1389q-1 20 11.5 32.5t31.5 12.5h287q22 0 36 -13.5t15 -35.5l33 -668l-20 -416h12l122 416l274 676q16 41 61 41h310q15 0 21 -10q4 -6 3 -12q0 -5 -2 -11l-553 -1372q-11 -29 -43 -29h-499q-28 0 -30 29z" />
<glyph unicode="W" horiz-adv-x="2119" d="M291 1388v5q1 16 11 28q12 13 31 13h291q21 0 35 -14t16 -35l39 -668l-27 -385h17l104 385l285 688q11 29 43 29h332q21 0 35 -14t16 -35l39 -668l-27 -385h17l104 385l280 676q16 41 60 41h315q15 0 21 -10q4 -6 3 -13q0 -5 -2 -11l-566 -1371q-11 -29 -43 -29h-440 q-28 0 -30 29l-27 465l16 456h-20l-140 -456l-192 -465q-11 -29 -43 -29h-441q-13 0 -21.5 8t-9.5 21z" />
<glyph unicode="X" horiz-adv-x="1361" d="M48 14q-3 6 -3 11q0 8 6 17l487 687l-229 674q-4 12 2.5 21.5t19.5 9.5h328q47 0 63 -45l84 -246l31 -197h17l90 197l184 257q24 34 65 34h332q17 0 25 -14q3 -6 4 -12q0 -9 -7 -17l-467 -662l241 -698q4 -12 -2.5 -21.5t-19.5 -9.5h-334q-47 0 -63 45l-91 266l-29 197 h-16l-92 -197l-199 -278q-24 -33 -64 -33h-338q-18 0 -25 14z" />
<glyph unicode="Y" horiz-adv-x="1296" d="M290 1390q-2 6 -2 11q0 11 7 19q10 14 28 14h316q37 0 47 -36l93 -345l6 -244h8l84 244l222 351q19 30 54 30h332q17 0 24 -13q3 -6 3 -12q0 -7 -5 -15l-582 -929l-82 -441q-5 -24 -29 -24h-316q-17 0 -26.5 11.5t-6.5 27.5l79 426z" />
<glyph unicode="Z" horiz-adv-x="1118" d="M68 38l34 214q6 35 27 60l639 794h-449q-17 0 -26.5 11.5t-6.5 27.5l44 248q7 41 48 41h880q16 0 26 -12q8 -10 7 -22v-5l-34 -213q-6 -36 -27 -61l-639 -793h484q17 0 26.5 -11.5t6.5 -27.5l-47 -264q-5 -25 -29 -25h-932q-16 0 -25 11q-7 9 -7 21v6z" />
<glyph unicode="[" horiz-adv-x="716" d="M63 -221l285 1614q3 19 16.5 30t32.5 11h492q17 0 26.5 -11.5t6.5 -27.5l-38 -213q-5 -25 -29 -25h-170l-201 -1141h155q17 0 26.5 -11.5t6.5 -27.5l-38 -213q-5 -24 -29 -24h-509q-17 0 -26.5 11.5t-6.5 27.5z" />
<glyph unicode="\" horiz-adv-x="700" d="M290 1399q-1 15 8 25t24 10h193q13 0 21 -8t9 -20l119 -1371q1 -15 -8 -25t-24 -10h-195q-28 0 -30 28z" />
<glyph unicode="]" horiz-adv-x="716" d="M2 -221l38 213q5 24 29 24h169l202 1141h-155q-17 0 -26.5 11.5t-6.5 27.5l35 197q7 41 48 41h493q17 0 26 -11.5t6 -27.5l-287 -1631q-5 -24 -29 -24h-509q-17 0 -26.5 11.5t-6.5 27.5z" />
<glyph unicode="^" horiz-adv-x="780" d="M181 785l301 618q16 31 50 31h215q16 0 27 -9.5t13 -25.5l86 -631q2 -16 -7.5 -26.5t-25.5 -10.5h-220q-25 0 -40 16.5t-13 41.5l24 303h-12l-91 -326q-10 -35 -47 -35h-227q-22 0 -32.5 17t-0.5 37z" />
<glyph unicode="_" horiz-adv-x="1032" d="M-8 -277l35 197q3 19 16.5 30t32.5 11h869q17 0 26 -11.5t6 -27.5l-37 -213q-5 -25 -29 -25h-886q-17 0 -26.5 11.5t-6.5 27.5z" />
<glyph unicode="`" horiz-adv-x="557" d="M386 1882q-5 11 0.5 20t17.5 9h233q41 0 54 -39l96 -291q3 -10 -2.5 -17.5t-15.5 -7.5h-181q-33 0 -49 30z" />
<glyph unicode="a" horiz-adv-x="1087" d="M126 423l36 205q16 89 49.5 164t84.5 134t125.5 92t163.5 33h7q134 0 244 -134l40 81q13 26 41 26h250q17 0 27 -12q7 -9 7 -20q0 -4 -1 -7l-170 -960q-5 -25 -29 -25h-259q-13 0 -21.5 8.5t-9.5 21.5l-2 58q-139 -115 -284 -115h-7q-118 0 -193 65.5t-97 165.5 q-12 52 -12 109q0 53 10 110zM484 420q-6 -33 -6 -60q0 -100 87 -100h10q58 0 133 35l77 434q-62 35 -121 35h-10q-108 0 -137 -160z" />
<glyph unicode="b" d="M98 152l223 1316q3 19 16.5 30t32.5 11h279q17 0 26 -11.5t6 -27.5l-89 -505q117 86 247 86h22q89 0 154.5 -36t98 -96t44.5 -139q4 -31 4 -63q0 -50 -11 -103l-34 -191q-38 -219 -180 -334.5t-353 -115.5h-22q-124 0 -239 35.5t-201 88.5q-25 16 -25 43q0 6 1 12z M482 293q67 -39 120 -39h10q55 0 92 40.5t51 119.5l34 190q5 30 5 54q0 40 -14 65q-23 41 -78 41h-10q-58 0 -133 -35z" />
<glyph unicode="c" horiz-adv-x="907" d="M135 475l17 100q37 217 188.5 346.5t369.5 129.5h23q114 0 258 -57q34 -14 34 -49q0 -7 -1 -14l-35 -201q-3 -17 -18 -24.5t-31 0.5q-133 58 -191 58h-10q-84 0 -143.5 -53.5t-77.5 -157.5l-14 -82q-6 -33 -6 -60q0 -60 27 -97q39 -54 125 -54h10q60 0 215 59q16 6 28 -3 t9 -25l-36 -204q-8 -40 -45 -54q-157 -60 -265 -60h-23q-219 -1 -332 139q-85 105 -85 258q0 50 9 105z" />
<glyph unicode="d" d="M120 255q-5 33 -5 67q0 49 11 101l31 178q38 216 168 333t305 117h23q108 0 183 -67l94 485q4 18 17 29t32 11h280q17 1 26 -11q7 -9 7 -20q0 -4 -1 -8l-254 -1445q-5 -25 -30 -25h-259q-13 0 -21.5 8.5t-9.5 21.5l-1 42q-111 -99 -269 -99h-22q-91 0 -158 38t-101 100.5 t-46 143.5zM494 420q-6 -32 -6 -58q0 -102 92 -102h11q57 0 133 35l76 430q-67 39 -121 39h-10q-114 0 -143 -160z" />
<glyph unicode="e" horiz-adv-x="1042" d="M135 476l18 99q20 114 73 206t127.5 150t164.5 89t188 31h23q91 0 166.5 -30.5t128.5 -86.5t74 -144q11 -46 11 -99q0 -47 -9 -98l-23 -134q-1 -11 -9.5 -18t-19.5 -7h-548l-2 -12q-4 -23 -4 -43q0 -54 31 -84q43 -41 127 -41h11q88 0 299 67q15 5 25.5 -4t7.5 -24 l-36 -205q-8 -43 -45 -55q-175 -60 -346 -60h-23q-225 0 -337 138q-83 102 -83 252q0 53 10 113zM533 637h239q8 34 8 60q0 94 -98 94h-6q-106 0 -143 -154z" />
<glyph unicode="f" horiz-adv-x="827" d="M117 -303l185 1051h-110q-17 0 -26.5 11.5t-6.5 27.5l35 196q3 19 16.5 30t32.5 11h107l33 182q28 157 137.5 243.5t285.5 86.5h23q113 0 203 -40q29 -12 29 -46q0 -6 -1 -14l-32 -184q-3 -16 -16 -23t-29 -2q-87 28 -119 28h-10q-43 0 -79 -32t-48 -103l-16 -96h163 q17 0 26.5 -11.5t6.5 -27.5l-38 -213q-5 -24 -29 -24h-178l-188 -1065q-5 -25 -29 -25h-296q-17 0 -26 12q-7 8 -7 19q0 4 1 8z" />
<glyph unicode="g" horiz-adv-x="1085" d="M78 -263l36 205q3 17 16 24.5t29 1.5q87 -33 141.5 -47.5t112.5 -14.5h10q117 0 173.5 41.5t75.5 138.5l8 43q-69 -45 -119 -65.5t-110 -20.5h-22q-89 0 -154.5 37t-98 99.5t-44.5 144.5q-4 31 -4 64q0 52 11 106l19 108q37 220 176 334.5t348 114.5h22 q125 0 240.5 -35.5t201.5 -88.5q25 -15 25 -43q0 -6 -1 -13l-134 -801q-32 -194 -187 -316.5t-370 -122.5h-8q-175 0 -356 48q-20 5 -31 21q-7 12 -7 26q0 5 1 11zM500 487q-6 -36 -6 -63q0 -37 11 -58q20 -36 73 -36h10q58 0 133 35l65 366q-67 39 -120 39h-11 q-56 0 -87.5 -38t-45.5 -118z" />
<glyph unicode="h" horiz-adv-x="1095" d="M72 39l252 1429q3 19 16.5 30t32.5 11h279q17 0 26.5 -11.5t6.5 -27.5l-102 -528q84 62 149.5 85.5t135.5 23.5h27q138 1 217 -91q59 -69 59 -171q0 -34 -6 -71l-122 -693q-5 -25 -30 -25h-296q-17 0 -26 11.5t-6 27.5l107 610q3 19 3 35q0 34 -14 52q-21 28 -75 28h-10 q-62 0 -142 -39l-124 -700q-5 -25 -29 -25h-296q-17 0 -27 12q-7 9 -7 20q0 3 1 7z" />
<glyph unicode="i" horiz-adv-x="487" d="M72 39l167 944q3 19 16.5 30t32.5 11h279q17 0 26.5 -11.5t6.5 -27.5l-170 -960q-5 -25 -29 -25h-296q-17 0 -27 12q-7 9 -7 20q0 3 1 7zM274 1186l43 246q3 19 16.5 30t32.5 11h279q17 1 27 -11q7 -9 6 -21v-7l-43 -246q-3 -19 -16.5 -30t-32.5 -11h-279q-17 -1 -27 11 q-7 9 -7 21q0 3 1 7z" />
<glyph unicode="j" horiz-adv-x="624" d="M-32 -298l33 187q3 15 15 22.5t27 3.5q33 -9 54 -9h10q81 0 98 96l173 981q3 19 16.5 30t32.5 11h277q17 0 26.5 -11.5t6.5 -27.5l-176 -999q-30 -171 -128.5 -263t-252.5 -92h-24q-97 0 -166 28q-23 9 -23 34q0 4 1 9zM413 1186l43 246q3 19 16.5 30t32.5 11h279 q17 0 26 -11q8 -9 8 -21q0 -3 -1 -7l-43 -246q-3 -19 -16.5 -30t-32.5 -11h-279q-17 0 -26 11q-8 9 -8 21q0 3 1 7z" />
<glyph unicode="k" horiz-adv-x="1110" d="M72 39l252 1429q3 19 16.5 30t32.5 11h280q17 0 26 -11.5t6 -27.5l-142 -809h59l229 336q19 27 51 27h312q18 0 26 -14q3 -6 3 -11q0 -8 -7 -17l-315 -445l191 -505q5 -13 -2 -22.5t-20 -9.5h-319q-45 0 -61 43l-128 342h-68l-64 -360q-5 -25 -29 -25h-296q-17 0 -27 12 q-7 9 -7 20q0 3 1 7z" />
<glyph unicode="l" horiz-adv-x="483" d="M72 39l252 1429q3 19 16.5 30t32.5 11h280q17 1 26 -11q7 -9 6 -20v-8l-255 -1445q-5 -25 -29 -25h-296q-17 0 -27 12q-7 9 -7 20q0 3 1 7z" />
<glyph unicode="m" horiz-adv-x="1650" d="M68 39l167 944q3 19 16.5 30t32.5 11h242q13 0 21.5 -8.5t9.5 -21.5l2 -61q89 67 157 92.5t140 25.5h26q85 0 148 -41.5t84 -106.5q103 85 176.5 116.5t151.5 31.5h26q134 0 206 -91q53 -67 53 -166q0 -36 -7 -76l-122 -693q-5 -25 -30 -25h-295q-17 0 -26.5 11.5 t-6.5 27.5l107 610q5 27 5 47q0 27 -8 42q-14 26 -64 26h-11q-55 0 -137 -37q0 -16 -10 -76l-110 -626q-5 -25 -29 -25h-296q-17 0 -26.5 11.5t-6.5 27.5l108 610q5 26 5 46q0 27 -9 43q-15 26 -64 26h-10q-58 0 -134 -35l-124 -704q-5 -25 -29 -25h-296q-17 0 -27 12 q-7 9 -7 20q0 3 1 7z" />
<glyph unicode="n" horiz-adv-x="1079" d="M68 39l167 944q3 19 16.5 30t32.5 11h242q13 0 21.5 -8.5t9.5 -21.5l2 -61q89 67 157 92.5t140 25.5h26q136 1 214 -91q58 -69 58 -170q0 -34 -6 -72l-122 -693q-5 -25 -29 -25h-296q-17 0 -26.5 11.5t-6.5 27.5l108 610q3 21 3 37q-1 33 -13 51q-20 27 -72 27h-10 q-58 0 -134 -35l-124 -704q-5 -25 -29 -25h-296q-17 0 -27 12q-7 9 -7 20q0 3 1 7z" />
<glyph unicode="o" horiz-adv-x="1103" d="M130 450l27 151q19 108 72.5 195t129 142t166.5 84t189 29h23q97 0 181 -33.5t144 -93.5q59 -58 85 -150q15 -53 15 -112q0 -43 -8 -88l-27 -151q-19 -108 -72.5 -195t-129 -142t-166.5 -84t-189 -29h-23q-97 0 -181 33.5t-144 93.5q-59 58 -85 150q-15 53 -15 112 q0 42 8 88zM494 420q-5 -27 -5 -50q-1 -43 17 -69q26 -41 87 -41h10q60 0 100.5 41t54.5 119l33 184q5 27 5 50q0 43 -18 69q-26 41 -86 41h-10q-60 0 -101 -41t-55 -119z" />
<glyph unicode="p" horiz-adv-x="1097" d="M12 -303l227 1286q3 19 16.5 30t32.5 11h242q13 0 21.5 -8.5t9.5 -21.5l1 -42q111 99 269 99h23q72 0 129.5 -24.5t93.5 -67t58.5 -100t24.5 -123.5v-21q0 -56 -8 -114l-31 -178q-38 -215 -169 -332.5t-304 -117.5h-23q-108 0 -183 67l-72 -358q-5 -24 -29 -24h-296 q-17 0 -27 12q-7 8 -7 20q0 3 1 7zM479 299q67 -39 120 -39h10q55 0 92 40.5t51 119.5l32 184q5 30 5 54q0 40 -13 65q-23 41 -78 41h-10q-57 0 -133 -35z" />
<glyph unicode="q" horiz-adv-x="1087" d="M126 423l31 178q38 219 177 334.5t350 115.5h22q124 0 239 -35.5t201 -88.5q25 -16 25 -43q0 -6 -1 -12l-200 -1189q-5 -25 -29 -25h-296q-17 0 -26.5 11.5t-6.5 27.5l64 362q-117 -86 -235 -86h-23q-118 0 -193 65.5t-97 165.5q-12 52 -12 109q0 53 10 110zM494 420 q-6 -34 -6 -60q0 -100 86 -100h10q59 0 134 35l76 436q-67 39 -120 39h-10q-111 0 -137 -160z" />
<glyph unicode="r" horiz-adv-x="763" d="M68 39l167 944q3 19 16.5 30t32.5 11h243q28 0 30 -28l7 -86q62 70 136 105.5t146 35.5h8q18 0 42 -3q12 -1 20 -12q6 -9 6 -19v-6l-49 -276q-2 -13 -11.5 -20t-22.5 -6q-57 6 -88 6h-17q-99 0 -192 -35l-116 -655q-5 -25 -29 -25h-296q-17 0 -27 12q-7 9 -7 20q0 3 1 7z " />
<glyph unicode="s" horiz-adv-x="894" d="M97 77l33 187q3 17 16.5 24.5t29.5 0.5q96 -37 146 -50.5t96 -13.5h10q106 0 117 58l1 4q3 18 -4.5 29t-19 16t-37.5 14l-70 25q-23 8 -42.5 16t-42 19.5t-40 23t-35.5 27.5t-30.5 34t-23 41t-15.5 48.5t-5 57.5t6 67l2 10q14 83 61 149t112 105.5t138 60.5t148 21h20 q138 0 246 -34q20 -7 31 -25q8 -14 8 -30q0 -6 -1 -11l-33 -186q-3 -17 -17 -24.5t-31 -0.5q-84 35 -127 47t-85 12h-2q-94 0 -104 -54l-1 -4q-1 -6 -1 -11t0.5 -9t3 -7.5t4 -6t6 -5.5t7 -4.5t9 -4t9 -3.5t10.5 -4t11 -4l70 -25q45 -16 77.5 -31.5t64 -37t49.5 -46t33 -58.5 q14 -32 14 -69q0 -36 -7 -98l-3 -14q-28 -154 -166.5 -242t-323.5 -88h-12q-152 0 -274 39q-20 6 -30 24q-7 12 -7 28q0 6 1 13z" />
<glyph unicode="t" horiz-adv-x="772" d="M157 786l28 161q6 34 37 43l109 34l32 176q6 37 42 45l304 67q4 1 7 1q10 -1 16 -7q8 -8 6 -21l-45 -261h198q17 0 26 -12q7 -9 6 -19v-8l-37 -213q-5 -24 -30 -24h-212l-71 -400q-3 -16 -2 -28q0 -60 57 -60h10q13 0 124 29q15 4 25.5 -5t8.5 -23l-34 -192 q-5 -29 -33 -40q-138 -56 -216 -56h-23q-154 0 -234 88q-60 66 -59 164q0 32 6 67l80 456h-93q-16 0 -26 11q-7 8 -8 20q0 3 1 7z" />
<glyph unicode="u" horiz-adv-x="1060" d="M111 306l120 677q7 41 48 41h280q17 0 26 -11.5t6 -27.5l-107 -610q-4 -23 -3 -42q0 -29 9 -46q16 -27 62 -27h10q57 0 133 35l124 704q5 25 30 25h295q16 0 26 -12q7 -9 8 -20q0 -4 -1 -7l-169 -960q-5 -25 -29 -25h-259q-13 0 -21.5 8.5t-9.5 21.5l-2 61 q-89 -67 -157 -92.5t-140 -25.5h-27q-135 0 -207 91q-52 66 -52 164q0 37 7 78z" />
<glyph unicode="v" d="M199 974q-1 4 -1 8q0 16 10 28q12 14 34 14h270q20 0 34 -12.5t16 -32.5l36 -305l-2 -375h4l125 375l150 313q18 37 58 37h296q15 0 22 -11q4 -6 3.5 -12t-3.5 -13l-472 -962q-13 -26 -41 -26h-379q-12 0 -19.5 7.5t-9.5 18.5z" />
<glyph unicode="w" horiz-adv-x="1720" d="M199 976v5q1 17 11 29q12 14 32 14h294q28 0 30 -28l30 -396l-19 -281h13l75 281l164 379q19 45 69 45h301q29 0 31 -28l29 -396l-18 -281h12l76 281l166 385q17 39 60 39h301q16 0 22 -10q3 -5 3 -12q0 -6 -3 -13l-451 -962q-13 -27 -42 -27h-335q-12 0 -20 7.5 t-10 19.5l-30 274l-2 356h-20l-122 -356l-130 -275q-12 -26 -42 -26h-335q-12 0 -20 7.5t-10 19.5z" />
<glyph unicode="x" horiz-adv-x="1097" d="M26 14q-3 6 -3 12q0 9 7 18l362 474l-182 474q-5 13 1.5 22.5t20.5 9.5h295q46 0 62 -45l55 -158l17 -133h13l56 133l123 170q24 33 64 33h298q19 0 26 -14q3 -6 3 -12q0 -9 -7 -18l-349 -462l192 -485q5 -13 -2 -23t-21 -10h-303q-46 0 -62 44l-57 161l-18 133h-12 l-56 -133l-127 -173q-23 -32 -64 -32h-306q-19 0 -26 14z" />
<glyph unicode="y" d="M53 -284l36 199q3 16 15 23t28 2q90 -28 144 -28h4q71 0 101 61l13 27h-35q-26 0 -29 26l-131 948q-3 21 9.5 35.5t33.5 14.5h270q20 0 34 -12.5t16 -32.5l36 -305l-2 -375h4l125 375l150 313q18 37 58 37h295q15 0 22 -12q4 -5 4 -12q0 -6 -3 -12l-501 -1030 q-36 -73 -74.5 -127.5t-91.5 -102t-123.5 -72.5t-155.5 -25h-16q-101 0 -204 30q-18 5 -27 21q-6 10 -6 23q0 5 1 11z" />
<glyph unicode="z" horiz-adv-x="888" d="M47 38l27 168q6 41 32 68l421 463h-296q-17 0 -26.5 11.5t-6.5 27.5l37 207q3 19 16.5 30t32.5 11h695q15 0 25 -11q8 -9 8 -22v-5l-27 -168q-6 -41 -32 -68l-421 -463h327q17 0 26.5 -11.5t6.5 -27.5l-40 -223q-5 -25 -29 -25h-743q-16 0 -26 11q-8 9 -7 22v5z" />
<glyph unicode="{" horiz-adv-x="849" d="M127 488l35 196q7 41 48 41h78q39 0 61 22.5t28 54.5l77 436q16 91 78.5 143.5t153.5 52.5h336q17 0 26.5 -11.5t6.5 -27.5l-38 -213q-5 -25 -29 -25h-106q-28 0 -49 -17.5t-26 -45.5l-53 -303q-13 -77 -67.5 -133t-128.5 -71q69 -15 103 -71t21 -133l-54 -303 q-5 -28 10 -46t43 -18h91q17 0 26.5 -11.5t6.5 -27.5l-38 -213q-5 -24 -29 -24h-328q-91 0 -144 65.5t-37 156.5l77 437q4 28 -5.5 39t-37.5 11h-103q-17 0 -26.5 11.5t-6.5 27.5z" />
<glyph unicode="|" horiz-adv-x="583" d="M83 -113l265 1506q3 19 16.5 30t32.5 11h297q17 0 26.5 -11.5t6.5 -27.5l-265 -1506q-3 -19 -16.5 -30t-32.5 -11h-298q-17 0 -26 11.5t-6 27.5z" />
<glyph unicode="}" horiz-adv-x="849" d="M2 -221l38 213q5 24 29 24h106q28 0 49 18t26 46l53 303q13 77 67.5 133t128.5 71q-69 15 -103 71t-21 133l53 303q5 28 -9.5 45.5t-42.5 17.5h-91q-17 0 -26.5 11.5t-6.5 27.5l35 197q7 41 48 41h312q90 0 143.5 -66t37.5 -157l-77 -436q-5 -27 5 -38.5t38 -11.5h103 q17 0 26.5 -11.5t6.5 -27.5l-38 -213q-5 -24 -29 -24h-95q-73 0 -88 -78l-77 -436q-16 -90 -78.5 -142.5t-153.5 -52.5h-336q-17 0 -26.5 11.5t-6.5 27.5z" />
<glyph unicode="~" horiz-adv-x="864" d="M129 456l23 220q3 29 36 46q126 62 202 62q50 0 94 -15.5t70.5 -34.5t62.5 -34.5t73 -15.5q50 0 99.5 18t125.5 55q12 6 21.5 -1t8.5 -20l-23 -222q-3 -29 -28 -41q-124 -65 -211 -65q-48 0 -91 15.5t-70 34.5t-63.5 34.5t-73.5 15.5q-50 0 -99.5 -18t-125.5 -55 q-12 -6 -22 1t-9 20z" />
<glyph unicode="&#xa1;" horiz-adv-x="458" d="M-12 -300l206 861q4 17 17 27t31 10h187q16 0 25 -10.5t7 -25.5l-99 -877q-2 -12 -10 -19.5t-20 -7.5h-311q-17 0 -27 12.5t-6 29.5zM186 776l49 275q7 41 48 41h280q17 0 26 -11.5t6 -27.5l-51 -291q-5 -25 -29 -25h-296q-17 0 -26.5 11.5t-6.5 27.5z" />
<glyph unicode="&#xa2;" horiz-adv-x="907" d="M135 475l17 100q31 187 151 311t298 155l41 229q7 41 48 41h179q17 0 26.5 -11.5t6.5 -27.5l-42 -237q68 -15 131 -41q41 -17 33 -63l-35 -201q-3 -17 -18 -24.5t-31 0.5q-133 58 -191 58h-10q-84 0 -143.5 -53.5t-77.5 -157.5l-14 -82q-18 -103 21 -157t125 -54h10 q60 0 215 59q16 6 28 -3t9 -25l-36 -204q-8 -40 -45 -54q-84 -32 -156 -47l-43 -248q-5 -25 -30 -25h-195q-17 0 -26.5 11.5t-6.5 27.5l42 236q-159 39 -235.5 169.5t-45.5 317.5z" />
<glyph unicode="&#xa3;" horiz-adv-x="1056" d="M86 38l37 236q4 33 25 59q9 11 47.5 57t52 65.5t33.5 61.5t28 86q0 1 0.5 2.5t0.5 2.5h-122q-17 0 -26.5 11.5t-6.5 27.5l23 129q3 19 16.5 30t32.5 11h72q-11 109 4 192l2 12q35 201 193 320t393 119h12q137 0 263 -44q20 -7 30.5 -25.5t6.5 -40.5l-45 -254 q-3 -17 -16.5 -24t-30.5 0q-117 48 -154 56q-34 7 -75 7h-8q-73 0 -127 -47.5t-66 -118.5l-1 -6q-10 -61 -12 -146h256q17 0 26 -11.5t6 -27.5l-22 -129q-3 -19 -16.5 -30t-32.5 -11h-216q-2 -29 -6 -53q-22 -124 -165 -227h495q17 0 26.5 -11.5t6.5 -27.5l-47 -264 q-5 -25 -29 -25h-831q-16 0 -25.5 11t-7.5 27z" />
<glyph unicode="&#xa4;" horiz-adv-x="1292" d="M73 114q-20 23 3 44l212 187q-42 115 -18 252q22 125 96 226l-139 155q-21 24 2 44l160 142q11 10 24 8t22 -13l131 -166q114 58 242 58q131 0 233 -61l214 177q23 18 44 -4l120 -138q20 -23 -3 -44l-212 -187q42 -115 18 -252q-22 -125 -96 -226l139 -155q21 -25 -2 -45 l-160 -141q-11 -10 -24 -8.5t-22 12.5l-131 166q-112 -57 -242 -57q-134 0 -234 60l-213 -176q-23 -18 -43 4zM543 569q-16 -88 31 -145.5t136 -56.5q88 0 155 56.5t84 145.5q14 87 -33.5 144.5t-134.5 56.5q-88 1 -155 -56t-83 -145z" />
<glyph unicode="&#xa5;" horiz-adv-x="1296" d="M202 223l23 129q3 19 16.5 30t32.5 11h256l14 72l-6 18h-250q-17 0 -26.5 11.5t-6.5 27.5l23 129q7 41 48 41h155l-191 698q-5 17 5 30.5t28 13.5h316q37 0 47 -36l93 -345l6 -244h8l84 244l222 351q19 30 54 30h332q17 0 24 -13t-2 -27l-440 -702h149q17 0 26.5 -11.5 t6.5 -27.5l-23 -129q-3 -19 -16.5 -30t-32.5 -11h-241l-11 -18l-14 -72h252q17 0 26.5 -11.5t6.5 -27.5l-23 -129q-7 -41 -48 -41h-252l-30 -160q-5 -24 -29 -24h-316q-17 0 -26.5 11.5t-6.5 27.5l27 145h-257q-17 0 -26.5 11.5t-6.5 27.5z" />
<glyph unicode="&#xa6;" horiz-adv-x="583" d="M83 -113l113 643q3 19 16.5 30t32.5 11h297q17 0 26.5 -11.5t6.5 -27.5l-113 -643q-3 -19 -16.5 -30t-32.5 -11h-298q-17 0 -26 11.5t-6 27.5zM235 750l113 643q3 19 16.5 30t32.5 11h297q17 0 26.5 -11.5t6.5 -27.5l-113 -643q-3 -19 -16.5 -30t-32.5 -11h-298 q-17 0 -26 11.5t-6 27.5z" />
<glyph unicode="&#xa7;" horiz-adv-x="903" d="M119 -94l33 187q3 17 17 24.5t31 0.5q80 -33 124 -46t89 -13h2q43 0 71 14t32 40l1 4q1 6 1 11t-0.5 9t-3 7.5t-4 6t-6 5.5t-7 4.5t-9 4t-9 3.5t-10.5 4t-11 4l-81 29q-38 13 -67.5 27t-59 32t-49 38t-37 46.5t-24.5 56.5t-10 68t7 81l2 15q23 135 137 227 q-54 80 -33 201l2 10q14 83 58.5 146.5t107 101t133.5 56t146 18.5h20q134 0 236 -34q21 -7 30.5 -25t5.5 -40l-32 -187q-3 -17 -17 -24t-31 0q-78 33 -122.5 45.5t-90.5 12.5h-2q-94 0 -103 -53l-1 -4q-6 -32 25 -47q6 -3 34 -13l81 -28q38 -13 67.5 -27t59 -32t49 -38.5 t37 -46.5t24.5 -56.5t10 -68t-7 -81.5l-3 -14q-23 -135 -137 -227q54 -80 33 -201l-2 -10q-14 -83 -58.5 -146.5t-107 -101t-133 -56.5t-145.5 -19h-21q-133 0 -235 34q-21 7 -31 25t-6 40zM433.5 573.5q2.5 -9.5 13 -16t19.5 -10t29 -10.5l129 -47q36 14 43 47l1 4 q3 13 0.5 22.5t-13.5 16t-19.5 10t-29.5 10.5l-129 47q-36 -14 -43 -47v-4q-3 -13 -0.5 -22.5z" />
<glyph unicode="&#xa8;" horiz-adv-x="788" d="M322 1595l49 275q7 41 48 41h226q17 0 26.5 -11.5t6.5 -27.5l-48 -275q-3 -19 -16.5 -30t-32.5 -11h-226q-17 0 -26.5 11.5t-6.5 27.5zM722 1595l48 275q3 19 16.5 30t32.5 11h226q17 0 26.5 -11.5t6.5 -27.5l-49 -275q-3 -19 -16.5 -30t-32.5 -11h-226q-17 0 -26 11.5 t-6 27.5z" />
<glyph unicode="&#xa9;" horiz-adv-x="1187" d="M219 1010q25 144 117 265t226.5 191t279.5 70q156 0 274.5 -78t172.5 -211.5t26 -290.5q-25 -144 -117 -265t-226 -191t-279 -70q-156 0 -275 78t-173 211.5t-26 290.5zM343 983q-31 -177 71.5 -301.5t277.5 -124.5q177 0 322 124.5t177 301.5q31 175 -71 299.5 t-278 124.5q-175 0 -321.5 -124.5t-177.5 -299.5zM524 970l8 47q21 120 96 177.5t180 57.5h11q54 0 128 -26q28 -9 23 -43l-18 -102q-1 -6 -6 -8.5t-11 0.5q-67 32 -103 32h-5q-93 0 -112 -106l-7 -39q-9 -53 11.5 -80t63.5 -27h5q35 0 108 30q8 3 14 -1.5t5 -12.5l-18 -104 q-3 -19 -23 -27q-79 -30 -128 -30h-11q-105 0 -168.5 70.5t-42.5 191.5z" />
<glyph unicode="&#xab;" horiz-adv-x="972" d="M135 520l9 74q3 29 22 48l205 218q15 17 37 17h176q28 0 39 -21.5t-6 -43.5l-187 -255l97 -272q7 -19 -3.5 -33t-30.5 -14h-180q-32 0 -47 26l-120 205q-14 25 -11 51zM570 520l8 74q3 29 22 48l205 218q15 17 37 17h177q28 0 38.5 -21.5t-6.5 -43.5l-187 -255l97 -272 q7 -19 -3.5 -33t-30.5 -14h-180q-31 0 -46 26l-120 205q-14 25 -11 51z" />
<glyph unicode="&#xac;" horiz-adv-x="1032" d="M134 526l34 197q3 19 16.5 30t32.5 11h869q17 0 26.5 -11.5t6.5 -27.5l-70 -395q-7 -41 -48 -41h-206q-17 0 -26.5 11.5t-6.5 27.5l28 159h-623q-17 0 -26.5 11.5t-6.5 27.5z" />
<glyph unicode="&#xad;" horiz-adv-x="720" d="M134 526l34 197q3 19 16.5 30t32.5 11h558q17 0 26.5 -11.5t6.5 -27.5l-38 -213q-5 -25 -29 -25h-574q-17 0 -26.5 11.5t-6.5 27.5z" />
<glyph unicode="&#xae;" horiz-adv-x="1187" d="M219 1010q25 144 117 265t226.5 191t279.5 70q156 0 274.5 -78t172.5 -211.5t26 -290.5q-25 -144 -117 -265t-226 -191t-279 -70q-156 0 -275 78t-173 211.5t-26 290.5zM343 983q-31 -177 71.5 -301.5t277.5 -124.5q177 0 322 124.5t177 301.5q31 175 -71 299.5 t-278 124.5q-175 0 -321.5 -124.5t-177.5 -299.5zM504 765l77 438q3 19 16.5 30t32.5 11h217q94 0 141.5 -56t32.5 -137l-1 -6q-16 -94 -103 -126l22 -50l39 -111q5 -13 -2 -22.5t-20 -9.5h-124q-33 0 -45 33l-44 134h-35l-25 -142q-5 -25 -29 -25h-117q-17 0 -26.5 11.5 t-6.5 27.5zM729 1014h47q51 0 59 41l1 8q4 20 -8 30.5t-36 10.5h-47z" />
<glyph unicode="&#xaf;" horiz-adv-x="612" d="M322 1595l31 172q7 41 48 41h450q17 0 26 -11.5t6 -27.5l-30 -172q-3 -19 -16.5 -30t-32.5 -11h-449q-17 0 -26.5 11.5t-6.5 27.5z" />
<glyph unicode="&#xb0;" horiz-adv-x="606" d="M270 1301q17 99 98.5 167t182.5 68q118 0 186.5 -85t47.5 -204q-17 -98 -99 -166.5t-182 -68.5q-117 0 -186 85.5t-48 203.5zM450 1274q-6 -32 13 -54t51 -22t59 22t33 54t-13.5 55t-51.5 23t-58.5 -23t-32.5 -55z" />
<glyph unicode="&#xb1;" horiz-adv-x="1032" d="M58 94l22 129q3 19 16.5 30t32.5 11h869q17 0 26.5 -11.5t6.5 -27.5l-23 -129q-3 -19 -16.5 -30t-32.5 -11h-869q-17 0 -26 11.5t-6 27.5zM144 582l34 196q3 19 16.5 30t32.5 11h294l29 164q3 19 16.5 30t32.5 11h199q17 0 26.5 -11.5t6.5 -27.5l-30 -166h295 q17 0 26.5 -11.5t6.5 -27.5l-35 -196q-3 -19 -16.5 -30t-32.5 -11h-293l-30 -164q-7 -41 -48 -41h-200q-17 0 -26.5 11.5t-6.5 27.5l30 166h-295q-17 0 -26 11.5t-6 27.5z" />
<glyph unicode="&#xb4;" horiz-adv-x="557" d="M325 1567.5q-6 11.5 2 22.5l198 290q22 31 59 31h236q16 0 21.5 -13t-4.5 -25l-254 -293q-19 -24 -53 -24h-185q-14 0 -20 11.5z" />
<glyph unicode="&#xb6;" horiz-adv-x="1153" d="M220.5 858q-12.5 80 5.5 193q68 383 421 383h617q17 0 26.5 -11.5t6.5 -27.5l-302 -1712q-5 -25 -30 -25h-197q-17 0 -26.5 11.5t-6.5 27.5l273 1550h-120l-276 -1564q-5 -25 -30 -25h-197q-16 0 -25.5 11.5t-6.5 28.5l175 933q-83 0 -145.5 23t-106 73.5t-56 130.5z" />
<glyph unicode="&#xb7;" horiz-adv-x="442" d="M125 477l48 275q3 19 16.5 30t32.5 11h280q17 0 26 -11.5t6 -27.5l-51 -291q-5 -25 -29 -25h-296q-17 0 -26.5 11.5t-6.5 27.5z" />
<glyph unicode="&#xb8;" horiz-adv-x="497" d="M-26 -365l11 58q3 20 23 13q53 -19 115 -19q69 0 77 43q3 19 -9.5 30t-40.5 11q-25 0 -72 -16q-9 -2 -13 0l-19 9q-9 4 -5 13l86 223h168l-34 -89q1 0 7 0.5t9 0.5q65 0 105 -53.5t26 -137.5q-14 -78 -78 -119.5t-164 -41.5q-97 0 -172 35q-25 12 -20 40z" />
<glyph unicode="&#xbb;" horiz-adv-x="972" d="M111 259q-11 21 6 43l187 255l-96 272q-7 19 3 33.5t30 14.5h181q30 0 46 -27l123 -209q12 -22 9 -41l-10 -85q-3 -24 -17 -39l-209 -222q-15 -16 -38 -16h-176q-28 0 -39 21zM545.5 259q-10.5 21 6.5 43l187 255l-97 272q-7 19 3.5 33.5t30.5 14.5h180q30 0 46 -27 l123 -209q12 -22 9 -41l-9 -85q-3 -23 -18 -39l-209 -222q-15 -16 -37 -16h-177q-28 0 -38.5 21z" />
<glyph unicode="&#xbc;" horiz-adv-x="1957" d="M164 700l33 183q5 24 29 24h145l43 240l-142 -38q-14 -4 -23 5t-7 23l26 154q8 46 51 58l260 79q21 6 41 6h74q17 0 26.5 -11.5t6.5 -27.5l-86 -488h114q17 0 26.5 -11.5t6.5 -27.5l-32 -182q-5 -25 -29 -25h-530q-17 0 -26.5 11.5t-6.5 27.5zM474 13.5q-7 13.5 2 27.5 l879 1352q27 41 75 41h174q17 0 24 -13.5t-2 -27.5l-879 -1352q-27 -41 -75 -41h-174q-17 0 -24 13.5zM1195 200l21 138q3 21 16 37l286 370q21 27 55 27h288q17 0 26 -11.5t6 -27.5l-61 -350h114q17 0 26 -11.5t6 -27.5l-27 -158q-5 -24 -30 -24h-128l-25 -137 q-5 -25 -29 -25h-206q-17 0 -26 11.5t-6 27.5l21 123h-295q-16 0 -25 11t-7 27zM1463 383h98l36 180z" />
<glyph unicode="&#xbd;" horiz-adv-x="1806" d="M164 700l33 183q5 24 29 24h145l43 240l-142 -38q-14 -4 -23 5t-7 23l26 154q8 46 51 58l260 79q21 6 41 6h74q17 0 26.5 -11.5t6.5 -27.5l-86 -488h114q17 0 26.5 -11.5t6.5 -27.5l-32 -182q-5 -25 -29 -25h-530q-17 0 -26.5 11.5t-6.5 27.5zM474 13.5q-7 13.5 2 27.5 l879 1352q27 41 75 41h174q17 0 24 -13.5t-2 -27.5l-879 -1352q-27 -41 -75 -41h-174q-17 0 -24 13.5zM1167 39l22 127q6 36 37 56l234 157q51 34 72 59.5t26 55.5l1 4q6 32 -12 50.5t-57 18.5h-7q-16 0 -35.5 -3.5t-34 -7t-48 -13t-55.5 -15.5q-14 -4 -23.5 5t-7.5 23 l29 167q6 37 43 45q132 31 203 31h6q149 0 228 -77.5t57 -202.5l-1 -8q-5 -28 -14.5 -52.5t-27.5 -48t-30 -38.5t-39 -36.5t-36.5 -29t-40 -28t-33.5 -22.5l-15 -10h162q17 0 26.5 -11.5t6.5 -27.5l-33 -182q-5 -25 -29 -25h-541q-17 0 -26.5 11.5t-6.5 27.5z" />
<glyph unicode="&#xbe;" horiz-adv-x="1943" d="M179 712l29 168q2 10 10 15t18 2q19 -5 55.5 -16.5t50 -15t34 -7t37.5 -3.5h6q82 0 91 53l1 6q3 22 -9 33.5t-44 11.5h-71q-17 0 -26.5 11.5t-6.5 27.5l21 117q5 24 29 24h74q62 0 73 51l1 7q3 23 -12 36t-47 13h-6q-14 0 -33 -3.5t-33.5 -7t-49.5 -13t-57 -15.5 q-14 -4 -24 4.5t-8 22.5l27 154q6 34 39 43q107 30 195 30h6q143 0 221 -72t59 -181l-1 -9q-17 -98 -127 -158q42 -19 68.5 -65t16.5 -106l-1 -9q-19 -108 -113 -167t-250 -59h-6q-83 0 -207 30q-16 4 -24.5 17t-5.5 30zM460 13.5q-7 13.5 2 27.5l879 1352q27 41 75 41h174 q17 0 24 -13.5t-2 -27.5l-879 -1352q-27 -41 -75 -41h-174q-17 0 -24 13.5zM1180 200l22 138q3 23 15 37l287 370q21 27 55 27h287q17 0 26.5 -11.5t6.5 -27.5l-62 -350h114q17 0 26.5 -11.5t6.5 -27.5l-28 -158q-5 -24 -29 -24h-129l-24 -137q-5 -25 -29 -25h-206 q-17 0 -26.5 11.5t-6.5 27.5l22 123h-295q-16 0 -25.5 11t-7.5 27zM1449 383h98l36 180z" />
<glyph unicode="&#xbf;" horiz-adv-x="1021" d="M54 75l3 14q30 173 147 276.5t286 103.5q48 0 111 -13l38 122q7 20 27 20h205q15 0 24.5 -10.5t7.5 -25.5l-27 -251q-1 -19 -17 -33l-49 -42q-18 -16 -40 -13q-89 10 -117 10q-92 0 -143.5 -34.5t-61.5 -92.5l-1 -6q-13 -74 33 -107.5t143 -33.5h10q60 0 118.5 12.5 t175.5 46.5q23 7 38 -6t11 -35l-44 -251q-7 -34 -37 -43q-172 -52 -330 -52h-12q-162 0 -283 51.5t-180.5 153.5t-35.5 239zM628 776l49 275q3 19 16.5 30t32.5 11h279q17 0 26.5 -11.5t6.5 -27.5l-52 -291q-5 -25 -29 -25h-296q-17 0 -26.5 11.5t-6.5 27.5z" />
<glyph unicode="&#xc0;" horiz-adv-x="1361" d="M45 33l596 1372q5 11 17 20t26 9h496q12 0 20 -8.5t10 -20.5l111 -1370q3 -18 -7.5 -26.5t-23.5 -8.5h-317q-14 0 -22.5 10t-8.5 19l-18 272h-375l-115 -272q-5 -12 -17 -20.5t-26 -8.5h-323q-14 0 -21 10.5t-2 22.5zM663 1882q-5 11 0.5 20t17.5 9h232q41 0 54 -39 l96 -291q3 -10 -2.5 -17.5t-15.5 -7.5h-181q-33 0 -49 30zM685 629h218l-7 137l-5 367h-17l-130 -367z" />
<glyph unicode="&#xc1;" horiz-adv-x="1361" d="M45 33l596 1372q5 11 17 20t26 9h496q12 0 20 -8.5t10 -20.5l111 -1370q3 -18 -7.5 -26.5t-23.5 -8.5h-317q-14 0 -22.5 10t-8.5 19l-18 272h-375l-115 -272q-5 -12 -17 -20.5t-26 -8.5h-323q-14 0 -21 10.5t-2 22.5zM685 629h218l-7 137l-5 367h-17l-130 -367z M841.5 1567.5q-5.5 11.5 2.5 22.5l198 290q22 31 59 31h236q16 0 21.5 -13t-4.5 -25l-255 -293q-19 -24 -52 -24h-186q-14 0 -19.5 11.5z" />
<glyph unicode="&#xc2;" horiz-adv-x="1361" d="M45 33l596 1372q5 11 17 20t26 9h496q12 0 20 -8.5t10 -20.5l111 -1370q3 -18 -7.5 -26.5t-23.5 -8.5h-317q-14 0 -22.5 10t-8.5 19l-18 272h-375l-115 -272q-5 -12 -17 -20.5t-26 -8.5h-323q-14 0 -21 10.5t-2 22.5zM622.5 1569q-5.5 13 4.5 25l260 299q15 18 39 18h163 q32 0 48 -30l153 -295q5 -11 -0.5 -20.5t-17.5 -9.5h-212q-29 0 -37 28l-35 116l-87 -121q-16 -23 -43 -23h-214q-16 0 -21.5 13zM685 629h218l-7 137l-5 367h-17l-130 -367z" />
<glyph unicode="&#xc3;" horiz-adv-x="1361" d="M45 33l596 1372q5 11 17 20t26 9h496q12 0 20 -8.5t10 -20.5l111 -1370q3 -18 -7.5 -26.5t-23.5 -8.5h-317q-14 0 -22.5 10t-8.5 19l-18 272h-375l-115 -272q-5 -12 -17 -20.5t-26 -8.5h-323q-14 0 -21 10.5t-2 22.5zM657 1573q-5 10 1 21q86 160 145 216t133 56h9 q40 0 68 -19.5t49.5 -39t46.5 -19.5q27 0 67 37q14 14 36 14h95q13 0 18 -10t-1 -21q-86 -160 -145 -216t-133 -56h-8q-25 0 -45 8t-32.5 19.5t-24 23t-27 19.5t-35.5 8t-34 -8.5t-34 -28.5q-14 -14 -36 -14h-95q-13 0 -18 10zM685 629h218l-7 137l-5 367h-17l-130 -367z " />
<glyph unicode="&#xc4;" horiz-adv-x="1361" d="M45 33l596 1372q5 11 17 20t26 9h496q12 0 20 -8.5t10 -20.5l111 -1370q3 -18 -7.5 -26.5t-23.5 -8.5h-317q-14 0 -22.5 10t-8.5 19l-18 272h-375l-115 -272q-5 -12 -17 -20.5t-26 -8.5h-323q-14 0 -21 10.5t-2 22.5zM608 1595l48 275q3 19 16.5 30t32.5 11h226 q17 0 26.5 -11.5t6.5 -27.5l-48 -275q-3 -19 -16.5 -30t-32.5 -11h-226q-17 0 -26.5 11.5t-6.5 27.5zM685 629h218l-7 137l-5 367h-17l-130 -367zM1007 1595l49 275q3 19 16.5 30t32.5 11h226q17 0 26 -11.5t6 -27.5l-48 -275q-3 -19 -16.5 -30t-32.5 -11h-226 q-17 0 -26.5 11.5t-6.5 27.5z" />
<glyph unicode="&#xc5;" horiz-adv-x="1361" d="M45 33l596 1372q5 11 17 20t26 9h496q12 0 20 -8.5t10 -20.5l111 -1370q3 -18 -7.5 -26.5t-23.5 -8.5h-317q-14 0 -22.5 10t-8.5 19l-18 272h-375l-115 -272q-5 -12 -17 -20.5t-26 -8.5h-323q-14 0 -21 10.5t-2 22.5zM685 629h218l-7 137l-5 367h-17l-130 -367zM779 1754 q14 76 77.5 128.5t142.5 52.5q95 0 151 -70t39 -166q-13 -77 -76.5 -130t-141.5 -53q-96 0 -152.5 70t-39.5 168zM932 1726q-4 -22 9 -37.5t35 -15.5t39.5 15.5t21.5 37.5t-8.5 37t-34.5 15t-40 -15t-22 -37z" />
<glyph unicode="&#xc6;" horiz-adv-x="1679" d="M45 33l596 1372q5 11 17 20t26 9h1158q17 0 26 -11.5t6 -27.5l-46 -265q-5 -24 -29 -24h-537l-38 -215h461q17 0 26 -11.5t6 -27.5l-46 -264q-5 -25 -30 -25h-474l-42 -235h522q17 0 26 -11.5t6 -27.5l-46 -264q-5 -25 -29 -25h-876q-17 0 -26.5 11.5t-6.5 27.5l47 262 h-193l-115 -272q-5 -12 -17 -20.5t-26 -8.5h-323q-14 0 -21 10.5t-2 22.5zM685 629h114l89 504h-14l-130 -367z" />
<glyph unicode="&#xc7;" horiz-adv-x="1142" d="M204 392q-19 112 3 253l29 172q25 151 96.5 274.5t171 203t218 122.5t243.5 43h31q176 0 302 -55q39 -18 31 -61l-44 -245q-3 -17 -17 -24.5t-31 -0.5q-79 34 -129.5 46.5t-117.5 12.5h-8q-139 0 -236 -88.5t-123 -239.5l-31 -176q-26 -151 39 -239.5t204 -88.5h9 q68 0 123.5 13t147.5 47q16 6 27 -3t8 -25l-43 -243q-8 -45 -46 -60q-140 -57 -304 -57l-24 -62q1 0 7.5 0.5t9.5 0.5q65 0 104.5 -53.5t25.5 -137.5q-14 -78 -77.5 -119.5t-163.5 -41.5q-98 0 -173 35q-24 11 -19 40l10 58q3 20 24 13q53 -19 114 -19q69 0 77 43 q3 19 -9.5 30t-40.5 11q-25 0 -72 -16q-9 -2 -13 0l-19 9q-9 4 -5 13l81 210q-100 21 -180 73.5t-135.5 136t-74.5 195.5z" />
<glyph unicode="&#xc8;" d="M109 39l239 1354q3 19 16.5 30t32.5 11h859q17 0 26 -11.5t6 -27.5l-46 -265q-5 -24 -30 -24h-536l-38 -215h460q17 0 26.5 -11.5t6.5 -27.5l-46 -264q-5 -25 -30 -25h-474l-42 -235h522q17 0 26 -11.5t6 -27.5l-46 -264q-5 -25 -29 -25h-876q-17 0 -26.5 11.5t-6.5 27.5 zM580 1882q-5 11 0.5 20t17.5 9h232q41 0 54 -39l96 -291q3 -10 -2.5 -17.5t-15.5 -7.5h-181q-33 0 -49 30z" />
<glyph unicode="&#xc9;" d="M109 39l239 1354q3 19 16.5 30t32.5 11h859q17 0 26 -11.5t6 -27.5l-46 -265q-5 -24 -30 -24h-536l-38 -215h460q17 0 26.5 -11.5t6.5 -27.5l-46 -264q-5 -25 -30 -25h-474l-42 -235h522q17 0 26 -11.5t6 -27.5l-46 -264q-5 -25 -30 -25h-875q-17 0 -26.5 11.5t-6.5 27.5 zM704 1567.5q-6 11.5 2 22.5l198 290q22 31 59 31h236q16 0 21.5 -13t-4.5 -25l-254 -293q-20 -24 -53 -24h-185q-14 0 -20 11.5z" />
<glyph unicode="&#xca;" d="M109 39l239 1354q3 19 16.5 30t32.5 11h859q17 0 26 -11.5t6 -27.5l-46 -265q-5 -24 -30 -24h-536l-38 -215h460q17 0 26.5 -11.5t6.5 -27.5l-46 -264q-5 -25 -30 -25h-474l-42 -235h522q17 0 26 -11.5t6 -27.5l-46 -264q-5 -25 -30 -25h-875q-17 0 -26.5 11.5t-6.5 27.5 zM489.5 1569q-5.5 13 4.5 25l260 299q15 18 39 18h162q33 0 49 -30l153 -295q5 -11 -0.5 -20.5t-17.5 -9.5h-213q-28 0 -36 28l-36 116l-86 -121q-16 -23 -43 -23h-214q-16 0 -21.5 13z" />
<glyph unicode="&#xcb;" d="M109 39l239 1354q3 19 16.5 30t32.5 11h859q17 0 26 -11.5t6 -27.5l-46 -265q-5 -24 -30 -24h-536l-38 -215h460q17 0 26.5 -11.5t6.5 -27.5l-46 -264q-5 -25 -30 -25h-474l-42 -235h522q17 0 26 -11.5t6 -27.5l-46 -264q-5 -25 -30 -25h-875q-17 0 -26.5 11.5t-6.5 27.5 zM475 1595l48 275q3 19 16.5 30t32.5 11h226q17 0 26.5 -11.5t6.5 -27.5l-49 -275q-7 -41 -48 -41h-226q-17 0 -26.5 11.5t-6.5 27.5zM874 1595l49 275q7 41 48 41h226q17 0 26.5 -11.5t6.5 -27.5l-48 -275q-3 -19 -16.5 -30t-32.5 -11h-226q-17 0 -26.5 11.5t-6.5 27.5z " />
<glyph unicode="&#xcc;" horiz-adv-x="583" d="M109 39l239 1354q3 19 16.5 30t32.5 11h297q17 0 26.5 -11.5t6.5 -27.5l-241 -1370q-5 -25 -30 -25h-314q-17 0 -26.5 11.5t-6.5 27.5zM285 1882q-5 11 0 20t17 9h233q41 0 54 -39l96 -291q3 -10 -2.5 -17.5t-15.5 -7.5h-181q-33 0 -49 30z" />
<glyph unicode="&#xcd;" horiz-adv-x="583" d="M109 39l239 1354q3 19 16.5 30t32.5 11h297q17 0 26.5 -11.5t6.5 -27.5l-241 -1370q-5 -25 -30 -25h-314q-17 0 -26.5 11.5t-6.5 27.5zM448 1567.5q-6 11.5 2 22.5l198 290q22 31 59 31h236q16 0 21.5 -13t-4.5 -25l-254 -293q-20 -24 -53 -24h-185q-14 0 -20 11.5z" />
<glyph unicode="&#xce;" horiz-adv-x="583" d="M109 39l239 1354q3 19 16.5 30t32.5 11h297q17 0 26.5 -11.5t6.5 -27.5l-241 -1370q-5 -25 -30 -25h-314q-17 0 -26.5 11.5t-6.5 27.5zM235.5 1569q-5.5 13 4.5 25l260 299q15 18 39 18h162q33 0 49 -30l153 -295q5 -11 -0.5 -20.5t-17.5 -9.5h-213q-28 0 -36 28l-36 116 l-86 -121q-16 -23 -43 -23h-214q-16 0 -21.5 13z" />
<glyph unicode="&#xcf;" horiz-adv-x="583" d="M109 39l239 1354q3 19 16.5 30t32.5 11h297q17 0 26.5 -11.5t6.5 -27.5l-241 -1370q-5 -25 -30 -25h-314q-17 0 -26.5 11.5t-6.5 27.5zM221 1595l48 275q3 19 16.5 30t32.5 11h226q17 0 26.5 -11.5t6.5 -27.5l-49 -275q-7 -41 -48 -41h-226q-17 0 -26.5 11.5t-6.5 27.5z M620 1595l49 275q7 41 48 41h226q17 0 26.5 -11.5t6.5 -27.5l-48 -275q-3 -19 -16.5 -30t-32.5 -11h-226q-17 0 -26.5 11.5t-6.5 27.5z" />
<glyph unicode="&#xd0;" horiz-adv-x="1318" d="M109 39l87 489h-22q-17 0 -26.5 11.5t-6.5 27.5l35 197q7 41 48 41h20l104 588q3 19 16.5 30t32.5 11h481q123 0 223 -39.5t170.5 -119.5t96 -199.5t-0.5 -280.5l-32 -184q-27 -156 -93 -275.5t-158.5 -191.5t-202 -108t-233.5 -36h-506q-17 0 -26.5 11.5t-6.5 27.5z M539 328h109q136 0 207.5 71t98.5 224l33 188q27 153 -19.5 224t-182.5 71h-109l-53 -301h159q17 0 26.5 -11.5t6.5 -27.5l-35 -197q-7 -41 -48 -41h-158z" />
<glyph unicode="&#xd1;" horiz-adv-x="1384" d="M105 39l239 1354q3 19 16.5 30t32.5 11h335q33 0 45 -33l180 -553l61 -266h34l10 266l98 561q5 25 29 25h314q17 0 26.5 -11.5t6.5 -27.5l-242 -1370q-5 -25 -29 -25h-352q-33 0 -45 33l-180 553l-61 266h-34l-10 -266l-98 -561q-5 -25 -29 -25h-314q-17 0 -26.5 11.5 t-6.5 27.5zM669 1573q-5 10 1 21q86 160 145.5 216t133.5 56h8q40 0 68 -19.5t49.5 -39t46.5 -19.5q28 0 68 37q14 14 35 14h96q13 0 18 -10t-1 -21q-86 -160 -145.5 -216t-133.5 -56h-8q-25 0 -45 8t-32.5 19.5t-24 23t-27 19.5t-35.5 8t-34 -8.5t-34 -28.5 q-14 -14 -36 -14h-95q-13 0 -18 10z" />
<glyph unicode="&#xd2;" horiz-adv-x="1386" d="M191.5 375.5q-15.5 98.5 5.5 219.5l48 271q26 146 93.5 262t160.5 187t201.5 108t223.5 37h31q91 0 173 -26t149 -77t111 -126t59.5 -173.5t-5.5 -219.5l-47 -270q-26 -146 -93.5 -262t-161 -187.5t-202 -108.5t-223.5 -37h-30q-91 0 -173 26t-149 77t-111.5 126 t-60 173.5zM577 545q-21 -116 20.5 -180t141.5 -64h15q100 0 163 64t84 180l61 344q20 115 -21 179.5t-141 64.5h-14q-100 0 -164 -65t-84 -179zM691 1882q-5 11 0.5 20t17.5 9h232q41 0 54 -39l96 -291q3 -10 -2.5 -17.5t-15.5 -7.5h-181q-33 0 -49 30z" />
<glyph unicode="&#xd3;" horiz-adv-x="1386" d="M191.5 375.5q-15.5 98.5 5.5 219.5l48 271q26 146 93.5 262t160.5 187t201.5 108t223.5 37h31q91 0 173 -26t149 -77t111 -126t59.5 -173.5t-5.5 -219.5l-48 -270q-26 -146 -93.5 -262t-160.5 -187.5t-201.5 -108.5t-223.5 -37h-30q-91 0 -173 26t-149 77t-111.5 126 t-60 173.5zM577 545q-21 -116 20.5 -180t141.5 -64h15q100 0 163 64t84 180l61 344q20 115 -21 179.5t-141 64.5h-14q-100 0 -164 -65t-84 -179zM859.5 1567.5q-5.5 11.5 2.5 22.5l198 290q22 31 59 31h236q16 0 21.5 -13t-4.5 -25l-255 -293q-19 -24 -52 -24h-186 q-14 0 -19.5 11.5z" />
<glyph unicode="&#xd4;" horiz-adv-x="1386" d="M191.5 375.5q-15.5 98.5 5.5 219.5l48 271q26 146 93.5 262t160.5 187t201.5 108t223.5 37h31q91 0 173 -26t149 -77t111 -126t59.5 -173.5t-5.5 -219.5l-48 -270q-26 -146 -93.5 -262t-160.5 -187.5t-201.5 -108.5t-223.5 -37h-30q-91 0 -173 26t-149 77t-111.5 126 t-60 173.5zM577 545q-21 -116 20.5 -180t141.5 -64h14q100 0 163.5 64t84.5 180l61 344q20 115 -21 179.5t-141 64.5h-14q-100 0 -164 -65t-84 -179zM637 1569q-6 13 4 25l260 299q15 18 39 18h163q33 0 49 -30l152 -295q5 -11 -0.5 -20.5t-17.5 -9.5h-212q-29 0 -37 28 l-35 116l-86 -121q-16 -23 -44 -23h-213q-16 0 -22 13z" />
<glyph unicode="&#xd5;" horiz-adv-x="1386" d="M191.5 375.5q-15.5 98.5 5.5 219.5l48 271q26 146 93.5 262t160.5 187t201.5 108t223.5 37h31q91 0 173 -26t149 -77t111 -126t59.5 -173.5t-5.5 -219.5l-47 -270q-26 -146 -93.5 -262t-161 -187.5t-202 -108.5t-223.5 -37h-30q-91 0 -173 26t-149 77t-111.5 126 t-60 173.5zM577 545q-21 -116 20.5 -180t141.5 -64h14q100 0 163.5 64t84.5 180l61 344q20 115 -21 179.5t-141 64.5h-14q-100 0 -164 -65t-84 -179zM671.5 1573q-4.5 10 1.5 21q86 160 145 216t133 56h8q40 0 68 -19.5t49.5 -39t46.5 -19.5q28 0 68 37q14 14 35 14h96 q13 0 18 -10t-1 -21q-86 -160 -145 -216t-133 -56h-9q-25 0 -45 8t-32.5 19.5t-24 23t-27 19.5t-35.5 8t-34 -8.5t-34 -28.5q-14 -14 -36 -14h-95q-13 0 -17.5 10z" />
<glyph unicode="&#xd6;" horiz-adv-x="1386" d="M191.5 375.5q-15.5 98.5 5.5 219.5l48 271q26 146 93.5 262t160.5 187t201.5 108t223.5 37h31q91 0 173 -26t149 -77t111 -126t59.5 -173.5t-5.5 -219.5l-47 -270q-26 -146 -93.5 -262t-161 -187.5t-202 -108.5t-223.5 -37h-30q-91 0 -173 26t-149 77t-111.5 126 t-60 173.5zM577 545q-21 -116 20.5 -180t141.5 -64h14q100 0 163.5 64t84.5 180l61 344q20 115 -21 179.5t-141 64.5h-14q-100 0 -164 -65t-84 -179zM622 1595l49 275q7 41 48 41h227q17 0 26 -11.5t6 -27.5l-48 -275q-3 -19 -16.5 -30t-32.5 -11h-226q-17 0 -26.5 11.5 t-6.5 27.5zM1022 1595l48 275q3 19 16.5 30t32.5 11h226q17 0 26.5 -11.5t6.5 -27.5l-49 -275q-3 -19 -16.5 -30t-32.5 -11h-226q-17 0 -26 11.5t-6 27.5z" />
<glyph unicode="&#xd7;" horiz-adv-x="927" d="M110 372q1 13 11 22l256 217l-178 215q-18 23 4 43l174 154q10 9 23.5 8.5t22.5 -11.5l176 -214l256 218q23 20 43 -3l129 -148q9 -11 8 -23.5t-12 -21.5l-256 -217l177 -214q19 -24 -3 -44l-176 -153q-11 -9 -23.5 -8t-21.5 12l-175 212l-256 -217q-24 -20 -44 3 l-127 147q-9 10 -8 23z" />
<glyph unicode="&#xd8;" horiz-adv-x="1386" d="M72.5 12.5q-5.5 12.5 4.5 24.5l161 190q-78 155 -41 368l48 271q26 146 93.5 262t160.5 187t201.5 108t223.5 37h31q149 0 268 -67l13 16q22 25 53 25h256q16 0 21.5 -12.5t-4.5 -24.5l-160 -191q77 -156 40 -368l-48 -270q-26 -146 -93.5 -262t-160.5 -187.5 t-201.5 -108.5t-223.5 -37h-30q-148 0 -267 67l-13 -15q-22 -25 -53 -25h-258q-16 0 -21.5 12.5zM596 651l392 464q-36 18 -88 18h-14q-100 0 -164 -65t-84 -179zM653 318q37 -17 86 -17h14q100 0 163.5 64t84.5 180l42 236z" />
<glyph unicode="&#xd9;" horiz-adv-x="1345" d="M193 338.5q-15 94.5 7 215.5l148 839q3 19 16.5 30t32.5 11h308q17 0 26 -11.5t6 -27.5l-153 -871q-20 -109 15 -166t122 -57h14q176 0 216 223l153 869q7 41 48 41h308q17 0 26.5 -11.5t6.5 -27.5l-153 -868q-26 -146 -88.5 -255.5t-150.5 -173.5t-189 -94.5t-215 -30.5 h-31q-90 0 -168 21.5t-143 66.5t-106 114t-56 163.5zM665 1882q-5 11 0 20t17 9h233q41 0 54 -39l96 -291q3 -10 -2.5 -17.5t-15.5 -7.5h-181q-33 0 -49 30z" />
<glyph unicode="&#xda;" horiz-adv-x="1345" d="M193 338.5q-15 94.5 7 215.5l148 839q3 19 16.5 30t32.5 11h308q17 0 26 -11.5t6 -27.5l-153 -871q-20 -109 15 -166t122 -57h14q176 0 216 223l153 869q7 41 48 41h308q17 0 26.5 -11.5t6.5 -27.5l-153 -868q-26 -146 -88.5 -255.5t-150.5 -173.5t-189 -94.5t-215 -30.5 h-31q-90 0 -168 21.5t-143 66.5t-106 114t-56 163.5zM840.5 1567.5q-5.5 11.5 2.5 22.5l198 290q22 31 59 31h236q16 0 21.5 -13t-4.5 -25l-254 -293q-19 -24 -53 -24h-186q-14 0 -19.5 11.5z" />
<glyph unicode="&#xdb;" horiz-adv-x="1345" d="M193 338.5q-15 94.5 7 215.5l148 839q3 19 16.5 30t32.5 11h308q17 0 26 -11.5t6 -27.5l-153 -871q-20 -109 15 -166t122 -57h14q176 0 216 223l153 869q7 41 48 41h308q17 0 26.5 -11.5t6.5 -27.5l-153 -868q-26 -146 -88.5 -255.5t-150.5 -173.5t-189 -94.5t-215 -30.5 h-31q-90 0 -168 21.5t-143 66.5t-106 114t-56 163.5zM616.5 1569q-5.5 13 4.5 25l260 299q15 18 39 18h162q33 0 49 -30l153 -295q5 -11 -0.5 -20.5t-17.5 -9.5h-213q-28 0 -36 28l-36 116l-86 -121q-16 -23 -43 -23h-214q-16 0 -21.5 13z" />
<glyph unicode="&#xdc;" horiz-adv-x="1345" d="M193 338.5q-15 94.5 7 215.5l148 839q3 19 16.5 30t32.5 11h308q17 0 26 -11.5t6 -27.5l-153 -871q-20 -109 15 -166t122 -57h14q176 0 216 223l153 869q7 41 48 41h308q17 0 26.5 -11.5t6.5 -27.5l-153 -868q-26 -146 -88.5 -255.5t-150.5 -173.5t-189 -94.5t-215 -30.5 h-31q-90 0 -168 21.5t-143 66.5t-106 114t-56 163.5zM602 1595l48 275q3 19 16.5 30t32.5 11h226q17 0 26.5 -11.5t6.5 -27.5l-49 -275q-7 -41 -48 -41h-226q-17 0 -26.5 11.5t-6.5 27.5zM1001 1595l49 275q7 41 48 41h226q17 0 26.5 -11.5t6.5 -27.5l-48 -275 q-3 -19 -16.5 -30t-32.5 -11h-226q-17 0 -26.5 11.5t-6.5 27.5z" />
<glyph unicode="&#xdd;" horiz-adv-x="1296" d="M290 1390q-5 17 5 30.5t28 13.5h316q37 0 47 -36l93 -345l6 -244h8l84 244l222 351q19 30 54 30h332q17 0 24 -13t-2 -27l-582 -929l-82 -441q-5 -24 -29 -24h-316q-17 0 -26.5 11.5t-6.5 27.5l78 426zM811 1567.5q-6 11.5 2 22.5l198 290q22 31 59 31h236q16 0 21.5 -13 t-4.5 -25l-254 -293q-19 -24 -53 -24h-185q-14 0 -20 11.5z" />
<glyph unicode="&#xde;" horiz-adv-x="1261" d="M109 39l239 1354q3 19 16.5 30t32.5 11h297q17 0 26.5 -11.5t6.5 -27.5l-26 -149h173q105 0 190.5 -29t148 -86t87.5 -151.5t4 -215.5l-2 -15q-22 -124 -78.5 -217t-138 -148.5t-177.5 -82.5t-205 -27h-173l-44 -249q-5 -25 -30 -25h-314q-17 0 -26.5 11.5t-6.5 27.5z M584 585h119q180 0 208 158l3 18q14 81 -22 119.5t-126 38.5h-123z" />
<glyph unicode="&#xdf;" horiz-adv-x="1331" d="M68 39l204 1153q28 159 146.5 251.5t290.5 92.5h23q79 0 145 -21t114.5 -62t69 -109t5.5 -156l-1 -5q-9 -54 -32 -103t-45 -79.5t-42.5 -69t-26.5 -72.5v-4q-7 -40 4 -73t34.5 -53t41.5 -30.5t37 -16.5l67 -25q39 -14 68.5 -27.5t58.5 -31t47.5 -36.5t35.5 -44.5 t22 -54.5t7.5 -66t-7.5 -80l-2 -14q-28 -154 -166.5 -242t-323.5 -88h-13q-143 0 -271 39q-21 7 -31.5 25t-6.5 41l33 186q3 17 17 24.5t30 0.5q90 -36 141 -50t100 -14h10q107 0 117 58l1 4q3 13 0.5 22t-14 16.5t-19 10.5t-28.5 10l-69 25q-24 9 -44 17t-42.5 19.5 t-40 23.5t-35.5 28t-30.5 33.5t-23 40.5t-15 48.5t-4.5 57t6 66.5l2 10q12 67 44.5 128t65.5 99.5t64 88.5t39 96l1 6q11 63 -9.5 92.5t-61.5 29.5h-10q-46 0 -80 -32t-47 -103l-193 -1095q-5 -25 -29 -25h-296q-17 0 -26.5 11.5t-6.5 27.5z" />
<glyph unicode="&#xe0;" horiz-adv-x="1087" d="M126 423l36 205q16 89 49.5 164t84.5 134t125.5 92t163.5 33h7q134 0 244 -134l40 81q13 26 41 26h250q17 0 26.5 -11.5t6.5 -27.5l-170 -960q-5 -25 -29 -25h-259q-13 0 -21.5 8.5t-9.5 21.5l-2 58q-139 -115 -284 -115h-7q-118 0 -193 65.5t-97.5 165.5t-1.5 219z M435 1472q-5 11 0.5 20t17.5 9h232q41 0 54 -39l96 -291q3 -10 -2 -17t-15 -7h-182q-32 0 -48 30zM484 420q-29 -160 81 -160h10q58 0 133 35l77 434q-62 35 -121 35h-10q-108 0 -137 -160z" />
<glyph unicode="&#xe1;" horiz-adv-x="1087" d="M126 423l36 205q16 89 49.5 164t84.5 134t125.5 92t163.5 33h7q134 0 244 -134l40 81q13 26 41 26h250q17 0 26.5 -11.5t6.5 -27.5l-170 -960q-5 -25 -29 -25h-259q-13 0 -21.5 8.5t-9.5 21.5l-2 58q-139 -115 -284 -115h-7q-118 0 -193 65.5t-97.5 165.5t-1.5 219z M484 420q-29 -160 81 -160h10q58 0 133 35l77 434q-62 35 -121 35h-10q-108 0 -137 -160zM598.5 1158q-5.5 11 2.5 22l198 290q22 31 59 31h236q16 0 21.5 -12.5t-4.5 -24.5l-254 -293q-20 -24 -53 -24h-186q-14 0 -19.5 11z" />
<glyph unicode="&#xe2;" horiz-adv-x="1087" d="M126 423l36 205q16 89 49.5 164t84.5 134t125.5 92t163.5 33h7q134 0 244 -134l40 81q13 26 41 26h250q17 0 26.5 -11.5t6.5 -27.5l-170 -960q-5 -25 -29 -25h-259q-13 0 -21.5 8.5t-9.5 21.5l-2 58q-139 -115 -284 -115h-7q-118 0 -193 65.5t-97.5 165.5t-1.5 219z M415.5 1159.5q-5.5 12.5 4.5 24.5l260 299q15 18 39 18h162q33 0 49 -30l152 -295q5 -10 0 -19.5t-17 -9.5h-213q-29 0 -37 27l-35 117l-86 -122q-16 -22 -43 -22h-214q-16 0 -21.5 12.5zM484 420q-29 -160 81 -160h10q58 0 133 35l77 434q-62 35 -121 35h-10 q-108 0 -137 -160z" />
<glyph unicode="&#xe3;" horiz-adv-x="1087" d="M126 423l36 205q16 89 49.5 164t84.5 134t125.5 92t163.5 33h7q134 0 244 -134l40 81q13 26 41 26h250q17 0 26.5 -11.5t6.5 -27.5l-170 -960q-5 -25 -29 -25h-259q-13 0 -21.5 8.5t-9.5 21.5l-2 58q-139 -115 -284 -115h-7q-118 0 -193 65.5t-97.5 165.5t-1.5 219z M478 1163q-5 10 1 21q86 160 145.5 216t133.5 56h8q32 0 57 -12t37.5 -27t31 -27t38.5 -12q28 0 68 37q15 15 35 15h96q13 0 18 -10.5t-1 -21.5q-86 -160 -145.5 -216t-133.5 -56h-8q-25 0 -45 8t-32.5 19.5t-24 23t-27 19.5t-35.5 8t-34 -8t-34 -28q-15 -15 -36 -15h-95 q-13 0 -18 10zM484 420q-29 -160 81 -160h10q58 0 133 35l77 434q-62 35 -121 35h-10q-108 0 -137 -160z" />
<glyph unicode="&#xe4;" horiz-adv-x="1087" d="M126 423l36 205q16 89 49.5 164t84.5 134t125.5 92t163.5 33h7q134 0 244 -134l40 81q13 26 41 26h250q17 0 26.5 -11.5t6.5 -27.5l-170 -960q-5 -25 -29 -25h-259q-13 0 -21.5 8.5t-9.5 21.5l-2 58q-139 -115 -284 -115h-7q-118 0 -193 65.5t-97.5 165.5t-1.5 219z M401 1186l48 274q3 19 16.5 30t32.5 11h226q17 0 26.5 -11.5t6.5 -27.5l-49 -274q-3 -19 -16.5 -30t-32.5 -11h-226q-17 0 -26 11.5t-6 27.5zM484 420q-29 -160 81 -160h10q58 0 133 35l77 434q-62 35 -121 35h-10q-108 0 -137 -160zM800 1186l48 274q3 19 16.5 30t32.5 11 h226q17 0 26.5 -11.5t6.5 -27.5l-49 -274q-7 -41 -48 -41h-226q-17 0 -26.5 11.5t-6.5 27.5z" />
<glyph unicode="&#xe5;" horiz-adv-x="1087" d="M126 423l36 205q16 89 49.5 164t84.5 134t125.5 92t163.5 33h7q134 0 244 -134l40 81q13 26 41 26h250q17 0 26.5 -11.5t6.5 -27.5l-170 -960q-5 -25 -29 -25h-259q-13 0 -21.5 8.5t-9.5 21.5l-2 58q-139 -115 -284 -115h-7q-118 0 -193 65.5t-97.5 165.5t-1.5 219z M484 420q-29 -160 81 -160h10q58 0 133 35l77 434q-62 35 -121 35h-10q-108 0 -137 -160zM572 1344q14 76 77.5 129t142.5 53q95 0 151 -70t39 -166q-13 -77 -77 -130.5t-141 -53.5q-96 0 -152.5 70t-39.5 168zM725 1317q-4 -22 9 -37.5t35 -15.5t39 15.5t21 37.5t-8 36.5 t-34 14.5t-40 -14.5t-22 -36.5z" />
<glyph unicode="&#xe6;" horiz-adv-x="1748" d="M126 423l36 205q16 89 49.5 164t84.5 134t125.5 92t163.5 33h7q134 0 244 -134l40 81q13 26 41 26h114q29 0 33 -30v-2q120 59 257 59h22q91 0 166.5 -30.5t128.5 -86.5t74 -144.5t2 -196.5l-22 -134q-1 -11 -10 -18t-20 -7h-548l-1 -12q-16 -86 27 -127t127 -41h10 q88 0 299 67q15 5 26 -4t8 -24l-37 -205q-8 -43 -45 -55q-175 -60 -346 -60h-22q-155 0 -262 71l-4 -19q-5 -25 -29 -25h-123q-13 0 -21.5 8.5t-9.5 21.5l-2 58q-139 -115 -284 -115h-7q-118 0 -193 65.5t-97.5 165.5t-1.5 219zM484 420q-29 -160 81 -160h10q58 0 133 35 l77 434q-62 35 -121 35h-10q-108 0 -137 -160zM1147 637h239q35 154 -90 154h-6q-106 0 -143 -154z" />
<glyph unicode="&#xe7;" horiz-adv-x="907" d="M135 475l17 100q37 217 188.5 346.5t369.5 129.5h23q114 0 258 -57q41 -17 33 -63l-35 -201q-3 -17 -18 -24.5t-31 0.5q-133 58 -191 58h-10q-84 0 -143.5 -53.5t-77.5 -157.5l-14 -82q-18 -103 21 -157t125 -54h10q60 0 215 59q16 6 28 -3t9 -25l-36 -204 q-8 -40 -45 -54q-155 -60 -264 -60l-24 -62q1 0 7.5 0.5t9.5 0.5q65 0 104.5 -53.5t25.5 -137.5q-14 -78 -77.5 -119.5t-163.5 -41.5q-98 0 -173 35q-24 11 -19 40l10 58q3 20 24 13q53 -19 114 -19q69 0 77 43q3 19 -9.5 30t-40.5 11q-25 0 -72 -16q-9 -2 -13 0l-19 9 q-9 4 -5 13l82 214q-155 42 -228 171t-42 313z" />
<glyph unicode="&#xe8;" horiz-adv-x="1042" d="M135 476l18 99q20 114 73 206t127.5 150t164.5 89t188 31h23q91 0 166.5 -30.5t128.5 -86.5t74 -144.5t2 -196.5l-23 -134q-1 -11 -9.5 -18t-19.5 -7h-548l-2 -12q-16 -86 27 -127t127 -41h11q88 0 299 67q15 5 25.5 -4t7.5 -24l-36 -205q-8 -43 -45 -55 q-175 -60 -346 -60h-23q-225 0 -337.5 138t-72.5 365zM484 1472q-5 11 0.5 20t17.5 9h232q42 0 55 -39l96 -291q3 -10 -2.5 -17t-15.5 -7h-182q-32 0 -48 30zM533 637h239q35 154 -90 154h-6q-106 0 -143 -154z" />
<glyph unicode="&#xe9;" horiz-adv-x="1042" d="M135 476l18 99q20 114 73 206t127.5 150t164.5 89t188 31h23q91 0 166.5 -30.5t128.5 -86.5t74 -144.5t2 -196.5l-23 -134q-1 -11 -9.5 -18t-19.5 -7h-548l-2 -12q-16 -86 27 -127t127 -41h11q88 0 299 67q15 5 25.5 -4t7.5 -24l-36 -205q-8 -43 -45 -55 q-175 -60 -346 -60h-23q-225 0 -337.5 138t-72.5 365zM533 637h239q35 154 -90 154h-6q-106 0 -143 -154zM595.5 1158q-5.5 11 2.5 22l198 290q22 31 58 31h237q16 0 21.5 -12.5t-4.5 -24.5l-255 -293q-20 -24 -52 -24h-186q-14 0 -19.5 11z" />
<glyph unicode="&#xea;" horiz-adv-x="1042" d="M135 476l18 99q20 114 73 206t127.5 150t164.5 89t188 31h23q91 0 166.5 -30.5t128.5 -86.5t74 -144.5t2 -196.5l-23 -134q-1 -11 -9.5 -18t-19.5 -7h-548l-2 -12q-16 -86 27 -127t127 -41h11q88 0 299 67q15 5 25.5 -4t7.5 -24l-36 -205q-8 -43 -45 -55 q-175 -60 -346 -60h-23q-225 0 -337.5 138t-72.5 365zM392.5 1159.5q-5.5 12.5 4.5 24.5l260 299q15 18 39 18h163q32 0 48 -30l153 -295q5 -11 -0.5 -20t-17.5 -9h-213q-28 0 -36 27l-35 117l-87 -122q-16 -22 -43 -22h-214q-16 0 -21.5 12.5zM533 637h239q35 154 -90 154 h-6q-106 0 -143 -154z" />
<glyph unicode="&#xeb;" horiz-adv-x="1042" d="M135 476l18 99q20 114 73 206t127.5 150t164.5 89t188 31h23q91 0 166.5 -30.5t128.5 -86.5t74 -144.5t2 -196.5l-23 -134q-1 -11 -9.5 -18t-19.5 -7h-548l-2 -12q-16 -86 27 -127t127 -41h11q88 0 299 67q15 5 25.5 -4t7.5 -24l-36 -205q-8 -43 -45 -55 q-175 -60 -346 -60h-23q-225 0 -337.5 138t-72.5 365zM378 1186l48 274q3 19 16.5 30t32.5 11h226q17 0 26.5 -11.5t6.5 -27.5l-48 -274q-3 -19 -16.5 -30t-32.5 -11h-226q-17 0 -26.5 11.5t-6.5 27.5zM533 637h239q35 154 -90 154h-6q-106 0 -143 -154zM777 1186l49 274 q3 19 16.5 30t32.5 11h226q17 0 26 -11.5t6 -27.5l-48 -274q-3 -19 -16.5 -30t-32.5 -11h-226q-17 0 -26.5 11.5t-6.5 27.5z" />
<glyph unicode="&#xec;" horiz-adv-x="487" d="M72 39l167 944q3 19 16.5 30t32.5 11h279q17 0 26.5 -11.5t6.5 -27.5l-170 -960q-5 -25 -29 -25h-296q-17 0 -26.5 11.5t-6.5 27.5zM152 1472q-5 11 0 20t17 9h233q41 0 54 -39l96 -291q3 -10 -2.5 -17t-15.5 -7h-181q-33 0 -49 30z" />
<glyph unicode="&#xed;" horiz-adv-x="487" d="M72 39l167 944q3 19 16.5 30t32.5 11h279q17 0 26.5 -11.5t6.5 -27.5l-170 -960q-5 -25 -29 -25h-296q-17 0 -26.5 11.5t-6.5 27.5zM334.5 1158q-5.5 11 2.5 22l198 290q22 31 59 31h236q16 0 21.5 -12.5t-4.5 -24.5l-255 -293q-20 -24 -52 -24h-186q-14 0 -19.5 11z" />
<glyph unicode="&#xee;" horiz-adv-x="487" d="M72 39l167 944q3 19 16.5 30t32.5 11h279q17 0 26.5 -11.5t6.5 -27.5l-170 -960q-5 -25 -29 -25h-296q-17 0 -26.5 11.5t-6.5 27.5zM119.5 1159.5q-5.5 12.5 4.5 24.5l260 299q15 18 39 18h163q32 0 48 -30l153 -295q5 -11 -0.5 -20t-17.5 -9h-212q-29 0 -37 27l-35 117 l-87 -122q-16 -22 -43 -22h-214q-16 0 -21.5 12.5z" />
<glyph unicode="&#xef;" horiz-adv-x="487" d="M72 39l167 944q3 19 16.5 30t32.5 11h279q17 0 26.5 -11.5t6.5 -27.5l-170 -960q-5 -25 -29 -25h-296q-17 0 -26.5 11.5t-6.5 27.5zM102 1186l49 274q7 41 48 41h226q17 0 26.5 -11.5t6.5 -27.5l-48 -274q-3 -19 -16.5 -30t-32.5 -11h-226q-17 0 -26.5 11.5t-6.5 27.5z M501 1186l49 274q3 19 16.5 30t32.5 11h226q17 0 26 -11.5t6 -27.5l-48 -274q-3 -19 -16.5 -30t-32.5 -11h-226q-17 0 -26.5 11.5t-6.5 27.5z" />
<glyph unicode="&#xf0;" d="M131 451l25 141q33 185 144 303.5t285 118.5h23q71 0 130.5 -24t97.5 -62l26 153q2 8 2 11l-91 -57q-12 -8 -25 -4.5t-20 16.5l-78 140q-14 27 11 42l52 32q-4 0 -12.5 0.5t-13.5 0.5h-11q-87 0 -257 -56q-22 -8 -38 5.5t-12 36.5l34 193q6 35 41 44q7 2 30 8t30.5 7.5 t28.5 6.5t31 7t31 6t35 5.5t36 4t41.5 3.5t43.5 2t50 1h9q134 0 245 -63l105 64q12 8 24.5 5t19.5 -16l78 -141q14 -27 -10 -41l-62 -38q45 -103 21 -235l-117 -649q-26 -147 -109.5 -250.5t-194.5 -151t-240 -47.5h-23q-94 0 -177 32t-143.5 90.5t-87.5 151t-8 204.5z M493 420q-14 -78 12.5 -119t86.5 -41h10q114 0 143 160l48 272q-62 35 -121 35h-10q-55 0 -92 -40.5t-51 -119.5z" />
<glyph unicode="&#xf1;" horiz-adv-x="1079" d="M68 39l167 944q3 19 16.5 30t32.5 11h242q13 0 21.5 -8.5t9.5 -21.5l2 -61q89 67 157 92.5t140 25.5h26q137 0 214.5 -91.5t51.5 -241.5l-122 -693q-5 -25 -29 -25h-296q-17 0 -26.5 11.5t-6.5 27.5l108 610q10 61 -9.5 88t-72.5 27h-10q-58 0 -134 -35l-124 -704 q-5 -25 -29 -25h-296q-17 0 -26.5 11.5t-6.5 27.5zM446 1163q-5 10 1 21q86 160 145 216t133 56h8q32 0 57 -12t38 -27t31.5 -27t38.5 -12q27 0 67 37q15 15 36 15h95q13 0 18 -10.5t-1 -21.5q-86 -160 -145 -216t-133 -56h-9q-25 0 -45 8t-32.5 19.5t-24 23t-27 19.5 t-35.5 8t-34 -8t-34 -28q-15 -15 -35 -15h-95q-13 0 -18 10z" />
<glyph unicode="&#xf2;" horiz-adv-x="1103" d="M131 450l26 151q25 143 110 247t200.5 153.5t247.5 49.5h22q97 0 181 -33.5t143.5 -93t85.5 -151t7 -199.5l-27 -151q-19 -108 -72.5 -195t-129 -142t-166.5 -84t-189 -29h-23q-97 0 -181 33.5t-143 93t-85 151t-7 199.5zM485 1472q-5 11 0.5 20t17.5 9h232q41 0 54 -39 l96 -291q3 -10 -2.5 -17t-15.5 -7h-181q-33 0 -49 30zM494 420q-14 -78 12.5 -119t86.5 -41h10q60 0 100.5 41t54.5 119l33 184q14 78 -12.5 119t-86.5 41h-10q-60 0 -101 -41t-55 -119z" />
<glyph unicode="&#xf3;" horiz-adv-x="1103" d="M130 450l27 151q19 108 72.5 195t129 142t166.5 84t189 29h23q97 0 181 -33.5t143.5 -93t85.5 -151t7 -199.5l-27 -151q-19 -108 -72.5 -195t-129 -142t-166.5 -84t-189 -29h-23q-97 0 -181 33.5t-143.5 93t-85.5 151t-7 199.5zM494 420q-14 -78 12.5 -119t86.5 -41h10 q60 0 100.5 41t54.5 119l33 184q14 78 -12.5 119t-86.5 41h-11q-60 0 -100.5 -41t-54.5 -119zM646.5 1158q-5.5 11 2.5 22l198 290q22 31 58 31h237q16 0 21.5 -12.5t-4.5 -24.5l-255 -293q-19 -24 -52 -24h-186q-14 0 -19.5 11z" />
<glyph unicode="&#xf4;" horiz-adv-x="1103" d="M130 450l27 151q19 108 72.5 195t129 142t166.5 84t189 29h23q97 0 181 -33.5t143.5 -93t85.5 -151t7 -199.5l-27 -151q-19 -108 -72.5 -195t-129 -142t-166.5 -84t-189 -29h-23q-97 0 -181 33.5t-143.5 93t-85.5 151t-7 199.5zM423.5 1159.5q-5.5 12.5 4.5 24.5l260 299 q15 18 39 18h162q33 0 49 -30l153 -295q5 -11 -0.5 -20t-17.5 -9h-213q-29 0 -37 27l-35 117l-86 -122q-16 -22 -43 -22h-214q-16 0 -21.5 12.5zM494 420q-14 -78 12.5 -119t86.5 -41h10q60 0 100.5 41t54.5 119l33 184q14 78 -12.5 119t-86.5 41h-10q-60 0 -101 -41 t-55 -119z" />
<glyph unicode="&#xf5;" horiz-adv-x="1103" d="M130 450l27 151q19 108 72.5 195t129 142t166.5 84t189 29h23q97 0 181 -33.5t143.5 -93t85.5 -151t7 -199.5l-27 -151q-19 -108 -72.5 -195t-129 -142t-166.5 -84t-189 -29h-23q-97 0 -181 33.5t-143.5 93t-85.5 151t-7 199.5zM458 1163q-5 10 1 21q86 160 145 216 t133 56h8q32 0 57 -12t38 -27t31.5 -27t38.5 -12q27 0 67 37q15 15 36 15h95q13 0 18 -10.5t-1 -21.5q-86 -160 -145 -216t-133 -56h-8q-31 0 -54.5 12t-35.5 27t-31.5 27t-43.5 12q-20 0 -33.5 -8t-33.5 -28q-15 -15 -36 -15h-95q-13 0 -18 10zM494 420q-14 -78 12.5 -119 t86.5 -41h10q60 0 100.5 41t54.5 119l33 184q14 78 -12.5 119t-86.5 41h-10q-60 0 -101 -41t-55 -119z" />
<glyph unicode="&#xf6;" horiz-adv-x="1103" d="M130 450l27 151q19 108 72.5 195t129 142t166.5 84t189 29h23q97 0 181 -33.5t143.5 -93t85.5 -151t7 -199.5l-27 -151q-19 -108 -72.5 -195t-129 -142t-166.5 -84t-189 -29h-23q-97 0 -181 33.5t-143.5 93t-85.5 151t-7 199.5zM409 1186l48 274q3 19 16.5 30t32.5 11 h226q17 0 26.5 -11.5t6.5 -27.5l-49 -274q-7 -41 -48 -41h-226q-17 0 -26.5 11.5t-6.5 27.5zM494 420q-14 -78 12.5 -119t86.5 -41h10q60 0 100.5 41t54.5 119l33 184q14 78 -12.5 119t-86.5 41h-10q-60 0 -101 -41t-55 -119zM808 1186l49 274q7 41 48 41h226 q17 0 26.5 -11.5t6.5 -27.5l-48 -274q-3 -19 -16.5 -30t-32.5 -11h-226q-17 0 -26.5 11.5t-6.5 27.5z" />
<glyph unicode="&#xf7;" horiz-adv-x="1032" d="M134 526l34 197q3 19 16.5 30t32.5 11h869q17 0 26.5 -11.5t6.5 -27.5l-35 -197q-7 -41 -48 -41h-869q-17 0 -26.5 11.5t-6.5 27.5zM343 39l48 274q3 19 16.5 30t32.5 11h279q17 0 26.5 -11.5t6.5 -27.5l-51 -290q-5 -25 -30 -25h-296q-17 0 -26 11.5t-6 27.5zM501 936 l48 274q3 19 16.5 30t32.5 11h279q17 0 26.5 -11.5t6.5 -27.5l-51 -290q-5 -25 -29 -25h-296q-17 0 -26.5 11.5t-6.5 27.5z" />
<glyph unicode="&#xf8;" horiz-adv-x="1103" d="M31 13.5q-6 13.5 5 25.5l132 136q-64 119 -37 275l26 151q19 108 72.5 195t129 142t166.5 84t189 29h23q122 0 225 -53l3 4q22 22 51 22h215q17 0 22.5 -13t-5.5 -25l-131 -138q64 -119 37 -274l-27 -151q-19 -108 -72.5 -195t-129 -142t-166.5 -84t-189 -29h-23 q-117 0 -215 48q-21 -21 -49 -21h-230q-16 0 -22 13.5zM514 534l217 225q-15 5 -39 5h-11q-60 0 -100.5 -41t-54.5 -119zM562 263q14 -3 31 -3h10q60 0 100.5 41t54.5 119l11 61z" />
<glyph unicode="&#xf9;" horiz-adv-x="1060" d="M111 306l120 677q7 41 48 41h280q17 0 26.5 -11.5t6.5 -27.5l-108 -610q-10 -61 6 -88t62 -27h10q57 0 133 35l124 704q5 25 30 25h295q17 0 26.5 -11.5t6.5 -27.5l-169 -960q-5 -25 -29 -25h-259q-13 0 -21.5 8.5t-9.5 21.5l-2 61q-89 -67 -157 -92.5t-140 -25.5h-27 q-136 0 -207.5 91t-44.5 242zM444 1472q-5 11 0.5 20t17.5 9h232q41 0 54 -39l96 -291q3 -10 -2.5 -17t-15.5 -7h-181q-33 0 -49 30z" />
<glyph unicode="&#xfa;" horiz-adv-x="1060" d="M111 306l120 677q7 41 48 41h280q17 0 26 -11.5t6 -27.5l-107 -610q-10 -61 6 -88t62 -27h10q57 0 133 35l124 704q5 25 30 25h295q17 0 26.5 -11.5t6.5 -27.5l-169 -960q-5 -25 -29 -25h-259q-13 0 -21.5 8.5t-9.5 21.5l-2 61q-89 -67 -157 -92.5t-140 -25.5h-27 q-136 0 -207.5 91t-44.5 242zM617.5 1158q-5.5 11 2.5 22l198 290q22 31 58 31h237q16 0 21.5 -12.5t-4.5 -24.5l-255 -293q-20 -24 -52 -24h-186q-14 0 -19.5 11z" />
<glyph unicode="&#xfb;" horiz-adv-x="1060" d="M111 306l120 677q7 41 48 41h280q17 0 26 -11.5t6 -27.5l-107 -610q-10 -61 6 -88t62 -27h10q57 0 133 35l124 704q5 25 30 25h295q17 0 26.5 -11.5t6.5 -27.5l-169 -960q-5 -25 -29 -25h-259q-13 0 -21.5 8.5t-9.5 21.5l-2 61q-89 -67 -157 -92.5t-140 -25.5h-27 q-136 0 -207.5 91t-44.5 242zM400.5 1159.5q-5.5 12.5 4.5 24.5l260 299q15 18 39 18h162q33 0 49 -30l153 -295q5 -11 -0.5 -20t-17.5 -9h-213q-29 0 -37 27l-35 117l-86 -122q-16 -22 -43 -22h-214q-16 0 -21.5 12.5z" />
<glyph unicode="&#xfc;" horiz-adv-x="1060" d="M111 306l120 677q7 41 48 41h280q17 0 26 -11.5t6 -27.5l-107 -610q-10 -61 6 -88t62 -27h10q57 0 133 35l124 704q5 25 30 25h295q17 0 26.5 -11.5t6.5 -27.5l-169 -960q-5 -25 -29 -25h-259q-13 0 -21.5 8.5t-9.5 21.5l-2 61q-89 -67 -157 -92.5t-140 -25.5h-27 q-136 0 -207.5 91t-44.5 242zM386 1186l49 274q3 19 16.5 30t32.5 11h226q17 0 26 -11.5t6 -27.5l-48 -274q-3 -19 -16.5 -30t-32.5 -11h-226q-17 0 -26.5 11.5t-6.5 27.5zM786 1186l48 274q3 19 16.5 30t32.5 11h226q17 0 26.5 -11.5t6.5 -27.5l-49 -274q-3 -19 -16.5 -30 t-32.5 -11h-226q-17 0 -26 11.5t-6 27.5z" />
<glyph unicode="&#xfd;" d="M53 -284l36 199q3 16 15 23t28 2q90 -28 144 -28h4q71 0 101 61l13 27h-35q-12 0 -19.5 7.5t-9.5 18.5l-131 948q-3 21 9.5 35.5t33.5 14.5h270q20 0 34 -12.5t16 -32.5l36 -305l-2 -375h4l125 375l150 313q18 37 58 37h295q15 0 22.5 -11.5t0.5 -24.5l-501 -1030 q-36 -73 -74.5 -127.5t-91.5 -102t-123.5 -72.5t-155.5 -25h-16q-101 0 -204 30q-18 5 -27 20.5t-5 34.5zM642 1158q-6 11 2 22l198 290q22 31 59 31h236q16 0 21.5 -12.5t-4.5 -24.5l-254 -293q-19 -24 -53 -24h-185q-14 0 -20 11z" />
<glyph unicode="&#xfe;" horiz-adv-x="1097" d="M12 -303l312 1771q3 19 16.5 30t32.5 11h279q17 0 26.5 -11.5t6.5 -27.5l-96 -496q102 77 242 77h23q72 0 129.5 -24.5t93.5 -67t58.5 -100t24.5 -123t-8 -135.5l-31 -178q-38 -215 -169 -332.5t-304 -117.5h-23q-108 0 -183 67l-72 -358q-5 -24 -29 -24h-296 q-17 0 -26.5 11.5t-6.5 27.5zM479 299q67 -39 120 -39h10q55 0 92 40.5t51 119.5l32 184q14 78 -8.5 119t-77.5 41h-10q-57 0 -133 -35z" />
<glyph unicode="&#xff;" d="M53 -284l36 199q3 16 15 23t28 2q90 -28 144 -28h4q71 0 101 61l13 27h-35q-26 0 -29 26l-131 948q-3 21 9.5 35.5t33.5 14.5h270q20 0 34 -12.5t16 -32.5l36 -305l-2 -375h4l125 375l150 313q18 37 58 37h295q15 0 22.5 -11.5t0.5 -24.5l-501 -1030 q-36 -73 -74.5 -127.5t-91.5 -102t-123.5 -72.5t-155.5 -25h-16q-101 0 -204 30q-18 5 -27 20.5t-5 34.5zM403 1186l48 274q3 19 16.5 30t32.5 11h226q17 0 26.5 -11.5t6.5 -27.5l-49 -274q-3 -19 -16.5 -30t-32.5 -11h-226q-17 0 -26 11.5t-6 27.5zM802 1186l48 274 q3 19 16.5 30t32.5 11h226q17 0 26.5 -11.5t6.5 -27.5l-48 -274q-3 -19 -16.5 -30t-32.5 -11h-226q-17 0 -26.5 11.5t-6.5 27.5z" />
<glyph unicode="&#x152;" horiz-adv-x="1896" d="M191.5 375.5q-15.5 98.5 5.5 219.5l48 271q26 146 93.5 262t160.5 187t201.5 108t223.5 37h31q192 0 327 -106l7 39q7 41 48 41h721q17 0 26.5 -11.5t6.5 -27.5l-46 -265q-5 -24 -30 -24h-536l-38 -215h460q17 0 26.5 -11.5t6.5 -27.5l-47 -264q-5 -25 -29 -25h-475 l-41 -235h521q17 0 26.5 -11.5t6.5 -27.5l-46 -264q-5 -25 -30 -25h-737q-17 0 -26.5 11.5t-6.5 27.5l4 22q-155 -88 -339 -88h-30q-91 0 -173 26t-149 77t-111.5 126t-60 173.5zM577 545q-21 -116 20.5 -180t141.5 -64h15q100 0 163 64t84 180l61 344q20 115 -21 179.5 t-141 64.5h-14q-100 0 -164 -65t-84 -179z" />
<glyph unicode="&#x153;" horiz-adv-x="1675" d="M130 450l27 151q19 108 72.5 195t129 142t166.5 84t189 29h23q169 0 287 -93q140 93 315 93h23q91 0 166.5 -30.5t128.5 -86.5t74 -144.5t2 -196.5l-23 -134q-1 -11 -9.5 -18t-19.5 -7h-548l-2 -12q-16 -86 27 -127t127 -41h10q89 0 300 67q15 5 25.5 -4t7.5 -24 l-36 -205q-8 -43 -45 -55q-175 -60 -346 -60h-23q-177 0 -288 89q-142 -89 -320 -89h-23q-97 0 -181 33.5t-143.5 93t-85.5 151t-7 199.5zM494 420q-14 -78 12.5 -119t86.5 -41h10q60 0 100.5 41t54.5 119l33 184q14 78 -12.5 119t-86.5 41h-11q-60 0 -100.5 -41t-54.5 -119 zM1166 637h239q35 154 -90 154h-7q-105 0 -142 -154z" />
<glyph unicode="&#x178;" horiz-adv-x="1296" d="M290 1390q-5 17 5 30.5t28 13.5h316q37 0 47 -36l93 -345l6 -244h8l84 244l222 351q19 30 54 30h332q17 0 24 -13t-2 -27l-582 -929l-82 -441q-5 -24 -29 -24h-316q-17 0 -26.5 11.5t-6.5 27.5l79 426zM575 1595l49 275q7 41 48 41h226q17 0 26.5 -11.5t6.5 -27.5 l-48 -275q-3 -19 -16.5 -30t-32.5 -11h-226q-17 0 -26.5 11.5t-6.5 27.5zM975 1595l48 275q3 19 16.5 30t32.5 11h226q17 0 26 -11.5t6 -27.5l-48 -275q-3 -19 -16.5 -30t-32.5 -11h-226q-17 0 -26 11.5t-6 27.5z" />
<glyph unicode="&#x2c6;" horiz-adv-x="768" d="M327.5 1569q-5.5 13 4.5 25l260 299q15 18 39 18h162q33 0 49 -30l153 -295q5 -11 -0.5 -20.5t-17.5 -9.5h-213q-29 0 -37 28l-35 116l-86 -121q-16 -23 -43 -23h-214q-16 0 -21.5 13z" />
<glyph unicode="&#x2dc;" horiz-adv-x="718" d="M314 1573q-5 10 1 21q86 160 145 216t133 56h8q32 0 57 -12t38 -27t31.5 -27t38.5 -12q27 0 67 37q14 14 36 14h95q13 0 18 -10t-1 -21q-86 -160 -145 -216t-133 -56h-8q-31 0 -54.5 12t-35.5 27t-31.5 27t-43.5 12q-20 0 -33 -8t-34 -29q-14 -14 -36 -14h-95 q-13 0 -18 10z" />
<glyph unicode="&#x2000;" horiz-adv-x="967" />
<glyph unicode="&#x2001;" horiz-adv-x="1935" />
<glyph unicode="&#x2002;" horiz-adv-x="967" />
<glyph unicode="&#x2003;" horiz-adv-x="1935" />
<glyph unicode="&#x2004;" horiz-adv-x="645" />
<glyph unicode="&#x2005;" horiz-adv-x="483" />
<glyph unicode="&#x2006;" horiz-adv-x="322" />
<glyph unicode="&#x2007;" horiz-adv-x="322" />
<glyph unicode="&#x2008;" horiz-adv-x="241" />
<glyph unicode="&#x2009;" horiz-adv-x="387" />
<glyph unicode="&#x200a;" horiz-adv-x="107" />
<glyph unicode="&#x2010;" horiz-adv-x="720" d="M134 526l34 197q3 19 16.5 30t32.5 11h558q17 0 26.5 -11.5t6.5 -27.5l-38 -213q-5 -25 -29 -25h-574q-17 0 -26.5 11.5t-6.5 27.5z" />
<glyph unicode="&#x2011;" horiz-adv-x="720" d="M134 526l34 197q3 19 16.5 30t32.5 11h558q17 0 26.5 -11.5t6.5 -27.5l-38 -213q-5 -25 -29 -25h-574q-17 0 -26.5 11.5t-6.5 27.5z" />
<glyph unicode="&#x2012;" horiz-adv-x="720" d="M134 526l34 197q3 19 16.5 30t32.5 11h558q17 0 26.5 -11.5t6.5 -27.5l-38 -213q-5 -25 -29 -25h-574q-17 0 -26.5 11.5t-6.5 27.5z" />
<glyph unicode="&#x2013;" horiz-adv-x="1032" d="M134 526l34 197q3 19 16.5 30t32.5 11h869q17 0 26.5 -11.5t6.5 -27.5l-37 -213q-5 -25 -30 -25h-885q-17 0 -26.5 11.5t-6.5 27.5z" />
<glyph unicode="&#x2014;" horiz-adv-x="1183" d="M134 526l34 197q3 19 16.5 30t32.5 11h1021q17 0 26.5 -11.5t6.5 -27.5l-38 -213q-5 -25 -29 -25h-1038q-17 0 -26 11.5t-6 27.5z" />
<glyph unicode="&#x2018;" horiz-adv-x="454" d="M177 776l43 261q4 21 17 44l195 326q16 27 46 27h156q16 0 23 -12.5t-1 -26.5l-181 -303h85q17 0 26.5 -11.5t6.5 -27.5l-51 -291q-5 -25 -29 -25h-303q-16 0 -26 11.5t-7 27.5z" />
<glyph unicode="&#x2019;" horiz-adv-x="454" d="M180 749.5q-7 12.5 1 26.5l181 303h-85q-17 0 -26.5 11.5t-6.5 27.5l49 275q7 41 48 41h286q16 0 26 -11.5t7 -27.5l-43 -264q-3 -18 -15 -39l-196 -328q-16 -27 -47 -27h-156q-16 0 -23 12.5z" />
<glyph unicode="&#x201a;" horiz-adv-x="454" d="M-10 -329.5q-7 12.5 1 26.5l181 303h-85q-17 0 -26.5 11.5t-6.5 27.5l48 274q3 19 16.5 30t32.5 11h286q17 0 26.5 -11t6.5 -27l-44 -264q-3 -20 -14 -39l-197 -329q-15 -26 -46 -26h-156q-16 0 -23 12.5z" />
<glyph unicode="&#x201c;" horiz-adv-x="933" d="M177 776l43 261q4 21 17 44l195 326q16 27 46 27h156q16 0 23 -12.5t-1 -26.5l-181 -303h85q17 0 26.5 -11.5t6.5 -27.5l-51 -291q-5 -25 -29 -25h-303q-16 0 -26 11.5t-7 27.5zM657 776l43 261q4 24 16 44l195 326q16 27 46 27h156q16 0 23 -12.5t-1 -26.5l-180 -303h85 q17 0 26 -11.5t6 -27.5l-51 -291q-5 -25 -29 -25h-303q-16 0 -25.5 11.5t-6.5 27.5z" />
<glyph unicode="&#x201d;" horiz-adv-x="933" d="M180 749.5q-7 12.5 1 26.5l181 303h-85q-17 0 -26.5 11.5t-6.5 27.5l49 275q7 41 48 41h286q16 0 26 -11.5t7 -27.5l-43 -264q-3 -18 -15 -39l-196 -328q-16 -27 -47 -27h-156q-16 0 -23 12.5zM660 749.5q-7 12.5 1 26.5l180 303h-85q-17 0 -26 11.5t-6 27.5l48 275 q3 19 16.5 30t32.5 11h286q16 0 25.5 -11.5t6.5 -27.5l-43 -264q-3 -20 -14 -39l-197 -328q-16 -27 -46 -27h-156q-16 0 -23 12.5z" />
<glyph unicode="&#x201e;" horiz-adv-x="933" d="M-10 -329.5q-7 12.5 1 26.5l181 303h-85q-17 0 -26.5 11.5t-6.5 27.5l48 274q3 19 16.5 30t32.5 11h286q17 0 26.5 -11t6.5 -27l-44 -264q-3 -20 -14 -39l-197 -329q-15 -26 -46 -26h-156q-16 0 -23 12.5zM469 -329.5q-7 12.5 1 26.5l181 303h-85q-17 0 -26.5 11.5 t-6.5 27.5l49 274q7 41 48 41h286q17 0 26.5 -11t6.5 -27l-44 -264q-3 -20 -14 -39l-196 -329q-15 -26 -47 -26h-156q-16 0 -23 12.5z" />
<glyph unicode="&#x2022;" horiz-adv-x="786" d="M149 613q24 136 137 230.5t250 94.5q101 0 178.5 -51t112.5 -138.5t17 -189.5q-24 -136 -137 -231t-250 -95q-154 0 -245 112t-63 268z" />
<glyph unicode="&#x2026;" horiz-adv-x="1572" d="M48 39l48 274q3 19 16.5 30t32.5 11h279q17 0 26.5 -11.5t6.5 -27.5l-51 -290q-5 -25 -30 -25h-295q-17 0 -26.5 11.5t-6.5 27.5zM613 39l48 274q3 19 16.5 30t32.5 11h280q17 0 26 -11.5t6 -27.5l-51 -290q-5 -25 -29 -25h-296q-17 0 -26.5 11.5t-6.5 27.5zM1178 39 l49 274q7 41 48 41h280q17 0 26 -11.5t6 -27.5l-51 -290q-5 -25 -29 -25h-296q-17 0 -26.5 11.5t-6.5 27.5z" />
<glyph unicode="&#x202f;" horiz-adv-x="387" />
<glyph unicode="&#x2039;" horiz-adv-x="538" d="M135 520l9 74q3 29 22 48l205 218q15 17 37 17h176q28 0 39 -21.5t-6 -43.5l-187 -255l97 -272q7 -19 -3.5 -33t-30.5 -14h-180q-32 0 -47 26l-120 205q-14 25 -11 51z" />
<glyph unicode="&#x203a;" horiz-adv-x="538" d="M111 259q-11 21 6 43l187 255l-96 272q-7 19 3 33.5t30 14.5h181q30 0 46 -27l123 -209q12 -22 9 -41l-10 -85q-3 -24 -17 -39l-209 -222q-15 -16 -38 -16h-176q-28 0 -39 21z" />
<glyph unicode="&#x205f;" horiz-adv-x="483" />
<glyph unicode="&#x20ac;" horiz-adv-x="1310" d="M130 504l23 129q7 41 48 41h179l15 90h-180q-17 0 -26 11.5t-6 27.5l22 129q3 19 16.5 30t32.5 11h191q56 153 165.5 265t244 167t279.5 55h30q177 0 303 -55q38 -18 30 -61l-43 -245q-3 -17 -17 -24.5t-31 -0.5q-79 34 -129.5 46.5t-117.5 12.5h-8q-94 0 -170.5 -41.5 t-125.5 -118.5h289q17 0 26 -11.5t6 -27.5l-22 -129q-3 -19 -16.5 -30t-32.5 -11h-320l-16 -90h322q17 0 26.5 -11.5t6.5 -27.5l-23 -129q-3 -19 -16.5 -30t-32.5 -11h-288q21 -78 82.5 -121t157.5 -43h8q68 0 123.5 13t147.5 47q16 6 27.5 -3t8.5 -25l-43 -243 q-8 -45 -46 -60q-140 -57 -305 -57h-31q-141 0 -256.5 55.5t-190 168.5t-83.5 268h-201q-17 0 -26.5 11.5t-6.5 27.5z" />
<glyph unicode="&#x2122;" horiz-adv-x="1583" d="M283 1372l18 103q3 19 16.5 30t32.5 11h545q17 0 26.5 -11.5t6.5 -27.5l-21 -119q-5 -25 -29 -25h-184l-105 -592q-5 -24 -29 -24h-146q-17 0 -26.5 11.5t-6.5 27.5l102 577h-167q-17 0 -26.5 11.5t-6.5 27.5zM864 755l127 720q3 19 16.5 30t32.5 11h179q37 0 47 -37 l72 -291h8l184 302q15 26 46 26h194q17 0 26 -11.5t6 -27.5l-129 -736q-5 -24 -29 -24h-151q-17 0 -26 11.5t-6 27.5l59 325l71 150h-34l-75 -150l-97 -140q-15 -23 -44 -23h-67q-36 0 -46 34l-39 129l-31 150h-29l1 -150l-52 -340q-1 -11 -9.5 -18t-19.5 -7h-152 q-17 0 -26.5 11.5t-6.5 27.5z" />
<glyph unicode="&#x25fc;" horiz-adv-x="1024" d="M0 0v1024h1024v-1024h-1024z" />
</font>
</defs>
</svg>
